<svg width="270" height="270" viewBox="0 0 270 270" fill="none" xmlns="http://www.w3.org/2000/svg">
<g clip-path="url(#clip0_326_3978)">
<path d="M135 269.87C209.487 269.87 269.87 209.487 269.87 135C269.87 60.5131 209.487 0.129639 135 0.129639C60.5131 0.129639 0.129639 60.5131 0.129639 135C0.129639 209.487 60.5131 269.87 135 269.87Z" fill="white" stroke="#282828" stroke-width="0.955753"/>
<mask id="mask0_326_3978" style="mask-type:alpha" maskUnits="userSpaceOnUse" x="0" y="0" width="270" height="270">
<path d="M134.999 268.831C208.912 268.831 268.831 208.913 268.831 135C268.831 61.0868 208.912 1.16846 134.999 1.16846C61.0861 1.16846 1.16772 61.0868 1.16772 135C1.16772 208.913 61.0861 268.831 134.999 268.831Z" fill="white" stroke="#282828" stroke-width="0.955753"/>
</mask>
<g mask="url(#mask0_326_3978)">
<path d="M104.005 134.447H69.95V164.452H104.005V134.447Z" fill="white"/>
<path d="M104.005 165.069H69.9497C69.787 165.069 69.6311 165.004 69.5162 164.888C69.4013 164.773 69.3367 164.616 69.3367 164.452V134.447C69.3367 134.283 69.4013 134.126 69.5162 134.01C69.6311 133.895 69.787 133.83 69.9497 133.83H104.005C104.167 133.83 104.323 133.895 104.438 134.01C104.553 134.126 104.618 134.283 104.618 134.447V164.452C104.618 164.616 104.553 164.773 104.438 164.888C104.323 165.004 104.167 165.069 104.005 165.069ZM70.5628 163.835H103.391V135.064H70.5628V163.835Z" fill="#D1D3D4"/>
<path d="M104.019 164.44H115.436V134.435H104.019V164.44Z" fill="white"/>
<path d="M115.437 165.069H104.008C103.846 165.066 103.692 165 103.578 164.885C103.464 164.77 103.398 164.614 103.395 164.452V134.447C103.395 134.283 103.459 134.126 103.575 134.01C103.689 133.895 103.845 133.83 104.008 133.83H115.437C115.6 133.83 115.756 133.895 115.871 134.01C115.986 134.126 116.051 134.283 116.051 134.447V164.452C116.047 164.614 115.982 164.77 115.867 164.885C115.753 165 115.599 165.066 115.437 165.069ZM104.621 163.835H114.824V135.064H104.621V163.835Z" fill="#D1D3D4"/>
<path d="M89.2178 134.447H84.7542V142.544H89.2178V134.447Z" fill="white"/>
<path d="M89.2159 143.148H84.7644C84.6017 143.148 84.4458 143.083 84.3309 142.968C84.216 142.852 84.1514 142.695 84.1514 142.531V134.447C84.1514 134.283 84.216 134.126 84.3309 134.01C84.4458 133.895 84.6017 133.83 84.7644 133.83H89.2159C89.3786 133.83 89.5345 133.895 89.6494 134.01C89.7646 134.126 89.8292 134.283 89.8292 134.447V142.531C89.8292 142.695 89.7646 142.852 89.6494 142.968C89.5345 143.083 89.3786 143.148 89.2159 143.148ZM85.3775 141.914H88.6028V135.064H85.3775V141.914Z" fill="#D1D3D4"/>
<path d="M78.5965 157.8H73.4217C73.259 157.8 73.1031 157.735 72.9879 157.619C72.873 157.503 72.8083 157.346 72.8083 157.183C72.8116 157.02 72.8771 156.865 72.9914 156.75C73.1058 156.635 73.2601 156.568 73.4217 156.565H78.5965C78.7584 156.568 78.9124 156.635 79.0268 156.75C79.1411 156.865 79.2066 157.02 79.2098 157.183C79.2098 157.346 79.1452 157.503 79.0303 157.619C78.9151 157.735 78.7592 157.8 78.5965 157.8Z" fill="#D1D3D4"/>
<path d="M68.7244 144.012C68.5003 144.014 68.2803 143.954 68.088 143.838C67.8954 143.723 67.7381 143.557 67.633 143.358L63.6474 135.878C63.5029 135.611 63.4619 135.299 63.5319 135.003C63.6023 134.707 63.7788 134.447 64.0277 134.274L87.3275 117.722C87.4601 117.628 87.6097 117.561 87.7681 117.526C87.9265 117.49 88.0903 117.487 88.25 117.516C88.4097 117.545 88.5621 117.605 88.6984 117.693C88.8348 117.782 88.9524 117.896 89.0445 118.031C89.2306 118.298 89.3042 118.628 89.249 118.95C89.1939 119.271 89.0143 119.558 88.75 119.746L66.2841 135.668L69.7667 142.185C69.8691 142.374 69.9209 142.586 69.9171 142.8C69.9133 143.014 69.8538 143.224 69.7449 143.409C69.636 143.593 69.4812 143.746 69.2959 143.852C69.1104 143.958 68.9007 144.013 68.6875 144.012H68.7244Z" fill="#282828"/>
<path d="M109.733 144.012C109.527 144.014 109.325 143.962 109.144 143.864C109.002 143.787 108.877 143.682 108.775 143.555C108.673 143.429 108.598 143.284 108.552 143.128C108.506 142.972 108.492 142.808 108.509 142.646C108.527 142.485 108.576 142.328 108.653 142.186L112.124 135.669L89.6699 119.747C89.5379 119.654 89.4255 119.535 89.3388 119.398C89.2522 119.261 89.1935 119.108 89.1655 118.948C89.1375 118.789 89.1413 118.625 89.1761 118.466C89.2111 118.308 89.2769 118.158 89.3695 118.025C89.4621 117.892 89.5798 117.779 89.7158 117.692C89.8519 117.605 90.0038 117.545 90.1627 117.517C90.3216 117.489 90.4843 117.493 90.6418 117.528C90.7991 117.563 90.9482 117.629 91.0802 117.722L114.38 134.274C114.629 134.447 114.805 134.707 114.876 135.003C114.946 135.299 114.905 135.611 114.76 135.879L110.775 143.358C110.674 143.55 110.524 143.711 110.341 143.826C110.158 143.941 109.948 144.005 109.733 144.012Z" fill="#282828"/>
<path d="M89.2147 118.759C88.8893 118.759 88.5774 118.63 88.3474 118.398C88.1176 118.166 87.9883 117.853 87.9883 117.525V92.3461C87.9883 92.0188 88.1176 91.7048 88.3474 91.4734C88.5774 91.2419 88.8893 91.1118 89.2147 91.1118C89.5398 91.1118 89.8517 91.2419 90.0817 91.4734C90.3118 91.7048 90.4408 92.0188 90.4408 92.3461V117.525C90.4408 117.853 90.3118 118.166 90.0817 118.398C89.8517 118.63 89.5398 118.759 89.2147 118.759Z" fill="#282828"/>
<path d="M94.9928 89.5193H83.4531V101.134H94.9928V89.5193Z" fill="white"/>
<path d="M94.9928 101.751H83.4532C83.2904 101.751 83.1345 101.686 83.0196 101.57C82.9045 101.455 82.8401 101.298 82.8401 101.134V89.5195C82.8431 89.3568 82.9088 89.2017 83.0229 89.0868C83.1373 88.9716 83.2915 88.9056 83.4532 88.9023H94.9928C95.1555 88.9023 95.3114 88.9675 95.4263 89.0833C95.5412 89.199 95.6059 89.356 95.6059 89.5195V101.134C95.6059 101.298 95.5412 101.455 95.4263 101.57C95.3114 101.686 95.1555 101.751 94.9928 101.751ZM84.0662 100.517H94.3797V90.1366H84.0662V100.517Z" fill="#282828"/>
<path d="M94.5138 81.2998H46.9083C43.0615 81.2998 39.9429 84.4385 39.9429 88.3103C39.9429 92.1821 43.0615 95.3211 46.9083 95.3211H94.5138C98.3609 95.3211 101.48 92.1821 101.48 88.3103C101.48 84.4385 98.3609 81.2998 94.5138 81.2998Z" fill="white"/>
<path d="M94.5165 95.9502H46.9231C44.9641 95.8709 43.1119 95.0318 41.7537 93.609C40.3956 92.186 39.6372 90.2894 39.6372 88.3163C39.6372 86.3432 40.3956 84.4464 41.7537 83.0234C43.1119 81.6006 44.9641 80.7615 46.9231 80.6822H94.5165C95.5381 80.6409 96.5575 80.8077 97.5136 81.1727C98.4698 81.5378 99.3425 82.0933 100.08 82.8063C100.817 83.5194 101.404 84.375 101.805 85.3216C102.206 86.2685 102.412 87.2871 102.412 88.3163C102.412 89.3453 102.206 90.3639 101.805 91.3108C101.404 92.2577 100.817 93.113 100.08 93.8261C99.3425 94.5391 98.4698 95.0946 97.5136 95.4597C96.5575 95.8247 95.5381 95.9915 94.5165 95.9502ZM46.9231 81.9165C45.2849 81.989 43.738 82.695 42.6042 83.8871C41.4707 85.0793 40.8378 86.6659 40.8378 88.3163C40.8378 89.9665 41.4707 91.5531 42.6042 92.7453C43.738 93.9377 45.2849 94.6434 46.9231 94.7159H94.5165C95.3748 94.754 96.2321 94.6165 97.0364 94.312C97.8407 94.0075 98.5754 93.5422 99.1964 92.9441C99.8171 92.3462 100.311 91.6278 100.649 90.8324C100.986 90.0371 101.16 89.1812 101.16 88.3163C101.16 87.4512 100.986 86.5953 100.649 85.8C100.311 85.0046 99.8171 84.2862 99.1964 83.6883C98.5754 83.0902 97.8407 82.6249 97.0364 82.3204C96.2321 82.0159 95.3748 81.8787 94.5165 81.9165H46.9231Z" fill="#282828"/>
<path d="M56.1181 94.9732C59.5896 89.0816 57.6583 81.4732 51.8047 77.9792C45.951 74.4855 38.3916 76.4293 34.9202 82.321L2.7797 136.87C-0.691676 142.762 1.23957 150.37 7.09326 153.864C12.947 157.358 20.5064 155.414 23.9778 149.522L56.1181 94.9732Z" fill="white"/>
<path d="M13.6257 156.207C11.3527 156.197 9.12234 155.585 7.15916 154.432C5.19601 153.279 3.56933 151.625 2.44295 149.638C1.31655 147.651 0.730182 145.4 0.742878 143.113C0.755574 140.825 1.3669 138.581 2.51528 136.607L34.5836 82.0026C35.4482 80.5301 36.5928 79.2434 37.9515 78.2161C39.3105 77.1888 40.8571 76.4407 42.5032 76.0151C44.1493 75.5892 45.8624 75.4938 47.5452 75.7345C49.2277 75.9752 50.8469 76.547 52.3099 77.4175C53.7729 78.2878 55.0514 79.4398 56.0722 80.8075C57.0927 82.1751 57.8359 83.7318 58.2591 85.3885C58.682 87.0452 58.7768 88.7695 58.5378 90.4631C58.2985 92.1567 57.7305 93.7862 56.8656 95.2587L24.7852 149.813C23.9223 151.288 22.778 152.576 21.4184 153.603C20.0588 154.63 18.5107 155.377 16.8632 155.8C15.8045 156.068 14.7173 156.204 13.6257 156.207ZM45.7429 76.7819C44.7537 76.7806 43.7685 76.9093 42.812 77.1644C41.3192 77.5438 39.9159 78.2183 38.6844 79.1484C37.4528 80.0787 36.4173 81.2462 35.638 82.5828L3.5699 137.187C2.76409 138.52 2.22928 140.001 1.9965 141.544C1.76373 143.086 1.83762 144.66 2.21388 146.174C2.59015 147.688 3.2613 149.111 4.1884 150.362C5.1155 151.613 6.28014 152.666 7.61469 153.46C8.94926 154.254 10.4272 154.774 11.9628 154.988C13.4985 155.203 15.0612 155.109 16.5603 154.711C18.0595 154.313 19.4653 153.62 20.6961 152.671C21.927 151.722 22.9584 150.537 23.7305 149.184L55.8109 94.6416C57.388 91.95 57.84 88.7385 57.0674 85.712C56.2949 82.6855 54.3612 80.0909 51.6905 78.4975C49.8989 77.3942 47.8432 76.8012 45.7429 76.7819Z" fill="#282828"/>
<path d="M47.0332 90.087C49.0786 90.087 50.7369 88.4181 50.7369 86.3597C50.7369 84.301 49.0786 82.6321 47.0332 82.6321C44.9879 82.6321 43.3298 84.301 43.3298 86.3597C43.3298 88.4181 44.9879 90.087 47.0332 90.087Z" fill="#282828"/>
<path d="M47.0302 90.7044C46.173 90.7069 45.3342 90.4529 44.6206 89.9751C43.9068 89.4973 43.3499 88.8171 43.0207 88.0205C42.6918 87.2238 42.6048 86.3467 42.7716 85.5006C42.9381 84.6542 43.3507 83.8768 43.9567 83.2667C44.563 82.6566 45.3355 82.2413 46.1762 82.0737C47.0172 81.9058 47.8886 81.9933 48.6801 82.3244C49.4716 82.6558 50.1475 83.2161 50.6223 83.9346C51.0971 84.6528 51.3491 85.497 51.3467 86.3597C51.3434 87.5109 50.8876 88.6142 50.0787 89.4283C49.2701 90.2424 48.1741 90.7012 47.0302 90.7044ZM47.0302 83.2987C46.4161 83.2963 45.815 83.4775 45.3032 83.8189C44.7912 84.1606 44.3916 84.6474 44.155 85.2178C43.9182 85.7882 43.8551 86.4165 43.9733 87.023C44.0917 87.6296 44.3862 88.1872 44.8197 88.6251C45.253 89.063 45.806 89.3618 46.4079 89.4832C47.0101 89.6046 47.6346 89.5435 48.2023 89.3077C48.77 89.0717 49.2551 88.6713 49.5966 88.1576C49.938 87.6437 50.1203 87.0396 50.1203 86.4214C50.1303 86.0069 50.0575 85.5943 49.9065 85.2083C49.7558 84.8226 49.5298 84.4708 49.2418 84.1742C48.9536 83.8773 48.6098 83.6415 48.23 83.4807C47.85 83.3196 47.4423 83.2368 47.0302 83.2371V83.2987Z" fill="#282828"/>
<path d="M11.2718 137.841C16.9212 137.841 22.3393 140.1 26.334 144.121C30.3288 148.142 32.573 153.594 32.573 159.28V265.576H-10.0293V159.318C-10.0341 156.499 -9.48671 153.707 -8.41839 151.102C-7.35007 148.496 -5.78182 146.128 -3.80335 144.134C-1.82488 142.139 0.52497 140.557 3.11175 139.477C5.69851 138.397 8.47144 137.841 11.2718 137.841Z" fill="white"/>
<path d="M32.585 266.205H-10.0296C-10.1922 266.205 -10.3482 266.14 -10.4632 266.024C-10.5782 265.908 -10.6428 265.751 -10.6428 265.588V159.317C-10.7119 156.376 -10.196 153.451 -9.1255 150.713C-8.05495 147.975 -6.45139 145.481 -4.40903 143.376C-2.3667 141.271 0.0731611 139.599 2.76707 138.457C5.46096 137.315 8.35452 136.727 11.2776 136.727C14.2007 136.727 17.0942 137.315 19.7882 138.457C22.482 139.599 24.9219 141.271 26.9643 143.376C29.0065 145.481 30.6102 147.975 31.6807 150.713C32.7512 153.451 33.267 156.376 33.198 159.317V265.612C33.1888 265.771 33.1203 265.92 33.0068 266.03C32.893 266.139 32.7425 266.202 32.585 266.205ZM-9.41647 264.971H31.9716V159.317C32.039 156.539 31.5533 153.776 30.5434 151.19C29.5337 148.604 28.0202 146.247 26.0919 144.258C24.1636 142.27 21.8596 140.69 19.3155 139.61C16.7713 138.532 14.0384 137.976 11.2776 137.976C8.51682 137.976 5.7839 138.532 3.23977 139.61C0.695588 140.69 -1.60843 142.27 -3.53669 144.258C-5.46496 146.247 -6.97854 148.604 -7.98832 151.19C-8.99808 153.776 -9.48367 156.539 -9.41647 159.317V264.971Z" fill="#282828"/>
<path d="M11.272 165.538C16.7309 165.538 21.1562 161.084 21.1562 155.59C21.1562 150.096 16.7309 145.642 11.272 145.642C5.81321 145.642 1.38794 150.096 1.38794 155.59C1.38794 161.084 5.81321 165.538 11.272 165.538Z" fill="#282828"/>
<path d="M11.2743 166.156C9.19867 166.153 7.17035 165.531 5.44569 164.369C3.72104 163.206 2.37748 161.555 1.58485 159.625C0.792219 157.694 0.586088 155.57 0.992511 153.521C1.39893 151.473 2.39967 149.591 3.86823 148.115C5.33677 146.639 7.20721 145.634 9.24316 145.227C11.2791 144.82 13.3891 145.03 15.3065 145.83C17.2239 146.63 18.8627 147.985 20.0156 149.722C21.1685 151.459 21.7838 153.501 21.7838 155.59C21.7806 158.393 20.6719 161.081 18.7013 163.062C16.7308 165.043 14.0595 166.156 11.2743 166.156ZM11.2743 146.259C9.44121 146.262 7.64997 146.811 6.127 147.838C4.604 148.864 3.41762 150.323 2.71782 152.028C2.01801 153.733 1.83615 155.609 2.19526 157.418C2.55436 159.227 3.4383 160.889 4.73536 162.193C6.03241 163.496 7.68436 164.384 9.48241 164.743C11.2805 165.102 13.1439 164.916 14.8372 164.21C16.5306 163.503 17.9778 162.307 18.9959 160.773C20.0141 159.239 20.5575 157.435 20.5575 155.59C20.5543 153.114 19.5748 150.741 17.8342 148.991C16.0936 147.242 13.7343 146.259 11.2743 146.259Z" fill="#282828"/>
<path d="M244.001 203.87L314.985 273.452H-32.5098V203.87H244.001Z" fill="white" stroke="#282828" stroke-width="0.955753"/>
<path d="M166.033 152.147H131.978V182.152H166.033V152.147Z" fill="white"/>
<path d="M166.033 182.768H131.978C131.815 182.768 131.659 182.703 131.544 182.587C131.429 182.472 131.365 182.315 131.365 182.151V152.146C131.365 151.982 131.429 151.825 131.544 151.71C131.659 151.594 131.815 151.529 131.978 151.529H166.033C166.195 151.529 166.351 151.594 166.466 151.71C166.581 151.825 166.646 151.982 166.646 152.146V182.151C166.646 182.315 166.581 182.472 166.466 182.587C166.351 182.703 166.195 182.768 166.033 182.768ZM132.591 181.534H165.42V152.763H132.591V181.534Z" fill="#D1D3D4"/>
<path d="M166.045 182.152H177.462V152.147H166.045V182.152Z" fill="white"/>
<path d="M177.512 182.768H166.083C165.92 182.768 165.764 182.703 165.649 182.587C165.534 182.472 165.47 182.315 165.47 182.151V152.146C165.47 151.982 165.534 151.825 165.649 151.71C165.764 151.594 165.92 151.529 166.083 151.529H177.512C177.675 151.529 177.831 151.594 177.946 151.71C178.061 151.825 178.125 151.982 178.125 152.146V182.151C178.125 182.315 178.061 182.472 177.946 182.587C177.831 182.703 177.675 182.768 177.512 182.768ZM166.696 181.534H176.899V152.763H166.696V181.534Z" fill="#D1D3D4"/>
<path d="M151.244 152.147H146.78V160.243H151.244V152.147Z" fill="white"/>
<path d="M151.231 160.86H146.78C146.617 160.86 146.461 160.795 146.346 160.679C146.231 160.563 146.167 160.406 146.167 160.243V152.146C146.167 151.982 146.231 151.825 146.346 151.71C146.461 151.594 146.617 151.529 146.78 151.529H151.231C151.394 151.529 151.55 151.594 151.665 151.71C151.78 151.825 151.845 151.982 151.845 152.146V160.243C151.845 160.406 151.78 160.563 151.665 160.679C151.55 160.795 151.394 160.86 151.231 160.86ZM147.393 159.626H150.618V152.763H147.393V159.626Z" fill="#D1D3D4"/>
<path d="M140.625 175.511H135.462C135.3 175.511 135.144 175.446 135.029 175.33C134.914 175.215 134.849 175.058 134.849 174.894C134.849 174.73 134.914 174.573 135.029 174.457C135.144 174.342 135.3 174.277 135.462 174.277H140.625C140.788 174.277 140.944 174.342 141.059 174.457C141.174 174.573 141.238 174.73 141.238 174.894C141.235 175.057 141.17 175.212 141.055 175.327C140.941 175.442 140.787 175.508 140.625 175.511Z" fill="#D1D3D4"/>
<path d="M232.746 152.147H198.692V182.152H232.746V152.147Z" fill="white"/>
<path d="M232.756 182.768H198.689C198.527 182.768 198.371 182.703 198.256 182.587C198.141 182.472 198.076 182.315 198.076 182.151V152.146C198.076 151.982 198.141 151.825 198.256 151.71C198.371 151.594 198.527 151.529 198.689 151.529H232.756C232.919 151.529 233.075 151.594 233.19 151.71C233.305 151.825 233.37 151.982 233.37 152.146V182.151C233.37 182.315 233.305 182.472 233.19 182.587C233.075 182.703 232.919 182.768 232.756 182.768ZM199.303 181.534H232.143V152.763H199.303V181.534Z" fill="#D1D3D4"/>
<path d="M232.757 182.152H244.173V152.147H232.757V182.152Z" fill="white"/>
<path d="M244.175 182.768H232.758C232.596 182.768 232.44 182.703 232.325 182.587C232.21 182.472 232.145 182.315 232.145 182.151V152.146C232.145 151.982 232.21 151.825 232.325 151.71C232.44 151.594 232.596 151.529 232.758 151.529H244.175C244.338 151.529 244.494 151.594 244.609 151.71C244.724 151.825 244.789 151.982 244.789 152.146V182.151C244.789 182.315 244.724 182.472 244.609 182.587C244.494 182.703 244.338 182.768 244.175 182.768ZM233.371 181.534H243.562V152.763H233.371V181.534Z" fill="#D1D3D4"/>
<path d="M217.955 152.147H213.491V160.243H217.955V152.147Z" fill="white"/>
<path d="M217.979 160.86H213.515C213.352 160.86 213.196 160.795 213.081 160.679C212.966 160.563 212.902 160.406 212.902 160.243V152.146C212.902 151.982 212.966 151.825 213.081 151.71C213.196 151.594 213.352 151.529 213.515 151.529H217.979C218.141 151.529 218.297 151.594 218.412 151.71C218.527 151.825 218.592 151.982 218.592 152.146V160.243C218.589 160.406 218.523 160.561 218.409 160.676C218.295 160.791 218.14 160.857 217.979 160.86ZM214.128 159.626H217.366V152.763H214.128V159.626Z" fill="#D1D3D4"/>
<path d="M207.337 175.511H202.174C202.012 175.511 201.855 175.446 201.741 175.33C201.626 175.215 201.561 175.058 201.561 174.894C201.561 174.73 201.626 174.573 201.741 174.457C201.855 174.342 202.012 174.277 202.174 174.277H207.337C207.5 174.277 207.656 174.342 207.77 174.457C207.886 174.573 207.95 174.73 207.95 174.894C207.95 175.058 207.886 175.215 207.77 175.33C207.656 175.446 207.5 175.511 207.337 175.511Z" fill="#D1D3D4"/>
<path d="M311.315 276.079C309.644 276.079 307.99 275.729 306.461 275.044C304.932 274.362 303.56 273.365 302.438 272.119L238.914 201.542C236.782 199.174 235.673 196.05 235.829 192.858C235.985 189.666 237.395 186.668 239.748 184.522C242.101 182.376 245.205 181.259 248.376 181.417C251.548 181.574 254.527 182.993 256.659 185.361L320.184 255.937C321.735 257.666 322.756 259.812 323.123 262.113C323.489 264.415 323.185 266.774 322.248 268.905C321.308 271.037 319.776 272.849 317.837 274.123C315.897 275.394 313.632 276.076 311.315 276.079Z" fill="white"/>
<path d="M311.315 276.647C309.557 276.649 307.819 276.28 306.211 275.563C304.603 274.848 303.163 273.8 301.982 272.488L238.459 201.925C237.35 200.692 236.492 199.251 235.936 197.685C235.379 196.119 235.135 194.458 235.216 192.796C235.298 191.135 235.704 189.506 236.411 188.003C237.117 186.499 238.112 185.151 239.336 184.034C240.561 182.917 241.992 182.054 243.548 181.494C245.105 180.934 246.755 180.688 248.405 180.77C250.056 180.852 251.675 181.26 253.168 181.972C254.662 182.683 256.002 183.684 257.112 184.916L320.635 255.48C322.275 257.294 323.356 259.55 323.747 261.972C324.139 264.394 323.818 266.878 322.832 269.122C321.843 271.365 320.23 273.27 318.184 274.607C316.139 275.943 313.754 276.652 311.315 276.647ZM247.779 181.991C245.581 181.991 243.429 182.634 241.586 183.841C239.743 185.047 238.288 186.767 237.397 188.79C236.507 190.813 236.219 193.053 236.568 195.238C236.918 197.423 237.89 199.458 239.367 201.098L302.889 271.662C303.891 272.776 305.1 273.683 306.447 274.327C307.795 274.973 309.256 275.343 310.747 275.422C312.236 275.498 313.727 275.278 315.134 274.775C316.541 274.273 317.834 273.496 318.942 272.488C320.051 271.481 320.95 270.265 321.591 268.908C322.232 267.552 322.601 266.081 322.677 264.581C322.753 263.081 322.536 261.58 322.036 260.164C321.536 258.749 320.765 257.447 319.765 256.331L256.241 185.768C255.176 184.573 253.871 183.618 252.412 182.967C250.954 182.316 249.375 181.984 247.779 181.991Z" fill="#E8E9E9"/>
<path d="M247.313 205.467H-30.3739C-33.4835 205.367 -36.4323 204.053 -38.5969 201.804C-40.7616 199.554 -41.9717 196.546 -41.9717 193.414C-41.9717 190.283 -40.7616 187.274 -38.5969 185.025C-36.4323 182.776 -33.4835 181.462 -30.3739 181.362H247.313C250.423 181.462 253.372 182.776 255.536 185.025C257.701 187.274 258.911 190.283 258.911 193.414C258.911 196.546 257.701 199.554 255.536 201.804C253.372 204.053 250.423 205.367 247.313 205.467Z" fill="white"/>
<path d="M247.314 206.084H-30.3731C-33.6435 205.981 -36.7461 204.601 -39.0234 202.236C-41.3008 199.872 -42.5745 196.707 -42.5745 193.414C-42.5745 190.121 -41.3008 186.956 -39.0234 184.592C-36.7461 182.227 -33.6435 180.847 -30.3731 180.744H247.314C250.585 180.847 253.687 182.227 255.964 184.592C258.242 186.956 259.515 190.121 259.515 193.414C259.515 196.707 258.242 199.872 255.964 202.236C253.687 204.601 250.585 205.981 247.314 206.084ZM-30.3731 181.978C-33.3219 182.076 -36.1173 183.324 -38.1692 185.457C-40.2208 187.591 -41.3676 190.444 -41.3676 193.414C-41.3676 196.383 -40.2208 199.236 -38.1692 201.37C-36.1173 203.504 -33.3219 204.752 -30.3731 204.849H247.314C250.263 204.752 253.058 203.504 255.11 201.37C257.161 199.236 258.309 196.383 258.309 193.414C258.309 190.444 257.161 187.591 255.11 185.457C253.058 183.324 250.263 182.076 247.314 181.978H-30.3731Z" fill="#E8E9E9"/>
<path d="M243.734 197.284C246.335 197.284 248.443 195.162 248.443 192.544C248.443 189.927 246.335 187.805 243.734 187.805C241.134 187.805 239.025 189.927 239.025 192.544C239.025 195.162 241.134 197.284 243.734 197.284Z" fill="#E8E9E9"/>
<path d="M243.732 197.888C242.679 197.888 241.649 197.574 240.774 196.985C239.898 196.395 239.216 195.558 238.814 194.579C238.411 193.599 238.306 192.521 238.513 191.482C238.719 190.442 239.227 189.488 239.973 188.739C240.718 187.991 241.668 187.481 242.701 187.276C243.734 187.071 244.805 187.179 245.777 187.586C246.749 187.993 247.58 188.682 248.163 189.564C248.747 190.447 249.056 191.484 249.054 192.544C249.054 193.247 248.916 193.943 248.649 194.592C248.381 195.241 247.989 195.831 247.495 196.327C247 196.824 246.413 197.217 245.768 197.485C245.122 197.753 244.43 197.89 243.732 197.888ZM243.732 188.421C242.922 188.421 242.13 188.663 241.457 189.116C240.783 189.569 240.258 190.213 239.948 190.966C239.638 191.72 239.557 192.548 239.715 193.348C239.873 194.148 240.263 194.882 240.836 195.459C241.408 196.035 242.138 196.428 242.933 196.587C243.727 196.746 244.551 196.664 245.299 196.353C246.048 196.04 246.688 195.512 247.138 194.834C247.587 194.156 247.828 193.359 247.828 192.544C247.821 191.455 247.387 190.413 246.62 189.645C245.852 188.877 244.814 188.446 243.732 188.446V188.421Z" fill="#E8E9E9"/>
<path d="M312.969 85.7427H152.531V124.116H312.969V85.7427Z" fill="white"/>
<path d="M312.972 124.734H152.533C152.37 124.734 152.214 124.668 152.099 124.553C151.984 124.437 151.92 124.28 151.92 124.117V85.7431C151.923 85.5804 151.988 85.4253 152.103 85.3101C152.217 85.195 152.371 85.129 152.533 85.126H312.972C313.135 85.126 313.29 85.1909 313.406 85.3066C313.52 85.4223 313.586 85.5793 313.586 85.7431V124.117C313.586 124.28 313.52 124.437 313.406 124.553C313.29 124.668 313.135 124.734 312.972 124.734ZM153.146 123.499H312.407V86.3603H153.146V123.499Z" fill="#D1D3D4"/>
<path d="M193.233 124.734C193.071 124.734 192.915 124.668 192.8 124.553C192.685 124.437 192.62 124.28 192.62 124.117V85.7431C192.62 85.5793 192.685 85.4223 192.8 85.3066C192.915 85.1909 193.071 85.126 193.233 85.126C193.395 85.129 193.549 85.195 193.663 85.3101C193.778 85.4253 193.843 85.5804 193.847 85.7431V124.117C193.847 124.28 193.782 124.437 193.667 124.553C193.552 124.668 193.396 124.734 193.233 124.734Z" fill="#D1D3D4"/>
<path d="M232.758 124.734C232.596 124.734 232.44 124.668 232.325 124.553C232.21 124.437 232.145 124.28 232.145 124.117V85.7431C232.145 85.5793 232.21 85.4223 232.325 85.3066C232.44 85.1909 232.596 85.126 232.758 85.126C232.92 85.129 233.074 85.195 233.188 85.3101C233.303 85.4253 233.368 85.5804 233.371 85.7431V124.117C233.371 124.28 233.307 124.437 233.192 124.553C233.077 124.668 232.921 124.734 232.758 124.734Z" fill="#D1D3D4"/>
<path d="M258.735 154.944C258.894 154.439 258.922 153.689 258.403 153.58C258.226 153.558 258.047 153.591 257.89 153.674C255.235 154.786 253.95 157.744 252.911 160.436C252.146 162.428 251.353 164.556 251.468 166.728C251.526 168.107 252.572 170.07 254.059 168.518C255.329 167.183 255.848 163.734 256.447 161.987C257.231 159.649 257.994 157.302 258.735 154.944Z" fill="white"/>
<path d="M252.968 169.449C252.815 169.449 252.663 169.42 252.521 169.362C251.64 169.03 251.121 167.767 251.077 166.743C250.984 164.433 251.864 162.146 252.571 160.306C253.69 157.419 255.003 154.49 257.753 153.342C257.974 153.228 258.227 153.187 258.474 153.227C258.592 153.249 258.703 153.296 258.8 153.366C258.898 153.436 258.979 153.526 259.037 153.631C259.237 154.088 259.253 154.605 259.08 155.074C258.359 157.427 257.557 159.801 256.757 162.131C256.591 162.615 256.425 163.25 256.252 163.921C255.79 165.725 255.263 167.767 254.289 168.785C254.127 168.981 253.926 169.142 253.698 169.256C253.471 169.37 253.222 169.436 252.968 169.449ZM258.294 153.927C258.203 153.935 258.114 153.962 258.034 154.006C255.544 155.045 254.303 157.816 253.249 160.565C252.564 162.341 251.713 164.556 251.806 166.714C251.842 167.5 252.239 168.482 252.781 168.691C253.069 168.799 253.401 168.655 253.776 168.265C254.613 167.385 255.14 165.379 255.559 163.726C255.739 163.005 255.905 162.384 256.078 161.872C256.879 159.548 257.659 157.181 258.395 154.836C258.492 154.563 258.492 154.265 258.395 153.991C258.386 153.975 258.374 153.962 258.359 153.952C258.344 153.942 258.326 153.936 258.308 153.934L258.294 153.927Z" fill="#282828"/>
<path d="M109.331 176.535C109.331 176.535 89.2407 197.773 88.5983 200.991C87.9562 204.209 128.786 231.609 128.786 231.609C128.786 231.609 127.508 233.68 127.992 237.822C128.475 241.965 128.786 244.519 128.786 244.519C128.786 244.519 122.248 243.249 123.207 245.32C124.167 247.391 131.817 248.986 133.411 248.207C134.77 247.423 136.053 246.515 137.243 245.493V226.01C137.243 224.415 115.854 202.917 115.854 202.917L127.674 191.112" fill="white"/>
<path d="M132.032 248.734C130.063 248.657 128.118 248.288 126.259 247.637C124.981 247.189 123.372 246.439 122.896 245.472C122.798 245.305 122.752 245.114 122.764 244.921C122.775 244.728 122.844 244.543 122.961 244.39C123.733 243.401 127.002 243.841 128.387 244.079C128.272 243.156 128.005 240.947 127.666 237.866C127.332 235.795 127.569 233.672 128.351 231.725C120.933 226.732 87.6373 204.137 88.2797 200.919C88.9218 197.701 108.283 177.185 109.106 176.319C109.172 176.256 109.26 176.222 109.352 176.221C109.443 176.221 109.531 176.256 109.598 176.318C109.665 176.381 109.706 176.466 109.712 176.557C109.719 176.648 109.69 176.739 109.632 176.81C104.062 182.698 89.4993 198.523 88.9867 201.056C88.6548 203.012 109.365 218.101 129.023 231.307C129.099 231.359 129.153 231.439 129.173 231.53C129.193 231.622 129.178 231.717 129.131 231.797C129.131 231.797 127.926 233.832 128.409 237.787C128.893 241.929 129.21 244.476 129.21 244.476C129.217 244.533 129.21 244.591 129.19 244.645C129.17 244.699 129.137 244.748 129.095 244.786C129.054 244.826 129.005 244.855 128.951 244.871C128.897 244.887 128.84 244.891 128.784 244.88C126.619 244.455 123.978 244.31 123.574 244.837C123.574 244.837 123.488 244.938 123.574 245.169C123.849 245.761 124.924 246.424 126.518 246.98C129.304 247.954 132.501 248.265 133.294 247.868C134.574 247.13 135.782 246.275 136.902 245.313V225.995C136.635 224.675 123.704 211.274 115.622 203.134C115.587 203.102 115.56 203.063 115.541 203.019C115.522 202.976 115.512 202.929 115.512 202.882C115.512 202.834 115.522 202.788 115.541 202.744C115.56 202.701 115.587 202.662 115.622 202.629L127.435 190.816C127.469 190.783 127.508 190.756 127.552 190.738C127.596 190.719 127.643 190.71 127.691 190.71C127.739 190.71 127.786 190.719 127.83 190.738C127.874 190.756 127.913 190.783 127.947 190.816C127.981 190.85 128.007 190.89 128.026 190.934C128.044 190.978 128.053 191.025 128.053 191.073C128.053 191.12 128.044 191.167 128.026 191.211C128.007 191.255 127.981 191.295 127.947 191.329L116.401 202.875C121.712 208.229 137.639 224.401 137.639 225.967V245.45C137.639 245.502 137.629 245.554 137.608 245.601C137.587 245.648 137.555 245.691 137.516 245.724C136.304 246.767 134.994 247.69 133.605 248.481C133.106 248.681 132.568 248.768 132.032 248.734Z" fill="#282828"/>
<path d="M211.872 189.64C211.872 189.64 218.771 229.134 230.844 224.083C242.917 219.031 249.823 176.535 249.823 176.535L237.793 177.978L230.613 193.933L222.076 166.699L211.872 189.64Z" fill="white"/>
<path d="M228.735 224.884C227.74 224.876 226.764 224.612 225.9 224.119C222.039 221.997 218.445 215.553 215.212 204.953C213.705 199.938 212.469 194.846 211.51 189.698C211.492 189.629 211.492 189.557 211.51 189.488L221.721 166.526C221.75 166.458 221.8 166.401 221.864 166.364C221.927 166.326 222.001 166.31 222.075 166.317C222.147 166.322 222.216 166.348 222.273 166.392C222.331 166.435 222.375 166.495 222.4 166.562L230.648 192.894L237.438 177.805C237.464 177.748 237.504 177.698 237.554 177.662C237.605 177.625 237.665 177.602 237.727 177.596L249.756 176.153C249.812 176.148 249.867 176.155 249.92 176.174C249.972 176.192 250.02 176.222 250.059 176.261C250.098 176.302 250.127 176.351 250.143 176.405C250.159 176.459 250.163 176.516 250.153 176.571C248.879 183.963 247.22 191.283 245.181 198.502C240.851 213.554 236.074 222.264 230.958 224.393C230.257 224.701 229.501 224.867 228.735 224.884ZM212.239 189.683C212.593 191.624 217.673 218.786 226.246 223.484C226.915 223.879 227.668 224.109 228.443 224.155C229.219 224.202 229.994 224.063 230.706 223.751C241.775 219.14 248.58 181.615 249.381 176.954L238.03 178.289L230.936 194.049C230.909 194.117 230.861 194.175 230.799 194.214C230.736 194.253 230.663 194.271 230.59 194.265C230.516 194.262 230.445 194.237 230.387 194.191C230.329 194.146 230.286 194.084 230.265 194.013L222.017 167.695L212.239 189.683Z" fill="#282828"/>
<path d="M202.057 136.002C202.057 136.002 205.868 137.575 212.81 142.36C219.752 147.144 235.18 184.372 235.18 184.372L208.011 198.249L207.246 180.786L202.057 136.002Z" fill="#E73343"/>
<path d="M211.034 213.396C211.655 185.469 212.073 145.693 202.057 136.002C202.057 136.002 155.015 130.041 147.127 138.167C141.03 151.322 141.253 186.746 139.817 213.634L211.034 213.396Z" fill="#E73343"/>
<path d="M196.116 109.994C195.842 109.432 198.548 103.103 197.646 93.1229C196.744 83.143 178.422 79.643 171.812 80.4802C165.202 81.3171 158.613 88.1005 157.257 94.6959C155.9 101.292 158.787 113.141 158.787 113.141L196.116 109.994Z" fill="white"/>
<path d="M158.781 113.509C158.7 113.509 158.622 113.482 158.559 113.432C158.496 113.383 158.452 113.313 158.434 113.235C158.319 112.751 155.548 101.234 156.904 94.6313C158.348 87.6243 165.153 80.9781 171.77 80.1339C176.302 79.5493 187.559 81.043 193.844 86.0945C196.37 88.1149 197.77 90.4746 198.008 93.0942C198.479 98.2641 198.052 103.477 196.745 108.501C196.613 108.954 196.519 109.417 196.464 109.886C196.49 109.934 196.504 109.987 196.504 110.041C196.504 110.096 196.49 110.149 196.464 110.197C196.43 110.245 196.386 110.284 196.335 110.312C196.284 110.339 196.226 110.354 196.168 110.355L158.838 113.509H158.781ZM173.935 80.7328C173.231 80.7258 172.527 80.7643 171.828 80.8483C165.6 81.6493 158.939 88.1584 157.583 94.7755C156.378 100.642 158.607 110.882 159.026 112.766L195.742 109.663C195.742 109.388 195.872 108.984 196.031 108.328C197.317 103.386 197.737 98.2587 197.272 93.1735C197.056 90.7562 195.742 88.5696 193.383 86.6791C188.086 82.3925 179.145 80.7328 173.963 80.7328H173.935Z" fill="#282828"/>
<path d="M164.317 138.304C164.317 138.304 169.044 145.109 177.364 145.109C185.685 145.109 188.116 141.133 188.116 141.133L187.763 136.687L186.948 126.368L186.175 116.72H167.175L166.547 124.608L165.27 124.752L164.317 138.304Z" fill="white"/>
<path d="M177.363 145.469C168.949 145.469 164.064 138.578 164.021 138.505C163.971 138.439 163.948 138.357 163.956 138.275L164.908 124.73C164.912 124.645 164.946 124.565 165.004 124.503C165.063 124.442 165.142 124.405 165.226 124.398L166.207 124.282L166.813 116.691C166.822 116.601 166.864 116.517 166.93 116.456C166.997 116.395 167.084 116.36 167.174 116.359H186.175C186.266 116.359 186.353 116.393 186.42 116.454C186.487 116.516 186.528 116.6 186.535 116.691L188.477 141.096C188.48 141.173 188.46 141.248 188.419 141.313C188.318 141.493 185.785 145.469 177.363 145.469ZM164.713 138.21C165.334 139.039 169.909 144.762 177.393 144.762C184.681 144.762 187.344 141.623 187.777 141.046L185.871 117.095H167.506L166.878 124.636C166.874 124.72 166.839 124.8 166.781 124.86C166.723 124.921 166.645 124.96 166.561 124.968L165.587 125.076L164.713 138.21Z" fill="#282828"/>
<path d="M165.069 123.878C165.274 125.049 165.708 126.167 166.346 127.169C167.941 129.484 170.089 131.364 172.595 132.639C176.687 134.905 182.799 137.452 187.749 136.687L186.934 126.368C183.298 126.819 179.621 126.843 175.979 126.44C172.776 126.159 169.485 125.849 166.534 124.607C166.043 124.384 165.545 124.145 165.069 123.878Z" fill="#282828"/>
<path d="M185.872 137.185C180.878 137.185 175.43 134.623 172.414 132.956C169.855 131.655 167.664 129.732 166.042 127.364C165.382 126.32 164.931 125.158 164.714 123.943C164.701 123.875 164.708 123.806 164.734 123.742C164.759 123.678 164.803 123.623 164.859 123.582C164.916 123.546 164.982 123.526 165.05 123.526C165.117 123.526 165.184 123.546 165.241 123.582C165.674 123.821 166.15 124.051 166.684 124.304C169.621 125.538 173.02 125.841 176.015 126.101C179.629 126.508 183.28 126.486 186.89 126.036C186.938 126.027 186.987 126.029 187.035 126.041C187.082 126.054 187.126 126.076 187.164 126.108C187.203 126.138 187.236 126.176 187.259 126.22C187.283 126.263 187.297 126.311 187.301 126.361L188.116 136.68C188.125 136.771 188.098 136.862 188.042 136.935C187.986 137.007 187.904 137.055 187.813 137.069C187.17 137.155 186.521 137.193 185.872 137.185ZM165.587 124.564C165.818 125.417 166.178 126.23 166.655 126.974C167.882 128.958 169.939 130.755 172.767 132.321C176.022 134.125 182.199 137.012 187.38 136.377L186.615 126.779C183.076 127.18 179.503 127.18 175.964 126.779C172.912 126.512 169.47 126.209 166.403 124.924L165.587 124.564Z" fill="#282828"/>
<path d="M159.042 96.7595C159.042 96.7595 152.944 96.9111 151.27 99.4223C149.596 101.934 151.393 115.089 151.992 115.926C152.591 116.763 162.34 118.935 162.34 118.935L159.042 96.7595Z" fill="white"/>
<path d="M162.339 119.296H162.259C159.943 118.777 152.323 117.03 151.695 116.15C151.067 115.269 149.213 101.862 151.002 99.2423C152.792 96.6227 158.81 96.4206 159.063 96.4135C159.152 96.4092 159.239 96.4388 159.308 96.4963C159.376 96.5539 159.42 96.6352 159.431 96.7237L162.729 118.899C162.735 118.957 162.728 119.016 162.708 119.071C162.688 119.126 162.656 119.176 162.613 119.217C162.575 119.248 162.531 119.27 162.484 119.284C162.437 119.298 162.388 119.302 162.339 119.296ZM158.731 97.135C157.475 97.2072 152.907 97.6114 151.565 99.6247C150.014 101.956 151.709 114.779 152.287 115.724C152.705 116.179 157.417 117.456 161.906 118.466L158.731 97.135Z" fill="#282828"/>
<path d="M194.395 96.7595C194.395 96.7595 200.493 96.9111 202.167 99.4223C203.841 101.934 202.052 115.089 201.445 115.926C200.839 116.763 191.09 118.935 191.09 118.935L194.395 96.7595Z" fill="white"/>
<path d="M191.096 119.296C191.006 119.295 190.919 119.262 190.851 119.202C190.808 119.162 190.776 119.113 190.757 119.057C190.738 119.002 190.733 118.942 190.743 118.885L194.034 96.7093C194.044 96.6207 194.088 96.5395 194.157 96.4819C194.225 96.4244 194.312 96.3948 194.402 96.3991C194.661 96.3991 200.709 96.5868 202.469 99.2279C204.23 101.869 202.383 115.248 201.748 116.143C201.112 117.038 193.507 118.769 191.183 119.289L191.096 119.296ZM194.704 97.1352L191.529 118.466C196.025 117.456 200.737 116.179 201.163 115.717C201.726 114.815 203.422 101.956 201.885 99.6247C200.528 97.6114 195.953 97.2072 194.704 97.1352Z" fill="#282828"/>
<path d="M176.123 129.803H177.819C185.857 129.803 192.381 123.063 192.381 114.75V104.885C192.381 103.875 192.049 100.224 190.584 100.483C190.177 100.596 189.803 100.807 189.494 101.097C188.665 101.755 187.782 102.342 186.853 102.85C186.707 102.958 186.538 103.031 186.359 103.065C186.181 103.098 185.997 103.092 185.821 103.045C185.302 102.829 185.28 102.085 185.345 101.508L185.446 100.577C185.446 100.382 185.446 100.115 185.251 100.094C182.3 101.811 179.32 103.435 175.87 103.702C175.612 103.759 175.344 103.748 175.091 103.671C174.838 103.594 174.609 103.453 174.427 103.262C174.284 103.027 174.212 102.757 174.218 102.482C174.139 101.328 174.332 100.171 174.781 99.105C173.579 100.288 172.126 101.186 170.53 101.732C168.365 102.453 166.381 103.226 164.238 103.954L160.247 105.318C161.019 110.168 160.788 115.674 162.571 120.321C163.617 123.079 165.469 125.459 167.886 127.15C170.303 128.841 173.173 129.766 176.123 129.803Z" fill="white"/>
<path d="M177.82 130.164H176.124C173.097 130.123 170.153 129.17 167.676 127.43C165.199 125.689 163.304 123.242 162.24 120.407C161.042 117.283 160.747 113.776 160.451 110.384C160.306 108.703 160.155 106.956 159.895 105.333C159.882 105.249 159.898 105.164 159.942 105.091C159.986 105.018 160.053 104.963 160.133 104.936L164.131 103.572C165.163 103.218 166.166 102.85 167.169 102.497C168.172 102.143 169.334 101.725 170.424 101.349C171.969 100.82 173.375 99.9494 174.537 98.8021C174.596 98.7434 174.674 98.707 174.756 98.6991C174.839 98.6912 174.922 98.7124 174.991 98.7586C175.062 98.8045 175.114 98.8741 175.137 98.9547C175.161 99.0354 175.156 99.1221 175.121 99.1989C174.693 100.215 174.51 101.317 174.587 102.417C174.585 102.626 174.635 102.831 174.732 103.016C174.89 103.254 175.258 103.341 175.865 103.298C179.162 103.052 181.984 101.544 185.073 99.7544C185.139 99.7128 185.218 99.6949 185.296 99.7039C185.657 99.7473 185.859 100.108 185.808 100.592L185.7 101.522C185.7 101.826 185.621 102.547 185.96 102.684C186.086 102.704 186.215 102.698 186.339 102.667C186.463 102.636 186.58 102.58 186.682 102.504C187.582 102.011 188.441 101.446 189.251 100.815C189.599 100.473 190.028 100.225 190.499 100.094C190.67 100.061 190.846 100.069 191.013 100.115C191.181 100.161 191.336 100.245 191.466 100.361C192.664 101.364 192.722 104.813 192.722 104.849V114.75C192.743 123.25 186.047 130.164 177.82 130.164ZM160.653 105.52C160.891 107.079 161.035 108.732 161.172 110.326C161.461 113.667 161.757 117.117 162.911 120.148C163.923 122.846 165.725 125.177 168.083 126.835C170.44 128.493 173.243 129.402 176.124 129.442H177.82C185.65 129.442 192.022 122.854 192.022 114.75V104.885C192.022 103.803 191.726 101.537 191.026 100.952C190.976 100.906 190.917 100.871 190.852 100.851C190.787 100.831 190.718 100.826 190.651 100.837C190.319 100.937 190.015 101.113 189.763 101.349C188.902 102.02 187.988 102.619 187.028 103.139C186.835 103.274 186.614 103.364 186.382 103.401C186.149 103.439 185.911 103.423 185.686 103.355C185.282 103.182 184.841 102.72 184.964 101.436L185.058 100.577C182.128 102.273 179.206 103.774 175.893 104.019C175.57 104.087 175.234 104.067 174.921 103.961C174.608 103.856 174.328 103.669 174.111 103.42C173.935 103.134 173.843 102.804 173.844 102.468C173.788 101.705 173.849 100.939 174.024 100.195C173.006 100.995 171.859 101.617 170.633 102.035C169.529 102.403 168.468 102.756 167.393 103.175C166.317 103.594 165.379 103.896 164.34 104.25L160.653 105.52Z" fill="#282828"/>
<path d="M177.135 119.787C176.392 119.789 175.65 119.748 174.912 119.664C174.818 119.653 174.731 119.605 174.672 119.531C174.612 119.457 174.585 119.362 174.595 119.267C174.6 119.22 174.615 119.174 174.638 119.132C174.661 119.09 174.693 119.053 174.73 119.024C174.768 118.994 174.811 118.973 174.857 118.96C174.903 118.947 174.952 118.944 174.999 118.95C176.373 119.099 177.76 119.099 179.134 118.95C179.177 118.95 179.228 118.95 179.278 118.841C179.964 117.701 178.167 111.928 176.875 108.558C176.858 108.514 176.85 108.467 176.851 108.42C176.852 108.373 176.863 108.326 176.882 108.283C176.902 108.24 176.93 108.201 176.964 108.169C176.999 108.137 177.04 108.112 177.084 108.096C177.173 108.063 177.272 108.065 177.36 108.103C177.447 108.141 177.517 108.211 177.553 108.298C177.907 109.229 180.988 117.391 179.899 119.209C179.831 119.335 179.734 119.442 179.616 119.521C179.498 119.6 179.362 119.649 179.22 119.664C178.529 119.749 177.832 119.79 177.135 119.787Z" fill="#282828"/>
<path d="M177.998 124.246C175.899 124.154 173.852 123.56 172.03 122.515C171.947 122.468 171.885 122.39 171.857 122.299C171.829 122.208 171.836 122.11 171.878 122.024C171.924 121.94 172.001 121.877 172.093 121.849C172.184 121.82 172.284 121.829 172.369 121.872C175.349 123.438 177.911 123.893 179.989 123.222C181.225 122.836 182.274 122.006 182.934 120.891C182.955 120.848 182.984 120.81 183.019 120.779C183.055 120.747 183.096 120.723 183.141 120.708C183.186 120.692 183.233 120.686 183.281 120.689C183.328 120.692 183.374 120.704 183.417 120.725C183.46 120.746 183.498 120.775 183.529 120.811C183.561 120.846 183.585 120.887 183.6 120.932C183.616 120.977 183.622 121.025 183.619 121.072C183.616 121.119 183.604 121.166 183.583 121.209C182.837 122.5 181.631 123.461 180.206 123.9C179.493 124.131 178.747 124.248 177.998 124.246Z" fill="#282828"/>
<path d="M170.118 114.851H163.992C162.541 114.844 161.145 114.296 160.077 113.313C159.009 112.331 158.346 110.985 158.219 109.54L157.641 102.547C157.635 102.498 157.641 102.447 157.657 102.399C157.673 102.352 157.7 102.309 157.735 102.273C157.768 102.236 157.808 102.207 157.853 102.188C157.897 102.167 157.946 102.157 157.995 102.158H195.483C195.537 102.159 195.589 102.17 195.638 102.193C195.686 102.215 195.73 102.247 195.765 102.288C195.797 102.33 195.821 102.379 195.833 102.432C195.846 102.484 195.847 102.538 195.837 102.591L194.444 109.764C194.192 111.086 193.485 112.278 192.447 113.135C191.409 113.991 190.104 114.458 188.758 114.454H183.706C182.798 114.452 181.903 114.238 181.092 113.828C180.281 113.418 179.578 112.825 179.038 112.094L177.104 109.468L174.693 112.592C174.152 113.291 173.459 113.857 172.666 114.249C171.873 114.64 171.002 114.846 170.118 114.851ZM158.406 102.85L158.955 109.446C159.064 110.712 159.644 111.892 160.578 112.753C161.513 113.614 162.735 114.094 164.006 114.1H170.118C170.895 114.1 171.661 113.921 172.357 113.578C173.054 113.235 173.663 112.738 174.138 112.123L176.837 108.623C176.871 108.578 176.916 108.543 176.968 108.519C177.019 108.495 177.076 108.484 177.132 108.486C177.188 108.486 177.242 108.499 177.291 108.524C177.34 108.549 177.382 108.586 177.414 108.631L179.637 111.647C180.109 112.286 180.724 112.806 181.433 113.164C182.143 113.522 182.926 113.71 183.721 113.711H188.772C189.951 113.715 191.094 113.306 192.003 112.557C192.912 111.807 193.531 110.763 193.751 109.605L195.065 102.85H158.406Z" fill="#282828"/>
<path d="M198.63 94.689C198.63 96.9259 188.945 100.289 176.981 100.289C165.016 100.289 155.332 96.9259 155.332 94.689C169.628 92.0623 184.283 92.0623 198.579 94.689H198.63Z" fill="white"/>
<path d="M176.982 100.686C165.147 100.686 155.001 97.4093 155.001 94.7251C155.001 94.6417 155.03 94.5613 155.082 94.4966C155.135 94.4323 155.208 94.388 155.29 94.3714C169.633 91.7352 184.338 91.7352 198.681 94.3714C198.762 94.388 198.836 94.4323 198.888 94.4966C198.941 94.5613 198.97 94.6417 198.97 94.7251C198.955 97.3735 188.809 100.686 176.982 100.686ZM155.788 95.0135C156.625 96.825 165.306 99.964 176.982 99.964C188.658 99.964 197.331 96.8609 198.176 95.0135C184.16 92.4833 169.804 92.4833 155.788 95.0135Z" fill="#282828"/>
<path d="M176.981 71.6689C182.722 71.6689 188.229 73.9498 192.289 78.0096C196.349 82.0696 198.63 87.5761 198.63 93.3176V94.7175H155.332V93.2888C155.34 87.5522 157.624 82.0531 161.683 77.9995C165.742 73.9457 171.244 71.6689 176.981 71.6689Z" fill="white"/>
<path d="M198.629 95.0498H155.332C155.237 95.0498 155.145 95.0118 155.077 94.9442C155.009 94.8765 154.971 94.7847 154.971 94.6889V93.2891C155.076 87.5273 157.438 82.0371 161.549 77.9994C165.661 73.9619 171.193 71.6995 176.956 71.6995C182.718 71.6995 188.25 73.9619 192.362 77.9994C196.473 82.0371 198.835 87.5273 198.94 93.2891V94.6889C198.941 94.7766 198.91 94.8613 198.853 94.9279C198.795 94.9942 198.716 95.0376 198.629 95.0498ZM155.743 94.3281H198.269V93.2891C198.166 87.7177 195.881 82.4093 191.904 78.5054C187.928 74.6016 182.578 72.4147 177.006 72.4147C171.434 72.4147 166.084 74.6016 162.108 78.5054C158.131 82.4093 155.846 87.7177 155.743 93.2891V94.3281Z" fill="#282828"/>
<path d="M175.213 69.9014H178.727C179.608 69.9014 180.452 70.251 181.074 70.8735C181.697 71.4961 182.047 72.3403 182.047 73.221V94.6892H171.893V73.228C171.893 72.7915 171.978 72.3591 172.144 71.9554C172.311 71.5521 172.555 71.1851 172.863 70.8762C173.172 70.5671 173.538 70.3221 173.941 70.1548C174.344 69.9875 174.776 69.9014 175.213 69.9014Z" fill="white"/>
<path d="M182.034 95.0496H171.932C171.836 95.0496 171.744 95.0116 171.676 94.9439C171.609 94.8763 171.571 94.7845 171.571 94.6889V73.2638C171.57 72.78 171.664 72.3006 171.849 71.8532C172.033 71.4058 172.304 70.9992 172.646 70.6567C172.988 70.3142 173.394 70.0425 173.841 69.8573C174.288 69.6718 174.767 69.5764 175.251 69.5764H178.765C179.742 69.5783 180.678 69.9676 181.368 70.6589C182.058 71.3502 182.446 72.287 182.446 73.2638V94.6889C182.446 94.7407 182.435 94.7921 182.414 94.8396C182.393 94.8872 182.362 94.9293 182.323 94.9635C182.284 94.998 182.238 95.0232 182.188 95.0382C182.138 95.0528 182.086 95.0569 182.034 95.0496ZM172.242 94.3279H181.674V73.2638C181.674 72.4785 181.362 71.7253 180.807 71.1693C180.253 70.6132 179.5 70.2998 178.715 70.2979H175.201C174.415 70.2998 173.663 70.6132 173.108 71.1693C172.553 71.7253 172.242 72.4785 172.242 73.2638V94.3279Z" fill="#282828"/>
<path d="M169.93 110.146C170.523 110.146 171.005 109.119 171.005 107.851C171.005 106.584 170.523 105.556 169.93 105.556C169.336 105.556 168.854 106.584 168.854 107.851C168.854 109.119 169.336 110.146 169.93 110.146Z" fill="#282828"/>
<path d="M185.438 110.146C186.032 110.146 186.514 109.119 186.514 107.851C186.514 106.584 186.032 105.556 185.438 105.556C184.845 105.556 184.363 106.584 184.363 107.851C184.363 109.119 184.845 110.146 185.438 110.146Z" fill="#282828"/>
<path d="M164.409 132.033C164.409 132.033 157.64 132.632 158.167 135.179C158.694 137.726 170.435 152.678 170.435 152.678L176.33 145.108C176.33 145.108 168.176 140.44 164.409 132.033Z" fill="white"/>
<path d="M170.486 153.04C170.432 153.039 170.379 153.026 170.33 153.002C170.281 152.979 170.238 152.945 170.205 152.902C169.721 152.289 158.37 137.857 157.843 135.252C157.792 135.014 157.795 134.768 157.849 134.531C157.904 134.294 158.011 134.072 158.161 133.88C159.467 132.127 164.201 131.716 164.403 131.716C164.477 131.708 164.552 131.724 164.617 131.761C164.682 131.799 164.733 131.856 164.764 131.925C168.436 140.123 176.483 144.784 176.562 144.828C176.608 144.852 176.647 144.887 176.677 144.93C176.707 144.972 176.727 145.021 176.735 145.073C176.746 145.123 176.746 145.175 176.735 145.225C176.724 145.275 176.702 145.321 176.67 145.361L170.775 152.939C170.739 152.978 170.693 153.008 170.643 153.025C170.593 153.043 170.539 153.048 170.486 153.04ZM164.186 132.437C162.743 132.589 159.582 133.159 158.709 134.328C158.619 134.437 158.555 134.565 158.521 134.703C158.488 134.84 158.485 134.983 158.514 135.122C158.918 137.092 167.015 147.714 170.457 152.109L175.819 145.217C174.209 144.193 167.549 139.697 164.186 132.437Z" fill="#282828"/>
<path d="M187.864 132.033C187.864 132.033 194.625 132.632 194.106 135.179C193.586 137.726 181.838 152.678 181.838 152.678L175.942 145.108C175.942 145.108 184.097 140.44 187.864 132.033Z" fill="white"/>
<path d="M181.808 153.039C181.702 153.026 181.603 152.977 181.527 152.902L175.631 145.325C175.598 145.285 175.575 145.239 175.562 145.189C175.55 145.139 175.549 145.087 175.559 145.037C175.57 144.986 175.59 144.938 175.62 144.896C175.65 144.854 175.688 144.818 175.732 144.791C175.819 144.748 183.857 140.086 187.53 131.889C187.559 131.819 187.609 131.76 187.675 131.722C187.74 131.684 187.816 131.669 187.891 131.679C188.093 131.679 192.827 132.127 194.133 133.844C194.286 134.034 194.395 134.256 194.451 134.493C194.507 134.73 194.509 134.977 194.458 135.215C193.924 137.82 182.573 152.253 182.089 152.866C182.06 152.916 182.019 152.957 181.97 152.987C181.921 153.018 181.866 153.036 181.808 153.039ZM176.446 145.203L181.808 152.094C185.257 147.699 193.354 137.077 193.751 135.107C193.78 134.968 193.777 134.825 193.744 134.688C193.71 134.551 193.646 134.422 193.556 134.313C192.69 133.144 189.522 132.574 188.086 132.422C184.723 139.696 178.056 144.192 176.446 145.203Z" fill="#282828"/>
<path d="M203.863 190.029V170.661H147.396V190.029L137.243 199.043V273.186H214.009V199.043L203.863 190.029Z" fill="#282828"/>
<path d="M214.009 278.589H137.243C137.147 278.589 137.056 278.551 136.988 278.483C136.92 278.415 136.882 278.323 136.882 278.228V199.013C136.883 198.963 136.894 198.913 136.915 198.867C136.936 198.821 136.967 198.78 137.005 198.746L147.036 189.835V170.683C147.036 170.587 147.074 170.495 147.141 170.427C147.209 170.36 147.301 170.322 147.396 170.322H203.863C203.959 170.322 204.051 170.36 204.118 170.427C204.186 170.495 204.224 170.587 204.224 170.683V189.885L214.255 198.797C214.291 198.832 214.319 198.873 214.339 198.919C214.359 198.965 214.37 199.014 214.37 199.064V278.276C214.358 278.363 214.314 278.445 214.248 278.502C214.182 278.559 214.097 278.589 214.009 278.589ZM137.604 277.866H213.648V199.209L203.625 190.296C203.587 190.263 203.557 190.222 203.535 190.176C203.514 190.13 203.503 190.08 203.503 190.029V171.022H147.757V190.029C147.755 190.08 147.743 190.129 147.723 190.175C147.701 190.221 147.671 190.262 147.635 190.296L137.604 199.209V277.866Z" fill="#282828"/>
<path d="M153.025 177.676H160.255L158.112 134.111L150.578 136.002L153.025 177.676Z" fill="white"/>
<path d="M160.252 178.036H153.036C152.944 178.036 152.855 178.001 152.788 177.938C152.721 177.875 152.681 177.789 152.675 177.697L150.215 136.045C150.209 135.96 150.233 135.876 150.283 135.807C150.333 135.739 150.406 135.69 150.489 135.67L158.023 133.786C158.074 133.772 158.128 133.77 158.181 133.78C158.234 133.79 158.284 133.811 158.327 133.843C158.37 133.875 158.405 133.917 158.43 133.964C158.455 134.012 158.469 134.065 158.47 134.118L160.635 177.683C160.634 177.781 160.598 177.876 160.534 177.95C160.495 177.983 160.45 178.007 160.402 178.022C160.354 178.037 160.303 178.042 160.252 178.036ZM153.361 177.315H159.855L157.77 134.602L150.951 136.312L153.361 177.315Z" fill="#282828"/>
<path d="M199.604 177.676H192.381L194.516 134.111L202.057 136.002L199.604 177.676Z" fill="white"/>
<path d="M199.604 178.036H192.388C192.339 178.039 192.29 178.03 192.244 178.012C192.198 177.994 192.157 177.966 192.123 177.93C192.089 177.895 192.063 177.853 192.046 177.806C192.029 177.76 192.023 177.71 192.027 177.661L194.192 134.097C194.195 134.043 194.209 133.991 194.234 133.944C194.259 133.896 194.294 133.855 194.337 133.823C194.379 133.79 194.429 133.768 194.481 133.758C194.534 133.748 194.588 133.75 194.64 133.765L202.181 135.648C202.262 135.67 202.333 135.719 202.382 135.788C202.43 135.856 202.454 135.94 202.448 136.024L200.001 177.697C199.999 177.746 199.986 177.794 199.965 177.837C199.943 177.881 199.912 177.92 199.876 177.952C199.838 177.983 199.795 178.007 199.749 178.022C199.702 178.036 199.653 178.041 199.604 178.036ZM192.756 177.315H199.251L201.661 136.276L194.856 134.602L192.756 177.315Z" fill="#282828"/>
<path d="M161.794 173.05H151.432V180.014H161.794V173.05Z" fill="#D1D3D4"/>
<path d="M161.826 180.382H151.428C151.333 180.38 151.242 180.341 151.174 180.274C151.107 180.207 151.069 180.116 151.067 180.021V173.05C151.069 172.955 151.107 172.864 151.174 172.797C151.242 172.73 151.333 172.691 151.428 172.689H161.826C161.921 172.691 162.012 172.73 162.079 172.797C162.146 172.864 162.185 172.955 162.187 173.05V180.021C162.185 180.116 162.146 180.207 162.079 180.274C162.012 180.341 161.921 180.38 161.826 180.382ZM151.817 179.66H161.465V173.411H151.788L151.817 179.66Z" fill="#282828"/>
<path d="M201.327 173.283L190.974 172.837L190.674 179.794L201.026 180.24L201.327 173.283Z" fill="#D1D3D4"/>
<path d="M201.035 180.598L190.694 180.15C190.647 180.15 190.601 180.139 190.559 180.119C190.517 180.099 190.479 180.07 190.448 180.035C190.384 179.964 190.348 179.871 190.347 179.775L190.651 172.819C190.655 172.723 190.696 172.632 190.766 172.566C190.801 172.534 190.842 172.509 190.886 172.493C190.931 172.477 190.978 172.47 191.026 172.472L201.381 172.92C201.429 172.921 201.475 172.933 201.518 172.953C201.561 172.973 201.6 173 201.632 173.036C201.664 173.07 201.689 173.111 201.706 173.156C201.722 173.2 201.729 173.247 201.727 173.295L201.424 180.251C201.423 180.3 201.411 180.348 201.39 180.392C201.369 180.436 201.34 180.475 201.303 180.508C201.267 180.54 201.225 180.565 201.178 180.58C201.132 180.596 201.083 180.602 201.035 180.598ZM191.055 179.45L200.688 179.862L200.955 173.627L191.321 173.208L191.055 179.45Z" fill="#282828"/>
<path d="M177.114 237.549H174.148C169.046 237.543 164.155 235.515 160.545 231.908C156.937 228.302 154.905 223.412 154.895 218.31V202.434C154.895 202.339 154.933 202.247 155.001 202.179C155.069 202.112 155.16 202.074 155.256 202.074H196.006C196.102 202.074 196.193 202.112 196.261 202.179C196.329 202.247 196.367 202.339 196.367 202.434V218.31C196.357 223.412 194.325 228.302 190.716 231.908C187.107 235.515 182.216 237.543 177.114 237.549ZM155.617 202.759V218.31C155.622 223.223 157.577 227.933 161.051 231.407C164.525 234.881 169.235 236.836 174.148 236.842H177.114C182.027 236.836 186.737 234.881 190.211 231.407C193.685 227.933 195.639 223.223 195.645 218.31V202.759H155.617Z" fill="#D1D3D4"/>
<path d="M148.161 137.293C143.827 140.222 139.648 143.375 135.641 146.739C124.658 155.969 109.389 171.347 101.04 180.021L125.084 199.468L140.325 184.625C140.325 184.625 153.263 144.308 148.161 137.293Z" fill="#E73343"/>
<path d="M260.979 146.321L246.576 135.764L216.751 176.449L218.252 180.324L232.663 190.881L262.488 150.203L260.979 146.321Z" fill="#282828"/>
<path d="M232.661 191.242C232.584 191.243 232.509 191.22 232.445 191.177L218.012 180.612C217.954 180.575 217.911 180.519 217.889 180.453L216.381 176.578C216.359 176.522 216.352 176.46 216.359 176.4C216.367 176.339 216.389 176.282 216.425 176.232L246.257 135.547C246.315 135.471 246.4 135.42 246.495 135.402C246.589 135.391 246.684 135.414 246.762 135.467L261.194 146.032C261.252 146.069 261.296 146.125 261.317 146.191L262.825 150.066C262.847 150.123 262.854 150.184 262.847 150.245C262.84 150.305 262.817 150.363 262.782 150.412L232.957 191.097C232.929 191.136 232.893 191.169 232.852 191.194C232.812 191.218 232.766 191.235 232.719 191.242H232.661ZM218.554 180.064L232.582 190.347L262.075 150.116L260.675 146.508L246.646 136.225L217.154 176.456L218.554 180.064Z" fill="#282828"/>
<path d="M261 146.313L246.595 135.755L216.771 176.444L231.176 187.002L261 146.313Z" fill="white"/>
<path d="M231.154 187.367C231.075 187.368 230.999 187.343 230.937 187.294L216.505 176.737C216.429 176.68 216.378 176.595 216.363 176.501C216.348 176.406 216.371 176.31 216.425 176.232L246.257 135.547C246.316 135.471 246.401 135.42 246.496 135.402C246.589 135.391 246.685 135.414 246.763 135.467L261.195 146.032C261.233 146.06 261.266 146.095 261.291 146.136C261.316 146.176 261.332 146.221 261.34 146.268C261.347 146.315 261.345 146.363 261.334 146.409C261.322 146.455 261.302 146.499 261.274 146.537L231.45 187.215C231.421 187.254 231.386 187.286 231.345 187.311C231.304 187.336 231.259 187.352 231.212 187.36L231.154 187.367ZM217.255 176.369L231.074 186.472L260.473 146.371L246.647 136.268L217.255 176.369Z" fill="#282828"/>
<path d="M247.558 155.269C250.73 155.269 253.302 152.697 253.302 149.525C253.302 146.352 250.73 143.781 247.558 143.781C244.385 143.781 241.814 146.352 241.814 149.525C241.814 152.697 244.385 155.269 247.558 155.269Z" fill="#E73343"/>
<path d="M247.543 155.622C245.961 155.62 244.441 155.006 243.303 153.908C242.164 152.809 241.495 151.313 241.436 149.732C241.377 148.151 241.932 146.609 242.985 145.429C244.039 144.248 245.508 143.522 247.085 143.402C248.663 143.281 250.225 143.776 251.446 144.783C252.666 145.79 253.448 147.23 253.63 148.801C253.811 150.373 253.377 151.953 252.419 153.212C251.46 154.47 250.051 155.308 248.488 155.55C248.175 155.6 247.859 155.624 247.543 155.622ZM247.543 144.141C246.264 144.141 245.026 144.597 244.053 145.427C243.079 146.257 242.434 147.407 242.232 148.67C242.031 149.933 242.286 151.227 242.952 152.319C243.619 153.411 244.653 154.229 245.869 154.627C247.084 155.025 248.402 154.976 249.586 154.49C250.769 154.003 251.739 153.111 252.324 151.973C252.908 150.835 253.067 149.526 252.773 148.281C252.478 147.036 251.75 145.937 250.718 145.181C249.803 144.51 248.699 144.147 247.564 144.141H247.543Z" fill="#282828"/>
<path d="M238.507 167.616C241.679 167.616 244.251 165.044 244.251 161.872C244.251 158.699 241.679 156.128 238.507 156.128C235.334 156.128 232.763 158.699 232.763 161.872C232.763 165.044 235.334 167.616 238.507 167.616Z" fill="#D1D3D4"/>
<path d="M238.499 167.969C237.129 167.966 235.799 167.502 234.725 166.651C233.651 165.8 232.895 164.612 232.579 163.278C232.263 161.945 232.405 160.544 232.983 159.301C233.56 158.059 234.54 157.047 235.763 156.429C236.986 155.811 238.382 155.623 239.725 155.896C241.068 156.168 242.28 156.885 243.166 157.931C244.051 158.977 244.559 160.29 244.606 161.66C244.654 163.029 244.239 164.375 243.428 165.48C242.862 166.255 242.12 166.885 241.263 167.317C240.406 167.75 239.459 167.974 238.499 167.969ZM238.499 156.488C237.22 156.488 235.983 156.944 235.009 157.774C234.036 158.604 233.39 159.754 233.189 161.017C232.987 162.28 233.242 163.574 233.909 164.666C234.576 165.757 235.61 166.576 236.825 166.974C238.041 167.372 239.359 167.323 240.542 166.837C241.725 166.35 242.696 165.458 243.28 164.319C243.864 163.182 244.024 161.872 243.729 160.627C243.435 159.383 242.706 158.283 241.675 157.527C240.758 156.855 239.651 156.491 238.514 156.488H238.499Z" fill="#282828"/>
<path d="M236.077 175.529L227.455 169.25L224.466 173.353L233.088 179.633L236.077 175.529Z" fill="white"/>
<path d="M232.222 179.797C232.147 179.798 232.074 179.775 232.013 179.732L223.425 173.439C223.349 173.382 223.298 173.297 223.284 173.203C223.269 173.109 223.291 173.012 223.346 172.934L226.34 168.85C226.369 168.811 226.404 168.779 226.445 168.754C226.486 168.729 226.531 168.713 226.579 168.706C226.625 168.698 226.673 168.7 226.719 168.711C226.765 168.722 226.808 168.742 226.846 168.77L235.433 175.063C235.509 175.121 235.56 175.205 235.575 175.3C235.589 175.394 235.567 175.49 235.512 175.568L232.546 179.652C232.518 179.691 232.483 179.724 232.442 179.749C232.401 179.773 232.356 179.79 232.308 179.797H232.222ZM224.147 173.071L232.15 178.938L234.711 175.431L226.709 169.564L224.147 173.071Z" fill="#282828"/>
<path d="M229.978 171.494L226.649 169.053L223.765 172.988L227.094 175.428L229.978 171.494Z" fill="#282828"/>
<path d="M227.074 175.799C226.996 175.801 226.92 175.775 226.858 175.727L223.531 173.288C223.455 173.23 223.404 173.146 223.389 173.051C223.375 172.957 223.397 172.861 223.452 172.783L226.338 168.85C226.366 168.811 226.402 168.779 226.443 168.754C226.484 168.729 226.529 168.713 226.576 168.706C226.623 168.698 226.671 168.7 226.717 168.711C226.763 168.722 226.806 168.742 226.843 168.77L230.17 171.21C230.209 171.238 230.242 171.273 230.266 171.314C230.291 171.355 230.308 171.4 230.315 171.448C230.322 171.494 230.32 171.542 230.309 171.588C230.298 171.634 230.278 171.677 230.25 171.715L227.363 175.655C227.306 175.728 227.224 175.777 227.132 175.792L227.074 175.799ZM224.253 172.913L226.995 174.926L229.456 171.57L226.706 169.557L224.253 172.913Z" fill="#282828"/>
<path d="M239.611 181.976L242.281 178.411C242.281 178.411 241.191 167.508 242.202 164.867C242.403 164.333 242.923 163.748 243.428 163.986C243.638 164.116 243.797 164.315 243.876 164.549C244.512 165.906 244.859 167.38 244.893 168.879C244.746 166.261 244.867 163.635 245.254 161.042C245.319 160.602 245.442 160.096 245.846 159.909C246.531 159.606 247.123 160.486 247.325 161.208C247.6 162.207 247.786 163.228 247.881 164.26C247.592 162.399 247.686 160.499 248.155 158.675C248.732 156.46 250.139 156.633 250.399 158.906L250.832 162.673C250.832 160.775 251.157 158.899 251.114 157.008C251.032 156.28 251.139 155.543 251.425 154.868C251.711 154.193 252.165 153.603 252.744 153.155C252.955 152.946 253.229 152.813 253.524 152.779C253.758 152.813 253.978 152.913 254.157 153.067C254.336 153.222 254.467 153.425 254.534 153.653C254.832 154.515 254.961 155.426 254.917 156.337C254.974 161.987 255.566 167.753 253.646 173.064C251.799 178.195 248.451 180.453 245.492 181.413" fill="white"/>
<path d="M239.613 182.337C239.534 182.338 239.458 182.312 239.396 182.265C239.321 182.206 239.272 182.121 239.258 182.027C239.245 181.933 239.268 181.837 239.324 181.76L241.915 178.31C241.784 176.968 240.89 167.291 241.871 164.737C241.95 164.501 242.075 164.283 242.238 164.096C242.402 163.909 242.601 163.757 242.824 163.647C242.944 163.592 243.074 163.563 243.206 163.563C243.338 163.563 243.469 163.592 243.589 163.647C243.871 163.811 244.09 164.065 244.209 164.369C244.317 164.6 244.411 164.831 244.505 165.09C244.563 163.711 244.693 162.336 244.895 160.97C244.896 160.68 244.97 160.396 245.112 160.144C245.253 159.891 245.457 159.679 245.703 159.527C245.841 159.463 245.991 159.429 246.143 159.429C246.295 159.429 246.445 159.463 246.583 159.527C246.966 159.741 247.269 160.072 247.449 160.472C247.523 159.812 247.643 159.159 247.81 158.516C248.12 157.318 248.719 156.633 249.398 156.684C250.076 156.734 250.538 157.405 250.718 158.531C250.718 158.004 250.762 157.477 250.754 156.951C250.674 156.169 250.793 155.381 251.099 154.657C251.406 153.934 251.89 153.301 252.508 152.816C252.785 152.551 253.143 152.388 253.525 152.354C253.831 152.383 254.122 152.503 254.36 152.697C254.599 152.89 254.775 153.15 254.867 153.443C255.184 154.349 255.324 155.307 255.279 156.265C255.279 157.253 255.315 158.249 255.344 159.238C255.466 163.878 255.596 168.677 253.987 173.122C252.378 177.567 249.528 180.417 245.602 181.695C245.51 181.722 245.411 181.713 245.326 181.668C245.241 181.624 245.177 181.548 245.147 181.457C245.133 181.412 245.127 181.365 245.131 181.318C245.135 181.272 245.148 181.226 245.169 181.185C245.191 181.143 245.22 181.106 245.256 181.076C245.292 181.046 245.334 181.023 245.378 181.009C249.138 179.79 251.808 177.055 253.316 172.877C254.875 168.547 254.759 163.835 254.63 159.26C254.63 158.264 254.572 157.268 254.564 156.272C254.609 155.408 254.489 154.544 254.211 153.725C254.081 153.429 253.836 153.075 253.54 153.075C253.329 153.111 253.135 153.212 252.984 153.364C252.439 153.781 252.014 154.334 251.751 154.967C251.487 155.6 251.395 156.292 251.483 156.972C251.49 158.025 251.442 159.078 251.339 160.126C251.274 160.948 251.209 161.807 251.202 162.644C251.2 162.737 251.164 162.825 251.099 162.892C251.035 162.959 250.948 162.999 250.855 163.005C250.763 163.009 250.673 162.978 250.603 162.917C250.533 162.857 250.489 162.772 250.48 162.68L250.047 158.92C249.924 157.86 249.564 157.477 249.325 157.434C249.087 157.391 248.741 157.759 248.488 158.733C248.106 160.201 247.977 161.724 248.106 163.236C248.156 163.553 248.192 163.878 248.222 164.195C248.232 164.288 248.205 164.381 248.147 164.454C248.088 164.527 248.004 164.574 247.911 164.585C247.818 164.597 247.723 164.573 247.647 164.516C247.572 164.459 247.521 164.376 247.507 164.282C247.457 163.965 247.421 163.647 247.391 163.322C247.293 162.641 247.156 161.967 246.98 161.302C246.883 160.871 246.625 160.494 246.258 160.248C246.215 160.225 246.167 160.213 246.118 160.213C246.069 160.213 246.02 160.225 245.977 160.248C245.732 160.357 245.645 160.761 245.595 161.1C245.241 163.488 245.113 165.904 245.212 168.316C245.212 168.496 245.212 168.677 245.212 168.865C245.212 168.958 245.177 169.049 245.112 169.117C245.048 169.186 244.96 169.227 244.866 169.233C244.819 169.234 244.771 169.227 244.727 169.211C244.682 169.194 244.641 169.169 244.606 169.137C244.572 169.105 244.543 169.066 244.524 169.023C244.504 168.98 244.492 168.933 244.491 168.886C244.491 168.713 244.491 168.54 244.491 168.359C244.396 167.095 244.073 165.858 243.538 164.708C243.459 164.542 243.372 164.376 243.257 164.325C243.228 164.312 243.198 164.305 243.167 164.305C243.135 164.305 243.104 164.312 243.076 164.325C242.811 164.491 242.616 164.747 242.528 165.047C241.554 167.58 242.622 178.318 242.629 178.426C242.639 178.516 242.613 178.607 242.557 178.678L239.887 182.243C239.85 182.277 239.806 182.302 239.759 182.318C239.712 182.334 239.662 182.341 239.613 182.337Z" fill="#282828"/>
<path d="M140.272 193.154C140.225 193.153 140.178 193.141 140.135 193.122C140.092 193.102 140.053 193.074 140.021 193.039C139.989 193.004 139.964 192.963 139.948 192.918C139.931 192.874 139.924 192.827 139.926 192.779L141.448 155.883C141.454 155.787 141.496 155.698 141.566 155.634C141.636 155.569 141.728 155.534 141.823 155.536C141.871 155.538 141.917 155.549 141.96 155.569C142.002 155.589 142.041 155.617 142.072 155.652C142.104 155.687 142.128 155.728 142.143 155.773C142.159 155.817 142.166 155.864 142.163 155.912L140.647 192.808C140.645 192.855 140.634 192.902 140.614 192.945C140.595 192.988 140.566 193.027 140.532 193.059C140.497 193.091 140.456 193.116 140.411 193.132C140.367 193.149 140.319 193.156 140.272 193.154Z" fill="#282828"/>
<path d="M211.865 201.157C211.774 201.157 211.686 201.122 211.62 201.059C211.554 200.995 211.515 200.909 211.512 200.818C211.512 200.341 210.285 160.104 210.234 158.394C210.233 158.346 210.24 158.299 210.256 158.254C210.273 158.21 210.298 158.169 210.33 158.134C210.362 158.1 210.401 158.071 210.444 158.051C210.487 158.032 210.533 158.02 210.581 158.019C210.676 158.02 210.768 158.057 210.837 158.123C210.906 158.188 210.949 158.277 210.956 158.372C210.956 158.791 212.205 200.284 212.226 200.782C212.229 200.829 212.222 200.876 212.207 200.921C212.192 200.965 212.167 201.006 212.136 201.041C212.104 201.076 212.066 201.104 212.023 201.124C211.98 201.144 211.934 201.155 211.887 201.157H211.865Z" fill="#282828"/>
<path d="M225.028 205.075C224.97 205.075 224.913 205.06 224.862 205.032C224.777 204.989 224.713 204.914 224.683 204.823C224.653 204.733 224.66 204.634 224.703 204.549L230.707 192.635C230.728 192.592 230.757 192.554 230.792 192.523C230.828 192.491 230.87 192.467 230.915 192.453C230.96 192.438 231.008 192.432 231.055 192.436C231.102 192.44 231.149 192.454 231.19 192.476C231.233 192.497 231.271 192.526 231.303 192.561C231.334 192.597 231.359 192.638 231.374 192.683C231.389 192.728 231.396 192.776 231.393 192.823C231.39 192.871 231.378 192.917 231.356 192.959L225.331 204.873C225.303 204.931 225.26 204.98 225.207 205.016C225.153 205.051 225.092 205.072 225.028 205.075Z" fill="#282828"/>
<path d="M211.302 168.742C211.207 168.761 211.107 168.741 211.026 168.687C210.945 168.633 210.889 168.549 210.87 168.453C210.85 168.358 210.87 168.258 210.924 168.177C210.978 168.096 211.062 168.039 211.158 168.02C211.721 167.53 214.275 162.132 216.419 157.254C216.434 157.205 216.459 157.161 216.493 157.123C216.526 157.085 216.568 157.054 216.614 157.033C216.66 157.012 216.71 157.001 216.761 157.001C216.811 157.001 216.862 157.011 216.908 157.032C216.955 157.052 216.996 157.082 217.03 157.119C217.064 157.157 217.09 157.201 217.106 157.25C217.122 157.298 217.127 157.349 217.122 157.399C217.117 157.45 217.101 157.498 217.075 157.542C213.9 164.758 211.988 168.547 211.396 168.698L211.302 168.742Z" fill="#282828"/>
<path d="M140.272 176.896C140.184 176.895 140.099 176.862 140.033 176.804C139.966 176.746 139.924 176.666 139.911 176.578L138.013 159.375C138.003 159.279 138.031 159.183 138.091 159.108C138.151 159.033 138.239 158.985 138.334 158.974C138.43 158.964 138.526 158.991 138.601 159.052C138.676 159.112 138.725 159.199 138.735 159.295L140.654 176.499C140.66 176.546 140.655 176.594 140.641 176.64C140.628 176.685 140.605 176.728 140.575 176.765C140.545 176.802 140.508 176.832 140.465 176.855C140.423 176.877 140.377 176.891 140.33 176.896H140.272Z" fill="#282828"/>
<path d="M223.886 183.001L219.737 188.103L222.299 190.592L226.333 185.339L223.886 183.001Z" fill="#282828"/>
<path d="M222.299 190.96C222.204 190.958 222.113 190.919 222.046 190.852L219.491 188.363C219.428 188.298 219.393 188.211 219.393 188.121C219.393 188.03 219.428 187.944 219.491 187.879L223.633 182.777C223.666 182.738 223.705 182.706 223.749 182.682C223.794 182.659 223.843 182.644 223.893 182.64C223.994 182.636 224.093 182.673 224.167 182.741L226.607 185.079C226.668 185.145 226.702 185.231 226.702 185.321C226.702 185.411 226.668 185.497 226.607 185.563L222.58 190.816C222.548 190.855 222.509 190.887 222.464 190.911C222.42 190.935 222.37 190.949 222.32 190.953L222.299 190.96ZM220.228 188.074L222.263 190.051L225.871 185.375L223.944 183.535L220.228 188.074Z" fill="#282828"/>
<path d="M230.843 247.435C230.61 247.434 230.383 247.358 230.196 247.218C230.01 247.078 229.873 246.881 229.807 246.657C229.742 246.433 229.75 246.194 229.832 245.975C229.913 245.757 230.063 245.57 230.259 245.443C230.598 245.227 238.565 239.872 237.432 228.175C236.847 222.214 231.659 218.144 226.644 214.211C221.628 210.278 216.671 206.425 216.729 200.796C216.786 191.293 222.068 186.22 222.292 186.01C222.395 185.909 222.516 185.83 222.65 185.776C222.784 185.723 222.927 185.696 223.071 185.699C223.215 185.702 223.357 185.733 223.489 185.791C223.621 185.849 223.74 185.933 223.839 186.038C223.938 186.142 224.015 186.266 224.065 186.401C224.116 186.536 224.139 186.679 224.134 186.823C224.128 186.967 224.094 187.109 224.033 187.239C223.972 187.37 223.885 187.487 223.779 187.583C223.728 187.634 218.944 192.274 218.893 200.804C218.893 205.371 223.295 208.842 227.979 212.508C233.102 216.528 238.911 221.081 239.582 227.965C240.852 241.012 231.818 247.016 231.435 247.262C231.258 247.373 231.053 247.433 230.843 247.435Z" fill="#282828"/>
<path d="M154.69 115.969C154.602 115.97 154.516 115.938 154.449 115.879C154.383 115.821 154.34 115.74 154.33 115.652L152.626 99.7039C152.616 99.6082 152.644 99.5124 152.704 99.4371C152.764 99.3621 152.852 99.3141 152.948 99.3035C153.043 99.2929 153.139 99.3209 153.214 99.3812C153.29 99.4415 153.338 99.5289 153.348 99.6245L155.044 115.572C155.054 115.667 155.026 115.762 154.967 115.836C154.907 115.911 154.821 115.958 154.726 115.969H154.69Z" fill="#D1D3D4"/>
<path d="M198.63 115.443C198.583 115.438 198.537 115.424 198.495 115.402C198.452 115.379 198.415 115.349 198.385 115.312C198.355 115.275 198.332 115.232 198.319 115.187C198.305 115.141 198.3 115.093 198.306 115.046L200.001 99.0257C200.012 98.93 200.06 98.8423 200.135 98.7823C200.21 98.722 200.306 98.694 200.402 98.7046C200.498 98.7152 200.585 98.7633 200.645 98.8382C200.706 98.9135 200.733 99.0094 200.723 99.105L198.955 115.118C198.946 115.201 198.909 115.278 198.849 115.337C198.79 115.396 198.713 115.433 198.63 115.443Z" fill="#D1D3D4"/>
</g>
</g>
<defs>
<clipPath id="clip0_326_3978">
<rect width="270" height="270" fill="white"/>
</clipPath>
</defs>
</svg>
