<svg width="270" height="270" viewBox="0 0 270 270" fill="none" xmlns="http://www.w3.org/2000/svg">
<g clip-path="url(#clip0_326_3734)">
<path d="M135 269.87C209.487 269.87 269.87 209.487 269.87 135C269.87 60.5131 209.487 0.129639 135 0.129639C60.5131 0.129639 0.129639 60.5131 0.129639 135C0.129639 209.487 60.5131 269.87 135 269.87Z" fill="white" stroke="#282828" stroke-width="0.955753"/>
<mask id="mask0_326_3734" style="mask-type:alpha" maskUnits="userSpaceOnUse" x="0" y="0" width="270" height="270">
<path d="M134.999 268.831C208.912 268.831 268.831 208.913 268.831 135C268.831 61.0868 208.912 1.16846 134.999 1.16846C61.0861 1.16846 1.16772 61.0868 1.16772 135C1.16772 208.913 61.0861 268.831 134.999 268.831Z" fill="white" stroke="#282828" stroke-width="0.955753"/>
</mask>
<g mask="url(#mask0_326_3734)">
<path d="M33.8742 179.727C33.3359 174.86 28.5957 170.415 23.5704 171.091C26.4947 163.786 22.0079 154.463 14.4913 152.173C10.0889 150.832 4.31421 152.447 3.00511 156.86C1.71161 155.22 -0.067852 154.031 -2.0783 153.465C-4.08874 152.898 -6.22699 152.982 -8.18661 153.705C-10.1462 154.428 -11.8266 155.753 -12.9871 157.49C-14.1475 159.227 -14.7283 161.287 -14.6464 163.374C-19.3127 160.576 -25.7525 162.899 -29.0464 167.216C-31.5377 170.489 -33.8287 175.831 -32.6357 179.727H33.8742Z" fill="white"/>
<path d="M33.8739 180.212H-32.636C-32.7408 180.214 -32.8435 180.181 -32.9274 180.118C-33.0116 180.055 -33.0725 179.965 -33.1005 179.864C-34.325 175.873 -32.0446 170.363 -29.437 166.921C-26.3227 162.846 -20.1151 160.175 -15.1321 162.561C-15.0438 160.519 -14.3545 158.549 -13.1507 156.897C-11.9469 155.245 -10.2822 153.986 -8.36532 153.276C-6.44848 152.567 -4.36489 152.44 -2.37592 152.91C-0.38694 153.381 1.41886 154.428 2.81499 155.921C3.50297 154.428 4.67479 153.212 6.14047 152.468C8.7542 151.142 11.7776 150.87 14.5862 151.708C18.3026 153.008 21.3796 155.683 23.1842 159.182C24.9889 162.681 25.3839 166.739 24.2882 170.521C26.4748 170.488 28.6013 171.236 30.2846 172.633C32.5207 174.358 33.985 176.896 34.3596 179.695C34.3667 179.762 34.3591 179.83 34.3371 179.894C34.3153 179.958 34.2797 180.016 34.233 180.065C34.1866 180.113 34.1306 180.15 34.069 180.176C34.0073 180.201 33.9408 180.214 33.8739 180.212ZM-32.2663 179.241H33.2829C32.8195 176.916 31.5338 174.836 29.6618 173.382C28.8292 172.693 27.8666 172.177 26.831 171.867C25.7955 171.557 24.7081 171.458 23.6336 171.577C23.5498 171.585 23.465 171.573 23.3875 171.54C23.3099 171.507 23.242 171.454 23.1902 171.388C23.1385 171.321 23.1045 171.243 23.0916 171.159C23.0787 171.076 23.0872 170.991 23.1164 170.911C24.3668 167.325 24.1459 163.388 22.5018 159.964C20.8578 156.539 17.9244 153.905 14.3434 152.637C11.7745 151.869 9.00893 152.115 6.61555 153.323C5.86944 153.694 5.20493 154.21 4.66101 154.841C4.11713 155.472 3.70485 156.205 3.44841 156.997C3.42233 157.082 3.37365 157.158 3.30764 157.216C3.24164 157.275 3.16083 157.315 3.07391 157.331C2.98698 157.348 2.89727 157.34 2.81442 157.309C2.7316 157.278 2.65878 157.225 2.60384 157.156C1.37381 155.595 -0.318657 154.465 -2.2309 153.926C-4.14313 153.387 -6.17696 153.467 -8.04078 154.155C-9.90456 154.843 -11.5026 156.104 -12.6059 157.756C-13.7091 159.408 -14.2609 161.368 -14.182 163.353C-14.1801 163.441 -14.2016 163.529 -14.2442 163.607C-14.2868 163.685 -14.3491 163.75 -14.4248 163.796C-14.5009 163.838 -14.5862 163.859 -14.6729 163.859C-14.7596 163.859 -14.8449 163.838 -14.921 163.796C-19.5556 161.02 -25.6682 163.564 -28.6452 167.512C-31.063 170.658 -33.1638 175.599 -32.2663 179.241Z" fill="#D1D3D4"/>
<path d="M280.681 180.213H180.133C180.005 180.213 179.881 180.162 179.79 180.071C179.699 179.98 179.648 179.856 179.648 179.727C179.646 179.663 179.658 179.599 179.682 179.54C179.706 179.48 179.742 179.426 179.787 179.381C179.832 179.335 179.886 179.299 179.946 179.276C180.006 179.252 180.069 179.24 180.133 179.242H280.681C280.743 179.24 280.808 179.252 280.868 179.276C280.928 179.299 280.982 179.335 281.025 179.381C281.072 179.426 281.107 179.48 281.131 179.54C281.156 179.599 281.167 179.663 281.164 179.727C281.164 179.856 281.115 179.98 281.023 180.071C280.933 180.162 280.808 180.213 280.681 180.213Z" fill="#D1D3D4"/>
<path d="M292.757 265.8C292.681 265.802 292.608 265.784 292.545 265.747L128.73 184.805C128.672 184.777 128.621 184.737 128.578 184.689C128.536 184.641 128.504 184.585 128.483 184.524C128.463 184.463 128.454 184.399 128.459 184.335C128.463 184.271 128.48 184.208 128.508 184.151C128.536 184.093 128.576 184.042 128.624 184C128.672 183.957 128.729 183.925 128.789 183.904C128.85 183.884 128.914 183.876 128.979 183.88C129.042 183.884 129.105 183.901 129.162 183.929L292.988 264.881C293.086 264.931 293.165 265.012 293.208 265.111C293.254 265.21 293.265 265.322 293.241 265.428C293.214 265.534 293.154 265.629 293.067 265.696C292.983 265.764 292.877 265.8 292.765 265.8H292.757Z" fill="#D1D3D4"/>
<path d="M5.83616 55.0156H173.505L180.134 89.7804H-0.793701L5.83616 55.0156Z" fill="white"/>
<path d="M180.133 90.2869H-0.794783C-0.865743 90.2858 -0.935606 90.2693 -0.999445 90.2383C-1.06328 90.2073 -1.11955 90.1625 -1.16428 90.1076C-1.20978 90.0522 -1.24278 89.9879 -1.26101 89.9186C-1.27923 89.8493 -1.28225 89.7768 -1.26986 89.7064L5.36004 54.9522C5.37979 54.8403 5.43813 54.739 5.52495 54.6657C5.61173 54.5923 5.7215 54.5518 5.83509 54.551H173.503C173.617 54.5518 173.727 54.5923 173.814 54.6657C173.9 54.739 173.959 54.8403 173.979 54.9522L180.608 89.7064C180.623 89.7768 180.621 89.8499 180.603 89.9194C180.585 89.9889 180.55 90.0533 180.503 90.1076C180.46 90.1644 180.404 90.2103 180.34 90.2416C180.275 90.2725 180.205 90.2883 180.133 90.2869ZM-0.203585 89.2947H179.542L173.102 55.5118H6.23626L-0.203585 89.2947Z" fill="#D1D3D4"/>
<path d="M176.132 89.7803H3.21729V180.825H176.132V89.7803Z" fill="white"/>
<path d="M176.124 181.31H3.21914C3.09036 181.31 2.96682 181.259 2.87577 181.168C2.78469 181.077 2.73352 180.953 2.73352 180.825V89.78C2.73208 89.7159 2.74365 89.652 2.76755 89.5926C2.79143 89.5328 2.82715 89.4787 2.87254 89.4334C2.91793 89.388 2.97204 89.3522 3.0316 89.3283C3.09117 89.3043 3.15498 89.2929 3.21914 89.2943H176.124C176.188 89.2929 176.252 89.3043 176.311 89.3283C176.371 89.3522 176.425 89.388 176.47 89.4334C176.516 89.4787 176.552 89.5328 176.575 89.5926C176.599 89.652 176.611 89.7159 176.609 89.78V180.825C176.609 180.953 176.558 181.077 176.467 181.168C176.376 181.259 176.252 181.31 176.124 181.31ZM3.72589 180.339H175.638V90.2866H3.72589V180.339Z" fill="#D1D3D4"/>
<path d="M91.1671 33.4897L32.1843 89.7804H147.152L91.1671 33.4897Z" fill="white"/>
<path d="M147.154 90.2867H32.2292C32.132 90.2859 32.0369 90.2565 31.9562 90.2019C31.8756 90.1476 31.8126 90.0705 31.7753 89.9805C31.7379 89.8896 31.7289 89.7896 31.7498 89.6934C31.7705 89.5973 31.8199 89.5095 31.8916 89.4422L90.8741 33.1621C90.9665 33.0738 91.0895 33.0244 91.2174 33.0244C91.3451 33.0244 91.4682 33.0738 91.5605 33.1621L147.513 89.4422C147.581 89.5101 147.627 89.5962 147.646 89.6902C147.665 89.7842 147.655 89.8814 147.619 89.97C147.584 90.0645 147.52 90.1457 147.437 90.2025C147.354 90.2592 147.255 90.2886 147.154 90.2867ZM33.4013 89.3156H145.993L91.1593 34.1756L33.4013 89.3156Z" fill="#D1D3D4"/>
<path d="M90.83 39.845L39.0261 89.78H140.311L90.83 39.845Z" fill="white"/>
<path d="M140.31 90.2873H39.0248C38.9276 90.2865 38.8325 90.2569 38.7518 90.2025C38.6712 90.1479 38.6081 90.0711 38.5709 89.9812C38.5364 89.8896 38.5288 89.7902 38.5495 89.6946C38.5701 89.5992 38.6179 89.5118 38.6872 89.4428L90.4911 39.518C90.5821 39.427 90.7054 39.376 90.8341 39.376C90.9626 39.376 91.0862 39.427 91.1772 39.518L140.658 89.4531C140.728 89.521 140.776 89.6085 140.796 89.7041C140.816 89.7997 140.806 89.8988 140.768 89.989C140.731 90.0789 140.667 90.1555 140.585 90.2088C140.504 90.262 140.408 90.2892 140.31 90.2873ZM40.2284 89.3159H139.149L90.8181 40.5209L40.2284 89.3159Z" fill="#D1D3D4"/>
<path d="M89.67 81.4827C95.8093 81.4827 100.787 76.5056 100.787 70.366C100.787 64.2266 95.8093 59.2493 89.67 59.2493C83.5303 59.2493 78.5532 64.2266 78.5532 70.366C78.5532 76.5056 83.5303 81.4827 89.67 81.4827Z" fill="white"/>
<path d="M89.6694 81.9681C87.3728 81.9681 85.1275 81.2871 83.2177 80.011C81.3081 78.7348 79.8196 76.9212 78.9406 74.7992C78.0616 72.6772 77.8318 70.3423 78.2797 68.0897C78.7279 65.837 79.834 63.7678 81.458 62.1437C83.0821 60.5196 85.1514 59.4135 87.404 58.9656C89.6567 58.5174 91.9916 58.7475 94.1136 59.6265C96.2355 60.5052 98.0492 61.9937 99.3253 63.9036C100.601 65.8131 101.282 68.0584 101.282 70.3553C101.282 73.4351 100.059 76.389 97.8811 78.5667C95.7031 80.7446 92.7494 81.9681 89.6694 81.9681ZM89.6694 59.7349C87.567 59.7349 85.5116 60.3583 83.7634 61.5265C82.0149 62.6946 80.6524 64.355 79.8478 66.2975C79.043 68.2401 78.8325 70.3776 79.2426 72.4398C79.6531 74.502 80.6654 76.3964 82.1523 77.883C83.639 79.3699 85.5333 80.3823 87.5955 80.7927C89.6577 81.2029 91.7952 80.9924 93.7379 80.1875C95.6803 79.383 97.3408 78.0205 98.5088 76.272C99.6771 74.5238 100.3 72.4683 100.3 70.3659C100.298 67.5472 99.1767 64.8448 97.1838 62.8516C95.1906 60.8586 92.4881 59.7376 89.6694 59.7349Z" fill="#D1D3D4"/>
<path d="M125.595 176.232H53.7434V180.814H125.595V176.232Z" fill="white"/>
<path d="M125.595 181.311H53.7427C53.614 181.311 53.4907 181.26 53.3994 181.169C53.3084 181.078 53.2573 180.954 53.2573 180.825V176.233C53.2573 176.104 53.3084 175.98 53.3994 175.889C53.4907 175.798 53.614 175.747 53.7427 175.747H125.595C125.724 175.747 125.847 175.798 125.938 175.889C126.029 175.98 126.08 176.104 126.08 176.233V180.825C126.08 180.954 126.029 181.078 125.938 181.169C125.847 181.26 125.724 181.311 125.595 181.311ZM54.2284 180.34H125.13V176.718H54.2284V180.34Z" fill="#D1D3D4"/>
<path d="M123.051 171.651H56.2878V176.233H123.051V171.651Z" fill="white"/>
<path d="M123.019 176.718H56.2874C56.1587 176.718 56.0351 176.667 55.9441 176.576C55.8528 176.485 55.8018 176.362 55.8018 176.233V171.651C55.8018 171.522 55.8528 171.399 55.9441 171.307C56.0351 171.216 56.1587 171.165 56.2874 171.165H123.019C123.148 171.165 123.271 171.216 123.362 171.307C123.453 171.399 123.505 171.522 123.505 171.651V176.233C123.505 176.362 123.453 176.485 123.362 176.576C123.271 176.667 123.148 176.718 123.019 176.718ZM56.7731 175.8H122.565V172.189H56.7731V175.8Z" fill="#D1D3D4"/>
<path d="M116.368 167.059H62.981V171.64H116.368V167.059Z" fill="white"/>
<path d="M116.358 172.137H62.9808C62.852 172.137 62.7284 172.085 62.6375 171.994C62.5462 171.903 62.4951 171.78 62.4951 171.651V167.058C62.4951 166.93 62.5462 166.806 62.6375 166.715C62.7284 166.624 62.852 166.573 62.9808 166.573H116.358C116.487 166.573 116.612 166.624 116.705 166.714C116.797 166.805 116.851 166.929 116.854 167.058V171.651C116.851 171.78 116.797 171.904 116.705 171.995C116.612 172.086 116.487 172.137 116.358 172.137ZM63.4665 171.165H115.872V167.544H63.4665V171.165Z" fill="#D1D3D4"/>
<path d="M116.368 128.673H62.981V138.069H116.368V128.673Z" fill="white"/>
<path d="M116.358 138.555H62.9808C62.852 138.555 62.7284 138.503 62.6375 138.412C62.5462 138.321 62.4951 138.198 62.4951 138.069V128.673C62.4951 128.544 62.5462 128.421 62.6375 128.33C62.7284 128.239 62.852 128.188 62.9808 128.188H116.358C116.487 128.187 116.612 128.238 116.705 128.329C116.797 128.42 116.851 128.543 116.854 128.673V138.069C116.851 138.199 116.797 138.322 116.705 138.413C116.612 138.504 116.487 138.555 116.358 138.555ZM63.4665 137.583H115.872V129.137H63.4665V137.583Z" fill="#D1D3D4"/>
<path d="M73.9611 167.059V138.069H67.574V167.059H73.9611Z" fill="white"/>
<path d="M73.9577 167.544H67.5706C67.507 167.544 67.4438 167.532 67.3848 167.507C67.3259 167.483 67.2724 167.447 67.2273 167.402C67.1822 167.357 67.1466 167.303 67.1221 167.244C67.0977 167.185 67.0852 167.122 67.0852 167.058V138.069C67.0879 137.941 67.1398 137.819 67.2303 137.728C67.3207 137.638 67.4427 137.586 67.5706 137.583H73.9577C74.0856 137.586 74.2076 137.638 74.2983 137.728C74.3888 137.819 74.4407 137.941 74.4434 138.069V167.058C74.4434 167.187 74.3923 167.311 74.301 167.402C74.2101 167.493 74.0865 167.544 73.9577 167.544ZM68.0563 166.573H73.472V138.554H68.0563V166.573Z" fill="#D1D3D4"/>
<path d="M111.765 167.059V138.069H105.378V167.059H111.765Z" fill="white"/>
<path d="M111.766 167.544H105.379C105.25 167.544 105.126 167.493 105.035 167.402C104.944 167.311 104.893 167.187 104.893 167.058V138.069C104.896 137.941 104.948 137.819 105.038 137.728C105.129 137.638 105.251 137.586 105.379 137.583H111.766C111.894 137.586 112.016 137.638 112.106 137.728C112.197 137.819 112.249 137.941 112.252 138.069V167.058C112.252 167.187 112.2 167.311 112.109 167.402C112.018 167.493 111.895 167.544 111.766 167.544ZM105.864 166.573H111.28V138.554H105.864V166.573Z" fill="#D1D3D4"/>
<path d="M103.034 138.069H76.304V167.059H103.034V138.069Z" fill="white"/>
<path d="M103.034 167.544H76.3033C76.2397 167.544 76.1764 167.532 76.1175 167.507C76.0585 167.483 76.005 167.447 75.9599 167.402C75.9148 167.357 75.8793 167.303 75.8548 167.244C75.8304 167.185 75.8179 167.122 75.8179 167.058V138.069C75.8203 137.941 75.8725 137.819 75.9629 137.728C76.0534 137.638 76.1753 137.586 76.3033 137.583H103.034C103.162 137.586 103.284 137.638 103.374 137.728C103.465 137.819 103.517 137.941 103.52 138.069V167.058C103.52 167.122 103.507 167.185 103.483 167.244C103.458 167.303 103.423 167.357 103.377 167.402C103.332 167.447 103.279 167.483 103.22 167.507C103.161 167.532 103.098 167.544 103.034 167.544ZM76.7889 166.573H102.548V138.554H76.7889V166.573Z" fill="#D1D3D4"/>
<path d="M89.6685 167.544C89.5398 167.544 89.4162 167.493 89.3252 167.402C89.2342 167.311 89.1829 167.187 89.1829 167.058V138.069C89.1829 137.94 89.2342 137.816 89.3252 137.725C89.4162 137.634 89.5398 137.583 89.6685 137.583C89.7973 137.583 89.9209 137.634 90.0121 137.725C90.1031 137.816 90.1542 137.94 90.1542 138.069V167.058C90.1542 167.187 90.1031 167.311 90.0121 167.402C89.9209 167.493 89.7973 167.544 89.6685 167.544Z" fill="#D1D3D4"/>
<path d="M87.8425 142.186H78.7527V156.259H87.8425V142.186Z" fill="white"/>
<path d="M87.844 156.797H78.7545C78.6257 156.797 78.5021 156.746 78.4111 156.655C78.3201 156.564 78.2688 156.44 78.2688 156.311V142.186C78.2715 142.058 78.3237 141.936 78.4141 141.846C78.5046 141.755 78.6265 141.703 78.7545 141.7H87.844C87.9722 141.703 88.0942 141.755 88.1846 141.846C88.2751 141.936 88.327 142.058 88.3297 142.186V156.258C88.3373 156.327 88.3302 156.396 88.3091 156.461C88.2881 156.526 88.2536 156.586 88.2077 156.637C88.1618 156.687 88.1056 156.728 88.0431 156.756C87.9804 156.783 87.9127 156.797 87.844 156.797ZM79.2402 155.826H87.3586V142.672H79.2402V155.826Z" fill="#D1D3D4"/>
<path d="M100.584 142.186H91.4939V156.259H100.584V142.186Z" fill="white"/>
<path d="M100.586 156.797H91.4959C91.4321 156.797 91.3691 156.784 91.3101 156.76C91.2512 156.736 91.1977 156.7 91.1526 156.655C91.1075 156.61 91.0716 156.556 91.0472 156.497C91.0227 156.438 91.0103 156.375 91.0103 156.311V142.186C91.013 142.058 91.0651 141.936 91.1556 141.846C91.246 141.755 91.368 141.703 91.4959 141.7H100.586C100.714 141.703 100.836 141.755 100.926 141.846C101.017 141.936 101.068 142.058 101.071 142.186V156.258C101.079 156.327 101.072 156.396 101.051 156.461C101.03 156.526 100.995 156.586 100.949 156.637C100.903 156.687 100.847 156.728 100.785 156.756C100.722 156.783 100.654 156.797 100.586 156.797ZM91.9816 155.741H100.1V142.672H91.9816V155.741Z" fill="#D1D3D4"/>
<path d="M33.8747 102.48H20.2771V121.135H33.8747V102.48Z" fill="white"/>
<path d="M33.8742 121.631H20.2661C20.1364 121.628 20.0129 121.575 19.9221 121.482C19.8313 121.389 19.7805 121.265 19.7805 121.135V102.48C19.7832 102.352 19.8352 102.23 19.9257 102.14C20.0162 102.049 20.1382 101.997 20.2661 101.995H33.8742C34.0021 101.997 34.1241 102.049 34.2148 102.14C34.3052 102.23 34.3571 102.352 34.3598 102.48V121.135C34.3598 121.265 34.309 121.389 34.2183 121.482C34.1276 121.575 34.004 121.628 33.8742 121.631ZM20.7623 120.649H33.4309V102.955H20.7623V120.649Z" fill="#D1D3D4"/>
<path d="M27.0741 121.631C27.0094 121.631 26.9454 121.618 26.8858 121.593C26.8262 121.568 26.7722 121.531 26.7269 121.485C26.6817 121.439 26.6461 121.384 26.6224 121.324C26.5986 121.264 26.5871 121.199 26.5885 121.135V102.48C26.5885 102.352 26.6396 102.228 26.7307 102.137C26.8218 102.046 26.9453 101.995 27.0741 101.995C27.2022 101.997 27.3241 102.049 27.4146 102.14C27.505 102.23 27.5572 102.352 27.5596 102.48V121.135C27.5599 121.265 27.5088 121.389 27.4181 121.482C27.3274 121.575 27.2038 121.628 27.0741 121.631Z" fill="#D1D3D4"/>
<path d="M33.8742 108.794H20.2661C20.1482 108.776 20.0406 108.717 19.9627 108.627C19.8849 108.537 19.842 108.422 19.842 108.303C19.842 108.184 19.8849 108.069 19.9627 107.979C20.0406 107.888 20.1482 107.829 20.2661 107.812H33.8742C33.9921 107.829 34.0996 107.888 34.1776 107.979C34.2553 108.069 34.2982 108.184 34.2982 108.303C34.2982 108.422 34.2553 108.537 34.1776 108.627C34.0996 108.717 33.9921 108.776 33.8742 108.794Z" fill="#D1D3D4"/>
<path d="M33.8742 115.804H20.2661C20.1373 115.804 20.0138 115.753 19.9227 115.662C19.8317 115.57 19.7805 115.447 19.7805 115.318C19.7805 115.189 19.8317 115.066 19.9227 114.975C20.0138 114.884 20.1373 114.833 20.2661 114.833H33.8742C34.0032 114.833 34.1265 114.884 34.2178 114.975C34.3088 115.066 34.3598 115.189 34.3598 115.318C34.3598 115.447 34.3088 115.57 34.2178 115.662C34.1265 115.753 34.0032 115.804 33.8742 115.804Z" fill="#D1D3D4"/>
<path d="M58.9054 102.48H45.3076V121.135H58.9054V102.48Z" fill="white"/>
<path d="M58.9178 121.631H45.3096C45.1798 121.628 45.0565 121.575 44.9655 121.482C44.8748 121.389 44.824 121.265 44.824 121.135V102.48C44.8267 102.352 44.8788 102.23 44.9693 102.14C45.0597 102.049 45.1817 101.997 45.3096 101.995H58.9178C59.0457 101.997 59.1677 102.049 59.2581 102.14C59.3488 102.23 59.4007 102.352 59.4034 102.48V121.135C59.4034 121.265 59.3526 121.389 59.2619 121.482C59.1712 121.575 59.0476 121.628 58.9178 121.631ZM45.7953 120.649H58.4639V102.955H45.7953V120.649Z" fill="#D1D3D4"/>
<path d="M52.109 121.631C51.9791 121.628 51.8555 121.575 51.7648 121.482C51.6741 121.389 51.6233 121.265 51.6233 121.135V102.48C51.626 102.352 51.6779 102.23 51.7683 102.14C51.8591 102.049 51.981 101.997 52.109 101.995C52.2377 101.995 52.3613 102.046 52.4523 102.137C52.5433 102.228 52.5946 102.352 52.5946 102.48V121.135C52.596 121.199 52.5843 121.264 52.5607 121.324C52.5368 121.384 52.5012 121.439 52.4561 121.485C52.4107 121.531 52.3567 121.568 52.2972 121.593C52.2374 121.618 52.1736 121.631 52.109 121.631Z" fill="#D1D3D4"/>
<path d="M58.9154 108.794H45.3073C45.1894 108.776 45.0819 108.717 45.0039 108.627C44.9262 108.537 44.8833 108.422 44.8833 108.303C44.8833 108.184 44.9262 108.069 45.0039 107.979C45.0819 107.888 45.1894 107.829 45.3073 107.812H58.9154C59.0333 107.829 59.1409 107.888 59.2188 107.979C59.2965 108.069 59.3394 108.184 59.3394 108.303C59.3394 108.422 59.2965 108.537 59.2188 108.627C59.1409 108.717 59.0333 108.776 58.9154 108.794Z" fill="#D1D3D4"/>
<path d="M58.9178 115.804H45.3096C45.1809 115.804 45.0573 115.753 44.9663 115.662C44.8753 115.57 44.824 115.447 44.824 115.318C44.824 115.189 44.8753 115.066 44.9663 114.975C45.0573 114.884 45.1809 114.833 45.3096 114.833H58.9178C59.0465 114.833 59.1701 114.884 59.2611 114.975C59.3524 115.066 59.4034 115.189 59.4034 115.318C59.4034 115.447 59.3524 115.57 59.2611 115.662C59.1701 115.753 59.0465 115.804 58.9178 115.804Z" fill="#D1D3D4"/>
<path d="M83.9467 102.48H70.3489V121.135H83.9467V102.48Z" fill="white"/>
<path d="M83.959 121.631H70.3509C70.2211 121.628 70.0977 121.575 70.0068 121.482C69.916 121.389 69.8652 121.265 69.8652 121.135V102.48C69.868 102.352 69.9201 102.23 70.0106 102.14C70.101 102.049 70.223 101.997 70.3509 101.995H83.959C84.0878 101.995 84.2114 102.046 84.3024 102.137C84.3936 102.228 84.4447 102.352 84.4447 102.48V121.135C84.4461 121.199 84.4346 121.264 84.4107 121.324C84.3871 121.384 84.3515 121.439 84.3062 121.485C84.2611 121.531 84.207 121.568 84.1473 121.593C84.0878 121.618 84.0237 121.631 83.959 121.631ZM70.8472 120.649H83.5157V102.955H70.8472V120.649Z" fill="#D1D3D4"/>
<path d="M77.148 121.631C77.0182 121.628 76.8946 121.575 76.8039 121.482C76.7132 121.389 76.6624 121.265 76.6624 121.135V102.48C76.6651 102.352 76.717 102.23 76.8077 102.14C76.8981 102.049 77.0201 101.997 77.148 101.995C77.2768 101.995 77.4004 102.046 77.4914 102.137C77.5824 102.228 77.6337 102.352 77.6337 102.48V121.135C77.6351 121.199 77.6234 121.264 77.5998 121.324C77.5758 121.384 77.5405 121.439 77.4952 121.485C77.4498 121.531 77.396 121.568 77.3363 121.593C77.2768 121.618 77.2127 121.631 77.148 121.631Z" fill="#D1D3D4"/>
<path d="M83.9567 108.794H70.3486C70.2307 108.776 70.1231 108.717 70.0452 108.627C69.9675 108.537 69.9246 108.422 69.9246 108.303C69.9246 108.184 69.9675 108.069 70.0452 107.979C70.1231 107.888 70.2307 107.829 70.3486 107.812H83.9567C84.0746 107.829 84.1821 107.888 84.2601 107.979C84.3378 108.069 84.3807 108.184 84.3807 108.303C84.3807 108.422 84.3378 108.537 84.2601 108.627C84.1821 108.717 84.0746 108.776 83.9567 108.794Z" fill="#D1D3D4"/>
<path d="M83.959 115.804H70.3509C70.2222 115.804 70.0986 115.753 70.0076 115.662C69.9166 115.57 69.8652 115.447 69.8652 115.318C69.8652 115.189 69.9166 115.066 70.0076 114.975C70.0986 114.884 70.2222 114.833 70.3509 114.833H83.959C84.0878 114.833 84.2114 114.884 84.3024 114.975C84.3936 115.066 84.4447 115.189 84.4447 115.318C84.4447 115.447 84.3936 115.57 84.3024 115.662C84.2114 115.753 84.0878 115.804 83.959 115.804Z" fill="#D1D3D4"/>
<path d="M108.988 102.48H95.3901V121.135H108.988V102.48Z" fill="white"/>
<path d="M108.99 121.631H95.392C95.3274 121.631 95.2636 121.618 95.2038 121.593C95.1443 121.568 95.0903 121.531 95.0449 121.485C94.9998 121.439 94.9642 121.384 94.9403 121.324C94.9167 121.264 94.905 121.199 94.9066 121.135V102.48C94.9066 102.352 94.9577 102.228 95.0487 102.137C95.1397 102.046 95.2633 101.995 95.392 101.995H108.99C109.118 101.997 109.24 102.049 109.33 102.14C109.421 102.23 109.473 102.352 109.475 102.48V121.135C109.476 121.265 109.424 121.389 109.334 121.482C109.243 121.575 109.119 121.628 108.99 121.631ZM95.8777 120.649H108.546V102.955H95.8777V120.649Z" fill="#D1D3D4"/>
<path d="M102.191 121.631C102.062 121.628 101.938 121.575 101.847 121.482C101.757 121.389 101.706 121.265 101.706 121.135V102.48C101.706 102.352 101.757 102.228 101.848 102.137C101.939 102.046 102.062 101.995 102.191 101.995C102.32 101.995 102.444 102.046 102.535 102.137C102.626 102.228 102.677 102.352 102.677 102.48V121.135C102.677 121.265 102.626 121.389 102.535 121.482C102.445 121.575 102.321 121.628 102.191 121.631Z" fill="#D1D3D4"/>
<path d="M108.987 108.794H95.3898C95.2719 108.776 95.1644 108.717 95.0864 108.627C95.0087 108.537 94.9658 108.422 94.9658 108.303C94.9658 108.184 95.0087 108.069 95.0864 107.979C95.1644 107.888 95.2719 107.829 95.3898 107.812H108.987C109.105 107.829 109.213 107.888 109.291 107.979C109.368 108.069 109.411 108.184 109.411 108.303C109.411 108.422 109.368 108.537 109.291 108.627C109.213 108.717 109.105 108.776 108.987 108.794Z" fill="#D1D3D4"/>
<path d="M108.99 115.804H95.3922C95.2634 115.804 95.1398 115.753 95.0488 115.662C94.9576 115.57 94.9065 115.447 94.9065 115.318C94.9065 115.189 94.9576 115.066 95.0488 114.975C95.1398 114.884 95.2634 114.833 95.3922 114.833H108.99C109.118 114.833 109.242 114.884 109.333 114.975C109.424 115.066 109.475 115.189 109.475 115.318C109.475 115.447 109.424 115.57 109.333 115.662C109.242 115.753 109.118 115.804 108.99 115.804Z" fill="#D1D3D4"/>
<path d="M134.031 102.48H120.434V121.135H134.031V102.48Z" fill="white"/>
<path d="M134.033 121.631H120.435C120.304 121.631 120.177 121.579 120.085 121.486C119.991 121.393 119.939 121.266 119.939 121.135V102.48C119.942 102.35 119.995 102.227 120.088 102.136C120.181 102.045 120.306 101.995 120.435 101.995H134.033C134.161 101.997 134.283 102.049 134.373 102.14C134.464 102.23 134.516 102.352 134.519 102.48V121.135C134.519 121.265 134.468 121.389 134.377 121.482C134.286 121.575 134.163 121.628 134.033 121.631ZM120.91 120.649H133.579V102.955H120.91V120.649Z" fill="#D1D3D4"/>
<path d="M127.241 121.631C127.177 121.631 127.112 121.618 127.053 121.593C126.993 121.568 126.939 121.531 126.894 121.485C126.849 121.439 126.813 121.384 126.789 121.324C126.766 121.264 126.754 121.199 126.755 121.135V102.48C126.755 102.352 126.807 102.228 126.898 102.137C126.989 102.046 127.112 101.995 127.241 101.995C127.369 101.997 127.491 102.049 127.581 102.14C127.672 102.23 127.724 102.352 127.727 102.48V121.135C127.727 121.265 127.676 121.389 127.585 121.482C127.495 121.575 127.371 121.628 127.241 121.631Z" fill="#D1D3D4"/>
<path d="M134.029 108.794H120.431C120.361 108.804 120.289 108.799 120.22 108.779C120.152 108.759 120.089 108.725 120.035 108.678C119.981 108.632 119.937 108.574 119.908 108.509C119.878 108.444 119.863 108.374 119.863 108.303C119.863 108.231 119.878 108.161 119.908 108.096C119.937 108.032 119.981 107.974 120.035 107.927C120.089 107.881 120.152 107.846 120.22 107.826C120.289 107.807 120.361 107.801 120.431 107.812H134.029C134.147 107.829 134.254 107.888 134.332 107.979C134.41 108.069 134.453 108.184 134.453 108.303C134.453 108.422 134.41 108.537 134.332 108.627C134.254 108.717 134.147 108.776 134.029 108.794Z" fill="#D1D3D4"/>
<path d="M134.031 115.804H120.433C120.305 115.804 120.181 115.753 120.09 115.662C119.999 115.57 119.948 115.447 119.948 115.318C119.948 115.189 119.999 115.066 120.09 114.975C120.181 114.884 120.305 114.833 120.433 114.833H134.031C134.16 114.833 134.283 114.884 134.374 114.975C134.466 115.066 134.517 115.189 134.517 115.318C134.517 115.447 134.466 115.57 134.374 115.662C134.283 115.753 134.16 115.804 134.031 115.804Z" fill="#D1D3D4"/>
<path d="M159.062 102.48H145.464V121.135H159.062V102.48Z" fill="white"/>
<path d="M159.072 121.631H145.464C145.334 121.628 145.211 121.575 145.12 121.482C145.029 121.389 144.978 121.265 144.978 121.135V102.48C144.981 102.352 145.033 102.23 145.124 102.14C145.214 102.049 145.336 101.997 145.464 101.995H159.072C159.2 101.997 159.322 102.049 159.412 102.14C159.503 102.23 159.555 102.352 159.558 102.48V121.135C159.558 121.265 159.507 121.389 159.416 121.482C159.325 121.575 159.202 121.628 159.072 121.631ZM145.95 120.649H158.618V102.955H145.95V120.649Z" fill="#D1D3D4"/>
<path d="M152.274 121.631C152.142 121.631 152.016 121.579 151.923 121.486C151.83 121.393 151.778 121.267 151.778 121.135V102.481C151.795 102.363 151.854 102.255 151.944 102.177C152.035 102.099 152.149 102.057 152.269 102.057C152.388 102.057 152.503 102.099 152.593 102.177C152.683 102.255 152.742 102.363 152.759 102.481V121.135C152.759 121.265 152.709 121.389 152.618 121.482C152.527 121.575 152.404 121.628 152.274 121.631Z" fill="#D1D3D4"/>
<path d="M159.072 108.794H145.464C145.346 108.776 145.238 108.717 145.161 108.627C145.083 108.537 145.04 108.422 145.04 108.303C145.04 108.184 145.083 108.069 145.161 107.979C145.238 107.888 145.346 107.829 145.464 107.812H159.072C159.19 107.829 159.298 107.888 159.375 107.979C159.453 108.069 159.496 108.184 159.496 108.303C159.496 108.422 159.453 108.537 159.375 108.627C159.298 108.717 159.19 108.776 159.072 108.794Z" fill="#D1D3D4"/>
<path d="M159.072 115.804H145.464C145.335 115.804 145.212 115.753 145.121 115.662C145.029 115.57 144.978 115.447 144.978 115.318C144.978 115.189 145.029 115.066 145.121 114.975C145.212 114.884 145.335 114.833 145.464 114.833H159.072C159.201 114.833 159.324 114.884 159.415 114.975C159.506 115.066 159.558 115.189 159.558 115.318C159.558 115.447 159.506 115.57 159.415 115.662C159.324 115.753 159.201 115.804 159.072 115.804Z" fill="#D1D3D4"/>
<path d="M33.8747 140.296H20.2771V158.951H33.8747V140.296Z" fill="white"/>
<path d="M33.8742 159.447H20.2661C20.1382 159.444 20.0162 159.392 19.9257 159.301C19.8352 159.211 19.7832 159.089 19.7805 158.961V140.296C19.7832 140.168 19.8352 140.046 19.9257 139.956C20.0162 139.865 20.1382 139.813 20.2661 139.81H33.8742C34.0021 139.813 34.1241 139.865 34.2148 139.956C34.3052 140.046 34.3571 140.168 34.3598 140.296V158.961C34.3571 159.089 34.3052 159.211 34.2148 159.301C34.1241 159.392 34.0021 159.444 33.8742 159.447ZM20.7623 158.475H33.4309V140.782H20.7623V158.475Z" fill="#D1D3D4"/>
<path d="M27.074 159.447C26.9452 159.447 26.8217 159.395 26.7306 159.304C26.6395 159.213 26.5884 159.09 26.5884 158.961V140.296C26.5884 140.232 26.6009 140.169 26.6253 140.11C26.6497 140.051 26.6855 139.998 26.7306 139.953C26.7757 139.908 26.8292 139.872 26.8881 139.847C26.9471 139.823 27.0102 139.81 27.074 139.81C27.2019 139.813 27.3238 139.865 27.4143 139.956C27.505 140.046 27.5569 140.168 27.5596 140.296V158.961C27.5569 159.089 27.505 159.211 27.4143 159.301C27.3238 159.392 27.2019 159.444 27.074 159.447Z" fill="#D1D3D4"/>
<path d="M33.8742 146.609H20.2661C20.1382 146.606 20.0162 146.554 19.9257 146.464C19.8352 146.374 19.7832 146.252 19.7805 146.124C19.7805 145.995 19.8317 145.871 19.9227 145.78C20.0138 145.689 20.1373 145.638 20.2661 145.638H33.8742C34.0032 145.638 34.1265 145.689 34.2178 145.78C34.3088 145.871 34.3598 145.995 34.3598 146.124C34.3571 146.252 34.3052 146.374 34.2148 146.464C34.1241 146.554 34.0021 146.606 33.8742 146.609Z" fill="#D1D3D4"/>
<path d="M33.8742 153.629H20.2661C20.2024 153.629 20.1392 153.617 20.0803 153.592C20.0214 153.568 19.9678 153.532 19.9227 153.487C19.8777 153.442 19.8419 153.389 19.8175 153.33C19.7931 153.271 19.7805 153.207 19.7805 153.144C19.7832 153.016 19.8352 152.894 19.9257 152.803C20.0162 152.713 20.1382 152.661 20.2661 152.658H33.8742C34.0021 152.661 34.1241 152.713 34.2148 152.803C34.3052 152.894 34.3571 153.016 34.3598 153.144C34.3598 153.207 34.3473 153.271 34.3229 153.33C34.2985 153.389 34.2629 153.442 34.2178 153.487C34.1727 153.532 34.1189 153.568 34.0602 153.592C34.0013 153.617 33.938 153.629 33.8742 153.629Z" fill="#D1D3D4"/>
<path d="M58.9054 140.296H45.3076V158.951H58.9054V140.296Z" fill="white"/>
<path d="M58.9178 159.447H45.3096C45.1817 159.444 45.0597 159.392 44.9693 159.301C44.8788 159.211 44.8267 159.089 44.824 158.961V140.296C44.8267 140.168 44.8788 140.046 44.9693 139.956C45.0597 139.865 45.1817 139.813 45.3096 139.81H58.9178C59.0457 139.813 59.1677 139.865 59.2581 139.956C59.3488 140.046 59.4007 140.168 59.4034 140.296V158.961C59.4007 159.089 59.3488 159.211 59.2581 159.301C59.1677 159.392 59.0457 159.444 58.9178 159.447ZM45.7953 158.475H58.4639V140.782H45.7953V158.475Z" fill="#D1D3D4"/>
<path d="M52.109 159.447C51.981 159.444 51.8591 159.392 51.7683 159.301C51.6779 159.211 51.626 159.089 51.6233 158.961V140.296C51.626 140.168 51.6779 140.046 51.7683 139.956C51.8591 139.865 51.981 139.813 52.109 139.81C52.2377 139.81 52.3613 139.862 52.4523 139.953C52.5433 140.044 52.5946 140.167 52.5946 140.296V158.961C52.5946 159.09 52.5433 159.213 52.4523 159.304C52.3613 159.395 52.2377 159.447 52.109 159.447Z" fill="#D1D3D4"/>
<path d="M58.9178 146.609H45.3096C45.1817 146.606 45.0597 146.554 44.9693 146.464C44.8788 146.374 44.8267 146.252 44.824 146.124C44.824 145.995 44.8753 145.871 44.9663 145.78C45.0573 145.689 45.1809 145.638 45.3096 145.638H58.9178C58.9816 145.638 59.0446 145.65 59.1035 145.675C59.1625 145.699 59.216 145.735 59.2611 145.78C59.3062 145.825 59.342 145.879 59.3665 145.938C59.3909 145.996 59.4034 146.06 59.4034 146.124C59.4007 146.252 59.3488 146.374 59.2581 146.464C59.1677 146.554 59.0457 146.606 58.9178 146.609Z" fill="#D1D3D4"/>
<path d="M58.9178 153.629H45.3096C45.2458 153.629 45.1828 153.617 45.1239 153.592C45.0649 153.568 45.0114 153.532 44.9663 153.487C44.9212 153.442 44.8854 153.389 44.8609 153.33C44.8365 153.271 44.824 153.207 44.824 153.144C44.8267 153.016 44.8788 152.894 44.9693 152.803C45.0597 152.713 45.1817 152.661 45.3096 152.658H58.9178C59.0457 152.661 59.1677 152.713 59.2581 152.803C59.3488 152.894 59.4007 153.016 59.4034 153.144C59.4034 153.207 59.3909 153.271 59.3665 153.33C59.342 153.389 59.3062 153.442 59.2611 153.487C59.216 153.532 59.1625 153.568 59.1035 153.592C59.0446 153.617 58.9816 153.629 58.9178 153.629Z" fill="#D1D3D4"/>
<path d="M134.031 140.296H120.434V158.951H134.031V140.296Z" fill="white"/>
<path d="M134.033 159.447H120.435C120.306 159.447 120.181 159.396 120.088 159.305C119.995 159.214 119.942 159.091 119.939 158.961V140.296C119.942 140.166 119.995 140.043 120.088 139.952C120.181 139.861 120.306 139.81 120.435 139.81H134.033C134.161 139.813 134.283 139.865 134.373 139.956C134.464 140.046 134.516 140.168 134.519 140.296V158.961C134.516 159.089 134.464 159.211 134.373 159.301C134.283 159.392 134.161 159.444 134.033 159.447ZM120.91 158.475H133.579V140.782H120.91V158.475Z" fill="#D1D3D4"/>
<path d="M127.241 159.447C127.113 159.447 126.989 159.395 126.898 159.304C126.807 159.213 126.756 159.09 126.756 158.961V140.296C126.756 140.232 126.768 140.169 126.793 140.11C126.817 140.051 126.853 139.998 126.898 139.953C126.943 139.908 126.997 139.872 127.055 139.847C127.114 139.823 127.177 139.81 127.241 139.81C127.369 139.813 127.491 139.865 127.582 139.956C127.672 140.046 127.724 140.168 127.727 140.296V158.961C127.724 159.089 127.672 159.211 127.582 159.301C127.491 159.392 127.369 159.444 127.241 159.447Z" fill="#D1D3D4"/>
<path d="M134.033 146.609H120.435C120.306 146.609 120.181 146.559 120.088 146.468C119.995 146.377 119.942 146.254 119.939 146.124C119.939 146.059 119.952 145.995 119.977 145.935C120.002 145.876 120.039 145.822 120.085 145.777C120.131 145.731 120.186 145.696 120.246 145.672C120.306 145.648 120.371 145.637 120.435 145.638H134.033C134.162 145.638 134.285 145.689 134.376 145.78C134.467 145.871 134.519 145.995 134.519 146.124C134.516 146.252 134.464 146.374 134.373 146.464C134.283 146.555 134.161 146.607 134.033 146.609Z" fill="#D1D3D4"/>
<path d="M134.033 153.629H120.435C120.371 153.631 120.306 153.619 120.246 153.596C120.186 153.572 120.131 153.536 120.085 153.491C120.039 153.446 120.002 153.392 119.977 153.332C119.952 153.272 119.939 153.209 119.939 153.144C119.942 153.014 119.995 152.89 120.088 152.8C120.181 152.709 120.306 152.658 120.435 152.658H134.033C134.161 152.661 134.283 152.713 134.373 152.803C134.464 152.894 134.516 153.016 134.519 153.144C134.519 153.207 134.506 153.271 134.481 153.33C134.457 153.389 134.421 153.442 134.376 153.487C134.331 153.532 134.278 153.568 134.219 153.592C134.16 153.617 134.097 153.629 134.033 153.629Z" fill="#D1D3D4"/>
<path d="M159.062 140.296H145.464V158.951H159.062V140.296Z" fill="white"/>
<path d="M159.072 159.447H145.464C145.336 159.444 145.214 159.392 145.124 159.301C145.033 159.211 144.981 159.089 144.978 158.961V140.296C144.981 140.168 145.033 140.046 145.124 139.956C145.214 139.865 145.336 139.813 145.464 139.81H159.072C159.2 139.813 159.322 139.865 159.412 139.956C159.503 140.046 159.555 140.168 159.558 140.296V158.961C159.555 159.089 159.503 159.211 159.412 159.301C159.322 159.392 159.2 159.444 159.072 159.447ZM145.95 158.475H158.618V140.782H145.95V158.475Z" fill="#D1D3D4"/>
<path d="M152.274 159.447C152.144 159.447 152.02 159.396 151.927 159.305C151.834 159.214 151.781 159.091 151.778 158.961V140.296C151.795 140.178 151.854 140.071 151.944 139.993C152.035 139.915 152.149 139.872 152.269 139.872C152.388 139.872 152.503 139.915 152.593 139.993C152.683 140.071 152.742 140.178 152.759 140.296V158.961C152.757 159.089 152.705 159.211 152.614 159.301C152.524 159.392 152.402 159.444 152.274 159.447Z" fill="#D1D3D4"/>
<path d="M159.072 146.609H145.464C145.336 146.606 145.214 146.554 145.124 146.464C145.033 146.374 144.981 146.252 144.978 146.124C144.978 145.995 145.029 145.871 145.121 145.78C145.212 145.689 145.335 145.638 145.464 145.638H159.072C159.201 145.638 159.324 145.689 159.415 145.78C159.506 145.871 159.558 145.995 159.558 146.124C159.555 146.252 159.503 146.374 159.412 146.464C159.322 146.554 159.2 146.606 159.072 146.609Z" fill="#D1D3D4"/>
<path d="M159.072 153.629H145.464C145.4 153.629 145.337 153.617 145.278 153.592C145.219 153.568 145.166 153.532 145.121 153.487C145.076 153.442 145.04 153.389 145.015 153.33C144.991 153.271 144.978 153.207 144.978 153.144C144.981 153.016 145.033 152.894 145.124 152.803C145.214 152.713 145.336 152.661 145.464 152.658H159.072C159.2 152.661 159.322 152.713 159.412 152.803C159.503 152.894 159.555 153.016 159.558 153.144C159.558 153.273 159.506 153.396 159.415 153.487C159.324 153.578 159.201 153.629 159.072 153.629Z" fill="#D1D3D4"/>
<path d="M91.2753 33.9753C91.2112 33.9767 91.1474 33.965 91.0879 33.9411C91.0282 33.9172 90.9741 33.8816 90.9287 33.8362C90.8834 33.7909 90.8475 33.7366 90.8236 33.6771C90.7997 33.6176 90.7883 33.5537 90.7897 33.4896V17.1049C90.7883 17.0407 90.7997 16.9769 90.8236 16.9173C90.8475 16.8578 90.8834 16.8037 90.9287 16.7583C90.9741 16.7129 91.0282 16.6772 91.0879 16.6533C91.1474 16.6294 91.2112 16.6178 91.2753 16.6193C91.4041 16.6193 91.5277 16.6704 91.6187 16.7615C91.7097 16.8526 91.761 16.9761 91.761 17.1049V33.4896C91.761 33.6184 91.7097 33.742 91.6187 33.833C91.5277 33.924 91.4041 33.9753 91.2753 33.9753Z" fill="#D1D3D4"/>
<path d="M83.0924 32.3073C82.0322 32.3103 80.9829 32.0946 80.0097 31.6738C79.2103 31.3017 78.447 30.8562 77.7294 30.3437C77.3493 30.0902 76.9693 29.8368 76.5787 29.5942C74.541 28.4352 72.2245 27.8569 69.8812 27.9221C67.5381 27.9873 65.2575 28.6932 63.2871 29.9637C63.1904 30.0299 63.073 30.0587 62.9568 30.0451C62.8402 30.0316 62.7327 29.9764 62.6539 29.8898C62.58 29.8007 62.5396 29.6888 62.5396 29.5731C62.5396 29.4573 62.58 29.3454 62.6539 29.2563C65.8208 25.3607 69.1358 23.0592 72.6197 22.3942C74.3671 22.1381 76.1382 22.0815 77.8983 22.2252C79.3852 22.3449 80.8803 22.3272 82.3639 22.1724C84.0812 21.9358 85.7286 21.3372 87.1973 20.4163C88.666 19.4954 89.9225 18.2732 90.8836 16.8306C90.9564 16.7246 91.0675 16.651 91.1935 16.6254C91.3195 16.5998 91.4507 16.6241 91.5591 16.6933C91.6651 16.7662 91.7387 16.8774 91.7642 17.0034C91.79 17.1295 91.7656 17.2605 91.6966 17.369C90.6565 18.9267 89.2983 20.2466 87.7118 21.2419C86.1252 22.2372 84.3457 22.8853 82.4905 23.1437C80.9503 23.2983 79.3993 23.316 77.8559 23.1965C76.1702 23.0541 74.4739 23.1037 72.7993 23.3443C69.8445 24.0401 67.176 25.6288 65.1559 27.8944C67.0812 27.1228 69.157 26.7997 71.2257 26.9497C73.2945 27.0997 75.3021 27.7189 77.0959 28.7601C77.5077 29.0029 77.8983 29.2669 78.2889 29.5307C78.9528 30.0131 79.6596 30.4339 80.4003 30.787C83.9581 32.3285 88.1176 30.3858 90.6725 27.7887C90.7635 27.698 90.8868 27.6469 91.0156 27.6469C91.1441 27.6469 91.2677 27.698 91.3587 27.7887C91.4048 27.8333 91.4418 27.8865 91.467 27.9454C91.492 28.0044 91.5051 28.068 91.5051 28.1321C91.5051 28.1962 91.492 28.2595 91.467 28.3184C91.4418 28.3773 91.4048 28.4306 91.3587 28.4751C89.2 30.7699 86.2387 32.1427 83.0924 32.3073Z" fill="#D1D3D4"/>
<path d="M89.6697 63.071V70.3659L85.6265 68.7614" fill="white"/>
<path d="M89.6679 70.8512C89.6084 70.8621 89.5476 70.8621 89.4884 70.8512L85.4449 69.1725C85.3857 69.1505 85.3311 69.1166 85.2849 69.0731C85.239 69.0294 85.2021 68.9772 85.1763 68.9191C85.1507 68.861 85.1371 68.7985 85.1361 68.7349C85.135 68.6716 85.1466 68.6086 85.1705 68.5497C85.1926 68.4891 85.2268 68.4334 85.2711 68.3864C85.3153 68.3394 85.3688 68.3017 85.4281 68.2761C85.4875 68.2503 85.5514 68.237 85.616 68.237C85.6807 68.2368 85.7445 68.2498 85.804 68.2753L89.1823 69.6161V63.0706C89.1823 63.0068 89.1948 62.9438 89.2192 62.8848C89.2436 62.8259 89.2795 62.7724 89.3246 62.7273C89.3697 62.6822 89.4232 62.6463 89.4821 62.6219C89.5408 62.5975 89.6041 62.585 89.6679 62.585C89.7318 62.585 89.7948 62.5975 89.8537 62.6219C89.9127 62.6463 89.9662 62.6822 90.0113 62.7273C90.0564 62.7724 90.0922 62.8259 90.1167 62.8848C90.1408 62.9438 90.1536 63.0068 90.1536 63.0706V70.3655C90.1528 70.4443 90.1332 70.522 90.0963 70.5918C90.0596 70.6613 90.0069 70.7214 89.9423 70.7667C89.8627 70.8246 89.7663 70.8542 89.6679 70.8512Z" fill="#D1D3D4"/>
<path d="M74.8685 131.787C74.7642 131.642 74.6216 131.528 74.4567 131.46C74.2818 131.391 74.0958 131.355 73.9078 131.354H73.6017C73.499 131.382 73.3998 131.421 73.3059 131.47C73.2165 131.513 73.1402 131.579 73.0842 131.661C73.0204 131.75 72.987 131.857 72.9891 131.967C72.9867 132.049 73.0046 132.131 73.0413 132.205C73.0782 132.278 73.1328 132.341 73.2005 132.389C73.361 132.502 73.5395 132.588 73.7282 132.642C73.9499 132.716 74.1715 132.79 74.425 132.854C74.6651 132.924 74.8954 133.023 75.1111 133.149C75.3216 133.282 75.5017 133.458 75.6392 133.666C75.7894 133.929 75.8624 134.229 75.8502 134.532C75.8584 134.845 75.7932 135.156 75.6601 135.44C75.5289 135.687 75.3493 135.906 75.1323 136.084C74.9039 136.253 74.6461 136.378 74.3723 136.453C73.7027 136.642 72.9913 136.62 72.3348 136.39C71.9768 136.262 71.6495 136.061 71.374 135.799L72.3454 134.743C72.4858 134.926 72.6664 135.074 72.8732 135.176C73.0818 135.272 73.3086 135.323 73.5381 135.324H73.876C73.983 135.294 74.0857 135.252 74.1821 135.197C74.268 135.145 74.3432 135.077 74.4038 134.997C74.4567 134.911 74.4826 134.812 74.4779 134.711C74.4831 134.626 74.4665 134.54 74.4296 134.462C74.3926 134.385 74.3367 134.318 74.2666 134.268C74.1036 134.147 73.9216 134.055 73.7282 133.994L73.0315 133.761C72.7827 133.692 72.5448 133.589 72.3242 133.455C72.1107 133.326 71.9271 133.154 71.7858 132.949C71.6353 132.697 71.562 132.407 71.5745 132.114C71.5669 131.81 71.6359 131.509 71.7752 131.238C71.9023 130.997 72.0786 130.785 72.2924 130.615C72.5206 130.443 72.7781 130.314 73.0527 130.235C73.3406 130.15 73.6391 130.108 73.9393 130.109C74.297 130.1 74.6537 130.15 74.9951 130.256C75.3238 130.354 75.6267 130.523 75.882 130.752L74.8685 131.787Z" fill="#282828"/>
<path d="M80.8851 131.882C80.7512 131.721 80.5811 131.595 80.3891 131.512C80.1772 131.415 79.9461 131.368 79.7133 131.375C79.4664 131.375 79.2222 131.425 78.9954 131.523C78.7819 131.629 78.5887 131.772 78.4255 131.945C78.2601 132.129 78.134 132.344 78.0558 132.579C77.8733 133.094 77.8733 133.657 78.0558 134.173C78.1365 134.406 78.262 134.621 78.4255 134.806C78.5782 134.984 78.7694 135.125 78.9851 135.218C79.2081 135.322 79.4514 135.376 79.6975 135.376C79.9436 135.376 80.187 135.322 80.41 135.218C80.6298 135.102 80.8153 134.931 80.9487 134.722L82.0887 135.577C81.8342 135.934 81.4876 136.215 81.0858 136.39C80.6928 136.561 80.2688 136.651 79.8401 136.654C79.3827 136.66 78.928 136.581 78.4994 136.421C78.1058 136.279 77.7464 136.056 77.4436 135.767C77.1374 135.47 76.8995 135.11 76.7468 134.711C76.5765 134.281 76.4939 133.822 76.504 133.36C76.4948 132.898 76.5773 132.438 76.7468 132.008C76.9025 131.612 77.1399 131.252 77.4436 130.953C77.7489 130.667 78.1077 130.445 78.4994 130.298C78.9299 130.147 79.3835 130.072 79.8401 130.077C80.0227 130.061 80.2063 130.061 80.3891 130.077C80.5809 130.108 80.7686 130.161 80.9487 130.235C81.1366 130.301 81.3143 130.394 81.4764 130.509C81.6511 130.631 81.8076 130.777 81.9409 130.942L80.8851 131.882Z" fill="#282828"/>
<path d="M82.8291 130.277H84.2014V132.589H86.8514V130.277H88.1816V136.474H86.8197V133.793H84.1699V136.474H82.7974L82.8291 130.277Z" fill="#282828"/>
<path d="M89.141 133.37C89.1353 132.908 89.2214 132.448 89.3942 132.019C89.5498 131.622 89.7872 131.263 90.0909 130.963C90.3962 130.678 90.755 130.455 91.1467 130.309C92.0162 130.014 92.9588 130.014 93.8282 130.309C94.221 130.453 94.5804 130.676 94.8841 130.963C95.1945 131.257 95.433 131.618 95.5808 132.019C95.7536 132.448 95.8397 132.908 95.8342 133.37C95.8408 133.833 95.7546 134.293 95.5808 134.722C95.436 135.124 95.197 135.486 94.8841 135.777C94.5831 136.069 94.2229 136.292 93.8282 136.432C92.9612 136.741 92.0138 136.741 91.1467 136.432C90.7534 136.289 90.3938 136.066 90.0909 135.777C89.7848 135.48 89.5471 135.12 89.3942 134.722C89.2203 134.293 89.1342 133.833 89.141 133.37ZM90.566 133.37C90.5608 133.644 90.6075 133.916 90.7034 134.173C90.7808 134.411 90.9099 134.629 91.0815 134.812C91.2529 134.994 91.4626 135.137 91.6957 135.228C91.9461 135.333 92.2161 135.383 92.4875 135.376C92.7588 135.385 93.0291 135.334 93.2793 135.228C93.5118 135.139 93.7212 134.999 93.8915 134.817C94.0613 134.633 94.1941 134.418 94.2821 134.183C94.4649 133.668 94.4649 133.105 94.2821 132.589C94.1966 132.354 94.0637 132.138 93.8915 131.956C93.7188 131.774 93.5104 131.63 93.2793 131.533C93.0272 131.434 92.7586 131.384 92.4875 131.386C92.2164 131.384 91.9477 131.434 91.6957 131.533C91.4661 131.633 91.2581 131.776 91.0834 131.956C90.9109 132.136 90.7811 132.352 90.7034 132.589C90.6086 132.839 90.5622 133.104 90.566 133.37Z" fill="#282828"/>
<path d="M96.4261 133.37C96.4207 132.908 96.5068 132.448 96.6796 132.019C96.8352 131.622 97.0726 131.263 97.3763 130.963C97.6816 130.678 98.0404 130.455 98.4321 130.309C99.3016 130.014 100.244 130.014 101.114 130.309C101.505 130.457 101.863 130.679 102.169 130.963C102.473 131.26 102.708 131.621 102.856 132.019C103.028 132.448 103.114 132.908 103.109 133.37C103.116 133.833 103.029 134.293 102.856 134.722C102.711 135.122 102.476 135.483 102.169 135.777C101.866 136.065 101.506 136.288 101.114 136.432C100.247 136.741 99.2992 136.741 98.4321 136.432C98.0385 136.289 97.6792 136.066 97.3763 135.777C97.0702 135.48 96.8322 135.12 96.6796 134.722C96.5057 134.293 96.4196 133.833 96.4261 133.37ZM97.8514 133.37C97.8462 133.644 97.8929 133.916 97.9885 134.173C98.0684 134.411 98.202 134.628 98.3794 134.806C98.5478 134.985 98.7529 135.126 98.9811 135.218C99.2318 135.321 99.5015 135.372 99.7729 135.366C100.044 135.374 100.314 135.323 100.565 135.218C100.797 135.129 101.007 134.988 101.177 134.806C101.347 134.622 101.479 134.407 101.568 134.173C101.75 133.657 101.75 133.094 101.568 132.579C101.482 132.343 101.349 132.127 101.177 131.945C101.004 131.764 100.796 131.62 100.565 131.523C100.313 131.423 100.044 131.373 99.7729 131.375C99.5018 131.373 99.2331 131.423 98.9811 131.523C98.7545 131.623 98.55 131.766 98.3794 131.945C98.1999 132.122 98.066 132.339 97.9885 132.579C97.8927 132.831 97.8459 133.1 97.8514 133.37Z" fill="#282828"/>
<path d="M104.099 130.277H105.461V135.207H107.995V136.474H104.099V130.277Z" fill="#282828"/>
<path d="M150.617 184.362C151.299 181.354 152.442 178.469 154.006 175.81C155.853 172.96 158.83 170.616 162.23 170.416C165.629 170.215 169.229 172.717 169.461 176.117C169.686 175.43 170.044 174.795 170.514 174.248C170.985 173.701 171.56 173.253 172.205 172.929C172.85 172.605 173.553 172.412 174.273 172.361C174.994 172.31 175.717 172.402 176.401 172.632C177.085 172.862 177.717 173.225 178.26 173.701C178.804 174.176 179.248 174.755 179.566 175.402C179.885 176.05 180.072 176.755 180.117 177.475C180.162 178.196 180.064 178.918 179.828 179.6C181.686 177.246 185.445 177.077 187.989 178.671C189.975 180.041 191.431 182.049 192.117 184.362H150.617Z" fill="white"/>
<path d="M192.115 184.847H150.614C150.54 184.847 150.467 184.829 150.401 184.796C150.334 184.762 150.277 184.714 150.232 184.655C150.187 184.596 150.156 184.527 150.142 184.455C150.128 184.382 150.13 184.307 150.15 184.235C150.839 181.178 152 178.246 153.591 175.547C155.703 172.221 158.965 170.12 162.196 169.93C163.756 169.848 165.303 170.251 166.626 171.082C167.949 171.914 168.983 173.134 169.586 174.575C170.171 173.677 170.983 172.949 171.94 172.464C172.634 172.068 173.404 171.822 174.199 171.745C174.994 171.667 175.797 171.758 176.555 172.012C177.312 172.266 178.008 172.678 178.595 173.22C179.183 173.761 179.649 174.421 179.963 175.156C180.418 176.109 180.625 177.162 180.565 178.217C181.714 177.516 183.037 177.149 184.384 177.158C185.73 177.167 187.048 177.553 188.187 178.27C190.273 179.692 191.803 181.792 192.515 184.214C192.542 184.287 192.551 184.366 192.539 184.444C192.529 184.521 192.498 184.594 192.452 184.657C192.413 184.711 192.363 184.756 192.304 184.789C192.246 184.822 192.181 184.842 192.115 184.847ZM151.258 183.876H191.375C190.68 181.929 189.387 180.251 187.68 179.083C185.463 177.7 181.916 177.689 180.164 179.906C180.09 179.996 179.987 180.056 179.873 180.077C179.759 180.098 179.642 180.079 179.541 180.023C179.438 179.968 179.359 179.878 179.32 179.768C179.281 179.659 179.285 179.539 179.33 179.431C179.768 178.16 179.685 176.767 179.098 175.557C178.659 174.666 177.963 173.927 177.101 173.434C176.238 172.941 175.248 172.717 174.258 172.79C173.267 172.864 172.321 173.232 171.541 173.848C170.761 174.463 170.183 175.297 169.881 176.243C169.849 176.352 169.781 176.446 169.687 176.51C169.593 176.573 169.479 176.602 169.367 176.591C169.254 176.579 169.149 176.529 169.069 176.448C168.989 176.367 168.94 176.261 168.931 176.148C168.709 172.928 165.183 170.701 162.217 170.87C159.25 171.039 156.347 172.981 154.362 176.043C152.94 178.483 151.893 181.124 151.258 183.876Z" fill="#D1D3D4"/>
<path d="M23.963 184.361C23.291 181.353 22.1624 178.466 20.6164 175.8C18.7583 172.949 15.7812 170.606 12.3818 170.405C8.98241 170.204 5.38244 172.706 5.15017 176.106C4.9455 175.397 4.59936 174.736 4.13259 174.164C3.66582 173.592 3.08809 173.121 2.43424 172.778C1.78038 172.436 1.06392 172.229 0.328035 172.17C-0.40785 172.112 -1.14792 172.204 -1.84759 172.439C-2.54726 172.674 -3.19204 173.049 -3.74304 173.54C-4.29407 174.031 -4.73995 174.629 -5.05379 175.297C-5.36761 175.965 -5.54292 176.69 -5.56915 177.428C-5.59537 178.166 -5.47197 178.901 -5.20637 179.59C-7.07496 177.235 -10.8333 177.067 -13.3776 178.66C-15.3592 180.032 -16.8121 182.04 -17.4949 184.351L23.963 184.361Z" fill="white"/>
<path d="M23.9614 184.847H-17.5281C-17.606 184.848 -17.6829 184.83 -17.7526 184.795C-17.8223 184.76 -17.8828 184.709 -17.9293 184.647C-17.9755 184.584 -18.0054 184.51 -18.0165 184.433C-18.0275 184.356 -18.0193 184.277 -17.9926 184.204C-17.2727 181.785 -15.7448 179.687 -13.6642 178.26C-12.5243 177.544 -11.208 177.159 -9.86203 177.148C-8.5161 177.137 -7.19354 177.5 -6.04194 178.196C-6.10161 177.145 -5.89463 176.095 -5.44017 175.145C-5.11204 174.417 -4.64125 173.761 -4.05559 173.217C-3.46993 172.673 -2.78127 172.252 -2.03022 171.978C-1.27022 171.74 -0.469942 171.657 0.32276 171.735C1.11546 171.813 1.88428 172.05 2.58323 172.432C3.53961 172.917 4.35151 173.646 4.93748 174.544C5.54158 173.103 6.57546 171.884 7.89799 171.053C9.22056 170.221 10.7674 169.818 12.3275 169.898C15.5685 170.089 18.7779 172.189 20.9315 175.515C22.5455 178.225 23.7246 181.171 24.4259 184.246C24.446 184.317 24.4497 184.392 24.4369 184.465C24.4242 184.538 24.3951 184.607 24.352 184.668C24.3051 184.726 24.2454 184.772 24.1777 184.803C24.1099 184.834 24.0359 184.849 23.9614 184.847ZM-16.8419 183.876H23.2752C22.6173 181.131 21.5496 178.501 20.1081 176.074C18.1233 173.013 15.1885 171.07 12.2536 170.902C9.31867 170.733 5.76092 172.928 5.53924 176.18C5.52968 176.293 5.48092 176.399 5.40136 176.48C5.3218 176.561 5.21647 176.611 5.10366 176.622C4.99082 176.634 4.87761 176.605 4.78362 176.542C4.68964 176.478 4.62081 176.384 4.58908 176.275C4.15635 175.018 3.25902 173.974 2.08118 173.358C0.90333 172.742 -0.465733 172.599 -1.74519 172.96C-2.36972 173.185 -2.94234 173.533 -3.42859 173.985C-3.9148 174.437 -4.30459 174.983 -4.57448 175.589C-4.87045 176.186 -5.04348 176.837 -5.08338 177.502C-5.12328 178.168 -5.02922 178.835 -4.80675 179.463C-4.76718 179.572 -4.76775 179.691 -4.80841 179.8C-4.84905 179.908 -4.92709 179.998 -5.02846 180.054C-5.13002 180.109 -5.24704 180.127 -5.36028 180.106C-5.4735 180.085 -5.57615 180.026 -5.65133 179.938C-7.39324 177.721 -10.9299 177.732 -13.168 179.115C-14.861 180.278 -16.1461 181.944 -16.8419 183.876Z" fill="#D1D3D4"/>
<path d="M231.323 253.331C231.152 253.347 230.978 253.347 230.806 253.331C228.114 252.782 227.006 247.409 226.404 244.516C226.298 244.02 226.182 243.46 226.119 243.239C226.039 243.159 225.987 243.055 225.971 242.943C225.897 242.479 226.161 242.373 227.027 242.046C229.919 240.99 230.627 240.409 230.722 240.145C230.232 237.984 229.568 235.866 228.737 233.811C228.661 233.677 228.635 233.52 228.663 233.368C228.683 233.294 228.718 233.226 228.765 233.166C228.812 233.106 228.871 233.056 228.937 233.019L237.383 228.575C237.506 228.509 237.649 228.494 237.783 228.531C237.916 228.568 238.031 228.656 238.101 228.775C240.002 232.006 246.072 242.69 244.647 244.717C243.369 246.406 235.166 253.331 231.323 253.331ZM227.217 243.101C227.291 243.386 227.364 243.756 227.47 244.252C227.935 246.522 229.033 251.822 231.028 252.223C233.878 252.793 242.388 245.889 243.696 244.02C244.372 243.038 240.983 235.923 237.362 229.704L229.888 233.663C230.684 235.722 231.32 237.84 231.788 239.998C231.904 241.053 230.331 241.866 227.396 242.985L227.217 243.101Z" fill="#282828"/>
<path d="M234.556 249.784C231.555 247.542 229.013 244.743 227.072 241.539C227.072 241.539 219.428 245.614 218.013 246.532C212.006 250.46 208.417 256.034 210.37 256.498C212.323 256.963 230.144 255.527 234.651 254.492C239.159 253.458 234.556 249.784 234.556 249.784Z" fill="#282828"/>
<path d="M211.837 257.09C211.307 257.109 210.777 257.08 210.253 257.005C210.016 256.964 209.797 256.849 209.629 256.676C209.46 256.504 209.35 256.283 209.314 256.045C208.965 254.155 212.481 249.478 217.759 246.058C219.174 245.139 226.553 241.201 226.859 241.032C226.981 240.966 227.123 240.948 227.256 240.984C227.39 241.019 227.505 241.105 227.577 241.222C229.48 244.358 231.963 247.103 234.893 249.309C235.158 249.52 237.48 251.42 237.089 253.194C236.889 254.06 236.097 254.651 234.735 254.968C231.03 255.886 216.862 257.09 211.837 257.09ZM226.891 242.31C225.234 243.186 219.501 246.279 218.319 247.05C213.104 250.449 210.179 254.788 210.39 255.918C210.39 255.992 210.39 256.002 210.485 256.013C212.269 256.404 230.016 255.052 234.492 254.018C235.126 253.87 235.907 253.585 236.023 253.057C236.213 252.212 234.915 250.829 234.228 250.28C231.312 248.099 228.824 245.397 226.891 242.31Z" fill="#282828"/>
<path d="M241.364 235.332C241.364 235.332 242.209 244.337 241.364 245.498C240.52 246.66 236.012 248.253 236.012 248.253C236.012 248.253 238.44 253.332 243.191 252.698C247.941 252.065 253.642 248.676 253.642 248.676L254.613 232.893L241.364 235.332Z" fill="white"/>
<path d="M242.315 253.3C237.839 253.3 235.58 248.697 235.474 248.486C235.416 248.344 235.416 248.185 235.474 248.042C235.504 247.971 235.549 247.907 235.605 247.855C235.662 247.802 235.728 247.762 235.801 247.736C237.48 247.145 240.341 245.921 240.89 245.171C241.439 244.421 241.186 239.597 240.785 235.385C240.772 235.247 240.812 235.11 240.896 235C240.98 234.89 241.102 234.817 241.238 234.793L254.488 232.365C254.569 232.349 254.654 232.352 254.735 232.374C254.816 232.396 254.89 232.436 254.952 232.492C255.013 232.548 255.06 232.617 255.091 232.694C255.122 232.77 255.136 232.853 255.132 232.935L254.16 248.708C254.155 248.797 254.127 248.884 254.079 248.959C254.031 249.035 253.965 249.097 253.886 249.14C253.654 249.288 248.027 252.593 243.223 253.237C242.922 253.279 242.619 253.3 242.315 253.3ZM236.752 248.549C237.491 249.763 239.613 252.635 243.086 252.16C247.108 251.621 251.954 248.993 253.084 248.349L254.002 233.569L241.925 235.786C242.157 238.383 242.611 244.675 241.777 245.825C240.943 246.976 238.092 248.042 236.794 248.549H236.752Z" fill="#282828"/>
<path d="M239.149 250.259L235.38 244.981C235.38 244.981 217.254 254.482 217.982 257.649C218.711 260.816 255.925 258.388 255.925 258.072C255.925 257.755 255.196 247.398 255.196 247.398C255.196 247.398 243.435 252.698 239.149 250.259Z" fill="#282828"/>
<path d="M230.787 259.834C217.95 259.834 217.644 258.483 217.485 257.797C216.725 254.471 230.819 246.765 235.158 244.484C235.275 244.424 235.41 244.408 235.538 244.439C235.666 244.47 235.778 244.546 235.855 244.653L239.55 249.847C242.918 251.61 251.828 248.359 255.006 246.934C255.084 246.894 255.171 246.874 255.259 246.874C255.347 246.874 255.433 246.894 255.512 246.934C255.586 246.98 255.647 247.044 255.691 247.119C255.735 247.195 255.761 247.279 255.766 247.366C255.892 249.098 256.505 257.744 256.505 258.071C256.505 258.589 256.04 258.641 255.396 258.715C252.968 258.99 243.857 259.592 235.116 259.771C233.543 259.824 232.097 259.834 230.787 259.834ZM235.243 245.667C226.797 250.132 218.161 255.875 218.552 257.554C219.755 259.665 250.529 258.515 255.386 257.67C255.301 256.266 254.984 251.727 254.742 248.232C252.071 249.351 242.77 252.951 238.906 250.734C238.837 250.693 238.776 250.639 238.727 250.576L235.243 245.667Z" fill="#282828"/>
<path d="M276.446 103.642C276.359 103.642 276.275 103.621 276.199 103.58C276.123 103.54 276.06 103.481 276.011 103.41C275.938 103.315 269.002 93.2007 264.621 89.073C264.572 89.0247 264.532 88.9674 264.506 88.9038C264.479 88.8405 264.466 88.7723 264.466 88.7033C264.466 88.6346 264.479 88.5664 264.506 88.5031C264.532 88.4396 264.572 88.382 264.621 88.3339C264.67 88.2845 264.728 88.2451 264.793 88.2185C264.857 88.1916 264.926 88.1777 264.996 88.1777C265.065 88.1777 265.134 88.1916 265.198 88.2185C265.263 88.2451 265.321 88.2845 265.37 88.3339C269.836 92.5567 276.614 102.417 276.899 102.839C276.975 102.954 277.005 103.095 276.978 103.232C276.954 103.368 276.875 103.489 276.761 103.568C276.666 103.626 276.554 103.652 276.446 103.642Z" fill="white"/>
<path d="M182.659 128.885C180.596 153.094 175.858 177 168.53 200.165C166.481 206.664 164.209 213.457 165.575 220.181C165.648 220.8 165.907 221.383 166.317 221.852C167.871 223.336 170.131 221.016 171.026 219.05C178.809 201.236 186.521 183.175 189.864 164.031C191.454 154.882 191.807 144.71 186.45 137.127" fill="white"/>
<path d="M167.461 222.888C166.882 222.884 166.327 222.651 165.918 222.24C165.409 221.692 165.088 220.995 165 220.251C163.646 213.658 165.742 207.052 167.767 200.671L167.979 199.988C175.3 176.861 180.038 152.996 182.108 128.826C182.112 128.746 182.133 128.667 182.169 128.595C182.205 128.522 182.255 128.458 182.317 128.407C182.379 128.354 182.451 128.316 182.528 128.293C182.605 128.27 182.687 128.263 182.767 128.273C182.926 128.291 183.072 128.369 183.175 128.492C183.279 128.615 183.33 128.772 183.32 128.932C181.251 153.186 176.513 177.138 169.192 200.353L168.968 201.036C167.002 207.276 164.953 213.728 166.236 220.004C166.289 220.502 166.49 220.974 166.813 221.358C166.925 221.485 167.07 221.579 167.233 221.629C167.395 221.678 167.568 221.683 167.732 221.64C168.365 221.371 168.938 220.977 169.415 220.481C169.893 219.986 170.265 219.399 170.51 218.755C177.704 202.272 185.816 183.587 189.29 163.877C191.362 151.962 190.314 143.556 185.981 137.421C185.889 137.29 185.852 137.127 185.878 136.969C185.904 136.81 185.992 136.668 186.123 136.574C186.188 136.527 186.262 136.494 186.34 136.476C186.419 136.458 186.5 136.457 186.579 136.471C186.658 136.485 186.733 136.515 186.8 136.559C186.868 136.603 186.925 136.66 186.97 136.727C191.503 143.144 192.622 151.833 190.502 164.089C187.053 183.94 178.858 202.696 171.664 219.238C170.981 220.804 169.509 222.535 168.002 222.841C167.824 222.873 167.643 222.889 167.461 222.888Z" fill="#282828"/>
<path d="M180.045 72.924C181.23 70.7822 182.95 68.9851 185.038 67.7081C186.957 66.5646 189.167 66.0037 191.4 66.0936C193.632 66.1835 195.791 66.9204 197.612 68.2142C198.117 67.6601 198.743 67.2292 199.441 66.9557C200.14 66.6822 200.891 66.573 201.639 66.6366C206.737 66.8604 210.387 71.2401 212.741 75.361C215.438 80.0706 216.274 85.5102 218.628 90.3846C219.017 91.2087 226.211 100.381 227.647 98.5675C225.669 101.063 223.609 103.501 221.478 105.856C219.63 108.083 217.417 109.978 214.931 111.46C211.985 112.863 208.775 113.63 205.512 113.709C194.193 114.5 182.846 112.612 172.392 108.199C173.021 100.447 174.285 92.7603 176.172 85.2158C177.231 80.883 177.997 76.5149 180.045 72.924Z" fill="white"/>
<path d="M200.438 114.474C190.731 114.465 181.124 112.516 172.181 108.74C172.068 108.691 171.973 108.608 171.909 108.503C171.846 108.397 171.818 108.274 171.828 108.151C172.44 100.372 173.68 92.6544 175.536 85.0746C175.736 84.2975 175.913 83.5203 176.101 82.7198C176.746 79.2047 177.887 75.799 179.492 72.606C180.733 70.3805 182.525 68.5114 184.696 67.1783C186.638 66.016 188.867 65.4219 191.129 65.4637C193.392 65.5053 195.597 66.1808 197.495 67.4138C198.058 66.9216 198.714 66.5456 199.423 66.3074C200.132 66.0689 200.881 65.9728 201.627 66.0244C206.007 66.2129 209.869 69.2505 213.213 75.055C214.642 77.7482 215.79 80.5808 216.639 83.5086C217.319 85.7564 218.141 87.9585 219.1 90.1022C219.736 91.3737 225.976 98.7324 227.118 98.1791C227.219 98.0596 227.362 97.983 227.517 97.9656C227.673 97.9479 227.829 97.9906 227.954 98.0848C228.075 98.1818 228.153 98.3231 228.171 98.4773C228.188 98.6319 228.144 98.787 228.048 98.909C226.082 101.405 223.986 103.866 221.855 106.232C219.963 108.506 217.698 110.442 215.156 111.955C212.132 113.402 208.84 114.203 205.489 114.309C203.794 114.415 202.134 114.474 200.438 114.474ZM172.982 107.822C183.244 112.083 194.357 113.897 205.442 113.12C208.625 113.035 211.755 112.293 214.638 110.942C217.06 109.492 219.215 107.636 221.007 105.455C222.844 103.442 224.634 101.346 226.353 99.2151C223.515 98.0376 218.334 91.1852 218.111 90.6319C217.12 88.4436 216.27 86.1943 215.568 83.8974C214.742 81.045 213.629 78.2838 212.248 75.6556C209.139 70.2395 205.572 67.4138 201.651 67.2253C200.996 67.1609 200.336 67.2508 199.722 67.4879C199.109 67.7251 198.56 68.1029 198.119 68.591C198.022 68.7051 197.887 68.7792 197.739 68.7988C197.591 68.8184 197.441 68.7822 197.318 68.6972C195.594 67.4624 193.547 66.7581 191.428 66.6703C189.31 66.5823 187.211 67.115 185.391 68.2026C183.393 69.4396 181.744 71.1658 180.599 73.2182C179.054 76.3137 177.952 79.6116 177.326 83.0143C177.149 83.7911 176.961 84.5802 176.761 85.369C174.91 92.7416 173.646 100.249 172.982 107.822Z" fill="#282828"/>
<path d="M223.02 117.7C223.02 117.7 244.213 137.881 245.885 143.603C247.557 149.325 243.035 148.383 243.035 148.383C243.035 148.383 255.645 172.484 247.91 186.295C240.174 200.106 220.253 191.075 219.441 188.426C218.628 185.777 219.229 132.971 220.453 126.236C221.678 119.502 223.02 117.7 223.02 117.7Z" fill="#282828"/>
<path d="M234.463 194.348C233.61 194.344 232.757 194.297 231.908 194.207C225.444 193.512 219.393 190.298 218.851 188.555C217.886 185.388 218.733 132.264 219.852 126.083C221.088 119.289 222.477 117.406 222.536 117.323C222.589 117.256 222.655 117.201 222.73 117.16C222.805 117.12 222.887 117.095 222.972 117.088C223.141 117.081 223.305 117.14 223.431 117.253C224.302 118.088 244.813 137.621 246.461 143.39C247.085 145.533 246.944 147.099 246.061 148.1C245.522 148.652 244.794 148.98 244.024 149.019C246.029 153.189 247.679 157.522 248.957 161.97C251.9 172.413 251.736 180.69 248.439 186.565C245.001 192.759 239.314 194.348 234.463 194.348ZM223.172 118.724C222.149 121.168 221.437 123.732 221.053 126.354C219.793 133.289 219.322 185.989 220.017 188.249C220.299 189.179 225.409 192.335 232.038 193.041C236.948 193.571 243.6 192.77 247.344 185.977C254.832 172.602 242.634 148.877 242.458 148.642C242.406 148.539 242.384 148.424 242.394 148.309C242.405 148.195 242.447 148.086 242.517 147.994C242.583 147.902 242.676 147.831 242.783 147.791C242.89 147.751 243.006 147.744 243.117 147.77C243.469 147.837 243.832 147.826 244.179 147.739C244.527 147.652 244.851 147.489 245.13 147.264C245.695 146.64 245.743 145.427 245.26 143.732C243.882 138.74 226.551 121.938 223.172 118.724Z" fill="#282828"/>
<path d="M182.013 166.409C182.013 166.409 161.467 237.806 161.467 247.719C161.467 257.633 189.583 296.511 189.583 296.511L202.806 291.282C202.806 291.282 186.687 253.371 187.912 250.533C189.136 247.696 200.074 217.837 200.074 217.837C200.074 217.837 201.828 256.208 202.806 261.872C203.783 267.535 202.806 297.652 202.806 297.652C202.806 297.652 217.605 301.914 221.644 297.652C221.644 297.652 228.037 188.885 223.822 176.134C219.607 163.383 219.807 166.562 219.807 166.562L182.013 166.409Z" fill="#282828"/>
<path d="M214.909 300.173C210.749 300.034 206.622 299.396 202.617 298.266C202.485 298.231 202.369 298.152 202.288 298.043C202.206 297.934 202.165 297.801 202.169 297.666C202.169 297.581 202.24 295.403 202.322 292.143L189.783 297.101C189.657 297.149 189.518 297.155 189.388 297.117C189.258 297.079 189.144 296.997 189.065 296.889C187.888 295.297 160.807 257.728 160.807 247.72C160.807 237.712 180.54 169.152 181.377 166.244C181.411 166.115 181.487 166 181.594 165.919C181.701 165.838 181.831 165.795 181.965 165.797L219.312 165.973C219.361 165.888 219.427 165.814 219.506 165.755C219.585 165.696 219.676 165.655 219.771 165.632C220.431 165.502 220.949 165.42 224.387 175.958C228.59 188.685 222.491 293.273 222.232 297.723C222.225 297.867 222.166 298 222.067 298.1C220.619 299.654 217.923 300.173 214.909 300.173ZM203.429 297.228C207.703 298.407 217.876 300.349 221.09 297.418C221.42 291.755 227.33 188.556 223.292 176.346C222.357 173.227 221.232 170.168 219.924 167.186H219.854L182.46 166.998C180.741 173.026 162.067 238.383 162.067 247.696C162.067 256.797 186.887 291.706 189.807 295.77L202.004 290.943C198.814 283.443 186.121 253.136 187.346 250.298C188.57 247.461 199.39 217.932 199.497 217.626C199.546 217.493 199.64 217.382 199.763 217.311C199.885 217.241 200.028 217.215 200.168 217.237C200.306 217.259 200.432 217.329 200.525 217.434C200.617 217.539 200.67 217.674 200.674 217.814C200.674 218.191 202.452 256.209 203.405 261.766C204.312 267.135 203.547 293.214 203.429 297.228ZM199.603 220.899C196.836 228.446 189.465 248.473 188.464 250.793C187.782 252.818 196.306 274.341 202.428 288.857C202.64 279.521 202.817 265.604 202.205 262.002C201.439 257.233 200.05 230.106 199.603 220.899Z" fill="#282828"/>
<path d="M183.943 118.525C182.289 121.364 181.097 124.448 180.411 127.661C179.69 130.397 179.436 133.235 179.657 136.056C180.222 141.413 183.189 146.111 186.722 150.008C185.919 146.258 185.404 142.452 185.179 138.623C185.024 133.345 185.996 128.095 188.028 123.222C189.001 120.809 190.237 118.511 191.714 116.37C192.408 115.393 193.586 114.522 192.526 113.462C192.175 113.106 191.739 112.845 191.259 112.705C190.778 112.564 190.27 112.549 189.783 112.661C187.416 113.379 185.226 116.453 183.943 118.525Z" fill="#282828"/>
<path d="M186.675 150.62C186.59 150.619 186.507 150.601 186.43 150.567C186.353 150.532 186.284 150.482 186.227 150.42C181.882 145.522 179.516 140.848 179.021 136.115C178.781 133.227 179.04 130.319 179.787 127.52C180.492 124.24 181.72 121.096 183.425 118.206C185.58 114.674 187.664 112.673 189.618 112.119C190.21 111.976 190.829 111.989 191.415 112.156C192.001 112.323 192.534 112.639 192.962 113.073C194.198 114.321 193.244 115.428 192.62 116.24L192.208 116.77C190.724 118.846 189.476 121.081 188.488 123.434C186.496 128.226 185.545 133.387 185.697 138.575C185.916 142.377 186.427 146.156 187.228 149.878C187.25 150.009 187.23 150.143 187.171 150.262C187.112 150.38 187.016 150.477 186.898 150.538C186.829 150.578 186.753 150.606 186.675 150.62ZM184.461 118.83C182.81 121.608 181.618 124.634 180.929 127.79C180.211 130.475 179.964 133.263 180.199 136.032C180.611 139.953 182.389 143.85 185.627 147.912C185.003 144.873 184.609 141.791 184.449 138.693C184.293 133.328 185.276 127.991 187.334 123.034C188.345 120.598 189.62 118.28 191.137 116.122C191.278 115.91 191.443 115.71 191.596 115.522C192.361 114.604 192.408 114.345 192.008 113.979C191.733 113.702 191.393 113.498 191.018 113.385C190.644 113.272 190.248 113.254 189.865 113.332C188.241 113.803 186.333 115.687 184.379 118.889L184.461 118.83Z" fill="#282828"/>
<path d="M187.499 117.335C186.945 117.971 183.436 121.232 182.012 131.464C180.587 141.695 185.674 153.069 182.012 166.362L217.039 168.304C217.039 168.304 227.706 125.2 222.349 116.11C216.992 107.021 194.01 109.894 187.499 117.335Z" fill="#E73343"/>
<path d="M215.944 153.646C215.944 153.646 200.262 147.265 201.568 133.065C203.016 117.7 209.622 113.921 215.297 110.86C218.617 112.037 219.064 112.967 219.064 112.967C219.064 112.967 207.29 116.499 207.102 125.212C206.914 133.925 204.83 145.805 215.944 153.646Z" fill="#282828"/>
<path d="M215.945 154.246C215.871 154.263 215.794 154.263 215.721 154.246C215.556 154.246 199.591 147.535 200.956 133.053C202.463 117.123 209.422 113.379 215.003 110.377C215.08 110.342 215.165 110.323 215.25 110.323C215.335 110.323 215.419 110.342 215.497 110.377C218.794 111.554 219.477 112.52 219.606 112.731C219.644 112.813 219.664 112.901 219.664 112.991C219.664 113.08 219.644 113.169 219.606 113.249C219.57 113.331 219.516 113.403 219.449 113.462C219.382 113.521 219.303 113.565 219.218 113.591C219.1 113.591 207.915 117.123 207.691 125.271C207.691 126.26 207.62 127.296 207.562 128.367C207.173 136.432 206.69 146.464 216.274 153.175C216.378 153.251 216.455 153.357 216.495 153.479C216.535 153.601 216.536 153.733 216.497 153.856C216.458 153.978 216.381 154.085 216.278 154.162C216.174 154.238 216.05 154.28 215.921 154.282L215.945 154.246ZM215.332 111.531C210.046 114.38 203.558 118.077 202.169 133.112C201.368 141.625 207.008 147.241 211.376 150.337C205.631 143.626 206.043 135.243 206.372 128.273C206.372 127.213 206.478 126.189 206.502 125.2C206.702 117.594 214.932 113.838 217.875 112.731C217.069 112.249 216.217 111.846 215.332 111.531Z" fill="#282828"/>
<path d="M208.044 140.542C208.657 141.425 208.456 159.498 208.044 160.204C205.36 164.914 202.793 169.623 200.121 174.333C198.213 177.653 196.294 180.973 194.293 184.235C190.76 189.968 184.779 193.489 180.446 198.622C181.41 198.862 182.411 198.909 183.393 198.762C184.375 198.614 185.318 198.275 186.168 197.763L180.505 206.005C179.399 207.618 178.233 209.537 178.786 211.409C179.269 213.01 187.169 208.312 188.076 207.417C191.608 203.885 193.539 198.834 196.894 195.114C199.661 192.053 202.781 189.309 205.537 186.095C210.387 180.373 217.11 173.815 219.842 166.668C222.291 160.287 224.728 136.55 224.728 136.55" fill="white"/>
<path d="M179.375 212.257C179.245 212.276 179.115 212.276 178.986 212.257C178.804 212.221 178.636 212.137 178.499 212.012C178.362 211.888 178.261 211.728 178.209 211.55C177.573 209.42 178.798 207.371 179.998 205.663L184.472 199.188C183.104 199.559 181.661 199.559 180.293 199.188C180.193 199.16 180.103 199.107 180.029 199.035C179.955 198.963 179.9 198.874 179.869 198.776C179.836 198.678 179.83 198.573 179.85 198.471C179.871 198.37 179.918 198.276 179.986 198.199C181.835 196.099 183.83 194.131 185.956 192.312C188.966 189.897 191.601 187.048 193.774 183.858C195.776 180.597 197.671 177.324 199.59 173.968C200.917 171.613 202.228 169.286 203.523 166.986C204.841 164.632 206.172 162.277 207.514 159.922C207.832 158.827 208.044 142.261 207.514 140.836C207.47 140.773 207.44 140.701 207.424 140.625C207.409 140.549 207.409 140.471 207.424 140.395C207.44 140.319 207.47 140.248 207.514 140.184C207.558 140.12 207.614 140.066 207.679 140.024C207.821 139.938 207.99 139.909 208.152 139.945C208.314 139.98 208.457 140.075 208.55 140.212C209.398 141.449 208.998 159.792 208.55 160.522C207.196 162.877 205.877 165.232 204.559 167.587C203.24 169.941 201.957 172.296 200.615 174.592C198.695 177.948 196.8 181.233 194.787 184.518C192.544 187.801 189.83 190.737 186.733 193.23C184.935 194.786 183.218 196.433 181.588 198.163C183.068 198.304 184.554 197.966 185.827 197.198C185.944 197.12 186.086 197.087 186.226 197.103C186.366 197.119 186.496 197.185 186.593 197.287C186.69 197.39 186.748 197.523 186.756 197.664C186.765 197.805 186.723 197.944 186.639 198.058L180.976 206.299C179.963 207.783 178.904 209.49 179.316 211.079C180.493 211.292 186.662 207.877 187.557 206.923C189.341 204.988 190.897 202.854 192.196 200.565C193.404 198.483 194.795 196.513 196.352 194.678C197.589 193.313 198.919 191.994 200.191 190.722C201.815 189.109 203.487 187.449 204.994 185.671C205.972 184.494 207.02 183.317 208.091 182.139C212.294 177.43 217.051 172.037 219.194 166.433C221.549 160.193 224.009 136.704 224.033 136.468C224.051 136.308 224.131 136.161 224.257 136.059C224.382 135.958 224.543 135.91 224.704 135.927C224.783 135.934 224.86 135.957 224.93 135.994C225 136.031 225.062 136.082 225.112 136.143C225.163 136.205 225.2 136.275 225.223 136.351C225.246 136.427 225.254 136.507 225.245 136.586C225.151 137.563 222.773 160.487 220.324 166.857C218.099 172.673 213.26 178.124 208.998 182.94C207.926 184.117 206.89 185.295 205.924 186.472C204.382 188.285 202.687 190.004 201.05 191.594C199.779 192.854 198.472 194.16 197.259 195.503C195.75 197.298 194.399 199.221 193.221 201.248C191.885 203.621 190.273 205.826 188.417 207.818C187.781 208.478 181.765 212.257 179.375 212.257Z" fill="#282828"/>
<path d="M222.35 116.157C222.35 116.157 212.047 112.625 207.974 122.763C203.9 132.9 204.971 144.497 204.971 144.497L228.519 145.675C228.519 145.675 232.122 119.902 222.35 116.157Z" fill="#E73343"/>
<path d="M191.645 104.702L191.798 115.074C191.798 115.074 192.551 120.679 199.404 118.936C206.257 117.194 207.104 112.261 207.104 112.261L206.798 92.8217C206.798 92.8217 201.217 89.5249 200.052 77.4097C200.052 77.4097 195.424 82.9433 185.181 81.7661C185.181 81.7661 183.286 92.1388 184.004 97.4842C184.722 102.83 191.551 104.596 191.645 104.702Z" fill="white"/>
<path d="M196.941 119.902C195.744 119.935 194.565 119.602 193.562 118.948C192.318 118.051 191.473 116.703 191.207 115.192L191.054 105.149C188.358 104.16 183.99 101.935 183.436 97.6254C182.695 92.245 184.52 82.1548 184.614 81.7191C184.642 81.5732 184.725 81.4439 184.845 81.3564C184.965 81.2692 185.114 81.2304 185.262 81.2481C195.034 82.4253 199.567 77.1388 199.614 77.0918C199.687 77.0011 199.785 76.9346 199.897 76.9012C200.008 76.8675 200.127 76.8683 200.238 76.9033C200.348 76.9392 200.446 77.006 200.519 77.0956C200.592 77.1856 200.637 77.2945 200.65 77.4097C201.768 89.0188 207.055 92.3509 207.114 92.3743C207.201 92.4273 207.272 92.5017 207.322 92.5902C207.371 92.6791 207.397 92.779 207.396 92.8806L207.702 112.284C207.702 112.614 206.713 117.724 199.567 119.549C198.709 119.774 197.828 119.893 196.941 119.902ZM192.385 115.098C192.617 116.258 193.277 117.287 194.233 117.983C194.995 118.402 195.836 118.657 196.702 118.73C197.568 118.803 198.44 118.693 199.26 118.406C205.63 116.782 206.49 112.378 206.525 112.202L206.219 93.1987C205.042 92.3626 200.85 88.6657 199.602 78.7284C197.812 80.2707 193.315 83.1908 185.674 82.4726C185.297 84.6508 183.978 92.9632 184.602 97.4608C185.12 101.276 189.253 103.265 191.667 104.113C191.786 104.145 191.898 104.201 191.996 104.278C192.066 104.33 192.123 104.397 192.161 104.475C192.2 104.553 192.22 104.638 192.22 104.725L192.373 115.098H192.385Z" fill="#282828"/>
<path d="M202.756 92.5626C202.98 91.614 203.504 90.7633 204.251 90.1372C204.965 89.6156 205.76 89.2177 206.606 88.9597C207.06 88.7559 207.556 88.6592 208.054 88.6772C208.399 88.7269 208.731 88.8429 209.031 89.0186C209.78 89.372 210.377 89.9818 210.715 90.7377C210.913 91.3739 210.953 92.0486 210.833 92.7038C210.753 93.425 210.583 94.1331 210.326 94.8114C210.049 95.4763 209.642 96.0799 209.13 96.587C208.618 97.0939 208.011 97.4948 207.343 97.7662C206.676 98.0375 205.961 98.1742 205.24 98.1682C204.52 98.1622 203.807 98.0139 203.144 97.7314" fill="white"/>
<path d="M205.336 98.7089C204.526 98.7116 203.725 98.5473 202.981 98.2262C202.843 98.1616 202.736 98.0459 202.682 97.9038C202.628 97.7615 202.63 97.6039 202.69 97.4638C202.749 97.3236 202.861 97.212 203 97.1522C203.14 97.0924 203.298 97.0892 203.44 97.143C204.031 97.398 204.667 97.5328 205.31 97.5395C205.953 97.5466 206.592 97.4255 207.188 97.1832C207.784 96.9412 208.326 96.5829 208.782 96.1292C209.238 95.6756 209.6 95.1356 209.845 94.541C210.089 93.9136 210.247 93.2562 210.316 92.5866C210.42 92.0265 210.392 91.4502 210.234 90.9028C209.943 90.2846 209.448 89.7856 208.833 89.4901C208.593 89.3515 208.33 89.2595 208.056 89.2193C207.649 89.2103 207.247 89.2948 206.878 89.4664C206.076 89.7313 205.323 90.1295 204.653 90.644C204.004 91.1818 203.548 91.9179 203.358 92.7396C203.341 92.8154 203.31 92.8868 203.265 92.9501C203.22 93.0131 203.163 93.0666 203.097 93.1074C203.031 93.1481 202.958 93.175 202.881 93.1867C202.805 93.1984 202.727 93.1946 202.651 93.1753C202.576 93.1584 202.504 93.1269 202.44 93.0824C202.376 93.0378 202.322 92.9811 202.281 92.9153C202.239 92.8496 202.211 92.7762 202.198 92.6996C202.185 92.623 202.187 92.5445 202.204 92.4688C202.465 91.4015 203.059 90.4448 203.9 89.7373C204.674 89.1424 205.546 88.6879 206.478 88.3951C207.015 88.158 207.599 88.0491 208.185 88.0771C208.598 88.146 208.997 88.2854 209.363 88.4891C210.227 88.8982 210.919 89.5985 211.317 90.4671C211.55 91.1894 211.599 91.9586 211.458 92.7043C211.379 93.4787 211.197 94.239 210.917 94.9648C210.609 95.7033 210.158 96.3737 209.59 96.9373C209.023 97.501 208.349 97.947 207.608 98.2499C206.888 98.5489 206.116 98.7051 205.336 98.7089Z" fill="#282828"/>
<path d="M193.916 88.2769C193.916 88.2769 190.183 93.5753 191.019 94.529C191.855 95.4826 194.269 94.9293 194.269 94.9293" fill="white"/>
<path d="M192.808 95.6829C192.403 95.7152 191.995 95.6641 191.611 95.5327C191.226 95.4009 190.872 95.1915 190.571 94.9174C189.641 93.8461 191.608 90.5257 193.432 87.9474C193.475 87.8795 193.53 87.8208 193.596 87.7752C193.661 87.7293 193.735 87.6975 193.813 87.6812C193.892 87.6649 193.972 87.6649 194.051 87.6809C194.129 87.697 194.203 87.7287 194.269 87.7744C194.334 87.82 194.39 87.8784 194.432 87.946C194.474 88.014 194.503 88.0897 194.515 88.1685C194.527 88.2476 194.523 88.3282 194.503 88.4054C194.482 88.4828 194.447 88.5553 194.398 88.6183C192.691 91.0437 191.337 93.6576 191.49 94.1992C191.878 94.6113 193.303 94.5407 194.127 94.3522C194.283 94.3163 194.447 94.344 194.583 94.429C194.719 94.5141 194.815 94.6493 194.851 94.8055C194.887 94.9617 194.859 95.1258 194.774 95.2616C194.689 95.3974 194.554 95.4938 194.398 95.5297C193.875 95.6402 193.342 95.6916 192.808 95.6829Z" fill="#282828"/>
<path d="M199.479 87.6306C199.523 86.9363 199.159 86.348 198.666 86.3167C198.173 86.2855 197.737 86.8233 197.693 87.5176C197.65 88.2119 198.014 88.8002 198.507 88.8312C199 88.8624 199.435 88.3249 199.479 87.6306Z" fill="#282828"/>
<path d="M190.963 87.9571C191.012 87.2631 190.651 86.6723 190.159 86.6378C189.666 86.6031 189.226 87.1376 189.177 87.8317C189.129 88.5259 189.489 89.1165 189.982 89.1512C190.475 89.1857 190.914 88.6512 190.963 87.9571Z" fill="#282828"/>
<path d="M194.175 100.522C192.02 100.414 189.927 99.7528 188.1 98.603C188.031 98.5636 187.97 98.5101 187.922 98.4462C187.874 98.3824 187.839 98.3096 187.82 98.2319C187.801 98.1542 187.798 98.0736 187.811 97.9948C187.824 97.916 187.854 97.8405 187.897 97.7734C187.94 97.706 187.996 97.6485 188.063 97.6036C188.129 97.5591 188.204 97.5284 188.282 97.5135C188.361 97.4985 188.441 97.4996 188.519 97.517C188.598 97.5344 188.671 97.5672 188.736 97.614C188.736 97.614 192.763 100.169 196.001 99.0506C196.874 98.6869 197.65 98.1219 198.264 97.4018C198.877 96.6815 199.312 95.8264 199.533 94.9061C199.557 94.8314 199.595 94.7621 199.646 94.7024C199.697 94.6429 199.76 94.594 199.83 94.5589C199.9 94.5239 199.977 94.5033 200.055 94.4981C200.133 94.4929 200.212 94.5035 200.286 94.5293C200.432 94.5801 200.553 94.6866 200.621 94.8254C200.689 94.9642 200.7 95.1242 200.651 95.2712C200.384 96.3653 199.858 97.3798 199.119 98.23C198.379 99.0799 197.448 99.7408 196.401 100.157C195.686 100.408 194.933 100.531 194.175 100.522Z" fill="#282828"/>
<path d="M191.644 104.702C191.644 104.702 196.613 105.879 200.451 103.736C200.451 103.736 197.872 113.532 191.762 112.614L191.644 104.702Z" fill="#282828"/>
<path d="M192.573 113.273C192.27 113.272 191.967 113.248 191.667 113.202C191.529 113.18 191.404 113.11 191.314 113.004C191.223 112.899 191.173 112.765 191.172 112.625L191.054 104.701C191.054 104.613 191.074 104.525 191.113 104.446C191.151 104.366 191.208 104.296 191.278 104.242C191.348 104.186 191.43 104.146 191.518 104.126C191.605 104.106 191.697 104.105 191.784 104.125C191.784 104.125 196.576 105.302 200.167 103.23C200.264 103.166 200.376 103.133 200.491 103.133C200.606 103.133 200.719 103.166 200.815 103.23C200.907 103.302 200.977 103.399 201.014 103.51C201.052 103.621 201.056 103.74 201.027 103.854C200.921 104.289 198.484 113.273 192.573 113.273ZM192.338 112.096H192.538C196.376 112.096 198.613 107.233 199.473 104.866C197.15 105.666 194.662 105.86 192.244 105.432L192.338 112.096Z" fill="#282828"/>
<path d="M225.316 188.65C225.189 188.646 225.067 188.605 224.964 188.532C224.862 188.458 224.783 188.356 224.739 188.238C224.651 187.756 224.615 187.267 224.633 186.778C224.539 183.245 224.268 174.085 220.606 168.681C220.52 168.553 220.489 168.396 220.518 168.245C220.548 168.094 220.637 167.961 220.765 167.875C220.893 167.789 221.05 167.757 221.201 167.787C221.353 167.817 221.486 167.906 221.572 168.034C225.433 173.72 225.704 183.186 225.81 186.742C225.81 187.26 225.81 187.778 225.81 187.92C225.834 187.99 225.844 188.064 225.839 188.139C225.835 188.213 225.815 188.286 225.783 188.352C225.75 188.419 225.704 188.478 225.648 188.528C225.592 188.576 225.527 188.614 225.457 188.638L225.316 188.65Z" fill="white"/>
<path d="M200.073 218.45C199.935 218.451 199.801 218.404 199.695 218.315C199.589 218.227 199.518 218.103 199.496 217.967L196.729 201.766C196.702 201.61 196.739 201.45 196.831 201.321C196.922 201.191 197.062 201.104 197.217 201.077C197.374 201.051 197.534 201.087 197.663 201.179C197.792 201.271 197.88 201.41 197.906 201.566L200.708 217.767C200.732 217.92 200.695 218.076 200.605 218.201C200.515 218.327 200.378 218.412 200.226 218.438L200.073 218.45Z" fill="white"/>
<path d="M218.033 258.198C217.988 258.208 217.941 258.208 217.896 258.198C217.762 258.161 217.648 258.073 217.579 257.952C217.51 257.832 217.491 257.689 217.527 257.555C218.698 253.511 232.307 244.886 232.845 244.548C232.962 244.481 233.101 244.462 233.232 244.494C233.363 244.526 233.477 244.607 233.551 244.721C233.624 244.835 233.65 244.972 233.625 245.105C233.6 245.238 233.525 245.356 233.415 245.435C229.572 247.853 219.416 254.799 218.54 257.84C218.506 257.946 218.438 258.039 218.346 258.104C218.255 258.168 218.145 258.202 218.033 258.198Z" fill="white"/>
<path d="M100.629 269.526C100.539 269.528 100.451 269.503 100.374 269.457C100.297 269.41 100.236 269.343 100.196 269.262L56.5102 184.583C56.4708 184.527 56.4442 184.462 56.4317 184.394C56.4192 184.326 56.4211 184.257 56.4377 184.19C56.4545 184.123 56.4852 184.06 56.5279 184.006C56.5705 183.952 56.6243 183.907 56.6857 183.875C56.7471 183.844 56.8142 183.825 56.8831 183.822C56.9521 183.818 57.0211 183.829 57.0855 183.854C57.1496 183.879 57.208 183.917 57.2564 183.967C57.3044 184.016 57.3417 184.075 57.3653 184.14L101.082 268.819C101.113 268.875 101.132 268.937 101.138 269.001C101.144 269.065 101.137 269.13 101.117 269.191C101.097 269.252 101.065 269.309 101.023 269.357C100.981 269.406 100.929 269.445 100.871 269.473C100.797 269.514 100.713 269.532 100.629 269.526Z" fill="#D1D3D4"/>
<path d="M80.7927 259.782C80.6715 259.78 80.5553 259.734 80.4656 259.652C80.3763 259.57 80.3198 259.459 80.307 259.338C79.6418 252.592 77.5304 247.725 74.0359 244.748C72.8926 243.815 71.5662 243.131 70.1424 242.742C68.7185 242.353 67.2291 242.267 65.7697 242.489C64.6989 242.636 63.6727 243.013 62.7614 243.595C61.8503 244.176 61.0756 244.947 60.4911 245.857C60.4351 245.947 60.3509 246.016 60.2518 246.053C60.1529 246.091 60.044 246.095 59.9424 246.065C59.8408 246.035 59.7517 245.973 59.6887 245.888C59.6257 245.802 59.5925 245.699 59.5939 245.593C59.7628 235.183 56.2262 225.661 49.8603 219.464C42.808 212.591 32.3038 210.533 24.333 214.449C19.8885 216.645 16.2041 221.628 17.7454 226.189C17.7852 226.29 17.7893 226.401 17.757 226.504C17.7248 226.608 17.6582 226.697 17.5682 226.758C17.4783 226.818 17.3704 226.846 17.2624 226.837C17.1545 226.827 17.053 226.781 16.9747 226.706C11.2 221.776 3.8311 219.992 -2.2498 222.05C-9.0697 224.352 -13.5248 231.848 -11.9729 238.425C-11.95 238.51 -11.9517 238.6 -11.9779 238.683C-12.004 238.768 -12.0536 238.843 -12.1207 238.9C-12.1873 238.959 -12.2685 238.998 -12.3558 239.015C-12.4431 239.032 -12.5333 239.025 -12.6169 238.995C-14.6512 238.272 -16.8456 238.124 -18.9582 238.57C-21.0708 239.015 -23.0192 240.035 -24.5887 241.518C-26.1621 243.091 -27.2991 245.046 -27.8877 247.191C-28.4763 249.337 -28.4962 251.598 -27.9459 253.753C-27.9309 253.873 -27.9594 253.993 -28.0265 254.093C-28.0933 254.192 -28.1944 254.264 -28.3104 254.295C-28.4264 254.326 -28.5494 254.314 -28.6572 254.261C-28.7648 254.208 -28.8498 254.118 -28.896 254.007C-29.4846 251.683 -29.4594 249.246 -28.8227 246.934C-28.186 244.623 -26.9599 242.516 -25.2643 240.821C-23.6653 239.312 -21.7032 238.242 -19.5685 237.715C-17.4339 237.187 -15.1992 237.221 -13.0814 237.812C-14.2005 230.982 -9.55532 223.486 -2.52428 221.121C3.49328 219.095 10.6827 220.615 16.4785 225.07C15.8451 220.435 19.519 215.737 23.8686 213.584C32.1981 209.488 43.1565 211.62 50.5041 218.767C56.7646 224.859 60.3751 234.043 60.5335 244.157C61.8783 242.737 63.6645 241.814 65.601 241.539C67.1979 241.294 68.8285 241.388 70.3868 241.813C71.9454 242.239 73.3973 242.987 74.6484 244.009C78.3434 247.103 80.5708 252.233 81.2675 259.243C81.2794 259.371 81.2406 259.497 81.1597 259.596C81.0784 259.695 80.9619 259.758 80.8348 259.771L80.7927 259.782Z" fill="#D1D3D4"/>
<path d="M6.31962 236.398C6.25361 236.412 6.18505 236.412 6.11905 236.398C6.00314 236.342 5.91313 236.245 5.86785 236.125C5.82256 236.004 5.82558 235.872 5.87624 235.754C7.1853 232.893 9.57122 230.665 11.6827 228.701C13.1162 227.192 14.8163 225.961 16.6973 225.07C18.6752 224.383 20.7837 224.155 22.8626 224.405C30.126 224.964 35.7951 228.237 38.0228 233.167C38.0491 233.225 38.0638 233.288 38.066 233.352C38.0681 233.416 38.0576 233.48 38.035 233.54C38.0125 233.599 37.9782 233.654 37.9345 233.701C37.8908 233.747 37.8381 233.785 37.7799 233.811C37.6621 233.862 37.529 233.865 37.4089 233.819C37.2888 233.774 37.1911 233.684 37.1359 233.568C35.0245 228.965 29.693 225.904 22.7888 225.376C20.857 225.138 18.8965 225.344 17.0562 225.978C15.2875 226.825 13.6883 227.987 12.3372 229.409C10.2997 231.32 7.98764 233.473 6.76303 236.155C6.71854 236.232 6.65362 236.296 6.57541 236.339C6.49721 236.381 6.40871 236.402 6.31962 236.398Z" fill="#D1D3D4"/>
<path d="M1.61108 178.576C1.47998 178.575 1.35473 178.522 1.26269 178.429C1.21638 178.384 1.17954 178.331 1.15436 178.272C1.12919 178.213 1.11621 178.15 1.11621 178.086C1.11621 178.021 1.12919 177.958 1.15436 177.899C1.17954 177.84 1.21638 177.787 1.26269 177.742C2.41287 176.664 3.89668 176.01 5.46885 175.889C7.04102 175.768 8.60737 176.187 9.90899 177.077C9.96522 177.112 10.0138 177.158 10.0515 177.212C10.0894 177.267 10.1156 177.328 10.1288 177.393C10.1419 177.458 10.1417 177.525 10.128 177.59C10.1144 177.655 10.0876 177.716 10.0494 177.77C10.0112 177.824 9.96234 177.87 9.90584 177.904C9.84931 177.939 9.78635 177.961 9.72081 177.971C9.65524 177.98 9.58847 177.976 9.52464 177.958C9.46078 177.941 9.40115 177.91 9.34946 177.869C8.23135 177.124 6.89572 176.775 5.55604 176.878C4.21639 176.982 2.95003 177.531 1.95946 178.439C1.86401 178.526 1.74007 178.575 1.61108 178.576Z" fill="#D1D3D4"/>
<path d="M52.0549 202.794H51.9493C51.8871 202.78 51.8278 202.754 51.7754 202.718C51.723 202.681 51.6784 202.635 51.6439 202.581C51.6097 202.526 51.5864 202.466 51.5752 202.403C51.5644 202.34 51.566 202.276 51.5798 202.214L52.7095 197.051C52.7375 196.924 52.8139 196.814 52.9222 196.743C53.0309 196.672 53.1629 196.646 53.29 196.671C53.415 196.701 53.5231 196.779 53.5918 196.887C53.6608 196.995 53.685 197.126 53.6597 197.252L52.53 202.425C52.5023 202.53 52.4406 202.623 52.3548 202.69C52.269 202.756 52.1636 202.793 52.0549 202.794Z" fill="#D1D3D4"/>
<path d="M49.119 203.248C49.0039 203.247 48.893 203.205 48.8058 203.13C48.7189 203.054 48.6616 202.95 48.644 202.837L48.0105 198.846C47.991 198.718 48.0227 198.589 48.0991 198.485C48.1751 198.381 48.2895 198.311 48.4169 198.292C48.5445 198.272 48.6744 198.304 48.7784 198.38C48.8822 198.456 48.9517 198.571 48.9713 198.698L49.6047 202.678C49.6153 202.741 49.6131 202.806 49.5987 202.868C49.5843 202.931 49.5577 202.989 49.5205 203.041C49.483 203.093 49.436 203.137 49.3814 203.171C49.3271 203.205 49.2668 203.228 49.2035 203.238L49.119 203.248Z" fill="#D1D3D4"/>
<path d="M11.5128 197.769C11.4082 197.769 11.3065 197.735 11.2228 197.672C11.1391 197.609 11.0779 197.521 11.0483 197.421C10.7394 196.454 10.2875 195.54 9.70756 194.707C9.64226 194.602 9.61961 194.476 9.64422 194.355C9.6688 194.233 9.7388 194.126 9.8399 194.055C9.94097 193.983 10.0655 193.953 10.1881 193.97C10.3107 193.988 10.422 194.051 10.4994 194.148C11.1423 195.06 11.6375 196.069 11.9668 197.136C11.9865 197.197 11.9938 197.261 11.9885 197.325C11.9832 197.389 11.9654 197.451 11.9359 197.508C11.9065 197.565 11.8661 197.615 11.817 197.656C11.768 197.698 11.7112 197.729 11.6501 197.748L11.5128 197.769Z" fill="#D1D3D4"/>
<path d="M14.0073 197.136C13.8957 197.134 13.7882 197.094 13.702 197.023C13.6158 196.952 13.556 196.854 13.5322 196.745C13.3401 195.816 13.3873 194.853 13.6695 193.947C13.6875 193.887 13.7176 193.83 13.7578 193.781C13.798 193.732 13.8476 193.692 13.9036 193.662C13.9597 193.633 14.0211 193.615 14.0843 193.609C14.1474 193.604 14.211 193.611 14.2712 193.631C14.3943 193.667 14.4977 193.751 14.5591 193.864C14.6204 193.977 14.6346 194.109 14.5985 194.233C14.3649 194.984 14.3249 195.783 14.4824 196.555C14.4979 196.617 14.5004 196.681 14.49 196.744C14.4795 196.807 14.4562 196.867 14.4216 196.92C14.3869 196.974 14.3416 197.019 14.2885 197.055C14.2354 197.09 14.1756 197.114 14.1129 197.125L14.0073 197.136Z" fill="#D1D3D4"/>
<path d="M17.9135 196.988H17.8184C17.6926 196.962 17.582 196.888 17.5107 196.781C17.4395 196.674 17.4135 196.544 17.4384 196.418C17.7242 194.983 18.1963 193.592 18.8425 192.279C18.8684 192.221 18.906 192.168 18.9531 192.125C19.0002 192.082 19.0557 192.049 19.1161 192.028C19.1766 192.007 19.2407 191.999 19.3044 192.004C19.3681 192.009 19.4301 192.027 19.4865 192.058C19.5439 192.085 19.5954 192.123 19.6378 192.17C19.6802 192.218 19.7127 192.273 19.7333 192.333C19.754 192.393 19.7624 192.456 19.7581 192.52C19.7538 192.583 19.7368 192.645 19.7082 192.702C19.1071 193.944 18.6638 195.256 18.3885 196.608C18.3663 196.717 18.3066 196.814 18.2198 196.884C18.133 196.953 18.0246 196.99 17.9135 196.988Z" fill="#D1D3D4"/>
<path d="M186.826 198.783C186.702 198.783 186.583 198.736 186.493 198.652C186.403 198.568 186.348 198.452 186.34 198.329C186.26 197.206 186.018 196.1 185.622 195.046C185.577 194.924 185.582 194.789 185.636 194.671C185.689 194.552 185.786 194.459 185.907 194.412C186.031 194.371 186.165 194.378 186.283 194.433C186.401 194.488 186.493 194.587 186.541 194.708C186.967 195.851 187.226 197.049 187.311 198.266C187.317 198.394 187.273 198.519 187.189 198.616C187.104 198.712 186.985 198.772 186.858 198.783H186.826Z" fill="#D1D3D4"/>
<path d="M189.108 199.078C189.043 199.078 188.979 199.066 188.92 199.041C188.86 199.015 188.806 198.979 188.761 198.932C188.716 198.886 188.68 198.831 188.656 198.771C188.632 198.711 188.621 198.647 188.622 198.582C188.633 197.24 188.895 195.912 189.393 194.665C189.441 194.545 189.534 194.449 189.653 194.397C189.772 194.346 189.906 194.344 190.026 194.391C190.147 194.439 190.244 194.532 190.295 194.651C190.346 194.77 190.349 194.904 190.301 195.025C189.846 196.16 189.606 197.37 189.594 198.593C189.594 198.722 189.542 198.845 189.451 198.936C189.36 199.027 189.237 199.078 189.108 199.078Z" fill="#D1D3D4"/>
<path d="M192.306 198.614C192.212 198.613 192.121 198.585 192.043 198.535C191.965 198.485 191.902 198.413 191.862 198.329C191.836 198.27 191.822 198.206 191.82 198.142C191.819 198.078 191.83 198.014 191.854 197.954C191.878 197.894 191.913 197.839 191.958 197.793C192.003 197.747 192.056 197.71 192.116 197.685C192.443 197.537 192.58 197.125 192.76 196.46C192.805 196.09 192.931 195.733 193.128 195.416C193.324 195.099 193.588 194.828 193.9 194.623C193.957 194.594 194.019 194.576 194.082 194.571C194.146 194.566 194.21 194.573 194.271 194.593C194.332 194.612 194.388 194.644 194.437 194.685C194.485 194.727 194.525 194.777 194.554 194.834C194.611 194.95 194.62 195.082 194.58 195.204C194.541 195.326 194.456 195.428 194.343 195.489C193.995 195.668 193.847 196.175 193.699 196.724C193.656 197.103 193.525 197.467 193.319 197.787C193.112 198.108 192.834 198.376 192.506 198.572C192.444 198.601 192.375 198.616 192.306 198.614Z" fill="#D1D3D4"/>
<path d="M271.284 199.796C271.198 199.798 271.113 199.776 271.039 199.733C270.965 199.69 270.904 199.628 270.861 199.553L269.025 196.387C268.962 196.275 268.944 196.144 268.975 196.02C269.007 195.896 269.085 195.789 269.193 195.721C269.249 195.689 269.31 195.668 269.373 195.66C269.437 195.652 269.502 195.656 269.563 195.673C269.625 195.689 269.683 195.718 269.734 195.757C269.784 195.796 269.827 195.845 269.859 195.901L271.695 199.068C271.76 199.179 271.779 199.311 271.749 199.435C271.717 199.56 271.638 199.667 271.527 199.733C271.451 199.772 271.369 199.794 271.284 199.796Z" fill="#D1D3D4"/>
<path d="M161.544 194.623C161.454 194.625 161.366 194.6 161.289 194.554C161.212 194.507 161.15 194.44 161.111 194.359C160.68 193.488 160.129 192.681 159.474 191.963C159.387 191.868 159.342 191.742 159.348 191.613C159.354 191.484 159.411 191.363 159.506 191.276C159.601 191.19 159.727 191.144 159.856 191.15C159.984 191.156 160.105 191.213 160.192 191.308C160.908 192.091 161.509 192.973 161.976 193.926C162.031 194.041 162.039 194.173 161.997 194.294C161.956 194.414 161.869 194.514 161.755 194.57C161.691 194.609 161.617 194.627 161.544 194.623Z" fill="#D1D3D4"/>
<path d="M163.558 194.296C163.451 194.294 163.348 194.258 163.262 194.194C163.177 194.129 163.114 194.039 163.083 193.937C162.819 192.927 162.841 191.863 163.147 190.865C163.158 190.796 163.183 190.731 163.222 190.673C163.261 190.615 163.311 190.566 163.37 190.53C163.429 190.493 163.495 190.469 163.564 190.461C163.633 190.452 163.704 190.458 163.77 190.479C163.836 190.499 163.897 190.534 163.949 190.58C164.001 190.626 164.043 190.683 164.07 190.747C164.098 190.811 164.113 190.88 164.112 190.949C164.111 191.018 164.095 191.087 164.065 191.15C163.833 191.979 163.833 192.855 164.065 193.684C164.097 193.807 164.08 193.938 164.017 194.048C163.954 194.159 163.85 194.24 163.727 194.275L163.558 194.296Z" fill="#D1D3D4"/>
<path d="M166.398 194.666C166.309 194.666 166.221 194.641 166.145 194.594C166.068 194.548 166.006 194.481 165.965 194.402C165.785 193.897 165.711 193.361 165.749 192.826C165.787 192.292 165.937 191.771 166.187 191.298C166.284 190.992 166.467 190.72 166.715 190.517C166.832 190.439 166.964 190.388 167.103 190.368C167.242 190.348 167.383 190.359 167.517 190.4C167.63 190.436 167.733 190.496 167.819 190.576C167.904 190.656 167.971 190.755 168.013 190.865C168.058 190.985 168.053 191.118 168 191.235C167.946 191.352 167.849 191.443 167.728 191.488C167.641 191.524 167.544 191.532 167.452 191.511C167.359 191.49 167.275 191.442 167.211 191.372C167.211 191.435 167.127 191.572 167.095 191.646C166.709 192.353 166.617 193.184 166.842 193.958C166.877 194.034 166.893 194.116 166.888 194.199C166.883 194.282 166.857 194.362 166.813 194.433C166.769 194.503 166.708 194.562 166.635 194.602C166.563 194.643 166.481 194.665 166.398 194.666Z" fill="#D1D3D4"/>
<path d="M67.1298 230.538C67.0665 230.536 67.0043 230.52 66.947 230.493C66.8897 230.466 66.8384 230.428 66.796 230.381C66.7536 230.333 66.7213 230.278 66.7006 230.218C66.68 230.158 66.6716 230.095 66.6759 230.032C66.7205 229.083 66.5882 228.134 66.2853 227.234C66.2655 227.173 66.2582 227.109 66.2633 227.045C66.2688 226.981 66.2867 226.919 66.316 226.862C66.3456 226.805 66.3858 226.754 66.435 226.713C66.4841 226.672 66.5407 226.641 66.602 226.622C66.7237 226.581 66.8566 226.591 66.9712 226.648C67.0858 226.706 67.1733 226.806 67.2143 226.928C67.5552 227.947 67.7019 229.021 67.647 230.095C67.6337 230.221 67.5728 230.337 67.4767 230.42C67.3803 230.502 67.2564 230.544 67.1298 230.538Z" fill="#D1D3D4"/>
<path d="M68.9245 229.546C68.8009 229.547 68.682 229.5 68.5918 229.415C68.5016 229.331 68.447 229.215 68.4389 229.092C68.3544 228.002 68.3756 226.906 68.5021 225.819C68.5182 225.692 68.5836 225.577 68.6844 225.498C68.7852 225.418 68.9134 225.382 69.0405 225.397C69.1033 225.404 69.1638 225.423 69.219 225.453C69.2741 225.483 69.3227 225.524 69.3621 225.573C69.4012 225.622 69.4306 225.678 69.4477 225.739C69.4651 225.799 69.4702 225.863 69.4629 225.925C69.3556 226.956 69.3379 227.995 69.4102 229.029C69.4162 229.157 69.3722 229.282 69.2874 229.379C69.2027 229.476 69.084 229.535 68.9563 229.546H68.9245Z" fill="#D1D3D4"/>
<path d="M71.4167 229.926H71.2795C71.1565 229.89 71.053 229.806 70.9916 229.693C70.9302 229.58 70.9161 229.448 70.9522 229.324C71.2858 228.21 71.7207 227.129 72.2506 226.094C72.28 226.037 72.3199 225.987 72.3685 225.945C72.4171 225.904 72.4734 225.873 72.5342 225.853C72.595 225.833 72.6592 225.826 72.7227 225.831C72.7865 225.836 72.8485 225.854 72.9052 225.883C72.962 225.912 73.0125 225.952 73.0541 226.001C73.0954 226.049 73.1269 226.106 73.1465 226.166C73.166 226.227 73.1734 226.291 73.1682 226.355C73.1633 226.418 73.1456 226.48 73.1163 226.537C72.6127 227.517 72.2025 228.542 71.8918 229.599C71.8565 229.696 71.7918 229.78 71.7068 229.839C71.6215 229.898 71.5202 229.928 71.4167 229.926Z" fill="#D1D3D4"/>
</g>
</g>
<defs>
<clipPath id="clip0_326_3734">
<rect width="270" height="270" fill="white"/>
</clipPath>
</defs>
</svg>
