<svg width="270" height="270" viewBox="0 0 270 270" fill="none" xmlns="http://www.w3.org/2000/svg">
<g clip-path="url(#clip0_326_3894)">
<path d="M135 269.87C209.487 269.87 269.87 209.487 269.87 135C269.87 60.5131 209.487 0.129639 135 0.129639C60.5131 0.129639 0.129639 60.5131 0.129639 135C0.129639 209.487 60.5131 269.87 135 269.87Z" fill="white" stroke="#282828" stroke-width="0.955753"/>
<mask id="mask0_326_3894" style="mask-type:alpha" maskUnits="userSpaceOnUse" x="0" y="0" width="270" height="270">
<path d="M134.999 268.831C208.912 268.831 268.831 208.913 268.831 135C268.831 61.0868 208.912 1.16846 134.999 1.16846C61.0861 1.16846 1.16772 61.0868 1.16772 135C1.16772 208.913 61.0861 268.831 134.999 268.831Z" fill="white" stroke="#282828" stroke-width="0.955753"/>
</mask>
<g mask="url(#mask0_326_3894)">
<path d="M140.459 166.372H82.8228V178.11H140.459V166.372Z" fill="white"/>
<path d="M140.46 178.612H82.8236C82.6878 178.612 82.5574 178.558 82.4612 178.462C82.3653 178.366 82.3113 178.235 82.3113 178.1V166.372C82.3113 166.236 82.3653 166.105 82.4612 166.009C82.5574 165.913 82.6878 165.859 82.8236 165.859H140.46C140.595 165.859 140.726 165.913 140.822 166.009C140.918 166.105 140.972 166.236 140.972 166.372V178.1C140.972 178.235 140.918 178.366 140.822 178.462C140.726 178.558 140.595 178.612 140.46 178.612ZM83.3356 177.588H139.948V166.884H83.3356V177.588Z" fill="#D1D3D4"/>
<path d="M131.672 157.553H79.0242V166.372H131.672V157.553Z" fill="white"/>
<path d="M131.673 166.884H79.025C78.8891 166.884 78.7588 166.83 78.6629 166.734C78.5667 166.638 78.5129 166.508 78.5129 166.372V157.553C78.5129 157.417 78.5667 157.287 78.6629 157.19C78.7588 157.095 78.8891 157.041 79.025 157.041H131.673C131.809 157.041 131.939 157.095 132.035 157.19C132.131 157.287 132.185 157.417 132.185 157.553V166.372C132.182 166.507 132.127 166.635 132.032 166.731C131.937 166.827 131.808 166.881 131.673 166.884ZM79.537 165.86H131.161V158.065H79.537V165.86Z" fill="#D1D3D4"/>
<path d="M275.174 268.38H-5.19222C-5.32803 268.38 -5.4583 268.326 -5.55435 268.23C-5.6504 268.134 -5.70435 268.004 -5.70435 267.868C-5.70435 267.732 -5.6504 267.602 -5.55435 267.506C-5.4583 267.41 -5.32803 267.355 -5.19222 267.355H275.174C275.31 267.355 275.438 267.41 275.536 267.506C275.631 267.602 275.685 267.732 275.685 267.868C275.685 268.004 275.631 268.134 275.536 268.23C275.438 268.326 275.31 268.38 275.174 268.38Z" fill="#D1D3D4"/>
<path d="M255.927 184.164H48.8899V278.621H255.927V184.164Z" fill="white"/>
<path d="M255.936 279.094H48.8882C48.7649 279.091 48.6478 279.04 48.5617 278.953C48.4756 278.863 48.4272 278.746 48.4272 278.624V184.164C48.4272 184.041 48.4756 183.922 48.5617 183.834C48.6478 183.746 48.7649 183.695 48.8882 183.693H255.936C256.059 183.695 256.176 183.746 256.262 183.834C256.348 183.922 256.397 184.041 256.397 184.164V278.624C256.397 278.746 256.348 278.863 256.262 278.953C256.176 279.04 256.059 279.091 255.936 279.094ZM49.3595 278.141H255.465V184.635H49.3595V278.141Z" fill="#282828"/>
<path d="M256.389 178.151H48.4505C46.7873 178.151 45.4392 179.497 45.4392 181.157C45.4392 182.818 46.7873 184.164 48.4505 184.164H256.389C258.052 184.164 259.401 182.818 259.401 181.157C259.401 179.497 258.052 178.151 256.389 178.151Z" fill="white"/>
<path d="M256.39 184.634H48.4615C47.5719 184.586 46.7345 184.199 46.122 183.552C45.5092 182.905 45.1677 182.048 45.1677 181.157C45.1677 180.266 45.5092 179.409 46.122 178.762C46.7345 178.115 47.5719 177.728 48.4615 177.68H256.39C257.28 177.728 258.117 178.115 258.73 178.762C259.342 179.409 259.684 180.266 259.684 181.157C259.684 182.048 259.342 182.905 258.73 183.552C258.117 184.199 257.28 184.586 256.39 184.634ZM48.4615 178.622C48.1149 178.6 47.7678 178.649 47.441 178.766C47.1142 178.884 46.8152 179.067 46.562 179.305C46.3088 179.542 46.107 179.829 45.969 180.148C45.831 180.466 45.7599 180.81 45.7599 181.157C45.7599 181.504 45.831 181.848 45.969 182.166C46.107 182.485 46.3088 182.772 46.562 183.009C46.8152 183.247 47.1142 183.43 47.441 183.547C47.7678 183.665 48.1149 183.714 48.4615 183.692H256.39C256.736 183.714 257.084 183.665 257.41 183.547C257.737 183.43 258.036 183.247 258.289 183.009C258.542 182.772 258.744 182.485 258.882 182.166C259.02 181.848 259.091 181.504 259.091 181.157C259.091 180.81 259.02 180.466 258.882 180.148C258.744 179.829 258.542 179.542 258.289 179.305C258.036 179.067 257.737 178.884 257.41 178.766C257.084 178.649 256.736 178.6 256.39 178.622H48.4615Z" fill="#282828"/>
<path d="M25.719 232.868C25.814 231.388 25.4985 229.909 24.8074 228.597C24.1211 227.734 23.4817 226.835 22.892 225.903C22.0828 224.172 22.6462 222.133 22.4618 220.228C22.2759 218.625 21.5541 217.13 20.4132 215.988C19.389 214.963 18.1291 214.288 17.1765 213.243C15.6196 211.522 15.128 209.146 14.2881 206.944C13.0233 203.909 10.8425 201.345 8.05021 199.61C9.75051 203.031 5.86848 207.384 7.63025 210.774C8.18337 211.85 9.24862 212.639 9.6788 213.775C10.7031 216.531 7.38442 219.511 8.42919 222.246C8.95156 223.608 10.4163 224.397 11.0923 225.688C12.0142 227.429 11.2869 229.549 11.3689 231.516C11.4713 234.23 13.1204 236.637 15.087 238.543C16.3059 239.71 17.6682 240.724 18.9895 241.779C20.5669 243.049 21.2327 244.381 22.6257 242.343C24.5579 239.553 25.6331 236.26 25.719 232.868Z" fill="#282828"/>
<path d="M27.4401 234.425C26.9279 232.376 26.5694 230.041 27.4401 228.064C28.4644 225.821 30.8303 224.233 31.1069 221.806C31.2913 220.218 30.4821 218.61 30.7996 217.043C31.1172 215.476 32.4077 214.4 33.4627 213.243C35.8943 210.567 37.3397 207.142 37.56 203.533C39.1895 205.471 40.5063 207.651 41.4625 209.996C41.9305 211.174 42.1231 212.444 42.0256 213.707C41.9278 214.972 41.5426 216.196 40.8991 217.289C40.4813 217.772 40.1361 218.314 39.8748 218.897C39.4035 220.444 40.725 221.898 41.4111 223.363C41.8175 224.201 41.9873 225.134 41.9022 226.062C41.8175 226.99 41.4812 227.877 40.9298 228.628C39.5369 230.359 36.8328 231.024 36.1771 233.134C36.0062 233.921 35.9272 234.726 35.9416 235.531C35.7957 236.927 35.2362 238.246 34.3344 239.322C33.4328 240.397 32.2303 241.178 30.8817 241.564C29.2427 241.964 29.2736 241.308 28.9765 239.925C28.6386 238.071 27.9214 236.279 27.4401 234.425Z" fill="#D1D3D4"/>
<path d="M22.2484 219.317C21.0909 215.281 20.6197 211.061 19.3906 207.026C18.3417 203.884 17.0648 200.824 15.5701 197.869L20.5788 199.989C22.1869 200.665 23.9179 201.464 24.6759 203.062C25.9972 205.796 23.6516 209.289 25.0139 211.993C25.6137 212.868 26.2743 213.7 26.9908 214.482C28.4656 216.531 28.2405 219.399 27.4313 221.806C27.083 222.83 25.567 228.197 24.215 226.712C23.6721 226.118 23.6209 223.896 23.3956 223.076C23.0473 221.806 22.6171 220.577 22.2484 219.317Z" fill="#D1D3D4"/>
<path d="M24.9129 272.947C23.8887 266.352 20.8158 243.101 20.7544 242.865L21.7787 242.732C21.7787 242.957 24.9334 266.209 25.9372 272.795L24.9129 272.947Z" fill="#282828"/>
<path d="M26.2438 279.165H25.2195C25.2195 271.32 28.5586 241.35 30.4434 239.28L31.2013 239.977C29.7673 241.544 26.3052 270.47 26.2438 279.165Z" fill="#282828"/>
<path d="M27.9419 277.682L26.9178 277.63C27.6554 260.749 24.0805 225.288 24.0396 224.93L25.0638 224.828C25.0946 225.186 28.6897 260.728 27.9419 277.682Z" fill="#282828"/>
<path d="M16.4104 254.03H35.0524L33.7412 275.202C33.5157 278.858 30.8016 281.705 27.5342 281.705H23.9286C20.6509 281.705 17.9366 278.858 17.7112 275.202L16.4104 254.03Z" fill="white"/>
<path d="M27.5334 282.239H23.928C20.3942 282.239 17.4341 279.165 17.1883 275.242L15.8874 254.071C15.8827 254.001 15.892 253.93 15.9149 253.863C15.9378 253.796 15.9737 253.735 16.0206 253.682C16.1241 253.579 16.2637 253.52 16.4098 253.518H35.0518C35.1227 253.519 35.1925 253.534 35.2577 253.562C35.3229 253.59 35.3816 253.631 35.4307 253.682C35.481 253.733 35.5198 253.794 35.5445 253.861C35.5693 253.928 35.5793 254 35.5741 254.071L34.2733 275.242C34.0275 279.165 31.0673 282.239 27.5334 282.239ZM16.9732 254.583L18.2228 275.161C18.4276 278.532 20.9269 281.175 23.9075 281.175H27.513C30.4936 281.175 32.9928 278.532 33.1977 275.161L34.4884 254.583H16.9732Z" fill="#282828"/>
<path d="M98.8349 74.9453H34.5103V145.805H98.8349V74.9453Z" fill="white"/>
<path d="M98.8232 146.316H34.5089C34.3731 146.316 34.2427 146.262 34.1465 146.166C34.0506 146.07 33.9966 145.94 33.9966 145.804V74.9444C33.9966 74.8086 34.0506 74.6785 34.1465 74.5823C34.2427 74.4864 34.3731 74.4324 34.5089 74.4324H98.8232C98.959 74.4324 99.0894 74.4864 99.1853 74.5823C99.2814 74.6785 99.3352 74.8086 99.3352 74.9444V145.804C99.3352 145.94 99.2814 146.07 99.1853 146.166C99.0894 146.262 98.959 146.316 98.8232 146.316ZM35.0209 145.292H98.3112V75.4567H35.0209V145.292Z" fill="#D1D3D4"/>
<path d="M49.3089 132.612C49.238 132.627 49.1647 132.627 49.0938 132.612L46.7586 131.527C46.6546 131.478 46.5698 131.396 46.5179 131.294C46.4658 131.192 46.4498 131.076 46.4718 130.963C47.5575 125.278 50.9786 122.564 54.5943 119.696C56.9855 117.937 59.1343 115.871 60.9857 113.55C64.1711 109.341 63.7822 107.159 63.3313 104.619C62.917 102.891 62.8926 101.092 63.2596 99.3539C64.5503 93.8023 70.112 87.9843 70.3477 87.7385C70.4249 87.6564 70.5276 87.6026 70.6389 87.5858C70.7506 87.5692 70.8644 87.5904 70.9622 87.6464L74.3423 89.5413C74.4121 89.582 74.4719 89.6382 74.5162 89.7059C74.5607 89.7732 74.5887 89.8504 74.5985 89.9305C74.6044 90.0123 74.5922 90.0946 74.5618 90.1706C74.5316 90.247 74.4847 90.3154 74.4244 90.3711C72.6115 91.9523 71.3191 94.0446 70.7163 96.3733C73.3897 96.1785 82.7927 96.0251 84.9027 103.113C87.4941 111.83 83.4685 123.598 70.9008 128.392C62.3276 131.629 60.3814 128.32 58.9681 125.903C58.1486 124.51 57.708 123.855 56.5302 124.193C52.4329 125.371 49.8109 132.223 49.7905 132.284C49.7658 132.351 49.7278 132.412 49.6783 132.463C49.6289 132.514 49.5694 132.555 49.5037 132.582C49.442 132.606 49.3755 132.617 49.3089 132.612ZM47.5575 130.717L49.0324 131.403C49.7495 129.693 52.2898 124.326 56.2023 123.209C58.1996 122.636 59.0191 124.029 59.808 125.381C61.1088 127.603 62.7272 130.359 70.4912 127.429C83.9398 122.359 85.8553 110.017 83.8784 103.41C81.707 96.1172 70.2247 97.4384 70.1019 97.4487C70.0256 97.4587 69.9479 97.4509 69.8751 97.4259C69.8023 97.4011 69.7363 97.3599 69.682 97.3053C69.6279 97.2501 69.5864 97.1844 69.5597 97.1119C69.5334 97.0396 69.5225 96.9622 69.5282 96.8853C69.9827 94.2866 71.2656 91.9044 73.1849 90.0943L70.778 88.7321C69.641 89.9715 65.2878 94.9801 64.2225 99.5894C63.8876 101.193 63.912 102.851 64.2942 104.444C64.7448 106.985 65.2161 109.566 61.7642 114.165C59.868 116.521 57.671 118.618 55.2294 120.403C51.7058 123.24 48.6432 125.667 47.5575 130.717Z" fill="#D1D3D4"/>
<path d="M91.3039 131.669H79.3199C79.1841 131.669 79.0537 131.616 78.9578 131.519C78.8616 131.424 78.8079 131.293 78.8079 131.157C78.8079 131.022 78.8616 130.891 78.9578 130.795C79.0537 130.699 79.1841 130.645 79.3199 130.645H91.3039C91.4397 130.645 91.5701 130.699 91.666 130.795C91.7622 130.891 91.8162 131.022 91.8162 131.157C91.8135 131.292 91.7586 131.421 91.6633 131.516C91.5677 131.612 91.4389 131.667 91.3039 131.669Z" fill="#D1D3D4"/>
<path d="M91.3039 135.183H79.3199C79.1841 135.183 79.0537 135.129 78.9578 135.033C78.8616 134.937 78.8079 134.807 78.8079 134.671C78.8079 134.535 78.8616 134.405 78.9578 134.309C79.0537 134.212 79.1841 134.158 79.3199 134.158H91.3039C91.4389 134.161 91.5677 134.216 91.6633 134.311C91.7586 134.407 91.8135 134.536 91.8162 134.671C91.8162 134.807 91.7622 134.937 91.666 135.033C91.5701 135.129 91.4397 135.183 91.3039 135.183Z" fill="#D1D3D4"/>
<path d="M87.9967 139.178H79.1163C78.9813 139.175 78.8525 139.12 78.7569 139.025C78.6616 138.929 78.6067 138.801 78.6042 138.666C78.6042 138.53 78.658 138.399 78.7542 138.304C78.8501 138.207 78.9805 138.154 79.1163 138.154H87.9967C88.1325 138.154 88.2629 138.207 88.359 138.304C88.4549 138.399 88.509 138.53 88.509 138.666C88.5062 138.801 88.4514 138.929 88.356 139.025C88.2604 139.12 88.1317 139.175 87.9967 139.178Z" fill="#D1D3D4"/>
<path d="M53.9278 86.0995H40.0179C39.8829 86.0968 39.7541 86.0422 39.6588 85.9466C39.5632 85.8512 39.5083 85.7225 39.5059 85.5875C39.5059 85.4517 39.5596 85.3213 39.6558 85.2251C39.752 85.1293 39.8821 85.0752 40.0179 85.0752H53.9278C54.0636 85.0752 54.1937 85.1293 54.2899 85.2251C54.3857 85.3213 54.4398 85.4517 54.4398 85.5875C54.4398 85.7233 54.3857 85.8534 54.2899 85.9496C54.1937 86.0455 54.0636 86.0995 53.9278 86.0995Z" fill="#D1D3D4"/>
<path d="M53.9278 91.0978H40.0179C39.8829 91.0951 39.7541 91.0402 39.6588 90.9449C39.5632 90.8493 39.5083 90.7205 39.5059 90.5855C39.5059 90.4497 39.5596 90.3196 39.6558 90.2234C39.752 90.1273 39.8821 90.0735 40.0179 90.0735H53.9278C54.0636 90.0735 54.1937 90.1273 54.2899 90.2234C54.3857 90.3196 54.4398 90.4497 54.4398 90.5855C54.4398 90.7213 54.3857 90.8517 54.2899 90.9476C54.1937 91.0437 54.0636 91.0978 53.9278 91.0978Z" fill="#D1D3D4"/>
<path d="M92.2561 81.0902H40.0179C39.8821 81.0902 39.752 81.0364 39.6558 80.9403C39.5596 80.8441 39.5059 80.714 39.5059 80.5782C39.5083 80.4432 39.5632 80.3145 39.6588 80.2189C39.7541 80.1235 39.8829 80.0686 40.0179 80.0659H92.2561C92.3919 80.0659 92.5223 80.12 92.6182 80.2161C92.7143 80.312 92.7684 80.4424 92.7684 80.5782C92.7684 80.714 92.7143 80.8441 92.6182 80.9403C92.5223 81.0364 92.3919 81.0902 92.2561 81.0902Z" fill="#D1D3D4"/>
<path d="M207.713 157.102C205.798 155.904 178.009 155.053 178.009 155.053C178.009 155.053 176.135 247.515 178.511 287.555H192.349C192.349 287.555 206.228 227.746 203.841 206.636C203.841 206.636 219.154 266.116 219.697 289.438H235.492C235.492 289.438 237.827 234.824 232.081 210.651C226.335 186.478 207.713 157.102 207.713 157.102Z" fill="#282828"/>
<path d="M235.502 289.859H219.708C219.59 289.859 219.477 289.813 219.393 289.731C219.309 289.65 219.26 289.536 219.257 289.419C218.807 270.183 208.144 225.739 204.569 211.317C204.877 235.316 192.933 287.115 192.8 287.648C192.779 287.746 192.723 287.835 192.643 287.9C192.562 287.963 192.462 287.998 192.36 287.995H178.481C178.365 287.995 178.253 287.949 178.169 287.87C178.085 287.789 178.035 287.68 178.03 287.564C175.684 247.976 177.508 155.965 177.528 155.033C177.53 154.973 177.543 154.915 177.568 154.86C177.593 154.806 177.628 154.757 177.672 154.716C177.714 154.673 177.765 154.64 177.822 154.619C177.879 154.597 177.939 154.589 177.999 154.593C180.847 154.685 205.962 155.494 207.918 156.723C207.978 156.758 208.028 156.807 208.062 156.867C208.246 157.154 226.837 186.571 232.532 210.518C238.227 234.466 235.973 288.886 235.953 289.389C235.957 289.449 235.949 289.511 235.928 289.568C235.907 289.625 235.874 289.68 235.832 289.723C235.79 289.766 235.738 289.802 235.681 289.826C235.625 289.851 235.564 289.862 235.502 289.859ZM220.138 288.957H235.062C235.257 283.755 237.039 233.432 231.641 210.734C226.141 187.605 208.544 159.346 207.345 157.471C205.563 156.662 188.959 155.863 178.409 155.535C178.276 162.613 176.678 248.745 178.901 287.115H191.991C193.128 282.166 205.655 226.682 203.391 206.677C203.383 206.567 203.416 206.457 203.484 206.369C203.551 206.281 203.649 206.221 203.758 206.201C203.867 206.181 203.98 206.201 204.075 206.259C204.17 206.317 204.24 206.407 204.272 206.514C204.436 207.087 219.432 265.543 220.148 288.957H220.138Z" fill="#282828"/>
<path d="M228.723 98.5336C228.095 97.5982 227.501 96.6559 226.941 95.7068C224.921 92.3079 223.305 88.6849 222.127 84.9109C220.918 81.0287 221.051 76.7166 219.833 72.9472C218.204 67.8976 212.55 63.8721 207.633 62.4791C197.329 59.5599 185.898 65.4394 182.754 75.7947C182.087 78.3907 181.767 81.0632 181.801 83.7431C181.514 93.1255 181.224 102.505 180.93 111.88C180.664 120.607 179.281 129.201 184.536 136.811C189.125 143.469 197.175 147.054 205.196 148.078C216.883 149.563 229.922 145.374 236.118 135.357C237.854 132.509 238.989 129.335 239.452 126.033C239.915 122.73 239.698 119.367 238.812 116.151C236.969 109.606 232.503 104.239 228.723 98.5336Z" fill="white"/>
<path d="M209.761 148.836C208.23 148.836 206.701 148.74 205.183 148.55C196.077 147.392 188.436 143.203 184.195 137.057C179.617 130.42 179.975 123.229 180.344 115.609C180.415 114.359 180.477 113.11 180.508 111.85L181.389 83.7127C181.352 80.9915 181.676 78.2776 182.351 75.6414C185.516 65.2451 197.173 59.0174 207.815 62.0287C212.608 63.3909 218.57 67.3345 220.321 72.8043C220.894 74.7826 221.289 76.8086 221.499 78.8575C221.703 80.8567 222.08 82.8342 222.626 84.7677C223.794 88.5077 225.393 92.0998 227.389 95.4715C227.901 96.3318 228.475 97.2537 229.161 98.278C229.95 99.4661 230.769 100.654 231.588 101.832C234.661 106.226 237.826 110.784 239.312 116.029C240.211 119.308 240.432 122.737 239.96 126.104C239.488 129.472 238.333 132.707 236.566 135.613C230.728 144.985 219.594 148.836 209.761 148.836ZM202.294 62.2028C193.823 62.2028 185.742 67.693 183.253 75.918C182.599 78.474 182.286 81.1053 182.321 83.7433L181.45 111.87C181.45 113.14 181.348 114.4 181.286 115.66C180.917 123.107 180.569 130.143 184.963 136.525C189.06 142.455 196.466 146.491 205.295 147.617C215.794 148.959 229.284 145.569 235.768 135.121C237.456 132.326 238.556 129.216 239.002 125.98C239.448 122.745 239.229 119.453 238.359 116.305C236.925 111.184 233.801 106.718 230.779 102.385C229.95 101.197 229.12 100.009 228.321 98.8107C227.635 97.7863 227.051 96.8441 226.528 95.9732C224.497 92.5406 222.871 88.8834 221.684 85.0749C221.117 83.0884 220.727 81.0558 220.516 79.001C220.316 77.0075 219.935 75.0363 219.379 73.1115C217.802 68.205 212.209 64.2822 207.507 62.9506C205.795 62.4606 204.024 62.2088 202.243 62.2028H202.294Z" fill="#282828"/>
<path d="M198.691 106.442C198.691 106.442 185.273 113.991 182.671 126.989C180.069 139.987 182.988 169.179 182.988 169.179L216.195 167.796C216.195 167.796 212.948 130.994 216.195 120.679C219.443 110.365 219.34 107.476 216.195 106.452C213.051 105.428 204.519 99.9786 198.691 106.442Z" fill="white"/>
<path d="M182.988 169.649C182.872 169.647 182.76 169.602 182.675 169.523C182.59 169.444 182.537 169.335 182.527 169.219C182.527 168.933 179.629 139.823 182.21 126.896C184.73 114.318 197.339 106.687 198.394 106.073C203.515 100.49 210.613 103.573 214.444 105.233C215.192 105.56 215.847 105.837 216.339 106.001C219.862 107.148 219.934 110.334 216.636 120.812C213.461 130.932 216.636 167.386 216.636 167.755C216.645 167.881 216.604 168.006 216.523 168.103C216.481 168.151 216.429 168.189 216.37 168.215C216.312 168.242 216.249 168.256 216.185 168.257L182.988 169.639V169.649ZM205.666 103.799C204.408 103.773 203.161 104.025 202.012 104.537C200.863 105.048 199.841 105.807 199.018 106.759C198.982 106.796 198.941 106.827 198.896 106.851C198.762 106.933 185.58 114.451 183.111 127.08C180.725 139.003 183.04 164.979 183.388 168.687L215.663 167.345C215.274 162.766 212.651 130.297 215.724 120.525C219.094 109.801 218.572 107.722 216.021 106.892C215.489 106.718 214.823 106.431 214.055 106.093C211.812 105.13 208.739 103.799 205.666 103.799Z" fill="#282828"/>
<path d="M199.068 102.099C199.068 102.099 200.093 103.594 197.737 108.757C195.494 112.997 193.169 132.121 192.687 138.666C191.735 151.746 188.355 237.171 188.355 237.171L165.718 235.542C165.718 235.542 175.776 137.734 178.009 126.323C179.004 120.76 181.487 115.57 185.195 111.304C188.903 107.039 193.697 103.858 199.068 102.099Z" fill="#E73343"/>
<path d="M195.299 103.594C195.299 103.594 184.462 107.589 180.12 111.645C175.776 115.701 156.92 150.813 156.92 150.813L169.211 157.317L184.155 139.27" fill="#E73343"/>
<path d="M173.615 151.254C173.42 151.254 173.113 151.161 172.959 150.608C172.931 150.489 172.949 150.363 173.009 150.256C173.07 150.15 173.17 150.07 173.287 150.035C173.385 150.009 173.487 150.009 173.584 150.035C174.68 147.351 177.179 131.966 178.583 122.297C178.591 122.237 178.612 122.178 178.643 122.126C178.675 122.073 178.716 122.027 178.765 121.991C178.814 121.954 178.87 121.927 178.929 121.912C178.988 121.897 179.05 121.894 179.11 121.903C179.171 121.912 179.229 121.932 179.282 121.963C179.334 121.995 179.38 122.036 179.417 122.085C179.453 122.134 179.48 122.19 179.495 122.249C179.51 122.308 179.513 122.37 179.505 122.43C175.346 151.11 174.117 151.213 173.646 151.243L173.615 151.254Z" fill="#282828"/>
<path d="M197.698 98.6055L197.636 108.756C197.636 108.756 198.66 114.431 204.806 112.7C206.627 112.174 208.309 111.249 209.726 109.991C211.144 108.733 212.263 107.174 213 105.427L212.304 87.8506C211.491 84.7787 211.146 81.602 211.28 78.4272C203.772 78.3044 197.872 72.6401 197.872 72.6401C197.872 72.6401 195.291 76.5119 194.174 77.7614C193.27 78.6817 192.489 79.7145 191.849 80.8344C190.825 82.7806 190.825 85.2285 190.896 87.3899C190.922 89.9546 191.179 92.5123 191.665 95.0309C192.709 99.7836 197.698 98.6055 197.698 98.6055Z" fill="white"/>
<path d="M202.653 113.498C201.631 113.517 200.626 113.243 199.754 112.71C198.43 111.797 197.507 110.411 197.173 108.838L197.234 99.1585C195.896 99.3383 194.535 99.0718 193.363 98.4004C192.803 98.0234 192.326 97.5352 191.963 96.9659C191.6 96.3968 191.358 95.7588 191.253 95.0922C190.757 92.5473 190.5 89.9617 190.485 87.369C190.433 85.3206 190.372 82.6676 191.509 80.5782C192.157 79.4156 192.952 78.3413 193.875 77.3822C194.961 76.1941 197.501 72.3736 197.532 72.3429C197.567 72.2837 197.616 72.234 197.675 72.1982C197.734 72.1626 197.801 72.1419 197.87 72.1381C197.936 72.1289 198.004 72.1354 198.068 72.1566C198.132 72.1778 198.19 72.2136 198.238 72.2609C198.3 72.3122 204.107 77.8021 211.339 77.9149C211.4 77.9157 211.461 77.929 211.517 77.9534C211.573 77.9782 211.624 78.0137 211.667 78.0583C211.712 78.1042 211.748 78.1585 211.773 78.2183C211.798 78.278 211.81 78.3419 211.81 78.4065C211.669 81.2692 211.949 84.1368 212.64 86.9183C212.729 87.209 212.79 87.5075 212.824 87.8095C212.824 87.9223 213.521 105.386 213.521 105.386C213.531 105.444 213.531 105.503 213.521 105.56C212.762 107.381 211.603 109.007 210.13 110.318C208.656 111.628 206.906 112.589 205.009 113.129C204.245 113.363 203.452 113.487 202.653 113.498ZM198.105 108.756C198.243 109.458 198.536 110.121 198.965 110.694C199.393 111.268 199.945 111.738 200.579 112.069C201.213 112.401 201.914 112.585 202.63 112.609C203.345 112.633 204.057 112.496 204.712 112.208C206.448 111.706 208.053 110.827 209.411 109.633C210.769 108.44 211.847 106.962 212.568 105.304L211.871 87.8095C211.842 87.5805 211.794 87.3546 211.728 87.1334C211.04 84.4242 210.747 81.63 210.857 78.8368C204.517 78.5499 199.457 74.5657 198.003 73.3056C196.938 74.9345 195.789 76.5073 194.561 78.0173C193.693 78.9093 192.936 79.9032 192.308 80.9775C191.284 82.852 191.365 85.2182 191.417 87.2972C191.432 89.8353 191.686 92.3661 192.174 94.8564C192.255 95.4008 192.446 95.9226 192.737 96.3898C193.028 96.8567 193.412 97.2587 193.865 97.5708C195.005 98.1842 196.326 98.3729 197.593 98.1035C197.662 98.0899 197.734 98.091 197.803 98.107C197.871 98.1228 197.936 98.1529 197.993 98.1956C198.047 98.2401 198.091 98.2963 198.122 98.3602C198.152 98.424 198.167 98.4938 198.167 98.5644L198.105 108.715V108.756Z" fill="#282828"/>
<path d="M197.76 103.594C200.263 103.636 202.686 102.716 204.531 101.023C205.285 100.324 205.877 99.4684 206.266 98.5166C206.655 97.5649 206.832 96.5397 206.784 95.5127C206.784 95.5127 202.328 98.5033 197.699 98.5854L197.76 103.594Z" fill="#282828"/>
<path d="M197.941 104.014H197.736C197.62 104.009 197.511 103.959 197.43 103.875C197.35 103.791 197.306 103.679 197.306 103.563L197.244 98.575C197.244 98.4571 197.291 98.3441 197.373 98.2599C197.455 98.1754 197.567 98.1268 197.685 98.1241C202.13 98.0216 206.494 95.1334 206.535 95.1128C206.6 95.075 206.674 95.0552 206.75 95.0552C206.825 95.0552 206.899 95.075 206.965 95.1128C207.035 95.1435 207.097 95.1915 207.143 95.2524C207.19 95.3132 207.22 95.3852 207.231 95.461C207.29 96.5567 207.108 97.6522 206.697 98.67C206.287 99.6876 205.658 100.603 204.855 101.351C202.975 103.089 200.501 104.042 197.941 104.014ZM198.156 99.0049L198.207 103.102C200.434 103.06 202.567 102.199 204.199 100.685C205.406 99.5162 206.163 97.9611 206.34 96.2908C203.849 97.8003 201.053 98.7379 198.156 99.0359V99.0049Z" fill="#282828"/>
<path d="M201.292 84.02C201.292 84.02 198.034 88.8958 198.803 89.7457C199.571 90.5959 201.753 90.0325 201.753 90.0325" fill="white"/>
<path d="M200.319 90.6984C199.986 90.7258 199.651 90.6856 199.334 90.5799C199.017 90.4746 198.725 90.3056 198.475 90.0837C197.584 89.121 199.622 85.7305 200.923 83.7946C200.99 83.6955 201.093 83.627 201.21 83.6039C201.327 83.5809 201.449 83.6053 201.548 83.6719C201.648 83.7403 201.716 83.8452 201.74 83.9641C201.763 84.0828 201.738 84.2059 201.671 84.3067C200.124 86.6114 198.946 89.0287 199.151 89.4896C199.581 89.9609 201.015 89.7868 201.64 89.6227C201.698 89.6075 201.758 89.6037 201.818 89.6121C201.877 89.6203 201.934 89.6401 201.985 89.6708C202.037 89.7012 202.082 89.7417 202.117 89.7898C202.153 89.8379 202.179 89.8925 202.193 89.9506C202.221 90.0674 202.203 90.1904 202.142 90.2937C202.08 90.3969 201.981 90.4724 201.866 90.5036C201.359 90.6272 200.84 90.6927 200.319 90.6984Z" fill="#282828"/>
<path d="M197.219 83.1672C197.242 82.5851 197.008 82.1033 196.698 82.0911C196.387 82.0788 196.116 82.5409 196.093 83.123C196.071 83.7053 196.304 84.1872 196.615 84.1994C196.926 84.2117 197.196 83.7496 197.219 83.1672Z" fill="#282828"/>
<path d="M204.95 82.2132C204.973 81.6308 204.739 81.1489 204.428 81.1367C204.118 81.1245 203.847 81.5865 203.824 82.1689C203.801 82.751 204.035 83.2329 204.346 83.2451C204.657 83.2573 204.927 82.7953 204.95 82.2132Z" fill="#282828"/>
<path d="M199.07 92.6138L201.671 91.948C201.671 91.948 202.204 95.738 200.739 96.0453C199.274 96.3525 199.07 92.6138 199.07 92.6138Z" fill="white"/>
<path d="M200.545 96.5472C200.282 96.5485 200.026 96.4621 199.818 96.3013C198.794 95.5125 198.619 92.9212 198.599 92.6343C198.593 92.5303 198.624 92.4273 198.686 92.3434C198.747 92.2595 198.836 92.1992 198.937 92.1734L201.539 91.5076C201.6 91.491 201.664 91.4875 201.727 91.4975C201.79 91.5076 201.85 91.5307 201.903 91.5657C201.956 91.6005 202.002 91.6461 202.036 91.6996C202.07 91.7532 202.093 91.8135 202.102 91.8765C202.194 92.583 202.604 96.1066 200.822 96.5165C200.731 96.5366 200.638 96.5469 200.545 96.5472ZM199.521 92.9519C199.537 93.8895 199.829 94.8017 200.361 95.5739C200.398 95.5956 200.44 95.607 200.484 95.607C200.527 95.607 200.569 95.5956 200.607 95.5739C201.242 95.4305 201.365 93.7814 201.252 92.5012L199.521 92.9519Z" fill="#282828"/>
<path d="M208.954 82.6371C209.34 81.3737 209.985 80.2049 210.849 79.2058C211.291 78.7117 211.872 78.3632 212.515 78.206C213.159 78.0487 213.835 78.0902 214.455 78.3249C215.756 78.9703 216.196 80.6294 216.196 82.084C216.152 83.7421 215.851 85.3832 215.305 86.9495C215.066 87.9015 214.586 88.7762 213.912 89.4895C213.566 89.8352 213.118 90.0593 212.633 90.1275C212.149 90.196 211.656 90.105 211.228 89.8687" fill="white"/>
<path d="M212.223 90.6268C211.777 90.6341 211.34 90.5016 210.973 90.2476C210.921 90.2147 210.877 90.1713 210.842 90.1205C210.808 90.0694 210.784 90.0121 210.772 89.9515C210.761 89.8912 210.762 89.829 210.775 89.769C210.789 89.709 210.814 89.6522 210.85 89.6025C210.884 89.5517 210.928 89.5079 210.979 89.4743C211.03 89.4406 211.087 89.4172 211.147 89.4058C211.207 89.3944 211.269 89.395 211.329 89.4077C211.389 89.4202 211.445 89.4447 211.496 89.4794C211.836 89.6546 212.223 89.7163 212.601 89.6554C212.979 89.5946 213.327 89.4145 213.596 89.1415C214.228 88.4931 214.673 87.6864 214.886 86.806C215.427 85.2887 215.721 83.6945 215.757 82.0843C215.757 81.4696 215.654 79.421 214.271 78.7452C213.739 78.5526 213.161 78.5249 212.613 78.6656C212.065 78.8063 211.572 79.1089 211.199 79.5337C210.382 80.4915 209.772 81.6073 209.406 82.8115C209.36 82.9261 209.271 83.0184 209.158 83.0681C209.045 83.1179 208.917 83.1214 208.802 83.0777C208.685 83.0339 208.591 82.9459 208.539 82.8326C208.487 82.7194 208.482 82.5904 208.525 82.4733C208.949 81.1417 209.647 79.9134 210.574 78.8679C211.083 78.3171 211.745 77.9311 212.475 77.7594C213.205 77.5877 213.97 77.6385 214.671 77.905C216.484 78.7962 216.72 81.1317 216.72 82.0843C216.686 83.7918 216.378 85.4829 215.808 87.0929C215.55 88.1213 215.027 89.0641 214.292 89.8277C213.726 90.3424 212.988 90.6273 212.223 90.6268Z" fill="#282828"/>
<path d="M213.586 103.461C213.586 103.461 210.216 130.451 210.216 144.708C210.216 161.097 209.939 238.635 209.939 238.635L247.418 237.037C247.418 237.037 232.166 190.33 230.466 171.319C229.441 159.294 228.417 126.886 228.94 118.344C229.462 109.801 213.586 103.461 213.586 103.461Z" fill="#E73343"/>
<path d="M176.279 144.708L192.79 181.716H160.73L144.639 145.538L176.279 144.708Z" fill="white"/>
<path d="M192.792 182.187H160.732C160.64 182.185 160.551 182.157 160.475 182.106C160.399 182.055 160.339 181.984 160.302 181.9L144.21 145.733C144.173 145.665 144.153 145.59 144.153 145.513C144.153 145.435 144.173 145.36 144.21 145.292C144.251 145.227 144.307 145.173 144.372 145.134C144.438 145.094 144.513 145.072 144.589 145.067L176.219 144.237C176.312 144.231 176.405 144.254 176.484 144.304C176.563 144.353 176.625 144.427 176.659 144.514L193.171 181.521C193.208 181.59 193.228 181.668 193.228 181.746C193.228 181.825 193.208 181.903 193.171 181.972C193.13 182.036 193.074 182.089 193.008 182.127C192.942 182.164 192.868 182.185 192.792 182.187ZM161.039 181.245H192.065L175.963 145.18L145.347 145.989L161.039 181.245Z" fill="#282828"/>
<path d="M205.052 176.349C198.312 176.584 191.234 174.945 184.853 177.373L180.49 179.053C180.516 178.558 180.673 178.08 180.945 177.666C181.216 177.252 181.593 176.917 182.037 176.697C182.927 176.277 183.771 175.765 184.556 175.171L180.848 176.953C180.131 177.291 179.076 177.547 178.697 176.851C180.129 175.426 181.728 174.181 183.46 173.143C182.129 173.787 180.762 174.352 179.363 174.833C178.482 175.13 177.315 175.345 176.741 174.628C178.28 173.433 180.012 172.512 181.862 171.903L178.39 172.928C177.989 173.081 177.558 173.14 177.13 173.102C176.918 173.071 176.723 172.967 176.579 172.808C176.435 172.649 176.351 172.445 176.342 172.231C176.378 172.054 176.452 171.887 176.558 171.74C176.664 171.594 176.8 171.471 176.956 171.381C179.31 169.583 182.037 168.334 184.935 167.724C184.659 166.987 183.214 163.053 183.737 162.377C184.259 161.702 186.216 165.317 189.278 165.676C192.341 166.034 202.727 166.526 202.727 166.526" fill="white"/>
<path d="M180.488 179.555C180.4 179.556 180.315 179.531 180.242 179.483C180.178 179.447 180.124 179.395 180.086 179.333C180.049 179.27 180.028 179.198 180.027 179.124C179.992 178.611 180.125 178.101 180.406 177.67C179.381 177.967 178.644 177.773 178.285 177.107C178.235 177.019 178.215 176.916 178.23 176.816C178.245 176.716 178.293 176.623 178.367 176.553C178.839 176.082 179.33 175.632 179.842 175.191L179.494 175.314C178.029 175.816 176.974 175.704 176.36 174.976C176.277 174.876 176.237 174.747 176.247 174.618C176.255 174.555 176.275 174.495 176.307 174.44C176.339 174.386 176.381 174.338 176.431 174.3C176.711 174.074 177.001 173.862 177.302 173.665H176.974C176.65 173.616 176.355 173.453 176.14 173.205C175.926 172.957 175.808 172.641 175.807 172.313C175.847 172.069 175.939 171.837 176.077 171.632C176.214 171.427 176.395 171.254 176.605 171.125C178.868 169.39 181.472 168.154 184.247 167.499C182.649 163.053 183.12 162.439 183.304 162.204C183.364 162.125 183.439 162.059 183.526 162.011C183.612 161.963 183.708 161.935 183.806 161.927C184.267 161.927 184.677 162.285 185.363 162.951C186.374 164.143 187.743 164.977 189.266 165.328C192.277 165.676 202.581 166.157 202.684 166.167C202.796 166.184 202.897 166.24 202.971 166.326C203.045 166.411 203.086 166.521 203.086 166.634C203.086 166.746 203.045 166.855 202.971 166.941C202.897 167.027 202.796 167.083 202.684 167.099C202.254 167.099 192.236 166.608 189.194 166.26C187.238 166.024 185.742 164.58 184.749 163.617C184.523 163.402 184.247 163.136 184.062 162.982C184.266 164.599 184.7 166.179 185.353 167.673C185.383 167.733 185.4 167.8 185.4 167.868C185.4 167.935 185.383 168.002 185.353 168.062C185.32 168.122 185.275 168.174 185.22 168.215C185.165 168.256 185.102 168.284 185.035 168.298C182.207 168.889 179.547 170.107 177.251 171.862C177.056 172.016 176.831 172.211 176.81 172.374C176.79 172.539 177.005 172.702 177.22 172.753C177.57 172.778 177.92 172.722 178.245 172.59L181.727 171.565C181.785 171.547 181.847 171.539 181.908 171.545C181.97 171.55 182.029 171.567 182.084 171.596C182.138 171.624 182.186 171.664 182.225 171.711C182.264 171.759 182.293 171.814 182.311 171.873C182.347 171.99 182.336 172.116 182.28 172.225C182.225 172.333 182.129 172.417 182.014 172.456C180.437 172.977 178.949 173.734 177.599 174.7C178.161 174.776 178.732 174.705 179.259 174.495C180.657 174.021 182.025 173.464 183.356 172.825C183.464 172.767 183.592 172.754 183.71 172.79C183.828 172.825 183.927 172.906 183.985 173.015C184.044 173.123 184.057 173.251 184.021 173.369C183.986 173.487 183.905 173.586 183.796 173.645C182.251 174.574 180.811 175.67 179.504 176.912C179.938 176.939 180.371 176.843 180.754 176.636L184.452 174.853C184.553 174.806 184.668 174.795 184.776 174.823C184.885 174.851 184.98 174.916 185.046 175.007C185.109 175.099 185.137 175.211 185.124 175.323C185.11 175.434 185.057 175.537 184.974 175.611C184.455 176.059 183.875 176.431 183.253 176.718C182.956 176.871 182.659 177.025 182.383 177.199C181.884 177.49 181.473 177.912 181.194 178.418L184.779 177.035C189.255 175.314 194.08 175.56 198.75 175.796C200.86 175.898 203.032 176.011 205.132 175.939C205.256 175.936 205.377 175.981 205.468 176.065C205.56 176.149 205.616 176.266 205.623 176.39C205.626 176.513 205.581 176.632 205.496 176.722C205.412 176.812 205.296 176.866 205.173 176.871C203.032 176.953 200.83 176.871 198.699 176.728C194.131 176.502 189.399 176.257 185.117 177.906L180.754 179.585C180.664 179.605 180.57 179.594 180.488 179.555Z" fill="#282828"/>
<path d="M228.435 113.95C228.435 113.95 253.273 176.185 244.055 179.329C240.275 180.62 198.587 181.747 198.587 181.747L197.563 165.174L218.448 162.316L228.435 113.95Z" fill="#E73343"/>
<path d="M226.417 162.07C226.299 162.07 226.185 162.026 226.097 161.947C226.01 161.867 225.956 161.757 225.946 161.64L222.453 121.57C222.439 121.505 222.44 121.437 222.454 121.372C222.468 121.307 222.496 121.246 222.536 121.193C222.575 121.139 222.626 121.095 222.684 121.062C222.742 121.03 222.807 121.01 222.873 121.004C222.939 120.998 223.006 121.007 223.069 121.028C223.132 121.05 223.189 121.085 223.238 121.131C223.286 121.177 223.324 121.232 223.35 121.294C223.375 121.355 223.387 121.422 223.385 121.488L226.878 161.558C226.883 161.618 226.877 161.68 226.859 161.737C226.841 161.796 226.811 161.85 226.772 161.896C226.733 161.943 226.685 161.981 226.631 162.009C226.577 162.038 226.518 162.054 226.458 162.06L226.417 162.07Z" fill="#282828"/>
<path d="M204.344 183.263C204.232 183.246 204.13 183.19 204.056 183.104C203.983 183.019 203.942 182.909 203.942 182.796C203.942 182.684 203.983 182.575 204.056 182.489C204.13 182.403 204.232 182.347 204.344 182.331L232.819 180.282C232.88 180.276 232.942 180.283 233.001 180.302C233.059 180.321 233.114 180.351 233.161 180.391C233.208 180.431 233.246 180.48 233.273 180.535C233.301 180.591 233.317 180.651 233.321 180.712C233.329 180.836 233.289 180.957 233.208 181.051C233.128 181.145 233.014 181.204 232.891 181.214L204.416 183.263H204.344Z" fill="#282828"/>
<path d="M152.588 170.684C152.783 171.257 153.029 171.831 153.203 172.333C153.551 173.541 154.179 174.65 155.036 175.57C156.105 176.459 157.413 177.011 158.795 177.157C160.311 177.413 161.817 177.68 163.333 177.966C164.093 178.214 164.92 178.155 165.638 177.802C165.707 177.765 165.768 177.714 165.818 177.653C165.867 177.591 165.903 177.52 165.924 177.444C165.928 177.328 165.903 177.213 165.851 177.109C165.799 177.005 165.723 176.916 165.628 176.85C163.958 175.334 161.336 175.488 159.421 174.299C160.992 174.74 162.63 174.893 164.255 174.75C164.668 174.762 165.077 174.676 165.45 174.497C165.822 174.319 166.146 174.055 166.396 173.726C164.347 172.312 161.551 172.824 159.308 171.79C161.265 172.171 163.292 171.942 165.115 171.134C165.433 171.001 165.791 170.612 165.545 170.377C165.441 170.294 165.309 170.254 165.177 170.264L158.007 169.823C159.387 169.812 160.747 169.497 161.991 168.902C162.647 168.584 163.333 168.082 163.394 167.355C163.412 167.222 163.379 167.086 163.302 166.976C163.159 166.802 162.893 166.822 162.678 166.853C161.766 166.986 158.017 167.519 157.034 167.693C156.625 167.822 156.194 167.866 155.768 167.822C155.341 167.778 154.929 167.647 154.555 167.437C154.215 167.137 153.94 166.771 153.746 166.361C153.329 166.679 152.98 167.078 152.722 167.534C152.463 167.989 152.299 168.493 152.24 169.014C152.259 169.587 152.377 170.151 152.588 170.684Z" fill="white"/>
<path d="M164.5 178.572C164.08 178.559 163.662 178.511 163.25 178.428C161.734 178.141 160.177 177.875 158.712 177.619C157.239 177.464 155.847 176.867 154.718 175.908C153.808 174.936 153.139 173.764 152.761 172.487C152.69 172.272 152.598 172.047 152.505 171.822C152.413 171.596 152.259 171.166 152.147 170.797C151.921 170.219 151.8 169.605 151.788 168.984C151.846 168.392 152.025 167.819 152.314 167.299C152.603 166.779 152.996 166.324 153.468 165.963C153.522 165.92 153.584 165.889 153.651 165.873C153.718 165.857 153.788 165.856 153.855 165.87C153.922 165.883 153.986 165.912 154.041 165.952C154.096 165.993 154.142 166.046 154.175 166.106C154.277 166.369 154.432 166.609 154.631 166.809C154.83 167.009 155.069 167.166 155.331 167.27C155.594 167.374 155.875 167.423 156.157 167.413C156.439 167.403 156.716 167.334 156.971 167.212C157.739 167.069 160.187 166.71 161.642 166.505L162.666 166.362C162.846 166.32 163.034 166.323 163.213 166.371C163.392 166.419 163.556 166.511 163.69 166.639C163.772 166.738 163.832 166.853 163.867 166.976C163.902 167.099 163.912 167.229 163.895 167.356C163.895 167.888 163.537 168.667 162.226 169.292L161.621 169.568L165.196 169.783C165.437 169.786 165.669 169.873 165.852 170.029C165.942 170.109 166.01 170.213 166.048 170.328C166.085 170.443 166.092 170.566 166.067 170.685C166.014 170.88 165.916 171.061 165.781 171.212C165.646 171.363 165.477 171.481 165.288 171.555C164.66 171.834 164.004 172.047 163.332 172.19C164.512 172.312 165.647 172.705 166.651 173.338C166.746 173.404 166.814 173.504 166.84 173.617C166.867 173.731 166.85 173.85 166.794 173.952C166.513 174.352 166.136 174.676 165.697 174.892C165.259 175.109 164.773 175.211 164.284 175.191L163.608 175.243C164.464 175.483 165.257 175.906 165.933 176.482C166.09 176.599 166.213 176.755 166.291 176.935C166.368 177.115 166.397 177.312 166.374 177.506C166.343 177.645 166.283 177.776 166.198 177.891C166.114 178.006 166.006 178.101 165.882 178.172C165.472 178.442 164.99 178.581 164.5 178.572ZM153.027 170.531C153.14 170.859 153.263 171.176 153.376 171.473C153.488 171.77 153.57 171.955 153.642 172.17C153.97 173.311 154.555 174.363 155.353 175.243C156.357 176.062 157.578 176.571 158.866 176.707C160.392 176.963 161.939 177.23 163.424 177.517C164.065 177.729 164.762 177.696 165.38 177.424L165.462 177.363C165.414 177.309 165.363 177.257 165.309 177.209C164.371 176.494 163.275 176.017 162.113 175.816C161.084 175.593 160.094 175.22 159.173 174.71C159.082 174.649 159.015 174.557 158.984 174.451C158.953 174.346 158.96 174.233 159.004 174.131C159.048 174.03 159.126 173.948 159.224 173.898C159.322 173.849 159.435 173.835 159.542 173.86C161.059 174.289 162.643 174.435 164.213 174.29C164.731 174.285 165.239 174.136 165.678 173.86C164.654 173.402 163.559 173.124 162.441 173.04C161.298 172.937 160.177 172.668 159.112 172.241C159.007 172.194 158.922 172.109 158.876 172.003C158.829 171.897 158.823 171.778 158.858 171.668C158.894 171.558 158.968 171.465 159.068 171.406C159.167 171.348 159.285 171.328 159.399 171.35C161.259 171.708 163.183 171.494 164.919 170.736L157.995 170.316C157.935 170.313 157.875 170.299 157.82 170.273C157.766 170.247 157.716 170.211 157.675 170.167C157.634 170.122 157.603 170.069 157.582 170.013C157.561 169.955 157.552 169.895 157.555 169.834C157.56 169.714 157.61 169.599 157.695 169.514C157.781 169.429 157.895 169.379 158.016 169.373C159.328 169.359 160.621 169.059 161.806 168.493C162.307 168.257 162.902 167.868 162.943 167.335C162.943 167.335 162.943 167.335 162.758 167.335L161.734 167.478C160.279 167.694 157.852 168.042 157.094 168.175C156.622 168.321 156.124 168.365 155.633 168.305C155.142 168.245 154.67 168.082 154.247 167.827C153.998 167.63 153.787 167.39 153.622 167.12C153.098 167.636 152.766 168.315 152.679 169.046C152.699 169.558 152.803 170.063 152.987 170.541L153.027 170.531Z" fill="#282828"/>
<path d="M197.605 165.645C197.489 165.644 197.378 165.6 197.291 165.523C197.204 165.446 197.149 165.34 197.134 165.225C197.122 165.102 197.16 164.979 197.239 164.883C197.317 164.787 197.43 164.726 197.554 164.713L229.86 161.128C229.983 161.116 230.106 161.154 230.202 161.233C230.298 161.311 230.359 161.425 230.372 161.548C230.379 161.609 230.374 161.67 230.357 161.729C230.34 161.787 230.312 161.842 230.274 161.89C230.236 161.937 230.188 161.977 230.135 162.006C230.081 162.035 230.023 162.054 229.962 162.06L197.656 165.635L197.605 165.645Z" fill="#282828"/>
<path d="M223.819 220.3C222.854 220.32 221.897 220.131 221.013 219.745C220.129 219.36 219.339 218.787 218.697 218.068C215.624 214.349 216.485 201.802 216.515 201.269C216.526 201.151 216.58 201.042 216.667 200.962C216.754 200.883 216.869 200.839 216.987 200.839H232.095C232.206 200.856 232.309 200.912 232.382 200.997C232.456 201.083 232.497 201.192 232.497 201.305C232.497 201.418 232.456 201.527 232.382 201.613C232.309 201.698 232.206 201.755 232.095 201.771H217.448C217.315 204.025 216.864 214.401 219.435 217.473C220.225 218.326 221.247 218.929 222.375 219.208C223.504 219.486 224.689 219.428 225.785 219.04C227.578 218.405 230.599 216.326 230.722 209.525C230.725 209.404 230.775 209.29 230.861 209.206C230.947 209.121 231.063 209.074 231.183 209.074C231.306 209.077 231.424 209.128 231.51 209.216C231.596 209.304 231.644 209.422 231.644 209.545C231.511 216.91 228.11 219.204 226.093 219.921C225.361 220.173 224.592 220.301 223.819 220.3Z" fill="#282828"/>
<path d="M178.193 217.955C177.386 217.945 176.594 217.73 175.891 217.331C175.189 216.931 174.6 216.36 174.178 215.671C171.792 211.963 172.478 199.456 172.509 198.924C172.519 198.805 172.573 198.694 172.66 198.613C172.747 198.531 172.861 198.485 172.98 198.483H184.554C184.679 198.483 184.799 198.533 184.888 198.621C184.976 198.71 185.026 198.829 185.026 198.954C185.026 199.079 184.976 199.199 184.888 199.288C184.799 199.376 184.679 199.426 184.554 199.426H173.42C173.318 201.699 172.98 212.086 174.957 215.169C175.375 215.868 176.008 216.413 176.761 216.723C177.514 217.033 178.347 217.091 179.136 216.89C181.727 216.152 183.315 212.516 183.386 207.179C183.388 207.117 183.401 207.057 183.426 207C183.451 206.943 183.487 206.892 183.532 206.849C183.577 206.806 183.629 206.773 183.687 206.75C183.745 206.728 183.806 206.717 183.868 206.718C183.991 206.721 184.109 206.772 184.195 206.86C184.281 206.948 184.329 207.066 184.329 207.19C184.206 215.517 180.836 217.433 179.392 217.791C179.002 217.901 178.598 217.956 178.193 217.955Z" fill="#282828"/>
<path d="M213.04 130.45C214.601 130.45 215.867 129.185 215.867 127.624C215.867 126.062 214.601 124.796 213.04 124.796C211.479 124.796 210.213 126.062 210.213 127.624C210.213 129.185 211.479 130.45 213.04 130.45Z" fill="#282828"/>
<path d="M213.041 130.901C212.393 130.899 211.761 130.705 211.223 130.344C210.685 129.983 210.267 129.47 210.02 128.871C209.774 128.272 209.71 127.613 209.838 126.978C209.965 126.343 210.278 125.76 210.737 125.302C211.196 124.845 211.78 124.534 212.415 124.408C213.051 124.283 213.709 124.348 214.308 124.597C214.906 124.845 215.418 125.265 215.777 125.804C216.137 126.343 216.329 126.976 216.329 127.624C216.329 128.055 216.244 128.482 216.078 128.88C215.913 129.279 215.671 129.64 215.365 129.945C215.06 130.249 214.697 130.491 214.298 130.655C213.9 130.819 213.472 130.903 213.041 130.901ZM213.041 125.247C212.571 125.247 212.111 125.387 211.721 125.648C211.33 125.909 211.025 126.28 210.845 126.714C210.666 127.148 210.619 127.626 210.71 128.087C210.802 128.548 211.028 128.972 211.361 129.304C211.693 129.636 212.116 129.863 212.577 129.954C213.038 130.046 213.516 129.999 213.95 129.819C214.385 129.639 214.756 129.335 215.017 128.944C215.278 128.553 215.417 128.094 215.417 127.624C215.415 126.994 215.163 126.391 214.718 125.946C214.273 125.501 213.67 125.25 213.041 125.247Z" fill="#282828"/>
<path d="M214.332 129.047C215.576 129.047 216.585 128.038 216.585 126.794C216.585 125.549 215.576 124.541 214.332 124.541C213.087 124.541 212.078 125.549 212.078 126.794C212.078 128.038 213.087 129.047 214.332 129.047Z" fill="#282828"/>
<path d="M214.328 129.498C213.793 129.498 213.271 129.34 212.826 129.042C212.381 128.745 212.035 128.323 211.83 127.829C211.625 127.335 211.572 126.791 211.676 126.266C211.781 125.742 212.038 125.26 212.416 124.882C212.794 124.504 213.276 124.246 213.801 124.142C214.325 124.037 214.869 124.091 215.363 124.296C215.857 124.5 216.28 124.847 216.577 125.292C216.874 125.736 217.032 126.259 217.032 126.794C217.032 127.511 216.748 128.199 216.24 128.706C215.733 129.213 215.046 129.498 214.328 129.498ZM214.328 124.991C213.971 124.989 213.622 125.093 213.324 125.29C213.026 125.487 212.793 125.768 212.655 126.097C212.517 126.426 212.48 126.789 212.549 127.139C212.617 127.49 212.788 127.812 213.04 128.065C213.291 128.318 213.613 128.491 213.963 128.561C214.312 128.632 214.676 128.597 215.006 128.46C215.336 128.324 215.618 128.093 215.816 127.796C216.015 127.5 216.121 127.151 216.121 126.794C216.121 126.318 215.932 125.861 215.596 125.523C215.261 125.185 214.805 124.994 214.328 124.991Z" fill="#282828"/>
<path d="M191.509 119.85H191.458C191.34 119.836 191.232 119.778 191.157 119.686C191.082 119.594 191.047 119.476 191.058 119.358C191.13 118.661 192.933 102.457 200.502 100.921C200.62 100.9 200.742 100.925 200.841 100.992C200.941 101.059 201.01 101.162 201.035 101.279C201.059 101.396 201.036 101.518 200.971 101.618C200.905 101.717 200.803 101.787 200.686 101.812C193.762 103.215 191.97 119.296 191.96 119.46C191.943 119.568 191.888 119.666 191.806 119.737C191.723 119.809 191.618 119.848 191.509 119.85Z" fill="#282828"/>
<path d="M213.581 126.64H213.53C213.463 126.634 213.398 126.614 213.338 126.582C213.279 126.55 213.227 126.507 213.185 126.454C213.143 126.402 213.112 126.341 213.094 126.276C213.076 126.212 213.071 126.144 213.079 126.077C214.974 109.269 212.587 102.683 212.567 102.621C212.516 102.499 212.515 102.361 212.565 102.238C212.615 102.116 212.711 102.018 212.833 101.965C212.96 101.919 213.099 101.924 213.222 101.98C213.345 102.035 213.441 102.137 213.489 102.263C213.591 102.529 215.988 109.084 214.062 126.19C214.048 126.309 213.992 126.42 213.904 126.503C213.816 126.585 213.702 126.634 213.581 126.64Z" fill="#282828"/>
<path d="M196.272 138.317C196.137 138.315 196.009 138.26 195.913 138.164C195.818 138.069 195.763 137.94 195.76 137.805C195.76 137.669 195.814 137.539 195.91 137.443C196.006 137.347 196.137 137.293 196.272 137.293C196.7 137.293 197.11 137.124 197.413 136.822C197.716 136.521 197.888 136.112 197.891 135.685V125.749C197.888 124.202 197.272 122.718 196.178 121.624C195.084 120.53 193.6 119.914 192.052 119.911H190.967C189.419 119.914 187.936 120.53 186.841 121.624C185.747 122.718 185.131 124.202 185.128 125.749V135.685C185.131 136.11 185.301 136.518 185.602 136.819C185.903 137.12 186.311 137.29 186.736 137.293C186.872 137.293 187.003 137.347 187.099 137.443C187.195 137.539 187.249 137.669 187.249 137.805C187.249 137.941 187.195 138.071 187.099 138.167C187.003 138.263 186.872 138.317 186.736 138.317C186.039 138.315 185.371 138.036 184.878 137.543C184.385 137.05 184.107 136.382 184.104 135.685V125.749C184.107 123.93 184.831 122.186 186.117 120.9C187.403 119.613 189.147 118.889 190.967 118.887H192.052C193.872 118.889 195.616 119.613 196.902 120.9C198.189 122.186 198.912 123.93 198.915 125.749V135.685C198.912 136.384 198.633 137.053 198.137 137.547C197.642 138.04 196.972 138.317 196.272 138.317Z" fill="#282828"/>
<path d="M187.987 136.801C187.987 136.501 187.744 136.258 187.444 136.258C187.144 136.258 186.901 136.501 186.901 136.801V138.87C186.901 139.169 187.144 139.413 187.444 139.413C187.744 139.413 187.987 139.169 187.987 138.87V136.801Z" fill="#282828"/>
<path d="M187.444 139.864C187.172 139.864 186.911 139.756 186.719 139.563C186.527 139.371 186.419 139.111 186.419 138.839V136.791C186.419 136.519 186.527 136.259 186.719 136.067C186.911 135.874 187.172 135.766 187.444 135.766C187.715 135.766 187.976 135.874 188.168 136.067C188.36 136.259 188.468 136.519 188.468 136.791V138.839C188.468 139.111 188.36 139.371 188.168 139.563C187.976 139.756 187.715 139.864 187.444 139.864ZM187.444 136.709C187.419 136.709 187.396 136.718 187.379 136.736C187.361 136.753 187.351 136.777 187.351 136.801V138.85C187.351 138.952 187.526 138.952 187.526 138.85V136.801C187.526 136.778 187.517 136.756 187.502 136.739C187.487 136.722 187.466 136.711 187.444 136.709Z" fill="#282828"/>
<path d="M196.59 136.801C196.59 136.501 196.347 136.258 196.047 136.258C195.747 136.258 195.504 136.501 195.504 136.801V138.87C195.504 139.169 195.747 139.413 196.047 139.413C196.347 139.413 196.59 139.169 196.59 138.87V136.801Z" fill="#282828"/>
<path d="M196.049 139.864C195.777 139.864 195.517 139.756 195.325 139.564C195.133 139.372 195.025 139.111 195.025 138.84V136.791C195.08 136.57 195.208 136.373 195.388 136.233C195.568 136.092 195.79 136.016 196.018 136.016C196.246 136.016 196.468 136.092 196.648 136.233C196.828 136.373 196.956 136.57 197.012 136.791V138.84C197.012 139.101 196.913 139.353 196.734 139.543C196.555 139.734 196.31 139.848 196.049 139.864ZM196.049 136.709C196.025 136.709 196.001 136.719 195.984 136.736C195.966 136.754 195.957 136.777 195.957 136.801V138.85C195.957 138.952 196.141 138.952 196.141 138.85V136.801C196.141 136.777 196.132 136.754 196.114 136.736C196.097 136.719 196.073 136.709 196.049 136.709Z" fill="#282828"/>
<path d="M214.33 129.559H214.248C213.749 129.533 213.265 129.383 212.839 129.122C212.413 128.86 212.059 128.497 211.81 128.064C211.65 127.585 211.597 127.078 211.656 126.577C211.714 126.076 211.882 125.594 212.148 125.165C212.218 125.051 212.33 124.968 212.461 124.935C212.591 124.903 212.729 124.923 212.845 124.991C212.902 125.025 212.953 125.07 212.993 125.123C213.033 125.177 213.062 125.238 213.078 125.302C213.094 125.367 213.097 125.435 213.087 125.501C213.077 125.567 213.054 125.631 213.019 125.688C212.84 125.975 212.723 126.296 212.676 126.631C212.628 126.966 212.651 127.308 212.742 127.634C212.957 128.105 213.531 128.412 214.443 128.535C214.578 128.545 214.705 128.608 214.794 128.71C214.883 128.813 214.928 128.947 214.919 129.083C214.909 129.219 214.846 129.345 214.743 129.434C214.641 129.524 214.507 129.569 214.371 129.559H214.33Z" fill="white"/>
<path d="M194.635 89.2132C193.435 89.2151 192.261 88.8609 191.262 88.1954C190.263 87.5299 189.485 86.583 189.024 85.4745C188.564 84.3662 188.443 83.146 188.677 81.9688C188.91 80.7916 189.488 79.7102 190.337 78.8616C191.185 78.0131 192.267 77.4353 193.444 77.2017C194.621 76.9681 195.841 77.089 196.95 77.5491C198.058 78.0093 199.005 78.7883 199.67 79.7868C200.336 80.7856 200.69 81.9593 200.688 83.1596C200.686 84.7641 200.047 86.3024 198.912 87.437C197.777 88.5716 196.24 89.2105 194.635 89.2132ZM194.635 78.028C193.622 78.028 192.632 78.3284 191.789 78.891C190.947 79.4538 190.291 80.2537 189.903 81.1895C189.516 82.1253 189.414 83.155 189.612 84.1484C189.809 85.142 190.297 86.0544 191.013 86.7707C191.73 87.487 192.642 87.9748 193.636 88.1723C194.629 88.37 195.659 88.2684 196.595 87.8808C197.53 87.4932 198.33 86.837 198.893 85.9946C199.456 85.1523 199.756 84.1622 199.756 83.1493C199.756 81.7912 199.217 80.4884 198.256 79.5279C197.296 78.5675 195.993 78.028 194.635 78.028Z" fill="#282828"/>
<path d="M206.188 88.2606C204.988 88.2625 203.814 87.9086 202.816 87.2436C201.817 86.5784 201.039 85.6323 200.578 84.5244C200.117 83.4166 199.996 82.197 200.229 81.0201C200.462 79.8431 201.038 78.7617 201.886 77.9126C202.734 77.0638 203.814 76.4852 204.99 76.2502C206.167 76.0156 207.387 76.1351 208.495 76.5936C209.604 77.0524 210.552 77.8295 211.218 78.8269C211.885 79.8243 212.241 80.997 212.241 82.1968C212.238 83.8024 211.6 85.3417 210.466 86.4779C209.331 87.6141 207.793 88.2552 206.188 88.2606ZM206.188 77.0755C205.175 77.0755 204.185 77.3759 203.342 77.9384C202.5 78.5012 201.844 79.3012 201.456 80.2369C201.068 81.1727 200.967 82.2025 201.165 83.1961C201.362 84.1894 201.85 85.1018 202.566 85.8181C203.282 86.5344 204.195 87.0223 205.188 87.2197C206.182 87.4175 207.212 87.3159 208.147 86.9283C209.083 86.5407 209.883 85.8844 210.446 85.0421C211.008 84.2 211.309 83.2097 211.309 82.1968C211.309 80.8386 210.769 79.5359 209.809 78.5754C208.848 77.6149 207.546 77.0755 206.188 77.0755Z" fill="#282828"/>
<path d="M153.787 144.125L156.543 148.908L170.063 148.376L167.533 143.664L153.787 144.125Z" fill="#282828"/>
<path d="M156.502 149.369C156.423 149.368 156.346 149.347 156.278 149.307C156.21 149.267 156.153 149.211 156.112 149.144L153.429 144.34C153.391 144.272 153.371 144.197 153.371 144.12C153.371 144.042 153.391 143.967 153.429 143.899C153.469 143.833 153.524 143.777 153.59 143.736C153.656 143.695 153.73 143.67 153.808 143.664L167.564 143.213C167.647 143.21 167.73 143.231 167.802 143.273C167.874 143.314 167.934 143.375 167.974 143.449L170.504 148.16C170.539 148.228 170.557 148.304 170.557 148.381C170.557 148.457 170.539 148.533 170.504 148.601C170.464 148.667 170.409 148.722 170.343 148.762C170.277 148.801 170.202 148.823 170.124 148.826L156.604 149.369H156.502ZM154.515 144.545L156.758 148.447L169.285 147.956L167.236 144.125L154.515 144.545Z" fill="#282828"/>
<path d="M160.832 141.615C160.308 141.431 159.738 141.431 159.214 141.615C158.868 141.749 158.571 141.984 158.361 142.289C158.151 142.594 158.038 142.955 158.036 143.326C158.056 143.785 158.19 144.232 158.425 144.626C158.643 145.05 158.942 145.426 159.306 145.733C160.576 146.757 163.331 146.603 163.219 144.473C163.152 143.895 162.937 143.345 162.594 142.875C162.179 142.255 161.553 141.807 160.832 141.615Z" fill="#282828"/>
<path d="M161.182 146.747C160.409 146.752 159.655 146.508 159.031 146.05C158.607 145.709 158.258 145.284 158.007 144.801C157.73 144.342 157.574 143.82 157.556 143.285C157.559 142.822 157.701 142.371 157.964 141.991C158.227 141.611 158.599 141.319 159.031 141.154C159.651 140.936 160.327 140.936 160.947 141.154C161.756 141.374 162.463 141.871 162.944 142.557C163.334 143.092 163.575 143.722 163.64 144.381C163.686 144.794 163.604 145.212 163.407 145.577C163.209 145.943 162.905 146.241 162.534 146.429C162.115 146.641 161.652 146.75 161.182 146.747ZM159.922 141.912C159.734 141.91 159.547 141.941 159.369 142.004C159.112 142.106 158.891 142.282 158.734 142.51C158.577 142.738 158.491 143.008 158.488 143.285C158.513 143.668 158.629 144.041 158.826 144.37C159.011 144.743 159.269 145.074 159.584 145.344C159.954 145.605 160.383 145.768 160.833 145.819C161.282 145.869 161.737 145.804 162.155 145.63C162.366 145.521 162.538 145.349 162.648 145.138C162.758 144.927 162.801 144.688 162.77 144.452C162.706 143.955 162.516 143.482 162.217 143.08C161.85 142.563 161.307 142.199 160.69 142.055C160.444 141.965 160.185 141.916 159.922 141.912Z" fill="#282828"/>
</g>
</g>
<defs>
<clipPath id="clip0_326_3894">
<rect width="270" height="270" fill="white"/>
</clipPath>
</defs>
</svg>
