<svg width="225" height="185" viewBox="0 0 225 185" fill="none" xmlns="http://www.w3.org/2000/svg">
<g clip-path="url(#clip0_326_5264)">
<path d="M148.505 146.74H78.4619V179.726H148.505V146.74Z" fill="#282828"/>
<path d="M148.505 180.126H78.4619C78.3539 180.126 78.2496 180.083 78.1729 180.006C78.0961 179.93 78.0532 179.826 78.0532 179.717V146.74C78.0532 146.631 78.0961 146.527 78.1729 146.451C78.2496 146.374 78.3539 146.331 78.4619 146.331H148.505C148.614 146.331 148.718 146.374 148.794 146.451C148.871 146.527 148.914 146.631 148.914 146.74V179.717C148.914 179.826 148.871 179.93 148.794 180.006C148.718 180.083 148.614 180.126 148.505 180.126ZM78.8712 179.309H148.097V147.148H78.8712V179.309Z" fill="#282828"/>
<path d="M213.822 112.749H193.118C193.01 112.749 192.906 112.706 192.829 112.63C192.752 112.553 192.709 112.449 192.709 112.341V108.329C192.709 108.22 192.752 108.116 192.829 108.04C192.906 107.963 193.01 107.92 193.118 107.92H213.822C213.93 107.92 214.035 107.963 214.111 108.04C214.188 108.116 214.231 108.22 214.231 108.329V112.341C214.231 112.449 214.188 112.553 214.111 112.63C214.035 112.706 213.93 112.749 213.822 112.749ZM193.527 111.932H213.413V108.737H193.552L193.527 111.932Z" fill="#D1D3D4"/>
<path d="M210.331 136.837H196.602C196.5 136.837 196.401 136.798 196.327 136.728C196.252 136.658 196.207 136.563 196.201 136.461L194.606 112.365C194.602 112.25 194.644 112.139 194.721 112.055C194.759 112.015 194.804 111.983 194.855 111.962C194.906 111.941 194.961 111.931 195.015 111.932H211.925C211.98 111.931 212.035 111.941 212.086 111.962C212.136 111.983 212.182 112.015 212.22 112.055C212.297 112.139 212.339 112.25 212.334 112.365L210.699 136.461C210.693 136.557 210.653 136.649 210.585 136.718C210.517 136.787 210.427 136.829 210.331 136.837ZM196.986 136.02H209.955L211.484 112.749H195.457L196.986 136.02Z" fill="#D1D3D4"/>
<path d="M221.353 136.543H59.2057C57.4173 136.543 55.9678 137.992 55.9678 139.779V143.505C55.9678 145.292 57.4173 146.74 59.2057 146.74H221.353C223.141 146.74 224.591 145.292 224.591 143.505V139.779C224.591 137.992 223.141 136.543 221.353 136.543Z" fill="white"/>
<path d="M221.353 147.149H59.2137C58.2459 147.149 57.3173 146.765 56.6322 146.082C55.9472 145.399 55.5607 144.472 55.5586 143.505V139.779C55.5607 138.811 55.9472 137.884 56.6322 137.202C57.3173 136.518 58.2459 136.135 59.2137 136.135H221.353C222.32 136.135 223.248 136.519 223.932 137.202C224.616 137.886 225 138.813 225 139.779V143.505C225 144.471 224.616 145.398 223.932 146.082C223.248 146.765 222.32 147.149 221.353 147.149ZM59.2137 136.952C58.4624 136.952 57.7424 137.249 57.2104 137.779C56.6783 138.309 56.3787 139.029 56.3765 139.779V143.505C56.3787 144.255 56.6783 144.974 57.2104 145.504C57.7424 146.034 58.4624 146.332 59.2137 146.332H221.353C222.104 146.332 222.823 146.034 223.354 145.504C223.884 144.974 224.182 144.254 224.182 143.505V139.779C224.182 139.029 223.884 138.31 223.354 137.78C222.823 137.25 222.104 136.952 221.353 136.952H59.2137Z" fill="#282828"/>
<path d="M222.326 136.543H144.147C142.891 136.543 141.874 137.56 141.874 138.815V144.469C141.874 145.723 142.891 146.74 144.147 146.74H222.326C223.582 146.74 224.599 145.723 224.599 144.469V138.815C224.599 137.56 223.582 136.543 222.326 136.543Z" fill="white"/>
<path d="M222.326 147.149H144.139C143.428 147.149 142.745 146.866 142.242 146.364C141.739 145.862 141.457 145.18 141.457 144.469V138.807C141.457 138.455 141.526 138.107 141.661 137.782C141.796 137.457 141.994 137.162 142.243 136.915C142.492 136.666 142.788 136.469 143.113 136.336C143.438 136.202 143.787 136.134 144.139 136.135H222.326C223.035 136.135 223.716 136.416 224.217 136.917C224.718 137.418 225 138.098 225 138.807V144.469C225 145.178 224.718 145.859 224.218 146.361C223.716 146.864 223.036 147.147 222.326 147.149ZM144.139 136.952C143.646 136.952 143.173 137.147 142.824 137.494C142.474 137.842 142.277 138.314 142.275 138.807V144.469C142.277 144.962 142.474 145.435 142.823 145.784C143.172 146.133 143.645 146.33 144.139 146.332H222.326C222.819 146.33 223.291 146.133 223.639 145.783C223.987 145.434 224.183 144.962 224.183 144.469V138.807C224.183 138.314 223.987 137.843 223.639 137.495C223.291 137.147 222.818 136.952 222.326 136.952H144.139Z" fill="#282828"/>
<path d="M151.032 93.8496C151.032 93.8496 153.853 122.726 147.606 126.648C141.808 130.267 135.382 129.213 131.808 129.213C130.484 129.149 129.174 129.512 128.071 130.247C126.969 130.983 126.132 132.053 125.683 133.299L124.735 136.437H169.381C172.736 134.232 175.561 131.313 177.656 127.89C180.648 122.611 178.801 95.206 178.801 95.206L151.032 93.8496Z" fill="white"/>
<path d="M169.413 136.837H124.768C124.704 136.838 124.641 136.824 124.584 136.796C124.527 136.767 124.478 136.725 124.441 136.673C124.4 136.624 124.373 136.565 124.361 136.502C124.35 136.439 124.355 136.375 124.375 136.314L125.324 133.177C125.803 131.845 126.697 130.702 127.875 129.915C129.052 129.128 130.451 128.739 131.865 128.805C132.462 128.805 133.149 128.805 133.893 128.87C137.614 129.034 142.724 129.254 147.442 126.296C149.896 124.777 151.212 118.722 151.31 108.786C151.384 101.187 150.689 93.9641 150.68 93.8905C150.676 93.8322 150.684 93.774 150.704 93.7189C150.724 93.6644 150.754 93.6141 150.795 93.5718C150.835 93.5278 150.884 93.4934 150.94 93.4706C150.995 93.4479 151.054 93.4378 151.114 93.441L178.833 94.7974C178.933 94.8032 179.027 94.8439 179.099 94.9128C179.171 94.9816 179.216 95.0742 179.226 95.1732C179.3 96.3009 181.049 122.758 178.032 128.078C175.906 131.565 173.032 134.537 169.618 136.78C169.556 136.816 169.485 136.836 169.413 136.837ZM125.315 136.02H169.291C172.55 133.852 175.296 130.999 177.337 127.661C180.052 122.881 178.653 98.8341 178.449 95.574L151.514 94.2663C151.866 98.1639 153.877 123.208 147.851 126.95C142.945 130.039 137.45 129.802 133.828 129.646C133.1 129.646 132.43 129.581 131.841 129.581C130.607 129.521 129.386 129.857 128.357 130.539C127.327 131.221 126.542 132.214 126.117 133.372L125.315 136.02Z" fill="#282828"/>
<path d="M176.691 121.32C176.691 128.453 174.549 130.586 171.695 130.586H160.493C159.724 130.585 158.973 130.819 158.341 131.257C157.71 131.696 157.227 132.317 156.96 133.037L155.718 136.412H172.978C177.402 136.412 180.542 129.72 180.681 122.587C180.82 115.453 180.681 95.1895 180.681 95.1895H176.83C176.83 95.1895 176.691 114.195 176.691 121.32Z" fill="#282828"/>
<path d="M172.979 136.837H155.718C155.652 136.836 155.588 136.82 155.53 136.791C155.471 136.761 155.421 136.718 155.382 136.666C155.346 136.611 155.323 136.549 155.314 136.484C155.306 136.419 155.312 136.352 155.333 136.29L156.576 132.916C156.87 132.113 157.404 131.422 158.104 130.932C158.805 130.443 159.638 130.18 160.493 130.178H171.695C174.777 130.178 176.282 127.286 176.282 121.321C176.282 114.278 176.421 95.3866 176.421 95.1738C176.426 95.0679 176.47 94.9673 176.546 94.8926C176.622 94.818 176.724 94.7756 176.83 94.7735H180.681C180.735 94.7725 180.788 94.782 180.837 94.8016C180.887 94.8212 180.932 94.8508 180.97 94.8879C181.008 94.9255 181.038 94.9699 181.059 95.0186C181.08 95.0679 181.09 95.1208 181.09 95.1738C181.09 95.3781 181.237 115.536 181.09 122.587C180.943 129.639 177.877 136.837 172.979 136.837ZM156.306 136.021H172.979C176.855 136.021 180.126 129.998 180.273 122.596C180.404 116.116 180.273 98.5159 180.273 95.6317H177.231C177.231 98.4259 177.092 114.874 177.092 121.337C177.092 127.8 175.325 131.012 171.687 131.012H160.484C159.796 131.011 159.125 131.222 158.562 131.617C157.998 132.012 157.571 132.571 157.337 133.218L156.306 136.021Z" fill="#282828"/>
<path d="M116.411 15.2132L109.657 92.4119C109.546 93.2717 109.619 94.1458 109.871 94.9759C110.124 95.8055 110.55 96.5726 111.121 97.2254C111.692 97.8781 112.396 98.4022 113.185 98.7628C113.975 99.1233 114.832 99.3118 115.7 99.316H207.812C209.657 99.2493 211.412 98.5097 212.748 97.2375C214.085 95.9659 214.909 94.249 215.065 92.4119L221.827 15.2132C221.94 14.3529 221.868 13.4783 221.616 12.6476C221.365 11.8175 220.938 11.0499 220.367 10.3971C219.795 9.74383 219.091 9.21971 218.301 8.85971C217.511 8.49971 216.653 8.31177 215.785 8.30859H123.664C121.82 8.37583 120.064 9.11542 118.728 10.3871C117.392 11.6592 116.568 13.3756 116.411 15.2132Z" fill="#282828"/>
<path d="M207.812 99.7248H115.7C114.811 99.7333 113.93 99.5554 113.115 99.2022C112.299 98.8486 111.567 98.3282 110.965 97.6738C110.324 96.9607 109.839 96.1211 109.543 95.2089C109.247 94.2967 109.147 93.3327 109.248 92.3792L116.002 15.1803C116.172 13.2422 117.044 11.4332 118.455 10.0927C119.866 8.75222 121.719 7.97239 123.664 7.89986H215.785C216.676 7.88927 217.56 8.0661 218.379 8.41975C219.197 8.77287 219.932 9.29487 220.535 9.95081C221.176 10.6666 221.66 11.5078 221.955 12.421C222.251 13.3343 222.352 14.2994 222.252 15.2539L215.49 92.4443C215.322 94.3857 214.447 96.1984 213.033 97.5399C211.618 98.8809 209.761 99.6581 207.812 99.7248ZM116.82 15.2539L110.058 92.4443C109.968 93.2861 110.057 94.1368 110.318 94.9421C110.578 95.7468 111.005 96.4885 111.57 97.1185C112.091 97.6834 112.722 98.1344 113.427 98.4425C114.13 98.7501 114.89 98.909 115.659 98.9079H207.812C209.555 98.8401 211.214 98.1387 212.476 96.9348C213.738 95.7309 214.516 94.1083 214.664 92.3713L221.419 15.1724C221.51 14.3312 221.424 13.4804 221.164 12.6752C220.906 11.8699 220.479 11.1282 219.914 10.4982C219.389 9.92804 218.751 9.47381 218.039 9.16569C217.328 8.85704 216.56 8.70192 215.785 8.7088H123.664C121.921 8.77657 120.264 9.47858 119.003 10.6825C117.743 11.8863 116.966 13.5095 116.82 15.246V15.2539Z" fill="#282828"/>
<path d="M116.108 14.9024L109.649 88.6123C109.543 89.434 109.614 90.2683 109.855 91.0603C110.097 91.8528 110.504 92.5845 111.049 93.2081C111.595 93.8312 112.267 94.3321 113.021 94.6762C113.775 95.0208 114.593 95.2014 115.422 95.2061H203.364C205.124 95.1389 206.799 94.4321 208.075 93.2177C209.35 92.0037 210.138 90.3657 210.29 88.6123L216.757 14.9024C216.864 14.0808 216.795 13.2459 216.554 12.4534C216.313 11.6603 215.906 10.9276 215.36 10.3039C214.814 9.6803 214.142 9.18001 213.387 8.83589C212.633 8.49177 211.814 8.3123 210.985 8.30859H123.034C121.273 8.37212 119.596 9.07836 118.32 10.2928C117.044 11.5078 116.257 13.1479 116.108 14.9024Z" fill="white"/>
<path d="M203.364 95.615H115.422C114.571 95.6213 113.728 95.4498 112.948 95.1105C112.167 94.7711 111.467 94.2724 110.892 93.6456C110.277 92.9621 109.815 92.1569 109.533 91.2828C109.251 90.4088 109.157 89.4849 109.256 88.5717L115.7 14.9025C115.859 13.0416 116.697 11.3041 118.053 10.0192C119.409 8.73487 121.191 7.99211 123.059 7.93282H210.985C211.837 7.92593 212.681 8.09799 213.462 8.43734C214.244 8.77616 214.946 9.2754 215.523 9.90223C216.136 10.5846 216.598 11.3883 216.88 12.2613C217.162 13.1338 217.257 14.0565 217.158 14.9682L210.723 88.6453C210.562 90.5051 209.724 92.2421 208.368 93.5265C207.012 94.8108 205.232 95.5541 203.364 95.615ZM116.509 14.9025L110.058 88.6125C109.971 89.4129 110.054 90.2224 110.302 90.9885C110.55 91.7545 110.957 92.4597 111.497 93.0574C111.994 93.6022 112.601 94.0358 113.277 94.3301C113.953 94.6245 114.684 94.7727 115.422 94.7653H203.364C205.027 94.7055 206.611 94.0389 207.816 92.8917C209.022 91.7445 209.764 90.1959 209.905 88.5389L216.349 14.9025C216.435 14.1015 216.352 13.2915 216.106 12.5244C215.86 11.7573 215.455 11.0505 214.918 10.4496C214.418 9.90699 213.809 9.47552 213.132 9.18275C212.454 8.88999 211.723 8.74228 210.985 8.75022H123.034C121.372 8.80952 119.789 9.47499 118.584 10.6206C117.38 11.7658 116.636 13.3122 116.493 14.9682L116.509 14.9025Z" fill="#282828"/>
<path d="M110.737 76.2334L109.649 88.6121C109.543 89.4337 109.614 90.2681 109.855 91.0601C110.097 91.8526 110.504 92.5843 111.049 93.2079C111.595 93.831 112.267 94.3313 113.021 94.676C113.775 95.0206 114.593 95.2012 115.422 95.2059H203.364C205.124 95.1387 206.799 94.4319 208.075 93.2175C209.35 92.0035 210.138 90.3655 210.29 88.6121L211.369 76.2334H110.737Z" fill="white"/>
<path d="M203.364 95.6149H115.422C114.571 95.6213 113.728 95.4498 112.948 95.1104C112.167 94.7711 111.467 94.2724 110.892 93.6455C110.277 92.9621 109.815 92.1568 109.533 91.2828C109.251 90.4087 109.157 89.4849 109.256 88.5716L110.327 76.1845C110.336 76.0818 110.382 75.986 110.458 75.9166C110.534 75.8467 110.633 75.8081 110.736 75.8086H211.386C211.442 75.8091 211.498 75.8208 211.55 75.8435C211.602 75.8658 211.649 75.8986 211.688 75.9394C211.763 76.0251 211.801 76.1363 211.794 76.2496L210.723 88.6452C210.562 90.5051 209.724 92.2421 208.368 93.5264C207.012 94.8108 205.232 95.5541 203.364 95.6149ZM111.112 76.6419L110.058 88.6452C109.971 89.4457 110.054 90.2552 110.302 91.0212C110.55 91.7873 110.957 92.4919 111.497 93.0902C111.994 93.6349 112.601 94.0685 113.277 94.3623C113.953 94.6567 114.684 94.8049 115.422 94.7975H203.364C205.027 94.7377 206.611 94.0712 207.816 92.9245C209.022 91.7772 209.764 90.2287 209.905 88.5716L210.944 76.6419H111.112Z" fill="#282828"/>
<path d="M163.547 87.9317C164.902 85.9109 164.517 83.2792 162.686 82.0531C160.855 80.827 158.273 81.4713 156.918 83.492C155.562 85.5123 155.948 88.144 157.779 89.3701C159.609 90.5962 162.192 89.9519 163.547 87.9317Z" fill="white"/>
<path d="M159.855 90.4016C159.285 90.4053 158.721 90.2904 158.199 90.0638C157.676 89.8372 157.207 89.5042 156.821 89.086C156.408 88.6275 156.096 88.087 155.906 87.4999C155.716 86.9128 155.652 86.2923 155.717 85.6787C155.826 84.4388 156.385 83.282 157.289 82.4254C158.193 81.5689 159.379 81.0728 160.623 81.0294C161.193 81.0257 161.757 81.1406 162.279 81.3671C162.801 81.5937 163.271 81.9267 163.657 82.345C164.069 82.8045 164.38 83.345 164.57 83.9316C164.76 84.5187 164.825 85.1387 164.761 85.7523C164.653 86.9927 164.095 88.151 163.191 89.0076C162.287 89.8642 161.1 90.3603 159.855 90.4016ZM160.607 81.8468C159.566 81.8886 158.577 82.3085 157.824 83.0274C157.072 83.7469 156.607 84.7157 156.518 85.7523C156.466 86.2536 156.519 86.7608 156.673 87.2404C156.829 87.7201 157.082 88.1622 157.418 88.5386C157.73 88.8753 158.11 89.1426 158.533 89.3226C158.956 89.5032 159.412 89.5921 159.871 89.5847C160.913 89.5476 161.906 89.1294 162.66 88.4094C163.413 87.6894 163.876 86.7174 163.959 85.6787C164.016 85.1789 163.966 84.6728 163.812 84.1942C163.659 83.7151 163.405 83.2741 163.068 82.9009C162.755 82.5615 162.375 82.292 161.951 82.1104C161.526 81.9289 161.068 81.8389 160.607 81.8468Z" fill="#282828"/>
<path d="M164.025 132.833H96.3367V136.543H164.025V132.833Z" fill="white"/>
<path d="M164.025 136.951H96.337C96.229 136.949 96.1263 136.906 96.05 136.829C95.9738 136.753 95.9299 136.651 95.9277 136.543V132.833C95.9277 132.725 95.9711 132.621 96.0479 132.544C96.1241 132.468 96.2284 132.425 96.337 132.425H164.025C164.133 132.425 164.237 132.468 164.314 132.544C164.391 132.621 164.434 132.725 164.434 132.833V136.543C164.434 136.651 164.391 136.755 164.314 136.832C164.237 136.908 164.133 136.951 164.025 136.951ZM96.7457 136.134H163.616V133.242H96.7457V136.134Z" fill="#282828"/>
<path d="M86.8023 150.736C86.8023 150.736 118.071 158.612 118.071 179.726H35.4354C35.4354 179.726 22.2951 167.045 25.5414 147.565C58.8377 148.717 86.8023 150.736 86.8023 150.736Z" fill="white"/>
<path d="M118.079 180.126H35.4355C35.3825 180.127 35.3297 180.118 35.2805 180.099C35.2312 180.079 35.1865 180.049 35.1493 180.012C35.0185 179.889 21.8946 166.938 25.1409 147.499C25.1598 147.403 25.2118 147.316 25.2878 147.253C25.3639 147.191 25.4593 147.156 25.5579 147.156C58.4778 148.292 86.5573 150.31 86.8352 150.327H86.9088C87.2195 150.4 118.488 158.498 118.488 179.701C118.49 179.756 118.481 179.811 118.462 179.862C118.442 179.914 118.412 179.961 118.374 180C118.336 180.04 118.29 180.072 118.239 180.094C118.189 180.115 118.135 180.126 118.079 180.126ZM35.6072 179.309H117.662C117.269 159.363 87.9067 151.446 86.7373 151.144C85.5678 151.054 58.1183 149.109 25.885 147.99C23.0803 165.86 34.3398 178.01 35.6072 179.309Z" fill="#282828"/>
<path d="M129.347 114.996C129.347 114.996 139.65 109.799 142.536 109.799C145.423 109.799 154.491 112.364 155.456 114.996C156.421 117.627 157.655 121.884 156.421 122.022C155.186 122.162 153.534 117.488 153.534 117.937C153.534 118.386 149.961 122.333 145.971 121.099L135.496 123.943L129.314 116.115" fill="white"/>
<path d="M135.496 124.392C135.434 124.393 135.374 124.379 135.318 124.352C135.263 124.325 135.215 124.286 135.177 124.237L128.987 116.409C128.922 116.324 128.892 116.216 128.906 116.108C128.92 116.001 128.976 115.904 129.061 115.838C129.103 115.803 129.15 115.778 129.202 115.763C129.253 115.748 129.307 115.743 129.361 115.749C129.414 115.755 129.466 115.772 129.513 115.798C129.559 115.825 129.601 115.86 129.633 115.903L135.651 123.518L145.831 120.708C145.906 120.683 145.986 120.683 146.061 120.708C149.56 121.794 152.815 118.452 153.093 117.872C153.104 117.786 153.141 117.705 153.2 117.641C153.258 117.577 153.335 117.532 153.42 117.513C153.772 117.431 153.862 117.635 154.237 118.387C155.571 121.279 156.159 121.655 156.372 121.655C156.789 121.026 156.224 118.313 155.072 115.176C154.254 112.88 145.652 110.273 142.536 110.273C139.781 110.273 129.633 115.372 129.527 115.421C129.432 115.461 129.325 115.463 129.228 115.427C129.131 115.391 129.052 115.32 129.005 115.228C128.959 115.136 128.949 115.03 128.977 114.931C129.006 114.832 129.071 114.747 129.159 114.694C129.584 114.481 139.584 109.456 142.536 109.456C145.226 109.456 154.761 111.973 155.84 114.922C156.478 116.663 157.876 120.846 157.116 122.072C157.05 122.19 156.955 122.29 156.841 122.363C156.727 122.436 156.597 122.479 156.462 122.489C155.382 122.611 154.401 120.716 153.502 118.763C153.048 119.276 152.541 119.739 151.989 120.144C150.844 120.961 148.538 122.284 145.971 121.549L135.635 124.401L135.496 124.392Z" fill="#282828"/>
<path d="M25.5413 147.565C25.5413 147.565 17.299 80.1553 27.0868 66.379C36.8745 52.6031 60.9062 50.3722 72.0598 59.2621C83.213 68.152 88.6426 149.829 88.6426 149.829C88.6426 149.829 58.707 158.661 25.5413 147.565Z" fill="#E73343"/>
<path d="M72.0269 59.2539C72.0269 59.2539 79.1491 63.5596 84.4882 73.4141C89.8278 83.268 101.03 119.751 101.03 119.751L130.721 113.378L142.266 124.286C142.266 124.286 119.199 135.725 105.405 141.96C91.6104 148.194 56.3928 109.505 56.3928 109.505L72.0269 59.2539Z" fill="#E73343"/>
<path d="M91.6104 139.754C91.5331 139.754 91.4568 139.735 91.3896 139.696C91.1524 139.549 67.628 124.507 59.3364 85.3519C59.3253 85.2979 59.3247 85.2428 59.3348 85.1888C59.3449 85.1348 59.3655 85.0834 59.3957 85.0379C59.4253 84.9919 59.464 84.9521 59.5095 84.9214C59.555 84.8902 59.6059 84.8685 59.6593 84.8574C59.7133 84.8463 59.7684 84.8457 59.8224 84.8558C59.8764 84.8659 59.9277 84.8865 59.9738 84.9167C60.0199 84.9463 60.059 84.985 60.0903 85.0305C60.121 85.0755 60.1427 85.1263 60.1543 85.1803C64.4468 105.452 72.8364 119.008 79.1163 126.852C85.9277 135.301 91.7904 139.002 91.8475 139.043C91.9211 139.09 91.9778 139.16 92.0085 139.242C92.0392 139.324 92.0434 139.413 92.0196 139.497C91.9958 139.581 91.9455 139.656 91.8761 139.709C91.8073 139.763 91.7226 139.793 91.6353 139.794L91.6104 139.754Z" fill="#282828"/>
<path d="M76.5243 30.4268C75.601 30.4268 74.6979 30.1531 73.9302 29.6406C73.1626 29.1276 72.5638 28.3992 72.2107 27.5468C71.857 26.6939 71.7649 25.7558 71.9449 24.8511C72.1249 23.9458 72.5696 23.1146 73.2229 22.4618C73.8757 21.8096 74.7074 21.3654 75.6132 21.1854C76.519 21.0054 77.4577 21.0975 78.3111 21.4506C79.164 21.8038 79.8935 22.402 80.4065 23.1691C80.9195 23.9362 81.1932 24.8384 81.1932 25.7611C81.1911 26.9978 80.6982 28.1832 79.8231 29.0578C78.948 29.9324 77.7621 30.4247 76.5243 30.4268ZM76.5243 21.9128C75.7625 21.9128 75.0176 22.1384 74.3844 22.5614C73.7513 22.9844 73.2573 23.5852 72.9661 24.2883C72.6744 24.9913 72.5982 25.7654 72.747 26.5118C72.8957 27.2583 73.2621 27.9444 73.801 28.4823C74.3394 29.0207 75.0256 29.3871 75.7731 29.5358C76.5201 29.6841 77.2941 29.6078 77.9982 29.3166C78.7018 29.0255 79.3032 28.5321 79.7262 27.8994C80.1497 27.2662 80.3753 26.5224 80.3753 25.7611C80.3668 24.7452 79.9576 23.7742 79.2365 23.0579C78.5155 22.3422 77.5408 21.9393 76.5243 21.9372V21.9128Z" fill="#282828"/>
<path d="M74.4797 29.0957C74.4797 29.0957 79.4435 37.2666 78.2904 38.9009C77.1374 40.5352 73.5559 39.2768 73.5559 39.2768" fill="white"/>
<path d="M76.1401 40.1016C75.2147 40.0788 74.2972 39.9216 73.4173 39.6357C73.3152 39.5986 73.2321 39.5229 73.186 39.425C73.1399 39.327 73.1352 39.2148 73.1717 39.1126C73.2072 39.0115 73.2813 38.9279 73.3776 38.8807C73.474 38.8331 73.5852 38.8257 73.6868 38.8596C74.6027 39.1783 77.1539 39.75 77.9555 38.6309C78.6421 37.6747 76.1316 32.6088 74.1283 29.3074C74.0722 29.2142 74.0553 29.1025 74.0812 28.9972C74.1072 28.8913 74.1744 28.8002 74.2676 28.7436C74.3608 28.6874 74.4725 28.6705 74.5783 28.6964C74.6842 28.7224 74.7753 28.7896 74.8319 28.8828C75.6493 30.2879 79.8687 37.3724 78.6178 39.1126C78.3139 39.4636 77.9306 39.7363 77.4991 39.9083C77.0682 40.0804 76.6023 40.1466 76.1401 40.1016Z" fill="#282828"/>
<path d="M73.7602 18.5305C77.0309 21.3983 75.8127 27.1345 75.6412 30.9012C75.3956 36.1853 75.0276 41.4635 74.5374 46.7364C74.2346 50.0781 65.5427 49.8171 64.046 48.7546L65.8863 57.1298L46.9158 54.3515L48.085 43.4356C48.085 43.4356 46.8667 28.2213 50.5381 21.5291C54.2096 14.8373 61.4053 15.4419 61.4053 15.4419C61.4053 15.4419 70.588 15.7198 73.7602 18.5305Z" fill="white"/>
<path d="M65.8862 57.5387H65.829L46.8584 54.7603C46.7536 54.7444 46.6589 54.6889 46.5936 54.6052C46.5283 54.5216 46.4973 54.4167 46.5068 54.3109L47.6761 43.3949C47.6271 42.839 46.4986 28.0578 50.17 21.3333C53.9067 14.4694 61.356 15.0333 61.4376 15.0417C61.7976 15.0417 70.7923 15.3684 74.0302 18.2283C76.8837 20.7451 76.4834 25.2551 76.197 28.8504C76.1314 29.5778 76.0742 30.2639 76.0499 30.8934C75.8047 36.1473 75.4368 41.5155 74.9868 46.7694C74.9111 47.284 74.694 47.7679 74.3589 48.166C74.0238 48.5641 73.5844 48.8616 73.0899 49.0247C70.7515 50.0946 66.6136 50.0295 64.6596 49.4413L66.2949 57.032C66.3082 57.0919 66.3082 57.1543 66.2944 57.2142C66.2806 57.274 66.2531 57.3296 66.215 57.3777C66.1763 57.4254 66.1276 57.464 66.072 57.4905C66.0165 57.517 65.9556 57.5307 65.8942 57.5302L65.8862 57.5387ZM47.3654 54.0086L65.3547 56.6397L63.6373 48.8447C63.6203 48.7647 63.6272 48.6816 63.6579 48.6059C63.6886 48.5302 63.741 48.4651 63.8093 48.4196C63.8776 48.3725 63.9586 48.347 64.0423 48.347C64.1254 48.347 64.2069 48.3725 64.2752 48.4196C65.2562 49.1062 70.1464 49.4493 72.6971 48.2808C73.5807 47.8721 74.063 47.3411 74.1281 46.6466C74.6109 41.4011 74.946 36.0816 75.224 30.8277C75.224 30.1903 75.314 29.4957 75.3712 28.7604C75.6655 25.3208 76.0255 21.031 73.4822 18.7921C70.4566 16.1201 61.4704 15.8099 61.3804 15.8014C61.2904 15.7935 54.3567 15.2948 50.8815 21.6684C47.3245 28.205 48.4284 43.1985 48.4856 43.3536L47.3654 54.0086Z" fill="#282828"/>
<path d="M43.1953 56.9255L44.9778 51.1406L68.2576 53.3959L69.5986 58.6985C69.5986 58.6985 57.4311 64.4839 43.1953 56.9255Z" fill="white"/>
<path d="M58.4533 61.1983C53.0576 61.1877 47.7484 59.843 42.9989 57.2844C42.9153 57.2394 42.8499 57.1668 42.814 57.079C42.7783 56.9905 42.7742 56.8931 42.8027 56.8026L44.5852 51.0256C44.6129 50.9367 44.6701 50.8599 44.7475 50.8075C44.8248 50.7557 44.9176 50.7318 45.0105 50.7398L68.2983 52.9866C68.383 52.9945 68.4635 53.0284 68.528 53.084C68.5926 53.1401 68.6376 53.2142 68.6577 53.2968L69.9908 58.5999C70.0136 58.6921 70.004 58.7895 69.9638 58.8758C69.9241 58.9621 69.8553 59.0319 69.77 59.0738C66.1769 60.5275 62.3292 61.2496 58.4533 61.1983ZM43.6858 56.7205C47.5594 58.7937 51.8297 60.0214 56.2139 60.3211C60.598 60.6212 64.9958 59.987 69.1157 58.4612L67.9383 53.7712L45.264 51.581L43.6858 56.7205Z" fill="#282828"/>
<path d="M54.5448 44.8086C54.5448 53.7964 63.5882 71.9441 55.845 79.1261C48.5593 85.8343 36.0732 87.5914 26.5962 86.5617C12.8182 85.0746 5.63076 75.5309 11.2728 62.1468C14.0284 55.6101 18.8854 50.2255 22.9412 44.4078C26.5201 39.2773 29.5201 33.7661 31.8867 27.9764C33.9064 23.0736 35.4109 17.3543 38.1175 12.7945C44.1438 2.66261 54.7655 -1.30004 65.9186 1.96802C70.7103 3.36567 79.9337 9.13413 77.6689 15.377C77.113 16.9128 75.2162 19.2009 73.7439 18.555C73.3108 21.5213 71.4055 22.9428 69.0835 24.8386C66.7609 26.7344 64.071 28.1072 61.5685 29.741C59.8034 30.7934 58.2612 32.1816 57.0304 33.8264C55.5506 36.0002 55.0271 38.6721 54.7491 41.2869C54.6157 42.4559 54.5474 43.6317 54.5448 44.8086Z" fill="white"/>
<path d="M31.6905 87.1984C29.9834 87.2 28.2774 87.11 26.5799 86.9289C19.2862 86.1115 13.7341 83.1045 10.9539 78.3736C8.30462 73.88 8.29642 68.201 10.9539 61.9502C12.9736 57.1538 16.1462 52.9624 19.2207 48.8277C20.3737 47.2998 21.5594 45.7148 22.6632 44.1297C26.2112 39.0236 29.1864 33.5436 31.5351 27.7878C32.1975 26.1536 32.7944 24.5193 33.4322 22.7219C34.5589 19.2003 36.0182 15.794 37.7904 12.5488C43.8168 2.41688 54.6513 -1.79935 66.0744 1.54282C69.5823 2.57253 75.5021 5.92211 77.6526 10.1632C78.0994 10.9679 78.37 11.8579 78.4462 12.7753C78.5224 13.6923 78.4023 14.615 78.0941 15.4822C77.5785 16.9132 76.5578 18.1076 75.2242 18.8408C74.8774 19.0033 74.4931 19.0685 74.1119 19.0282C73.556 21.725 71.7571 23.1873 69.6966 24.8708L69.3858 25.1159C67.8029 26.3468 66.1363 27.466 64.3983 28.466C63.5803 28.9806 62.6729 29.5037 61.8306 30.0998C60.1132 31.1332 58.6139 32.4906 57.4148 34.0958C55.9187 36.2934 55.4523 38.9981 55.1907 41.3678C55.0711 42.5214 55.0113 43.6803 55.0107 44.8402C55.0107 47.7085 55.9679 51.5976 56.9817 55.7159C59.1401 64.4914 61.585 74.4353 56.1638 79.4113C49.835 85.1718 39.9246 87.1984 31.6905 87.1984ZM58.445 1.24053C50.2684 1.24053 42.9746 5.39958 38.4691 12.9739C36.723 16.1747 35.2856 19.5349 34.1762 23.0078C33.5712 24.7072 32.9416 26.4723 32.2711 28.1066C29.8832 33.9137 26.8671 39.4428 23.2765 44.5951C22.1644 46.2294 20.9706 47.7821 19.8176 49.318C16.7759 53.4034 13.6278 57.5625 11.6408 62.2689C9.1141 68.2661 9.10594 73.7079 11.6408 77.957C14.2901 82.4591 19.6214 85.3597 26.6535 86.1279C35.3128 87.0597 48.077 85.7028 55.5835 78.7744C60.6368 74.1166 58.2491 64.4263 56.1474 55.8954C55.1256 51.7284 54.1605 47.7901 54.1525 44.8238C54.1515 43.6342 54.214 42.4446 54.3405 41.2614C54.6105 38.8102 55.0928 35.9667 56.6953 33.622C57.9569 31.9252 59.5372 30.49 61.3478 29.3973C62.1657 28.8419 63.0816 28.3024 63.9319 27.763C65.6397 26.7862 67.2788 25.6946 68.8379 24.4949L69.1487 24.2413C71.2748 22.5091 72.9594 21.1448 73.3517 18.4729C73.3596 18.4099 73.3819 18.3495 73.4173 18.2971C73.4528 18.2447 73.5004 18.2013 73.556 18.1706C73.6127 18.1441 73.6741 18.1309 73.736 18.1309C73.798 18.1309 73.8594 18.1441 73.916 18.1706C74.0701 18.2288 74.2347 18.2547 74.3994 18.2463C74.564 18.2378 74.725 18.1955 74.8727 18.1213C76.0019 17.4712 76.8691 16.4484 77.3254 15.2292C77.5923 14.4652 77.6934 13.6542 77.623 12.8484C77.5526 12.0426 77.3117 11.2612 76.9167 10.555C74.8806 6.53517 69.2143 3.34017 65.8451 2.38458C63.4464 1.65029 60.9539 1.26541 58.445 1.24053Z" fill="#282828"/>
<path d="M74.5619 42.7891C74.5619 42.7891 70.3674 45.1508 68.3477 40.8281L74.5619 42.7891Z" fill="white"/>
<path d="M72.0434 43.8435C71.5939 43.8461 71.1465 43.7773 70.7188 43.6397C70.0994 43.42 69.5334 43.0711 69.0601 42.6163C68.5863 42.161 68.2147 41.6099 67.9711 41C67.9267 40.9016 67.9235 40.7893 67.9621 40.6882C68.0003 40.5871 68.077 40.5056 68.1755 40.4611C68.2734 40.4161 68.3846 40.4118 68.4857 40.4484C68.5868 40.4849 68.6689 40.5601 68.7155 40.657C68.9124 41.1631 69.2147 41.621 69.6023 42.0017C69.9898 42.3818 70.4541 42.6756 70.9639 42.863C72.1127 43.1378 73.3224 42.9837 74.3654 42.43C74.4125 42.4003 74.4649 42.3802 74.5194 42.3712C74.5745 42.3622 74.6306 42.3649 74.6846 42.3781C74.7386 42.3919 74.7889 42.4162 74.8334 42.4496C74.8773 42.4834 74.9144 42.5258 74.9414 42.574C74.9689 42.6227 74.9858 42.6761 74.9917 42.7312C74.998 42.7863 74.9922 42.8424 74.9758 42.8953C74.9594 42.9483 74.9324 42.9975 74.8964 43.0398C74.8604 43.0822 74.8159 43.1166 74.7661 43.141C73.927 43.5878 72.9937 43.8287 72.0434 43.8435Z" fill="#282828"/>
<path d="M52.6723 31.8734H52.5578C52.5062 31.8581 52.4582 31.8332 52.4163 31.7998C52.3745 31.766 52.3396 31.7247 52.3138 31.6775C52.2616 31.5823 52.2494 31.4706 52.2798 31.3668C53.0237 28.76 53.5388 28.7192 53.7596 28.7028C54.1767 28.7028 71.5854 26.5296 80.7437 25.394C80.7966 25.3871 80.8512 25.3908 80.9025 25.4056C80.9544 25.4199 81.0026 25.4448 81.0444 25.4781C81.0867 25.5115 81.1212 25.5533 81.1471 25.6004C81.1725 25.6481 81.1884 25.7 81.1932 25.7534C81.2069 25.8604 81.1778 25.9689 81.1122 26.0547C81.046 26.1404 80.9491 26.1966 80.8416 26.2108C79.787 26.3416 55.567 29.3323 53.9067 29.4789C53.542 30.1338 53.2672 30.8347 53.0893 31.5627C53.0681 31.6558 53.0147 31.7379 52.938 31.7946C52.8616 31.8517 52.7674 31.8793 52.6723 31.8734Z" fill="#282828"/>
<path d="M64.2018 32.0617C64.1028 30.7334 63.639 29.458 62.8608 28.3764C62.3759 27.4727 61.7586 26.6463 61.029 25.9253C60.6616 25.5647 60.219 25.29 59.7325 25.1222C59.246 24.9538 58.7277 24.8961 58.2163 24.9527C57.7684 25.0454 57.3454 25.2323 56.9759 25.5012C56.6063 25.7707 56.2987 26.1159 56.0737 26.5134C55.6301 27.3092 55.3702 28.1943 55.3135 29.1039C55.1409 31.0971 55.4988 33.1004 56.3501 34.911C57.2019 36.7216 58.517 38.2754 60.1624 39.4152L59.8845 39.0886" fill="white"/>
<path d="M60.1623 39.7906C60.0803 39.789 60.0009 39.7636 59.9336 39.717C58.2422 38.5375 56.8879 36.937 56.0059 35.074C55.1239 33.211 54.7443 31.15 54.9048 29.0949C54.9588 28.1207 55.2388 27.1726 55.7222 26.325C55.9784 25.8713 56.331 25.479 56.7545 25.1756C57.1786 24.8723 57.663 24.6653 58.1755 24.5684C58.7488 24.4996 59.3301 24.561 59.8765 24.7473C60.4233 24.9342 60.9205 25.2418 61.3318 25.6468C62.091 26.4055 62.7332 27.2732 63.2366 28.2208C64.0551 29.3654 64.539 30.7149 64.6354 32.1183C64.6364 32.1723 64.6264 32.2263 64.6057 32.2766C64.5851 32.3269 64.5538 32.3725 64.5146 32.41C64.4755 32.4476 64.4289 32.4767 64.3775 32.4953C64.3267 32.5138 64.2722 32.5217 64.2182 32.5186C64.1642 32.5186 64.1107 32.508 64.0609 32.4868C64.0112 32.4656 63.9662 32.4344 63.9286 32.3958C63.8915 32.3566 63.8624 32.3105 63.8434 32.2602C63.8238 32.2094 63.8153 32.1559 63.8174 32.1019C63.7062 30.8536 63.2626 29.6571 62.5336 28.6375C62.0719 27.7623 61.4822 26.9608 60.7839 26.2599C60.4657 25.9406 60.0808 25.696 59.6562 25.543C59.2322 25.3906 58.7795 25.3339 58.3306 25.3773C57.942 25.4626 57.5762 25.6293 57.2559 25.8654C56.9361 26.1021 56.6698 26.4033 56.4745 26.7501C56.0536 27.5019 55.8132 28.341 55.7714 29.2013C55.6269 31.0007 55.9281 32.8087 56.6481 34.4642C57.3681 36.1202 58.4852 37.5734 59.9008 38.6957C59.9649 38.692 60.0284 38.7026 60.0882 38.7265C60.1475 38.7508 60.2005 38.7873 60.2439 38.8345L60.5223 39.1696C60.5869 39.2432 60.6229 39.3374 60.6229 39.4353C60.6229 39.5333 60.5869 39.6275 60.5223 39.7006C60.4731 39.7419 60.4149 39.7715 60.3524 39.7869C60.2905 39.8028 60.2253 39.8038 60.1623 39.7906Z" fill="#282828"/>
<path d="M73.1081 26.8185C73.5189 26.8116 73.8387 25.9582 73.8223 24.911C73.8059 23.8644 73.4591 23.021 73.0483 23.0274C72.6375 23.0337 72.3177 23.8877 72.3341 24.9343C72.3505 25.9815 72.6973 26.8248 73.1081 26.8185Z" fill="#282828"/>
<path d="M76.6223 161.513C63.4167 157.885 58.3142 147.459 57.1124 134.655C56.0573 123.453 58.9929 106.409 50.7426 97.3958C44.4709 90.5489 31.6168 88.9554 22.843 89.2254C8.40269 89.7157 2.61344 101.808 1.2479 114.612C-0.0528712 127.469 0.144698 140.433 1.83664 153.244C2.84239 161.219 3.04681 178.852 13.7422 180.519C37.774 184.253 68.8379 182.97 92.9843 182.349C96.0835 182.275 99.3458 182.161 101.979 180.609C104.047 179.399 105.127 177.528 104.13 175.224C103.484 173.941 102.552 172.823 101.407 171.956C95.2905 166.808 87.3911 164.406 79.713 162.322L76.6223 161.513Z" fill="#282828"/>
<path d="M56.0901 183.501C41.3718 183.501 26.4654 182.937 13.6849 180.951C4.03623 179.448 2.68705 165.794 1.80394 156.765C1.68129 155.499 1.56681 154.314 1.43599 153.334C-0.255939 140.484 -0.453497 127.482 0.847254 114.587C1.85301 105.215 6.03958 89.413 22.8431 88.8407C41.4046 88.2118 49.1317 95.0099 51.0533 97.1096C57.2432 103.875 57.2432 115.02 57.2511 124.891C57.2511 128.404 57.2511 131.721 57.5296 134.647C58.9029 149.297 65.1912 157.967 76.7367 161.145L78.6664 161.668L79.8443 161.987C87.8575 164.152 95.5599 166.53 101.693 171.702C102.887 172.609 103.858 173.777 104.53 175.117C105.528 177.421 104.685 179.571 102.208 181.017C99.395 182.651 95.8542 182.749 93.0007 182.814L85.4942 183.01C76.3444 183.223 66.2786 183.501 56.0901 183.501ZM24.8873 89.6333C24.2004 89.6333 23.5299 89.6333 22.8676 89.6333C6.68552 90.1807 2.63799 105.542 1.66494 114.653C0.356817 127.489 0.540656 140.433 2.21279 153.228C2.34362 154.241 2.4581 155.409 2.58892 156.684C3.40661 165.468 4.7558 178.745 13.7831 180.143C35.3455 183.501 63.1223 182.765 85.437 182.169L92.9515 181.973C95.8463 181.908 99.1334 181.826 101.766 180.29C102.985 179.579 104.857 177.994 103.745 175.387C103.125 174.164 102.233 173.099 101.137 172.274C95.1268 167.208 87.5224 164.863 79.5986 162.714L78.4212 162.404L76.4915 161.88C64.5697 158.612 58.0934 149.698 56.6788 134.663C56.4009 131.697 56.4009 128.363 56.4009 124.858C56.4009 115.167 56.4009 104.194 50.4155 97.6655C44.9942 91.7085 34.029 89.6333 24.8873 89.6333Z" fill="#282828"/>
<path d="M218.655 146.74H148.612V179.726H218.655V146.74Z" fill="white"/>
<path d="M218.663 180.126H148.579C148.47 180.126 148.367 180.083 148.29 180.006C148.213 179.93 148.17 179.826 148.17 179.717V146.74C148.17 146.631 148.213 146.527 148.29 146.451C148.367 146.374 148.47 146.331 148.579 146.331H218.63C218.739 146.331 218.843 146.374 218.919 146.451C218.996 146.527 219.039 146.631 219.039 146.74V179.717C219.039 179.821 219.001 179.92 218.931 179.995C218.861 180.072 218.766 180.118 218.663 180.126ZM149.02 179.309H218.254V147.148H149.02V179.309Z" fill="#282828"/>
<path d="M148.612 146.74H140.279V179.726H148.612V146.74Z" fill="white"/>
<path d="M148.579 180.126H140.279C140.171 180.126 140.067 180.083 139.99 180.006C139.913 179.93 139.871 179.826 139.871 179.717V146.74C139.871 146.631 139.913 146.527 139.99 146.451C140.067 146.374 140.171 146.331 140.279 146.331H148.579C148.687 146.331 148.791 146.374 148.868 146.451C148.945 146.527 148.988 146.631 148.988 146.74V179.717C148.988 179.826 148.945 179.93 148.868 180.006C148.791 180.083 148.687 180.126 148.579 180.126ZM140.656 179.309H148.17V147.148H140.656V179.309Z" fill="#282828"/>
<path d="M46.9975 127.22C46.889 127.22 46.785 127.177 46.7084 127.1C46.6317 127.024 46.5886 126.92 46.5886 126.812C46.5886 126.665 46.5886 111.622 43.3179 103.704C40.1534 95.9417 27.4956 94.2751 27.373 94.2587C27.2645 94.2455 27.1657 94.1899 27.0982 94.1041C27.0308 94.0184 27.0002 93.9093 27.0132 93.8013C27.0262 93.6928 27.0818 93.5938 27.1676 93.5265C27.2535 93.4593 27.3627 93.4286 27.4711 93.4413C28.0108 93.5069 40.7258 95.1899 44.0783 103.394C47.3491 111.45 47.3982 126.182 47.3982 126.803C47.3992 126.857 47.3897 126.91 47.3701 126.96C47.3506 127.01 47.3214 127.056 47.2842 127.094C47.247 127.134 47.2025 127.164 47.1533 127.186C47.1041 127.207 47.0512 127.219 46.9975 127.22Z" fill="white"/>
</g>
<defs>
<clipPath id="clip0_326_5264">
<rect width="225" height="184.021" fill="white"/>
</clipPath>
</defs>
</svg>
