<svg width="294" height="218" viewBox="0 0 294 218" fill="none" xmlns="http://www.w3.org/2000/svg">
<g clip-path="url(#clip0_326_5317)">
<path d="M175.018 48.1461H119.865L125.631 27.9707H180.783L175.018 48.1461Z" fill="white"/>
<path d="M175.018 48.7369H119.865C119.777 48.7356 119.69 48.7133 119.612 48.6716C119.533 48.6301 119.465 48.5702 119.412 48.4967C119.359 48.4231 119.323 48.338 119.307 48.2477C119.29 48.1575 119.294 48.0644 119.317 47.976L125.084 27.8006C125.117 27.6773 125.19 27.5692 125.289 27.4931C125.388 27.4171 125.508 27.3772 125.631 27.38H180.783C180.872 27.3793 180.96 27.4002 181.04 27.4412C181.12 27.4824 181.19 27.5423 181.241 27.6163C181.295 27.6903 181.33 27.7765 181.346 27.8676C181.362 27.9586 181.357 28.0525 181.332 28.1409L175.565 48.3165C175.531 48.4396 175.46 48.5477 175.36 48.6238C175.262 48.7 175.141 48.7397 175.018 48.7369ZM120.624 47.5153H174.595L180.024 28.4914H126.064L120.624 47.5153Z" fill="#282828"/>
<path d="M172.355 42.1184L173.729 37.3223H128.948L127.573 42.1184H172.355Z" fill="white"/>
<path d="M172.355 42.7091H127.574C127.484 42.7091 127.397 42.6874 127.319 42.6455C127.24 42.6037 127.173 42.5431 127.121 42.4687C127.067 42.3955 127.032 42.3103 127.016 42.22C126.998 42.1297 127.001 42.0368 127.025 41.9482L128.399 37.152C128.436 37.0306 128.509 36.9243 128.607 36.8486C128.705 36.773 128.825 36.732 128.948 36.7314H173.769C173.856 36.7324 173.943 36.7544 174.022 36.7962C174.1 36.8379 174.168 36.898 174.221 36.9718C174.271 37.046 174.307 37.1315 174.321 37.2218C174.337 37.3119 174.332 37.4046 174.307 37.4925L172.933 42.2885C172.897 42.417 172.82 42.529 172.715 42.6056C172.612 42.6822 172.484 42.7187 172.355 42.7091ZM128.333 41.5075H171.933L172.961 37.8929H129.37L128.333 41.5075Z" fill="#282828"/>
<path d="M149.637 42.1184L151.011 37.3223H128.948L127.573 42.1184H149.637Z" fill="#282828"/>
<path d="M149.637 42.7091H127.534C127.445 42.7083 127.358 42.6863 127.278 42.6445C127.197 42.603 127.128 42.5427 127.074 42.4687C127.023 42.3946 126.987 42.3091 126.973 42.2189C126.958 42.1286 126.963 42.0361 126.987 41.9482L128.361 37.1521C128.397 37.0297 128.47 36.9225 128.568 36.8466C128.666 36.7708 128.787 36.7304 128.908 36.7315H151.013C151.101 36.7328 151.188 36.755 151.266 36.7967C151.345 36.8385 151.412 36.8982 151.466 36.9718C151.519 37.0452 151.555 37.1304 151.571 37.2207C151.587 37.311 151.584 37.4039 151.56 37.4926L150.186 42.2885C150.152 42.4118 150.079 42.5199 149.981 42.596C149.882 42.672 149.76 42.7119 149.637 42.7091ZM128.342 41.5076H149.215L150.243 37.903H129.37L128.342 41.5076Z" fill="#282828"/>
<path d="M170.462 94.1743C170.462 94.1743 182.571 79.7263 184.608 73.2581C186.645 66.79 192.296 55.5958 193.699 57.7385C195.103 59.8812 190.537 71.4457 190.537 71.4457C190.537 71.4457 202.157 53.3029 205.761 55.6359C209.365 57.9688 212.402 65.3281 209.489 69.7236C206.577 74.1192 185.588 99.5811 185.588 99.5811L170.462 94.1743Z" fill="white"/>
<path d="M185.59 100.142C185.529 100.153 185.467 100.153 185.406 100.142L170.281 94.7752C170.191 94.743 170.113 94.6886 170.049 94.617C169.985 94.5455 169.94 94.4589 169.915 94.3648C169.888 94.2703 169.885 94.1703 169.905 94.0739C169.924 93.9776 169.969 93.888 170.031 93.814C170.156 93.6738 182.091 79.376 184.061 73.0979C185.743 67.7612 190.557 57.3081 193.066 56.9175C193.277 56.8851 193.49 56.9157 193.685 57.0062C193.879 57.0967 194.045 57.2432 194.162 57.4283C195.123 58.8902 193.922 63.5359 192.701 67.2006C196.545 61.6836 203.118 53.253 206.068 55.1854C208.627 57.1063 210.386 59.9706 210.988 63.1956C211.273 64.3571 211.327 65.5668 211.149 66.7511C210.97 67.9352 210.562 69.0692 209.951 70.0842C207.067 74.4497 186.887 98.9204 186.021 99.9617C185.966 100.021 185.898 100.068 185.823 100.099C185.748 100.13 185.67 100.144 185.59 100.142ZM171.443 93.9042L185.406 98.8603C187.791 95.9668 206.319 73.4484 209.019 69.3833C209.543 68.4939 209.889 67.5032 210.037 66.4706C210.183 65.4382 210.127 64.3854 209.874 63.3757C209.324 60.478 207.759 57.8973 205.483 56.1366C204.175 55.3056 198.832 59.591 191.067 71.7764C190.981 71.873 190.865 71.9366 190.74 71.957C190.614 71.9774 190.486 71.9533 190.375 71.8888C190.265 71.8242 190.177 71.7228 190.129 71.6008C190.081 71.4786 190.072 71.343 190.106 71.2156C191.97 66.5398 194.2 59.3707 193.325 58.079C192.086 58.079 187.386 66.6398 185.244 73.4384C183.378 79.2258 173.875 90.9505 171.443 93.9042Z" fill="#282828"/>
<path d="M123.152 199.758L125.189 215.276C125.189 215.276 34.0376 216.398 35.1236 215.276C36.2095 214.155 35.1236 191.387 35.1236 191.387L123.152 199.758Z" fill="#282828"/>
<path d="M57.2751 216.378C34.4074 216.977 34.2538 216.586 34.0711 216.126C34.0267 216.013 34.0148 215.89 34.0371 215.77C34.0592 215.651 34.1146 215.542 34.196 215.455C34.7439 214.383 35.0565 201.97 34.5568 191.416C34.5523 191.333 34.5653 191.248 34.5949 191.17C34.6247 191.09 34.6701 191.02 34.7284 190.96C34.7867 190.901 34.8565 190.856 34.933 190.829C35.0094 190.799 35.0909 190.788 35.1718 190.795L123.21 199.166C123.337 199.181 123.456 199.239 123.549 199.331C123.641 199.422 123.701 199.545 123.719 199.676L125.825 215.514C125.835 215.595 125.828 215.679 125.805 215.759C125.782 215.838 125.743 215.911 125.69 215.974C125.639 216.039 125.574 216.091 125.501 216.128C125.428 216.163 125.349 216.183 125.268 216.183C125.037 216.183 102.529 216.148 80.32 216.287C70.7773 216.348 63.2526 216.378 57.2751 216.378ZM35.835 214.856C41.4953 215.468 90.9681 215.097 124.536 214.687L122.614 200.307L35.6908 192.038C36.0848 199.708 36.4883 211.521 35.835 214.856Z" fill="#282828"/>
<path d="M91.2759 12.4716C91.0644 12.1111 90.853 11.7508 90.632 11.3902C88.5966 8.16619 85.792 5.54856 82.4935 3.79327C79.195 2.03816 75.5156 1.20568 71.8154 1.37759C68.7523 1.50981 65.7129 1.99681 62.7531 2.82948C59.7644 3.71056 58.7264 6.49398 56.1894 7.83572C55.6503 8.06883 55.0721 8.18807 54.4885 8.18622C52.6257 8.34385 50.8009 8.82083 49.0875 9.59805C44.417 11.7107 41.2936 18.4791 39.6119 23.1651C36.4519 32.3753 34.4963 41.987 33.7978 51.7409C33.0193 60.7523 32.0008 70.8451 35.2778 79.506C38.4319 88.144 43.0509 96.1207 48.9146 103.055C59.7836 115.482 76.1014 122.85 92.1599 121.498C101.77 120.688 110.871 116.973 119.337 112.266C124.2 109.564 129.004 106.43 132.321 101.844C138.577 93.2133 138.087 80.0867 131.359 71.8063C124.123 62.7949 112.735 58.9501 105.518 49.7785C97.5609 39.5958 97.8491 23.7958 91.2759 12.4716Z" fill="white"/>
<path d="M88.4498 122.299C73.8329 122.299 58.8124 115.291 48.491 103.517C42.5677 96.541 37.9139 88.4997 34.7583 79.786C31.5389 71.3053 32.3942 61.4429 33.1534 52.7521L33.2399 51.7508C33.9296 41.9448 35.892 32.2813 39.0733 23.0245C40.928 17.8581 44.1378 11.2497 48.8658 9.10701C50.6375 8.30586 52.5242 7.81534 54.4494 7.65511H54.6032C55.0542 7.65085 55.5007 7.55924 55.9197 7.38491C56.8867 6.81261 57.7568 6.0786 58.4952 5.21217C59.5764 3.87359 60.994 2.87512 62.5891 2.32842C65.5918 1.47757 68.6768 0.980563 71.7859 0.846668C75.5831 0.671602 79.3591 1.52282 82.7472 3.31761C86.1352 5.1124 89.0201 7.78975 91.1215 11.0895C91.3521 11.45 91.5635 11.8205 91.7751 12.1809C94.7637 17.3473 96.3589 23.4952 97.9159 29.4326C99.7706 36.5517 101.693 43.9109 105.998 49.4579C109.602 54.0636 114.378 57.3978 119 60.6119C123.623 63.8259 128.217 67.0399 131.829 71.5256C138.71 80.0664 139.133 93.5534 132.792 102.315C129.302 107.14 124.142 110.324 119.625 112.899C109.64 118.445 100.683 121.479 92.2267 122.199C90.9773 122.249 89.7088 122.299 88.4498 122.299ZM72.6029 1.99813H71.834C68.8155 2.14055 65.8213 2.63089 62.9062 3.45985C61.5064 3.96743 60.2645 4.86019 59.3121 6.04318C58.4804 6.99677 57.5069 7.80477 56.429 8.43623C55.8762 8.68566 55.2824 8.82178 54.68 8.83662H54.5165C52.7169 8.98702 50.9535 9.44713 49.2984 10.1984C44.9931 12.1708 41.9179 18.4788 40.188 23.4852C37.0447 32.6427 35.1052 42.2014 34.4219 51.9009L34.3354 52.9021C33.5954 61.4729 32.7498 71.1851 35.8635 79.4156C38.9747 87.9914 43.5563 95.9066 49.3848 102.775C60.3692 115.332 76.7736 122.319 92.1978 121.029C100.491 120.328 109.304 117.333 119.106 111.866C123.556 109.403 128.543 106.25 131.906 101.614C137.923 93.3031 137.509 80.4269 130.945 72.2965C127.438 67.941 122.816 64.717 118.347 61.6031C113.657 58.339 108.814 54.9649 105.095 50.2088C100.645 44.5216 98.6847 37.0422 96.8011 29.8031C95.273 23.9356 93.6874 17.8781 90.7852 12.8518C90.5833 12.4913 90.3719 12.1408 90.1509 11.7905C88.2386 8.76615 85.6323 6.28667 82.5681 4.57682C79.5039 2.86678 76.0787 1.98051 72.6029 1.99813Z" fill="#282828"/>
<path d="M31.0106 205.535C27.7527 183.507 15.3652 92.8527 29.617 78.3745C45.8677 61.8537 90.5547 62.5745 98.7425 77.5133C103.192 85.6136 115.704 99.2507 116.665 116.973C118.03 142.115 125.218 189.425 126.938 205.555L31.0106 205.535Z" fill="#E73343"/>
<path d="M67.0768 205.535L57.1016 77.4932L82.4818 80.2866L96.2819 205.535H67.0768Z" fill="#282828"/>
<path d="M96.2827 206.125H67.0969C66.955 206.123 66.8189 206.067 66.7142 205.967C66.6096 205.869 66.544 205.732 66.5298 205.585L56.5256 77.5533C56.5178 77.4667 56.5289 77.3793 56.5577 77.2977C56.5866 77.2161 56.6328 77.1423 56.6926 77.0817C56.7527 77.0212 56.8249 76.9754 56.9042 76.948C56.9833 76.9203 57.0676 76.9116 57.1503 76.9226L82.5307 79.716C82.6594 79.7306 82.7795 79.79 82.872 79.8844C82.9643 79.979 83.0235 80.103 83.0401 80.2367L96.8883 205.464C96.8986 205.546 96.892 205.63 96.8688 205.709C96.8457 205.789 96.8064 205.863 96.7537 205.924C96.6945 205.993 96.6216 206.047 96.5402 206.08C96.4586 206.115 96.3707 206.13 96.2827 206.125ZM67.6062 204.943H95.6485L81.9732 80.7873L57.727 78.1141L67.6062 204.943Z" fill="#282828"/>
<path d="M81.0314 63.7558L82.4728 80.2867C82.4728 80.2867 77.6678 86.054 71.1714 86.5946C60.6002 87.4857 57.0926 77.4933 57.0926 77.4933C56.6793 69.8336 56.2085 62.184 55.8144 54.5343C55.5453 49.3178 52.8545 38.5943 57.6405 35.0998C58.9666 34.0986 60.5234 33.5178 61.8784 32.6267C63.9142 31.2703 65.545 29.3472 66.5861 27.0752C67.6271 24.8031 68.037 22.2728 67.7693 19.7705C69.5473 22.0334 71.4405 24.3864 74.0353 25.5078C76.2331 26.2763 78.5562 26.5791 80.8679 26.3989C83.1552 26.3989 85.9806 25.8683 88.2198 26.3188C90.6222 26.8095 89.8726 26.3188 90.4973 28.4815C91.2372 31.0949 90.8721 34.6492 91.0355 37.3727C91.3239 42.2989 91.737 47.2552 91.737 52.1913C91.295 60.8723 81.0314 63.7558 81.0314 63.7558Z" fill="white"/>
<path d="M69.8738 87.2452C60.0042 87.2452 56.6021 77.7933 56.5638 77.6932C56.5546 77.637 56.5546 77.5793 56.5638 77.5229C56.3715 74.0687 56.1794 70.6243 55.9775 67.17C55.7404 62.978 55.5066 58.7761 55.276 54.5641C55.276 53.4928 55.0646 52.141 54.8916 50.7092C54.2093 45.1724 53.2867 37.5828 57.3517 34.6089C58.1307 34.0642 58.9465 33.5789 59.7927 33.1572C60.4077 32.8267 61.042 32.4963 61.6187 32.156C63.5542 30.8545 65.1047 29.0187 66.0973 26.853C67.09 24.6873 67.4858 22.2768 67.2406 19.8904C67.2258 19.763 67.2504 19.6342 67.3108 19.5225C67.3714 19.4107 67.4646 19.3222 67.5769 19.2697C67.6913 19.2167 67.8194 19.2046 67.9411 19.2354C68.0629 19.2662 68.1712 19.3382 68.2496 19.4398C69.893 21.5326 71.7668 23.9054 74.2848 24.9968C76.4179 25.7255 78.6669 26.0146 80.9061 25.848C81.6364 25.848 82.4149 25.7779 83.2413 25.7179C84.9442 25.5111 86.6655 25.5313 88.3636 25.7779L89.2381 25.938C90.3818 26.1483 90.622 26.2785 90.8334 27.3198C90.8815 27.5601 90.9487 27.9006 91.0736 28.321C91.5302 30.3743 91.7049 32.4846 91.5926 34.5889C91.5926 35.5901 91.5926 36.5014 91.5926 37.3525C91.6598 38.5139 91.7368 39.6754 91.8136 40.8369C92.0442 44.5615 92.2941 48.4064 92.2941 52.2011C91.8713 60.2113 83.645 63.5055 81.6173 64.2163L83.0299 80.2364C83.0371 80.3154 83.0289 80.3954 83.0057 80.471C82.9827 80.5467 82.9451 80.6168 82.8954 80.6771C82.6936 80.9172 77.8405 86.6345 71.2096 87.1851C70.7612 87.2251 70.3158 87.2452 69.8738 87.2452ZM57.6594 77.3629C58.0245 78.3641 61.5034 86.7947 71.1135 86.0038C76.6393 85.5431 80.9927 80.9973 81.8768 80.0762L80.4352 63.8057C80.4241 63.667 80.4605 63.5285 80.5379 63.415C80.6152 63.3013 80.7287 63.2199 80.8581 63.185C80.9542 63.185 90.7277 60.3014 91.1504 52.1711C91.1504 48.4565 90.9102 44.6316 90.6699 40.9268C90.5931 39.7555 90.5258 38.5941 90.4586 37.4326C90.4008 36.5415 90.4104 35.6002 90.4104 34.5989C90.5131 32.6099 90.3547 30.6158 89.9396 28.6715C89.83 28.2999 89.7402 27.9221 89.6705 27.5401C89.6486 27.4149 89.6197 27.2912 89.584 27.1696C89.3867 27.1616 89.1905 27.1349 88.9979 27.0894L88.0945 26.9294C86.4992 26.7193 84.8847 26.7193 83.2894 26.9294C82.4438 26.9893 81.646 27.0494 80.887 27.0594C78.4963 27.2482 76.0937 26.9314 73.8235 26.1283C71.699 25.046 69.8511 23.4537 68.4321 21.4825C68.3785 23.7997 67.7823 26.0684 66.6954 28.0909C65.6084 30.1132 64.0636 31.8285 62.1953 33.0871C61.5706 33.4875 60.9171 33.838 60.2733 34.1685C59.4758 34.5713 58.7052 35.0295 57.9668 35.5403C54.4688 38.1034 55.3434 45.2823 55.9775 50.5591C56.1602 52.0109 56.3236 53.3826 56.3811 54.5041C56.5925 58.696 56.8263 62.8946 57.0826 67.0999C57.2813 70.5242 57.4735 73.9452 57.6594 77.3629Z" fill="#282828"/>
<path d="M62.2914 45.1425C61.0901 41.6281 56.679 39.1349 53.1714 40.036C48.6451 41.2475 49.2024 46.6744 50.9707 50.0486C51.5095 51.0651 52.2364 51.9601 53.1095 52.6817C53.9825 53.4034 54.9843 53.9375 56.0568 54.2532C57.1293 54.569 58.2513 54.6599 59.3577 54.5208C60.4641 54.3817 61.533 54.0152 62.5027 53.4429" fill="white"/>
<path d="M58.3317 55.1549C56.724 55.1538 55.1456 54.7035 53.7614 53.8513C52.3773 52.999 51.2376 51.7756 50.4611 50.3087C49.3848 48.3062 48.5391 44.9619 49.5673 42.3886C49.882 41.6518 50.3595 41.0028 50.9606 40.4946C51.562 39.9865 52.27 39.6338 53.0269 39.465C56.7557 38.4638 61.5224 41.1272 62.8197 44.9419C62.845 45.0155 62.856 45.0936 62.8523 45.1717C62.8486 45.2498 62.8302 45.3264 62.7979 45.397C62.7659 45.4677 62.7208 45.5311 62.665 45.5836C62.6094 45.6361 62.5445 45.6767 62.4738 45.7028C62.403 45.7291 62.3282 45.7406 62.2531 45.7367C62.1783 45.733 62.1047 45.7138 62.0369 45.6802C61.969 45.6468 61.9083 45.5997 61.8578 45.5418C61.8076 45.4838 61.7685 45.4161 61.7434 45.3425C61.0594 43.6742 59.8523 42.2972 58.3196 41.4369C56.7867 40.5766 55.0191 40.2838 53.3057 40.6064C52.7197 40.7374 52.1711 41.0093 51.704 41.4006C51.2367 41.7917 50.8639 42.2913 50.6149 42.8593C49.7692 44.8618 50.4322 47.7854 51.4605 49.728C51.9615 50.6786 52.6389 51.5159 53.4534 52.1914C54.2679 52.8668 55.203 53.3667 56.2046 53.662C57.2062 53.9574 58.2542 54.0423 59.2875 53.9118C60.3208 53.7812 61.3191 53.438 62.2239 52.902C62.2884 52.8614 62.3602 52.8347 62.4349 52.8237C62.5096 52.813 62.5855 52.818 62.6584 52.8386C62.7311 52.8592 62.7992 52.8948 62.8582 52.9435C62.9174 52.9923 62.9664 53.0531 63.0024 53.1223C63.04 53.1898 63.0644 53.2646 63.0742 53.3421C63.084 53.4196 63.0788 53.4982 63.0592 53.5737C63.0394 53.6492 63.0057 53.7198 62.9596 53.7816C62.9136 53.8432 62.8562 53.8949 62.7908 53.9333C61.4296 54.7317 59.894 55.1523 58.3317 55.1549Z" fill="#282828"/>
<path d="M79.5894 34.9697C79.5894 34.9697 86.2395 42.7796 85.1247 44.4516C84.01 46.1238 80.2044 45.6732 80.2044 45.6732" fill="white"/>
<path d="M81.4254 46.3236C80.7912 46.3236 80.3107 46.3236 80.1761 46.2635C80.0264 46.2433 79.8902 46.163 79.7967 46.0393C79.7033 45.9158 79.6602 45.7589 79.6764 45.6026C79.6835 45.5243 79.7058 45.4483 79.7418 45.3791C79.778 45.3101 79.8271 45.2493 79.8865 45.2007C79.9458 45.1519 80.0139 45.1163 80.0868 45.0959C80.1599 45.0755 80.236 45.0707 80.3107 45.082C81.2044 45.1922 83.9434 45.2422 84.693 44.0808C85.1446 43.3998 82.5306 39.2246 79.2055 35.3197C79.1437 35.2637 79.0939 35.1945 79.0599 35.1168C79.0257 35.0391 79.0079 34.9549 79.0073 34.8694C79.007 34.7839 79.0241 34.6996 79.0574 34.6215C79.0909 34.5434 79.1399 34.4739 79.2012 34.4171C79.2625 34.3604 79.3347 34.3179 79.413 34.2927C79.4914 34.2673 79.5739 34.2597 79.6553 34.2702C79.7366 34.2808 79.8148 34.3094 79.8849 34.3539C79.9547 34.3984 80.0148 34.4581 80.0608 34.5288C82.1462 36.9817 86.8744 42.8892 85.6347 44.7515C84.7698 46.0933 82.7612 46.3236 81.4254 46.3236Z" fill="#282828"/>
<path d="M81.031 63.7554C81.031 63.7554 75.1016 65.5077 67.4712 61.3223C67.4712 61.3223 71.1998 72.6867 81.8093 72.7067L81.031 63.7554Z" fill="#282828"/>
<path d="M81.8095 73.2975C70.9212 73.2975 66.9714 61.6328 66.9331 61.5126C66.8953 61.4003 66.8918 61.2786 66.9226 61.164C66.9536 61.0492 67.0176 60.9474 67.106 60.8719C67.1917 60.7937 67.2981 60.7441 67.4113 60.7299C67.5245 60.7156 67.6391 60.7373 67.7403 60.7918C75.0729 64.7968 80.81 63.2049 80.8678 63.1849C80.9485 63.1602 81.0335 63.1546 81.1165 63.1684C81.1998 63.1823 81.2787 63.2153 81.3482 63.265C81.4185 63.3147 81.4773 63.38 81.5204 63.4562C81.5635 63.5322 81.5901 63.6173 81.5981 63.7054L82.3764 72.6467C82.3846 72.7293 82.3759 72.8125 82.3511 72.8913C82.3261 72.97 82.2857 73.0425 82.2322 73.1039C82.1788 73.1653 82.1135 73.2142 82.0406 73.2476C81.9677 73.281 81.889 73.298 81.8095 73.2975ZM68.6148 62.5339C69.9795 65.4277 73.7754 71.7156 81.1848 72.0659L80.5216 64.4465C76.4585 65.0659 72.3102 64.3997 68.6148 62.5339Z" fill="#282828"/>
<path d="M71.1425 39.0942C71.7529 39.0942 72.2477 37.9198 72.2477 36.471C72.2477 35.0221 71.7529 33.8477 71.1425 33.8477C70.5321 33.8477 70.0374 35.0221 70.0374 36.471C70.0374 37.9198 70.5321 39.0942 71.1425 39.0942Z" fill="#282828"/>
<path d="M85.8058 37.5703C86.4152 37.5345 86.8457 36.333 86.7677 34.8864C86.6896 33.4399 86.1323 32.2963 85.5228 32.3319C84.9135 32.3677 84.4827 33.5692 84.5609 35.0157C84.639 36.4622 85.1963 37.6061 85.8058 37.5703Z" fill="#282828"/>
<path d="M77.4655 58.209C77.1723 58.2066 76.8798 58.1799 76.5909 58.1289C76.1719 58.0549 75.7731 57.888 75.4214 57.6391C75.0698 57.3904 74.7738 57.0657 74.5535 56.687C72.8814 53.9336 74.3132 48.2364 74.371 47.9861C74.4095 47.8392 74.5009 47.7134 74.6262 47.635C74.7515 47.5567 74.901 47.5317 75.0436 47.5654L83.6927 49.4379C83.8337 49.4693 83.9582 49.5546 84.0418 49.6768C84.1254 49.7992 84.162 49.9496 84.1445 50.0987C83.7706 52.8308 82.4471 55.3249 80.4254 57.1076C79.5801 57.8006 78.5408 58.1873 77.4655 58.209ZM75.3512 48.8471C74.9572 50.6595 74.467 54.324 75.5145 56.0463C75.6499 56.2868 75.8347 56.4932 76.0557 56.6509C76.2767 56.8083 76.5284 56.9131 76.7927 56.9574C77.3074 57.052 77.8353 57.0321 78.3421 56.8992C78.8488 56.7664 79.3229 56.5235 79.7333 56.1863C81.3815 54.7183 82.5002 52.7087 82.9048 50.4893L75.3512 48.8471Z" fill="#282828"/>
<path d="M137.481 118.955C141.632 116.793 174.653 79.1051 174.653 79.1051L193.874 95.8761C193.526 98.6297 163.351 164.372 145.688 161.017C128.024 157.664 90.1223 134.105 90.1223 134.105L98.7714 77.4932C98.7714 77.4932 133.319 121.118 137.481 118.955Z" fill="#E73343"/>
<path d="M125.189 191.977C125.056 191.977 124.927 191.929 124.825 191.838C124.723 191.749 124.654 191.625 124.632 191.487L109.611 100.834C109.599 100.756 109.601 100.677 109.617 100.601C109.634 100.525 109.665 100.453 109.708 100.389C109.751 100.326 109.806 100.272 109.869 100.23C109.933 100.188 110.003 100.16 110.077 100.147C110.151 100.134 110.227 100.136 110.3 100.153C110.373 100.171 110.442 100.203 110.503 100.248C110.564 100.293 110.616 100.35 110.656 100.416C110.696 100.482 110.723 100.556 110.736 100.633L125.718 191.287C125.732 191.363 125.73 191.441 125.714 191.517C125.699 191.593 125.668 191.665 125.625 191.729C125.582 191.792 125.528 191.847 125.464 191.888C125.401 191.929 125.33 191.957 125.256 191.968L125.189 191.977Z" fill="#282828"/>
<path d="M74.929 165.664C74.9963 165.093 79.3785 164.463 80.0031 164.272C82.2231 163.591 84.5489 163.15 86.8167 162.669C91.2277 161.749 95.9463 160.737 100.463 161.158C108.391 161.909 98.6564 167.166 98.6564 167.166C98.6564 167.166 117.05 162.28 115.955 167.166C114.859 172.051 106.21 176.567 100.799 178.069C95.389 179.571 73.3818 178.069 73.3818 178.069L74.929 165.664Z" fill="white"/>
<path d="M91.2376 179.312C83.3381 179.312 73.9394 178.68 73.3628 178.641C73.2072 178.628 73.0627 178.552 72.9592 178.43C72.9109 178.368 72.875 178.296 72.8537 178.218C72.8321 178.14 72.8257 178.061 72.8342 177.981C72.8342 177.981 74.3527 165.665 74.3623 165.574C74.4487 164.884 75.2368 164.573 78.7637 163.922C79.2827 163.822 79.7248 163.742 79.8498 163.692C81.7717 163.111 83.7803 162.69 85.7214 162.29L86.9515 162.03C91.401 161.099 95.9947 160.137 100.511 160.558C101.934 160.699 103.856 161.038 104.115 162.41C104.327 163.532 103.154 164.764 101.886 165.775C106.46 164.773 114.11 163.462 116.051 165.444C116.284 165.678 116.451 165.975 116.534 166.301C116.617 166.628 116.613 166.973 116.522 167.297C115.378 172.453 106.739 177.03 100.963 178.63C99.0986 179.142 95.37 179.312 91.2376 179.312ZM74.0356 177.499C77.6106 177.731 95.9081 178.801 100.675 177.499C106.229 175.958 114.436 171.492 115.417 167.036C115.463 166.909 115.473 166.772 115.444 166.641C115.414 166.507 115.348 166.388 115.253 166.296C113.6 164.602 104.278 166.296 98.7912 167.748C98.6563 167.781 98.5144 167.761 98.3921 167.692C98.2699 167.625 98.1759 167.512 98.128 167.377C98.0774 167.241 98.0769 167.091 98.1266 166.958C98.1765 166.822 98.2729 166.711 98.3971 166.646C100.742 165.374 103.202 163.471 103 162.64C102.943 162.331 102.232 161.91 100.406 161.739C96.0523 161.329 91.5452 162.281 87.1725 163.191L85.9424 163.451C84.0205 163.842 82.0408 164.252 80.1764 164.834C80.0034 164.884 79.5421 164.973 78.9752 165.085C77.7904 165.272 76.6211 165.552 75.4771 165.925C75.2944 167.286 74.3238 175.207 74.0356 177.499Z" fill="#282828"/>
<path d="M27.2723 82.1191C26.8975 83.1204 -7.50665 168.378 9.97406 179.563C27.4548 190.745 81.8481 186.411 81.8481 186.411L79.5896 161.138L35.9118 155.031L27.2723 82.1191Z" fill="#E73343"/>
<path d="M77.6677 161.73H77.5717L26.3305 153.27C26.1815 153.244 26.0481 153.159 25.9598 153.031C25.8714 152.903 25.8354 152.743 25.8597 152.587C25.8839 152.433 25.9664 152.294 26.0889 152.202C26.2115 152.111 26.364 152.072 26.5132 152.098L77.7543 160.558C77.9017 160.582 78.034 160.667 78.1222 160.794C78.2102 160.918 78.2473 161.075 78.2252 161.229C78.2065 161.368 78.1397 161.496 78.037 161.589C77.9345 161.682 77.8032 161.732 77.6677 161.73Z" fill="#282828"/>
<path d="M33.3075 153.279C33.1571 153.279 33.0129 153.216 32.9065 153.106C32.8001 152.995 32.7404 152.845 32.7404 152.687C32.5962 138.571 36.3346 103.016 36.3731 102.625C36.3947 102.471 36.4724 102.33 36.5905 102.234C36.7085 102.135 36.8577 102.091 37.0074 102.104C37.1564 102.122 37.2925 102.2 37.3861 102.323C37.4798 102.445 37.5233 102.601 37.5071 102.755C37.5071 103.116 33.7399 138.6 33.8744 152.648C33.8771 152.726 33.8644 152.804 33.8377 152.876C33.8108 152.949 33.7702 153.015 33.7181 153.071C33.6661 153.129 33.6039 153.173 33.5349 153.203C33.4659 153.232 33.392 153.249 33.3171 153.249L33.3075 153.279Z" fill="#282828"/>
<path d="M137.288 165.274H72.4592L83.751 123.392H148.58L137.288 165.274Z" fill="white"/>
<path d="M137.251 165.865H72.4596C72.3726 165.863 72.2869 165.843 72.2089 165.802C72.1308 165.763 72.062 165.706 72.008 165.633C71.9547 165.561 71.9183 165.476 71.9018 165.385C71.885 165.296 71.8886 165.201 71.9117 165.114L83.2133 123.23C83.2465 123.108 83.3167 123 83.4136 122.922C83.5108 122.844 83.6291 122.802 83.7514 122.8H148.58C148.67 122.802 148.755 122.824 148.833 122.865C148.912 122.907 148.981 122.967 149.033 123.041C149.087 123.111 149.122 123.195 149.138 123.284C149.156 123.373 149.153 123.464 149.129 123.551L137.828 165.433C137.793 165.563 137.716 165.676 137.611 165.754C137.507 165.834 137.379 165.873 137.251 165.865ZM73.2092 164.663H136.857L147.821 123.981H84.1839L73.2092 164.663Z" fill="#282828"/>
<path d="M137.912 165.273H55.0547V168.717H137.912V165.273Z" fill="white"/>
<path d="M137.914 169.309H55.0552C54.9804 169.311 54.906 169.296 54.8367 169.266C54.7672 169.237 54.7043 169.194 54.6514 169.138C54.5984 169.084 54.5567 169.018 54.5288 168.945C54.5006 168.873 54.4869 168.795 54.4881 168.717V165.273C54.4869 165.196 54.5006 165.118 54.5288 165.045C54.5567 164.973 54.5984 164.908 54.6514 164.853C54.7043 164.797 54.7672 164.754 54.8367 164.725C54.906 164.697 54.9804 164.682 55.0552 164.684H137.914C138.064 164.684 138.208 164.745 138.315 164.856C138.42 164.967 138.481 165.118 138.481 165.273V168.717C138.481 168.875 138.42 169.025 138.315 169.136C138.208 169.246 138.064 169.309 137.914 169.309ZM55.6221 168.128H137.308V165.865H55.6221V168.128Z" fill="#282828"/>
<path d="M73.4196 165.273H55.0547V168.717H73.4196V165.273Z" fill="white"/>
<path d="M73.4201 169.309H55.0552C54.9804 169.311 54.906 169.296 54.8367 169.266C54.7672 169.237 54.7043 169.194 54.6514 169.138C54.5984 169.084 54.5567 169.018 54.5288 168.945C54.5006 168.873 54.4869 168.795 54.4881 168.717V165.273C54.4869 165.196 54.5006 165.118 54.5288 165.045C54.5567 164.973 54.5984 164.908 54.6514 164.853C54.7043 164.797 54.7672 164.754 54.8367 164.725C54.906 164.697 54.9804 164.682 55.0552 164.684H73.4201C73.4949 164.682 73.5693 164.697 73.6386 164.725C73.7079 164.754 73.771 164.797 73.8239 164.853C73.8769 164.908 73.9186 164.973 73.9466 165.045C73.9745 165.118 73.9884 165.196 73.987 165.273V168.717C73.9884 168.795 73.9745 168.873 73.9466 168.945C73.9186 169.018 73.8769 169.084 73.8239 169.138C73.771 169.194 73.7079 169.237 73.6386 169.266C73.5693 169.296 73.4949 169.311 73.4201 169.309ZM55.6221 168.128H72.8626V165.865H55.6221V168.128Z" fill="#282828"/>
<path d="M91.2944 168.838C95.321 167.506 98.8288 164.923 102.461 162.67C105.344 160.858 108.573 159.155 111.995 158.666C113.275 158.595 114.558 158.595 115.839 158.666C116.963 158.666 118.539 158.195 119.308 159.367C120.797 161.618 119.663 167.226 111.303 172.953" fill="white"/>
<path d="M111.303 173.574C111.182 173.572 111.065 173.53 110.969 173.454C110.873 173.378 110.802 173.272 110.768 173.151C110.733 173.031 110.737 172.901 110.778 172.782C110.819 172.664 110.895 172.563 110.996 172.493C115.609 169.329 118.597 165.704 119.193 162.551C119.317 162.08 119.349 161.588 119.288 161.106C119.227 160.622 119.074 160.157 118.838 159.736C118.434 159.116 117.636 159.135 116.55 159.235H115.868C115.321 159.267 114.772 159.267 114.225 159.235C113.509 159.161 112.788 159.161 112.072 159.235C108.749 159.89 105.584 161.223 102.76 163.161C102.01 163.621 101.261 164.101 100.511 164.584C97.6967 166.564 94.6596 168.178 91.468 169.389C91.324 169.433 91.1691 169.416 91.0364 169.344C90.9036 169.272 90.8033 169.147 90.7569 168.999C90.7115 168.849 90.7245 168.688 90.7927 168.548C90.8612 168.411 90.9797 168.306 91.1221 168.257C94.2251 167.074 97.1781 165.5 99.9154 163.571L102.174 162.139C104.961 160.418 108.295 158.586 111.909 158.065C112.701 157.98 113.5 157.98 114.292 158.065C114.821 158.065 115.311 158.124 115.82 158.065H116.445C117.502 157.974 118.962 157.835 119.779 159.066C120.099 159.617 120.311 160.231 120.401 160.867C120.492 161.505 120.46 162.156 120.308 162.781C119.923 164.784 118.29 168.908 111.611 173.474C111.521 173.539 111.413 173.574 111.303 173.574Z" fill="#282828"/>
<path d="M239.598 146.5H149.263C149.172 146.502 149.083 146.481 149.003 146.439C148.923 146.398 148.853 146.337 148.8 146.261C148.748 146.185 148.712 146.098 148.7 146.005C148.687 145.912 148.695 145.818 148.725 145.729L188.183 18.1481C188.219 18.0274 188.29 17.9213 188.386 17.8457C188.483 17.77 188.6 17.7287 188.721 17.7275H279.057C279.148 17.7272 279.237 17.7496 279.317 17.7932C279.397 17.837 279.467 17.9002 279.518 17.9779C279.57 18.0539 279.604 18.1411 279.62 18.2329C279.634 18.3249 279.629 18.4191 279.604 18.5087L240.146 146.088C240.108 146.209 240.035 146.315 239.937 146.389C239.837 146.463 239.72 146.502 239.598 146.5ZM150.012 145.319H239.185L278.326 18.9191H189.144L150.012 145.319Z" fill="#282828"/>
<path d="M224.701 37.1227H194.421C194.351 37.124 194.282 37.1073 194.219 37.0741C194.157 37.0409 194.103 36.9923 194.064 36.9324C194.021 36.8755 193.991 36.808 193.98 36.7362C193.968 36.6644 193.973 36.5906 193.996 36.522L197.582 24.9473C197.611 24.854 197.666 24.7726 197.743 24.7151C197.819 24.6574 197.91 24.6267 198.005 24.627H228.306C228.375 24.6257 228.443 24.6424 228.506 24.6756C228.568 24.7088 228.621 24.7574 228.661 24.8173C228.702 24.8772 228.73 24.9464 228.741 25.0193C228.753 25.0921 228.748 25.1671 228.728 25.2377L225.144 36.8022C225.114 36.899 225.055 36.9829 224.975 37.0407C224.895 37.0986 224.799 37.1275 224.701 37.1227ZM195.007 36.2016H224.385L227.68 25.5482H198.322L195.007 36.2016Z" fill="#D1D3D4"/>
<path d="M265.824 25.5481H236.159C236.041 25.5481 235.929 25.4995 235.845 25.4131C235.763 25.3268 235.715 25.2096 235.715 25.0874C235.718 24.9661 235.765 24.8504 235.849 24.7646C235.93 24.6789 236.041 24.6295 236.159 24.627H265.824C265.941 24.627 266.054 24.6754 266.137 24.7618C266.219 24.8482 266.266 24.9654 266.266 25.0874C266.267 25.1484 266.257 25.2089 266.235 25.2653C266.214 25.3218 266.182 25.3732 266.139 25.4162C266.098 25.4593 266.05 25.4932 265.995 25.5158C265.941 25.5384 265.882 25.5494 265.824 25.5481Z" fill="#D1D3D4"/>
<path d="M263.557 32.8772H233.89C233.831 32.8785 233.772 32.8676 233.719 32.8449C233.665 32.8223 233.615 32.7884 233.574 32.7453C233.533 32.7023 233.5 32.6509 233.478 32.5946C233.457 32.538 233.446 32.4775 233.448 32.4165C233.448 32.2945 233.494 32.1773 233.576 32.0909C233.66 32.0047 233.772 31.9561 233.89 31.9561H263.557C263.673 31.9561 263.785 32.0047 263.869 32.0909C263.951 32.1773 263.999 32.2945 263.999 32.4165C263.999 32.4775 263.988 32.538 263.967 32.5946C263.945 32.6509 263.913 32.7023 263.872 32.7453C263.829 32.7884 263.781 32.8223 263.726 32.8449C263.673 32.8676 263.614 32.8785 263.557 32.8772Z" fill="#D1D3D4"/>
<path d="M261.288 40.2164H231.621C231.557 40.2263 231.493 40.2216 231.43 40.2027C231.368 40.1838 231.309 40.1512 231.261 40.107C231.211 40.0629 231.172 40.0082 231.145 39.9466C231.119 39.8852 231.104 39.8185 231.104 39.7508C231.104 39.6833 231.119 39.6165 231.145 39.5549C231.172 39.4935 231.211 39.4388 231.261 39.3947C231.309 39.3506 231.368 39.3179 231.43 39.299C231.493 39.2801 231.557 39.2755 231.621 39.2853H261.288C261.395 39.3016 261.493 39.3578 261.564 39.4433C261.635 39.5288 261.675 39.6378 261.675 39.7508C261.675 39.8639 261.635 39.9729 261.564 40.0584C261.493 40.1439 261.395 40.1999 261.288 40.2164Z" fill="#D1D3D4"/>
<path d="M259.019 47.5151H229.344C229.237 47.4988 229.139 47.4426 229.067 47.3573C228.996 47.2718 228.957 47.1626 228.957 47.0497C228.957 46.9367 228.996 46.8275 229.067 46.742C229.139 46.6565 229.237 46.6005 229.344 46.584H259.019C259.126 46.6005 259.224 46.6565 259.295 46.742C259.367 46.8275 259.406 46.9367 259.406 47.0497C259.406 47.1626 259.367 47.2718 259.295 47.3573C259.224 47.4426 259.126 47.4988 259.019 47.5151Z" fill="#D1D3D4"/>
<path d="M226.624 79.5555H221.532C221.462 79.5562 221.395 79.5403 221.332 79.5091C221.272 79.4778 221.217 79.432 221.176 79.3752C221.133 79.3165 221.102 79.2471 221.092 79.1739C221.079 79.1004 221.085 79.0251 221.108 78.9546L224.252 68.802C224.28 68.7085 224.335 68.6273 224.412 68.5696C224.489 68.5119 224.58 68.4811 224.674 68.4815H229.768C229.837 68.4802 229.905 68.4969 229.967 68.5301C230.03 68.5633 230.083 68.6119 230.122 68.6718C230.163 68.7298 230.192 68.7973 230.202 68.8686C230.215 68.94 230.21 69.0132 230.19 69.0822L227.048 79.2451C227.018 79.3374 226.962 79.4175 226.886 79.4734C226.809 79.5294 226.718 79.5581 226.624 79.5555ZM222.136 78.6344H226.298L229.181 69.4027H225.011L222.136 78.6344Z" fill="#D1D3D4"/>
<path d="M238.406 79.5562H233.351C233.284 79.5547 233.216 79.5378 233.155 79.5067C233.093 79.4757 233.04 79.431 232.997 79.3759C232.954 79.3158 232.927 79.2467 232.915 79.1738C232.904 79.1009 232.908 79.0262 232.929 78.9553L238.753 60.1818C238.78 60.0892 238.834 60.008 238.908 59.9503C238.983 59.8927 239.072 59.8615 239.165 59.8613H244.269C244.339 59.8624 244.407 59.8802 244.467 59.9132C244.529 59.9463 244.583 59.9936 244.624 60.0516C244.663 60.1106 244.69 60.1784 244.701 60.2497C244.71 60.3209 244.704 60.3937 244.683 60.462L238.83 79.2557C238.798 79.3461 238.741 79.424 238.666 79.4781C238.589 79.5321 238.498 79.5595 238.406 79.5562ZM233.929 78.6349H238.089L243.615 60.7825H239.454L233.929 78.6349Z" fill="#D1D3D4"/>
<path d="M250.226 79.5555H245.132C245.064 79.5564 244.997 79.5405 244.934 79.5091C244.874 79.478 244.818 79.4321 244.777 79.3754C244.736 79.3153 244.708 79.2461 244.697 79.1733C244.685 79.1004 244.69 79.0256 244.71 78.9548L252.398 54.0735C252.427 53.9802 252.484 53.8988 252.558 53.8411C252.635 53.7836 252.728 53.7526 252.82 53.753H257.914C257.984 53.7517 258.053 53.7684 258.115 53.8016C258.178 53.8348 258.23 53.8836 258.271 53.9433C258.312 54.0015 258.338 54.0688 258.351 54.1402C258.361 54.2116 258.358 54.2847 258.336 54.3539L250.65 79.2452C250.619 79.3374 250.562 79.4175 250.488 79.4735C250.411 79.5295 250.32 79.5583 250.226 79.5555ZM245.738 78.6343H249.908L257.376 54.6843H253.205L245.738 78.6343Z" fill="#D1D3D4"/>
<path d="M254.667 79.5559H217.062C217.003 79.5572 216.944 79.5463 216.891 79.5238C216.836 79.5012 216.786 79.4674 216.743 79.4246C216.702 79.3816 216.668 79.3304 216.645 79.2738C216.622 79.2173 216.611 79.1566 216.611 79.0952C216.613 78.9723 216.661 78.8551 216.747 78.769C216.83 78.6828 216.944 78.6346 217.062 78.6348H254.667C254.784 78.6348 254.897 78.6832 254.979 78.7696C255.062 78.856 255.109 78.9732 255.109 79.0952C255.111 79.1561 255.1 79.2167 255.078 79.2731C255.055 79.3297 255.023 79.381 254.982 79.424C254.941 79.4671 254.891 79.501 254.838 79.5236C254.783 79.5463 254.726 79.5572 254.667 79.5559Z" fill="#D1D3D4"/>
<path d="M179.457 134.375H164.303C164.234 134.375 164.164 134.358 164.102 134.325C164.041 134.292 163.988 134.243 163.947 134.184C163.906 134.125 163.877 134.054 163.866 133.982C163.854 133.91 163.859 133.834 163.881 133.763L174.403 99.8108C174.43 99.7182 174.485 99.637 174.558 99.5793C174.633 99.5216 174.724 99.4905 174.816 99.4903H189.971C190.042 99.489 190.11 99.5057 190.172 99.5389C190.234 99.5721 190.288 99.6207 190.327 99.6806C190.368 99.7386 190.397 99.8061 190.407 99.8773C190.42 99.9487 190.414 100.022 190.395 100.091L179.882 134.054C179.851 134.147 179.796 134.229 179.719 134.286C179.643 134.344 179.552 134.375 179.457 134.375ZM164.918 133.453H179.131L189.366 100.411H175.143L164.918 133.453Z" fill="#D1D3D4"/>
<path d="M216.294 132.753C211.325 132.753 207.212 130.75 204.713 127.195C202.031 123.362 201.494 118.184 203.204 112.678C206.586 101.764 217.859 92.8926 228.344 92.8926C228.413 92.8919 228.481 92.9078 228.543 92.939C228.604 92.9703 228.657 93.0161 228.7 93.0729C228.741 93.1328 228.77 93.2019 228.78 93.275C228.793 93.3479 228.787 93.4226 228.768 93.4935L222.924 112.357H241.038C241.11 112.355 241.177 112.372 241.24 112.405C241.302 112.439 241.356 112.487 241.395 112.548C241.438 112.604 241.468 112.672 241.479 112.743C241.491 112.815 241.486 112.889 241.462 112.958C238.041 123.872 226.768 132.753 216.294 132.753ZM204.05 112.958C202.427 118.195 202.917 123.061 205.424 126.655C207.759 129.99 211.614 131.822 216.294 131.822C226.221 131.822 236.896 123.562 240.386 113.279H222.318C222.248 113.279 222.181 113.262 222.118 113.231C222.056 113.197 222.002 113.147 221.963 113.088C221.919 113.03 221.89 112.964 221.879 112.891C221.867 112.821 221.872 112.747 221.896 112.678L227.739 93.8237C217.782 94.1542 207.26 102.615 204.05 112.958Z" fill="#D1D3D4"/>
<path d="M244.883 110.404H226.221C226.152 110.404 226.082 110.385 226.021 110.352C225.959 110.319 225.906 110.272 225.865 110.215C225.825 110.155 225.799 110.087 225.79 110.016C225.779 109.944 225.784 109.872 225.808 109.803L231.833 90.3388C231.862 90.2455 231.917 90.1641 231.994 90.1066C232.07 90.049 232.161 90.0182 232.256 90.0186C237.214 90.0186 241.327 92.0211 243.788 95.5754C246.469 99.4103 247.007 104.586 245.296 110.094C245.268 110.185 245.212 110.263 245.137 110.319C245.064 110.374 244.975 110.404 244.883 110.404ZM226.806 109.482H244.556C246.064 104.367 245.517 99.6306 243.086 96.1162C240.808 92.8521 237.069 91.0298 232.514 90.9397L226.806 109.482Z" fill="#D1D3D4"/>
<path d="M196.16 133.433H185.704C185.587 133.433 185.474 133.385 185.392 133.298C185.308 133.213 185.262 133.096 185.262 132.973C185.26 132.912 185.271 132.851 185.294 132.795C185.316 132.738 185.348 132.688 185.389 132.643C185.43 132.601 185.48 132.567 185.533 132.545C185.588 132.523 185.645 132.512 185.704 132.512H196.16C196.219 132.512 196.276 132.523 196.332 132.545C196.385 132.567 196.435 132.601 196.476 132.643C196.517 132.688 196.549 132.738 196.572 132.795C196.593 132.851 196.604 132.912 196.602 132.973C196.602 133.096 196.556 133.213 196.472 133.298C196.39 133.385 196.278 133.433 196.16 133.433Z" fill="#D1D3D4"/>
<path d="M193.845 126.944H187.714C187.597 126.944 187.484 126.896 187.401 126.811C187.319 126.724 187.271 126.607 187.271 126.484C187.271 126.362 187.319 126.245 187.401 126.158C187.484 126.073 187.597 126.024 187.714 126.024H193.845C193.963 126.024 194.075 126.073 194.157 126.158C194.241 126.245 194.287 126.362 194.287 126.484C194.287 126.607 194.241 126.724 194.157 126.811C194.075 126.896 193.963 126.944 193.845 126.944Z" fill="#D1D3D4"/>
<path d="M194.642 83.6312C190.086 83.6312 186.301 81.809 184.004 78.5148C181.534 74.9903 181.043 70.2543 182.619 65.168C185.724 55.1553 196.073 46.9951 205.684 46.9951C210.249 46.9951 214.025 48.8073 216.331 52.1015C218.793 55.626 219.283 60.372 217.716 65.4484C214.631 75.471 204.271 83.6312 194.642 83.6312ZM205.702 47.9162C196.429 47.9162 186.483 55.7862 183.457 65.4484C181.976 70.2443 182.418 74.6899 184.715 77.9741C186.848 80.9778 190.375 82.7001 194.642 82.7001C203.916 82.7001 213.861 74.8401 216.889 65.168C218.379 60.372 217.926 55.9264 215.631 52.6423C213.507 49.5985 209.98 47.9162 205.702 47.9162Z" fill="#D1D3D4"/>
<path d="M256.415 185.91H200.311C200.222 185.91 200.135 185.888 200.054 185.845C199.974 185.804 199.905 185.743 199.851 185.669C199.798 185.593 199.764 185.506 199.752 185.413C199.737 185.32 199.744 185.227 199.773 185.138L214.745 136.788C214.781 136.667 214.852 136.563 214.95 136.489C215.046 136.415 215.164 136.376 215.284 136.376H271.416C271.507 136.376 271.596 136.398 271.676 136.441C271.757 136.484 271.826 136.547 271.88 136.623C271.931 136.699 271.965 136.788 271.979 136.88C271.992 136.973 271.985 137.068 271.954 137.157L256.982 185.498C256.946 185.624 256.87 185.732 256.768 185.806C256.665 185.88 256.54 185.917 256.415 185.91ZM201.101 184.688H256.03L270.629 137.528H215.697L201.101 184.688Z" fill="#282828"/>
<path d="M184.455 205.956H137.914C137.825 205.956 137.736 205.933 137.656 205.891C137.575 205.85 137.506 205.789 137.453 205.715C137.397 205.64 137.36 205.553 137.344 205.461C137.33 205.368 137.337 205.273 137.365 205.184L149.782 165.134C149.819 165.014 149.891 164.91 149.987 164.838C150.083 164.763 150.201 164.723 150.32 164.723H196.832C196.923 164.723 197.011 164.745 197.091 164.786C197.171 164.828 197.241 164.888 197.294 164.964C197.348 165.04 197.381 165.127 197.394 165.22C197.408 165.311 197.399 165.405 197.371 165.494L184.956 205.544C184.924 205.659 184.858 205.759 184.769 205.833C184.68 205.906 184.569 205.948 184.455 205.956ZM138.693 204.773H184.041L196.084 165.865H150.705L138.693 204.773Z" fill="#282828"/>
<path d="M194.421 173.574H147.937C147.786 173.574 147.643 173.511 147.536 173.401C147.429 173.29 147.37 173.14 147.37 172.982C147.37 172.827 147.429 172.676 147.536 172.565C147.643 172.454 147.786 172.393 147.937 172.393H194.421C194.571 172.393 194.715 172.454 194.822 172.565C194.929 172.676 194.988 172.827 194.988 172.982C194.988 173.14 194.929 173.29 194.822 173.401C194.715 173.511 194.571 173.574 194.421 173.574Z" fill="#282828"/>
<path d="M260.971 152.156H217.062C217.003 152.158 216.944 152.147 216.891 152.125C216.836 152.102 216.786 152.069 216.743 152.024C216.702 151.982 216.668 151.932 216.645 151.874C216.622 151.819 216.611 151.757 216.611 151.696C216.613 151.574 216.661 151.455 216.747 151.37C216.83 151.285 216.944 151.236 217.062 151.236H260.971C261.088 151.238 261.199 151.288 261.281 151.374C261.363 151.459 261.411 151.574 261.412 151.696C261.412 151.819 261.366 151.935 261.284 152.023C261.2 152.108 261.088 152.156 260.971 152.156Z" fill="#D1D3D4"/>
<path d="M259.019 159.046H250.055C249.937 159.046 249.825 158.997 249.741 158.91C249.659 158.825 249.613 158.706 249.613 158.584C249.614 158.463 249.661 158.348 249.744 158.261C249.826 158.176 249.937 158.128 250.055 158.124H259.019C259.137 158.128 259.247 158.176 259.329 158.261C259.413 158.348 259.459 158.463 259.463 158.584C259.463 158.706 259.415 158.825 259.333 158.91C259.249 158.997 259.137 159.046 259.019 159.046Z" fill="#D1D3D4"/>
<path d="M243.74 159.046H232.737C232.619 159.046 232.507 158.997 232.423 158.91C232.341 158.825 232.295 158.706 232.295 158.586C232.296 158.463 232.345 158.348 232.427 158.261C232.509 158.176 232.619 158.128 232.737 158.124H243.74C243.858 158.124 243.97 158.172 244.052 158.259C244.136 158.345 244.182 158.463 244.182 158.586C244.182 158.645 244.173 158.706 244.15 158.762C244.129 158.819 244.097 158.871 244.056 158.914C244.015 158.957 243.965 158.99 243.911 159.012C243.856 159.036 243.797 159.048 243.74 159.046Z" fill="#D1D3D4"/>
<path d="M225.433 159.046H215.093C214.975 159.046 214.863 158.997 214.779 158.91C214.697 158.825 214.651 158.706 214.651 158.584C214.652 158.463 214.699 158.348 214.783 158.261C214.864 158.176 214.975 158.128 215.093 158.124H225.422C225.54 158.128 225.65 158.176 225.732 158.261C225.814 158.348 225.863 158.463 225.864 158.584C225.864 158.704 225.82 158.821 225.738 158.907C225.658 158.994 225.547 159.042 225.433 159.046Z" fill="#D1D3D4"/>
<path d="M256.857 166.535H223.74C223.683 166.537 223.624 166.526 223.571 166.503C223.516 166.481 223.467 166.446 223.425 166.403C223.384 166.361 223.352 166.309 223.33 166.253C223.309 166.195 223.298 166.136 223.298 166.075C223.311 165.962 223.362 165.856 223.444 165.782C223.526 165.706 223.631 165.663 223.74 165.665H256.877C256.993 165.667 257.103 165.717 257.187 165.802C257.269 165.888 257.315 166.004 257.319 166.125C257.306 166.242 257.251 166.349 257.166 166.425C257.08 166.501 256.97 166.54 256.857 166.535Z" fill="#D1D3D4"/>
<path d="M217.592 166.534H212.949C212.89 166.536 212.833 166.525 212.778 166.503C212.724 166.48 212.675 166.447 212.634 166.402C212.593 166.36 212.561 166.308 212.537 166.252C212.516 166.195 212.505 166.135 212.507 166.074C212.507 165.952 212.553 165.835 212.637 165.748C212.719 165.662 212.831 165.614 212.949 165.614H217.592C217.708 165.616 217.818 165.666 217.9 165.751C217.984 165.837 218.03 165.954 218.034 166.074C218.034 166.197 217.986 166.313 217.904 166.401C217.82 166.486 217.708 166.534 217.592 166.534Z" fill="#D1D3D4"/>
<path d="M254.004 174.034H242.211C242.104 174.018 242.006 173.962 241.937 173.877C241.865 173.792 241.826 173.682 241.826 173.569C241.826 173.456 241.865 173.346 241.937 173.261C242.006 173.176 242.104 173.12 242.211 173.104H254.004C254.111 173.12 254.209 173.176 254.28 173.261C254.35 173.346 254.389 173.456 254.389 173.569C254.389 173.682 254.35 173.792 254.28 173.877C254.209 173.962 254.111 174.018 254.004 174.034Z" fill="#D1D3D4"/>
<path d="M233.102 174.034H210.095C209.989 174.018 209.891 173.962 209.819 173.877C209.748 173.792 209.709 173.682 209.709 173.569C209.709 173.456 209.748 173.346 209.819 173.261C209.891 173.176 209.989 173.12 210.095 173.104H233.102C233.209 173.12 233.307 173.176 233.378 173.261C233.448 173.346 233.487 173.456 233.487 173.569C233.487 173.682 233.448 173.792 233.378 173.877C233.307 173.962 233.209 174.018 233.102 174.034Z" fill="#D1D3D4"/>
<path d="M192.517 79.7061C192.368 79.6933 192.227 79.6206 192.127 79.503C192.027 79.3856 191.974 79.2323 191.979 79.0752C192.229 73.9788 190.202 71.8962 190.183 71.8762C190.078 71.7657 190.019 71.6162 190.019 71.4606C190.019 71.305 190.078 71.1557 190.183 71.0452C190.234 70.9897 190.297 70.9458 190.365 70.9157C190.434 70.8855 190.507 70.8701 190.582 70.8701C190.655 70.8701 190.73 70.8855 190.798 70.9157C190.865 70.9458 190.928 70.9897 190.979 71.0452C191.076 71.1353 193.421 73.4683 193.143 79.1653C193.127 79.3231 193.054 79.4685 192.936 79.5698C192.82 79.671 192.669 79.72 192.517 79.7061Z" fill="#282828"/>
<path d="M165.369 177.068L167.071 176.587L167.955 176.378C168.117 176.318 168.294 176.33 168.449 176.406C168.604 176.483 168.723 176.621 168.782 176.788C168.907 177.179 168.992 177.598 169.097 177.999C169.14 178.219 169.204 178.434 169.29 178.64C169.322 178.714 169.368 178.779 169.425 178.833C169.484 178.887 169.552 178.928 169.627 178.95C170.261 179.091 170.915 179.2 171.548 179.3C171.676 179.31 171.803 179.289 171.922 179.243C172.042 179.197 172.15 179.124 172.241 179.03L173.556 177.809C173.724 177.652 173.908 177.513 174.105 177.398C174.243 177.322 174.405 177.299 174.556 177.338C175.342 177.698 176.062 178.199 176.681 178.82C176.775 178.924 176.832 179.059 176.841 179.202C176.85 179.345 176.809 179.486 176.729 179.601C176.44 180.152 176.162 180.702 175.864 181.244C175.743 181.409 175.674 181.607 175.661 181.813C175.651 182.019 175.697 182.225 175.797 182.405C176.055 182.865 176.296 183.345 176.556 183.807C176.604 183.894 176.677 183.965 176.764 184.011C176.852 184.057 176.948 184.078 177.046 184.067H178.131H179.092C179.42 184.067 179.641 184.237 179.661 184.578C179.726 185.409 179.785 186.24 179.814 187.08C179.808 187.256 179.755 187.425 179.661 187.57C179.564 187.714 179.431 187.826 179.276 187.892C178.853 188.111 178.411 188.282 177.978 188.482C177.777 188.573 177.565 188.673 177.372 188.783C177.24 188.846 177.123 188.935 177.025 189.048C176.927 189.159 176.852 189.291 176.805 189.433C176.604 190.014 176.412 190.606 176.191 191.186C176.119 191.338 176.093 191.509 176.116 191.676C176.137 191.844 176.207 192 176.315 192.126L177.353 193.328C177.488 193.471 177.565 193.664 177.565 193.864C177.565 194.064 177.488 194.257 177.353 194.4C176.854 195.071 176.392 195.731 175.825 196.403C175.709 196.603 175.529 196.755 175.317 196.833C175.105 196.909 174.873 196.905 174.663 196.824C174.335 196.712 174.018 196.562 173.701 196.442C173.384 196.323 173.23 196.273 172.99 196.202C172.879 196.175 172.763 196.173 172.651 196.195C172.537 196.217 172.43 196.264 172.337 196.332C171.788 196.692 171.241 197.054 170.703 197.425C170.559 197.517 170.436 197.643 170.343 197.792C170.25 197.942 170.19 198.109 170.165 198.285C170.117 198.674 170.078 199.066 170.021 199.446C169.99 199.693 169.946 199.937 169.887 200.177C169.851 200.353 169.769 200.514 169.648 200.642C169.527 200.77 169.372 200.859 169.204 200.898L166.907 201.49C166.791 201.49 166.666 201.49 166.552 201.49C166.429 201.506 166.306 201.477 166.205 201.406C166.103 201.338 166.028 201.23 165.994 201.108L165.618 199.657V199.546C165.588 199.335 165.485 199.14 165.328 199.003C165.171 198.864 164.97 198.791 164.765 198.795C164.332 198.795 163.918 198.656 163.496 198.585C163.286 198.552 163.07 198.572 162.868 198.647C162.667 198.719 162.487 198.843 162.343 199.006C161.929 199.407 161.516 199.808 161.093 200.188C160.671 200.568 160.382 200.638 159.969 200.368C159.382 199.976 158.805 199.566 158.238 199.146C157.932 198.916 157.893 198.624 158.094 198.205C158.297 197.784 158.547 197.343 158.776 196.913C159.277 195.982 159.286 195.832 158.864 195.051L158.354 194.149C158.274 193.975 158.138 193.836 157.969 193.753C157.802 193.671 157.611 193.652 157.431 193.699C157 193.699 156.558 193.779 156.125 193.79C155.918 193.78 155.711 193.751 155.51 193.699C155.41 193.693 155.315 193.651 155.246 193.576C155.176 193.5 155.137 193.402 155.135 193.298C155.135 192.497 155.048 191.696 155.009 190.906C155 190.793 155 190.678 155.009 190.565C155.028 190.42 155.084 190.283 155.171 190.166C155.257 190.051 155.371 189.96 155.501 189.905L157.017 189.213L157.47 188.974C157.593 188.912 157.705 188.825 157.796 188.719C157.887 188.612 157.955 188.488 157.998 188.352C158.181 187.792 158.374 187.221 158.566 186.661C158.627 186.516 158.646 186.355 158.618 186.199C158.591 186.043 158.52 185.901 158.411 185.789L157.451 184.717C157.076 184.237 157.066 184.007 157.518 183.416C157.969 182.826 158.479 182.104 159.056 181.463C159.153 181.3 159.302 181.177 159.479 181.116C159.653 181.057 159.844 181.062 160.017 181.133C160.459 181.294 160.892 181.463 161.314 181.663C161.532 181.761 161.772 181.795 162.008 181.761C162.243 181.728 162.464 181.628 162.649 181.474C163.13 181.123 163.612 180.803 164.102 180.472C164.202 180.408 164.289 180.32 164.357 180.22C164.424 180.118 164.472 180.003 164.496 179.881C164.581 179.33 164.658 178.79 164.745 178.249C164.779 177.88 164.92 177.531 165.148 177.248L165.369 177.068ZM169.377 193.168C172.001 191.507 173.173 188.282 172.049 185.869C171.088 183.866 168.204 182.865 165.321 184.647C162.756 186.279 161.544 189.534 162.64 191.867C163.966 194.621 167.358 194.609 169.377 193.168Z" fill="#282828"/>
<path d="M166.504 202.04C166.257 202.062 166.009 201.991 165.806 201.845C165.602 201.696 165.455 201.479 165.389 201.229L165.014 199.768V199.627C165.014 199.467 164.956 199.376 164.669 199.347C164.38 199.317 164.043 199.258 163.706 199.208L163.323 199.137C163.198 199.119 163.072 199.132 162.954 199.178C162.836 199.223 162.731 199.299 162.649 199.397C162.239 199.81 161.817 200.211 161.382 200.599C161.163 200.864 160.858 201.032 160.525 201.075C160.193 201.118 159.858 201.031 159.584 200.829C158.989 200.428 158.402 200.018 157.836 199.588C157.705 199.499 157.595 199.386 157.509 199.252C157.422 199.119 157.361 198.97 157.331 198.813C157.301 198.655 157.301 198.494 157.331 198.336C157.361 198.178 157.422 198.028 157.508 197.895C157.682 197.535 157.873 197.184 158.065 196.825L158.201 196.584C158.595 195.862 158.595 195.862 158.286 195.311L157.787 194.41C157.762 194.356 157.72 194.312 157.666 194.286C157.615 194.262 157.556 194.256 157.499 194.271H157.066L156.173 194.321C155.913 194.332 155.651 194.315 155.394 194.271C155.16 194.241 154.945 194.123 154.788 193.937C154.633 193.754 154.547 193.516 154.549 193.27L154.501 192.478C154.501 191.938 154.453 191.408 154.424 190.866C154.408 190.723 154.408 190.579 154.424 190.436C154.458 190.189 154.551 189.956 154.695 189.759C154.84 189.561 155.032 189.405 155.25 189.305L156.768 188.613L157.173 188.403C157.235 188.376 157.292 188.335 157.338 188.283C157.385 188.231 157.419 188.17 157.442 188.103C157.615 187.573 157.796 187.101 157.969 186.521V186.4C158.028 186.23 157.969 186.191 157.969 186.13L157.287 185.349L157.037 185.06C156.896 184.926 156.782 184.763 156.704 184.581C156.627 184.399 156.586 184.201 156.586 184.003C156.586 183.804 156.627 183.606 156.704 183.424C156.782 183.242 156.896 183.079 157.037 182.946C157.538 182.276 158.065 181.625 158.595 180.945C158.766 180.685 159.019 180.494 159.308 180.403C159.598 180.312 159.908 180.325 160.19 180.444C160.651 180.613 161.15 180.783 161.535 180.995C161.664 181.05 161.806 181.065 161.944 181.041C162.081 181.017 162.209 180.952 162.314 180.854C162.612 180.633 162.918 180.423 163.275 180.214L163.822 179.843C163.957 179.752 163.966 179.672 163.966 179.643L164.072 178.971C164.12 178.65 164.168 178.33 164.227 177.97C164.268 177.477 164.46 177.009 164.774 176.638C164.808 176.599 164.847 176.566 164.89 176.538L165.071 176.429C165.116 176.397 165.164 176.373 165.216 176.358L165.686 176.228L166.927 175.878C167.233 175.787 167.533 175.728 167.887 175.657C168.185 175.568 168.506 175.602 168.78 175.75C169.056 175.898 169.267 176.152 169.367 176.458C169.454 176.729 169.522 177.009 169.588 177.289L169.743 177.881C169.768 178 169.803 178.116 169.848 178.23C170.414 178.37 171.049 178.48 171.692 178.58C171.781 178.558 171.862 178.51 171.924 178.441L172.491 177.911L173.239 177.23C173.442 177.037 173.665 176.868 173.904 176.729C174.05 176.649 174.212 176.603 174.376 176.592C174.542 176.579 174.708 176.601 174.865 176.659C175.713 177.048 176.488 177.595 177.151 178.27C177.331 178.465 177.444 178.717 177.47 178.986C177.497 179.255 177.435 179.524 177.296 179.752L176.987 180.344C176.806 180.694 176.624 181.054 176.421 181.404C176.219 181.755 176.296 181.875 176.344 181.955C176.527 182.256 176.681 182.565 176.845 182.877L177.114 183.378C177.322 183.333 177.534 183.309 177.747 183.307H178.352C178.622 183.307 178.882 183.307 179.14 183.307C179.281 183.298 179.422 183.32 179.554 183.368C179.686 183.417 179.809 183.493 179.912 183.589C180.017 183.687 180.103 183.806 180.161 183.938C180.222 184.069 180.258 184.212 180.265 184.359C180.333 185.199 180.39 186.041 180.418 186.881C180.425 187.172 180.347 187.458 180.197 187.702C180.046 187.945 179.828 188.138 179.573 188.253C179.276 188.403 178.978 188.533 178.679 188.663L178.247 188.854L177.67 189.134C177.534 189.201 177.427 189.319 177.372 189.464L177.239 189.855C177.084 190.315 176.93 190.777 176.757 191.226C176.681 191.437 176.757 191.497 176.757 191.567C176.757 191.638 177.094 191.958 177.267 192.159C177.44 192.359 177.622 192.559 177.795 192.769C178.017 193.015 178.142 193.342 178.142 193.679C178.142 194.019 178.017 194.343 177.795 194.592C177.287 195.261 176.777 195.933 176.258 196.593C176.075 196.893 175.797 197.118 175.472 197.229C175.15 197.34 174.799 197.331 174.48 197.205L173.874 196.975L173.499 196.825C173.28 196.736 173.056 196.661 172.828 196.604C172.828 196.604 172.74 196.604 172.635 196.654L172.298 196.875L171.012 197.735C170.933 197.783 170.867 197.848 170.817 197.926C170.767 198.004 170.735 198.093 170.723 198.186L170.655 198.696C170.655 198.917 170.607 199.137 170.578 199.358C170.55 199.577 170.491 199.877 170.434 200.139C170.373 200.419 170.238 200.675 170.044 200.88C169.851 201.086 169.607 201.231 169.338 201.3L167.032 201.88C166.887 201.913 166.74 201.93 166.59 201.93L166.504 202.04ZM166.417 200.849L166.494 201.45V200.849H166.695C167.465 200.658 168.224 200.469 168.992 200.257C169.097 200.257 169.204 200.178 169.261 199.968C169.318 199.757 169.349 199.527 169.377 199.308L169.463 198.666L169.53 198.145C169.564 197.885 169.652 197.639 169.789 197.418C169.924 197.199 170.106 197.012 170.318 196.875L171.626 195.992L171.953 195.773C172.113 195.66 172.295 195.586 172.485 195.551C172.674 195.515 172.87 195.523 173.057 195.573C173.318 195.641 173.567 195.732 173.817 195.823L174.23 195.992L174.758 196.192C174.979 196.274 175.057 196.292 175.307 195.962C175.825 195.311 176.324 194.651 176.825 193.959C176.978 193.759 176.95 193.729 176.882 193.65L176.372 193.049L175.854 192.439C175.674 192.233 175.556 191.977 175.515 191.704C175.474 191.43 175.512 191.148 175.624 190.896C175.786 190.456 175.941 190.006 176.094 189.564L176.228 189.164C176.371 188.728 176.67 188.368 177.066 188.162C177.276 188.053 177.497 187.943 177.709 187.853L178.16 187.652C178.44 187.532 178.709 187.411 178.978 187.272C179.083 187.211 179.208 187.111 179.208 187.011C179.208 186.18 179.122 185.349 179.055 184.529C178.809 184.563 178.561 184.583 178.315 184.589H177.709H177.046C176.854 184.585 176.665 184.531 176.497 184.435C176.33 184.336 176.189 184.197 176.085 184.029L175.806 183.517C175.652 183.227 175.499 182.927 175.335 182.645C175.182 182.376 175.105 182.065 175.118 181.749C175.13 181.436 175.228 181.132 175.403 180.874C175.595 180.533 175.768 180.193 175.941 179.873L176.258 179.272C176.264 179.235 176.264 179.198 176.258 179.162C175.706 178.63 175.077 178.194 174.394 177.87C174.221 177.959 174.063 178.074 173.922 178.211L173.182 178.892L172.607 179.422C172.457 179.576 172.279 179.695 172.081 179.767C171.881 179.841 171.671 179.865 171.462 179.843C170.799 179.743 170.136 179.632 169.493 179.481C169.338 179.439 169.194 179.363 169.069 179.257C168.944 179.151 168.843 179.02 168.771 178.871C168.682 178.676 168.614 178.472 168.57 178.261L168.426 177.681C168.358 177.419 168.301 177.169 168.224 176.93C168.224 176.93 168.156 176.93 168.051 176.93L167.196 177.13L165.975 177.48L165.533 177.619C165.414 177.816 165.344 178.038 165.332 178.27L165.071 179.902C165.041 180.108 164.97 180.303 164.859 180.475C164.751 180.648 164.606 180.794 164.437 180.904L163.879 181.284L162.986 181.914C162.719 182.137 162.398 182.276 162.058 182.319C161.719 182.361 161.375 182.304 161.065 182.155C160.66 181.964 160.247 181.805 159.816 181.645C159.652 181.584 159.632 181.584 159.459 181.796C158.941 182.436 158.422 183.077 157.932 183.728C157.843 183.838 157.77 183.958 157.711 184.088C157.711 184.088 157.711 184.147 157.864 184.297L158.133 184.609C158.345 184.869 158.566 185.119 158.787 185.369C158.967 185.56 159.09 185.803 159.138 186.067C159.188 186.33 159.163 186.603 159.065 186.851V186.961L158.536 188.533C158.47 188.739 158.367 188.928 158.229 189.091C158.092 189.255 157.926 189.388 157.739 189.484C157.575 189.585 157.413 189.664 157.249 189.744L155.731 190.436C155.688 190.454 155.651 190.484 155.624 190.523C155.597 190.562 155.581 190.608 155.577 190.657C155.572 190.725 155.572 190.796 155.577 190.866C155.577 191.397 155.577 191.927 155.654 192.468V193.119C155.807 193.132 155.961 193.132 156.116 193.119L156.96 193.069H157.402C157.672 193.04 157.944 193.092 158.185 193.223C158.427 193.353 158.625 193.553 158.757 193.8L159.258 194.71C159.514 195.067 159.648 195.502 159.634 195.947C159.62 196.391 159.459 196.817 159.181 197.155L159.046 197.405C158.864 197.735 158.671 198.075 158.507 198.407C158.474 198.46 158.45 198.522 158.44 198.586C159.037 199.007 159.604 199.408 160.179 199.797L160.334 199.877C160.441 199.827 160.539 199.755 160.623 199.668C161.035 199.287 161.448 198.896 161.853 198.496C162.061 198.271 162.318 198.104 162.603 198.006C162.888 197.91 163.191 197.884 163.485 197.935L163.89 198.006C164.159 198.006 164.437 198.106 164.726 198.136C165.054 198.143 165.369 198.271 165.617 198.496C165.864 198.72 166.028 199.03 166.08 199.367L166.485 200.879C166.465 200.864 166.442 200.853 166.417 200.849ZM166.417 194.722C165.957 194.723 165.497 194.662 165.052 194.542C164.428 194.39 163.845 194.095 163.346 193.678C162.847 193.258 162.446 192.73 162.17 192.127C160.938 189.525 162.236 185.941 165.052 184.118C165.756 183.643 166.547 183.326 167.374 183.19C168.203 183.053 169.048 183.099 169.857 183.328C170.434 183.489 170.971 183.774 171.436 184.164C171.901 184.553 172.282 185.039 172.558 185.59C173.817 188.283 172.558 191.817 169.675 193.65C168.698 194.334 167.547 194.701 166.369 194.701L166.417 194.722ZM168.397 184.309C167.435 184.325 166.497 184.62 165.686 185.16C163.4 186.612 162.275 189.564 163.236 191.608C163.439 192.049 163.733 192.439 164.096 192.748C164.46 193.058 164.884 193.281 165.34 193.399C165.982 193.555 166.649 193.572 167.296 193.448C167.944 193.323 168.561 193.062 169.108 192.678C171.491 191.176 172.567 188.303 171.568 186.141C171.361 185.74 171.076 185.388 170.732 185.106C170.388 184.826 169.992 184.622 169.57 184.509C169.174 184.379 168.762 184.31 168.349 184.309H168.397Z" fill="#282828"/>
<path d="M148.272 32.9976H130.523C130.416 32.981 130.318 32.925 130.247 32.8395C130.175 32.754 130.136 32.6448 130.136 32.5319C130.136 32.4189 130.175 32.3099 130.247 32.2244C130.318 32.1389 130.416 32.0827 130.523 32.0664H148.244C148.351 32.0827 148.449 32.1389 148.52 32.2244C148.591 32.3099 148.63 32.4189 148.63 32.5319C148.63 32.6448 148.591 32.754 148.52 32.8395C148.449 32.925 148.351 32.981 148.244 32.9976H148.272Z" fill="#D1D3D4"/>
<path d="M0.689209 216.328H293.867" stroke="#D1D3D4"/>
</g>
<defs>
<clipPath id="clip0_326_5317">
<rect width="294" height="217.145" fill="white" transform="translate(0 0.0195312)"/>
</clipPath>
</defs>
</svg>
