<?xml version="1.0" encoding="UTF-8"?> <svg xmlns="http://www.w3.org/2000/svg" width="30" height="31" viewBox="0 0 30 31" fill="none"> <g clip-path="url(#clip0_286_617)"> <path d="M26.4438 4.33023L23.5888 1.38148C23.2381 1.02144 22.8191 0.735034 22.3564 0.539061C21.8936 0.343087 21.3963 0.241492 20.8938 0.240234L15 0.240234C13.5597 0.242053 12.1642 0.740347 11.0484 1.65113C9.93273 2.56192 9.16512 3.8295 8.875 5.24023H8.75C7.09301 5.24222 5.50445 5.90134 4.33278 7.07301C3.1611 8.24468 2.50198 9.83324 2.5 11.4902V23.9902C2.50198 25.6472 3.1611 27.2358 4.33278 28.4075C5.50445 29.5791 7.09301 30.2382 8.75 30.2402H16.25C17.907 30.2382 19.4956 29.5791 20.6672 28.4075C21.8389 27.2358 22.498 25.6472 22.5 23.9902V23.8652C23.9107 23.5751 25.1783 22.8075 26.0891 21.6918C26.9999 20.5761 27.4982 19.1805 27.5 17.7402V6.94023C27.5019 5.96575 27.1228 5.02913 26.4438 4.33023ZM16.25 27.7402H8.75C7.75544 27.7402 6.80161 27.3451 6.09835 26.6419C5.39509 25.9386 5 24.9848 5 23.9902V11.4902C5 10.4957 5.39509 9.54184 6.09835 8.83858C6.80161 8.13532 7.75544 7.74023 8.75 7.74023V17.7402C8.75199 19.3972 9.4111 20.9858 10.5828 22.1575C11.7544 23.3291 13.343 23.9882 15 23.9902H20C20 24.9848 19.6049 25.9386 18.9017 26.6419C18.1984 27.3451 17.2446 27.7402 16.25 27.7402ZM21.25 21.4902H15C14.0054 21.4902 13.0516 21.0951 12.3484 20.3919C11.6451 19.6886 11.25 18.7348 11.25 17.7402V6.49023C11.25 5.49567 11.6451 4.54184 12.3484 3.83858C13.0516 3.13532 14.0054 2.74023 15 2.74023H20V5.24023C20 5.90327 20.2634 6.53916 20.7322 7.008C21.2011 7.47684 21.837 7.74023 22.5 7.74023H25V17.7402C25 18.7348 24.6049 19.6886 23.9017 20.3919C23.1984 21.0951 22.2446 21.4902 21.25 21.4902Z" fill="#E51E2F"></path> </g> <defs> <clipPath id="clip0_286_617"> <rect width="30" height="30" fill="white" transform="translate(0 0.240234)"></rect> </clipPath> </defs> </svg> 