<?xml version="1.0" encoding="UTF-8"?> <svg xmlns="http://www.w3.org/2000/svg" width="30" height="30" viewBox="0 0 30 30" fill="none"> <g clip-path="url(#clip0_286_608)"> <path d="M24.9998 15.0001C24.2329 15 23.4764 15.1765 22.7888 15.5159C22.1011 15.8554 21.501 16.3487 21.0348 16.9576L20.9473 16.9201C21.2911 15.8551 21.3426 14.7174 21.0965 13.6257C20.8504 12.534 20.3157 11.5284 19.5482 10.7139C18.7807 9.89946 17.8087 9.30599 16.7335 8.99551C15.6584 8.68502 14.5196 8.66891 13.436 8.94886L13.3223 8.73386C14.2303 7.92601 14.8125 6.81477 14.9598 5.60841C15.1071 4.40204 14.8095 3.18335 14.1226 2.18073C13.4357 1.17812 12.4068 0.46039 11.2287 0.162068C10.0505 -0.136255 8.80402 0.00530257 7.72277 0.560211C6.64152 1.11512 5.79974 2.04529 5.35519 3.17639C4.91064 4.3075 4.89384 5.5619 5.30792 6.70451C5.72201 7.84712 6.53857 8.79951 7.60457 9.38318C8.67056 9.96686 9.91282 10.1418 11.0985 9.87511L11.1898 10.0464C9.93986 11.0055 9.09902 12.402 8.8361 13.9554C8.57317 15.5089 8.90762 17.1043 9.77229 18.4214L7.41604 20.6251C6.351 20.0367 5.10793 19.8568 3.91978 20.1192C2.73162 20.3816 1.67993 21.0683 0.961783 22.0506C0.243633 23.0328 -0.0916874 24.2432 0.0186589 25.455C0.129005 26.6668 0.677444 27.7967 1.5612 28.6331C2.44496 29.4695 3.60338 29.9549 4.81939 29.9984C6.0354 30.0419 7.22553 29.6404 8.16677 28.8693C9.10801 28.0982 9.73575 27.0103 9.93236 25.8095C10.129 24.6087 9.88095 23.3774 9.23479 22.3464L11.5323 20.1989C12.7941 21.0423 14.3201 21.397 15.8246 21.1966C17.3291 20.9962 18.709 20.2544 19.706 19.1101L20.0548 19.2589C19.9035 20.2682 20.0647 21.2996 20.5167 22.2147C20.9688 23.1297 21.69 23.8845 22.5835 24.3777C23.4771 24.8708 24.5001 25.0787 25.5153 24.9734C26.5304 24.8682 27.4891 24.4548 28.2624 23.7887C29.0357 23.1227 29.5867 22.236 29.8414 21.2477C30.0961 20.2594 30.0422 19.2168 29.687 18.26C29.3318 17.3032 28.6923 16.478 27.8544 15.8953C27.0165 15.3125 26.0204 15.0002 24.9998 15.0001ZM7.49979 5.00011C7.49979 4.50565 7.64641 4.0223 7.92111 3.61118C8.19582 3.20006 8.58626 2.87962 9.04308 2.69041C9.4999 2.50119 10.0026 2.45168 10.4875 2.54814C10.9725 2.6446 11.4179 2.88271 11.7676 3.23234C12.1172 3.58197 12.3553 4.02743 12.4518 4.51238C12.5482 4.99733 12.4987 5.5 12.3095 5.95681C12.1203 6.41363 11.7998 6.80408 11.3887 7.07878C10.9776 7.35348 10.4942 7.50011 9.99979 7.50011C9.33675 7.50011 8.70086 7.23671 8.23202 6.76787C7.76318 6.29903 7.49979 5.66315 7.49979 5.00011ZM4.99979 27.5001C4.50533 27.5001 4.02198 27.3535 3.61086 27.0788C3.19974 26.8041 2.87931 26.4136 2.69009 25.9568C2.50087 25.5 2.45136 24.9973 2.54782 24.5124C2.64429 24.0274 2.88239 23.582 3.23202 23.2323C3.58165 22.8827 4.02711 22.6446 4.51206 22.5482C4.99701 22.4517 5.49968 22.5012 5.9565 22.6904C6.41331 22.8796 6.80376 23.2001 7.07846 23.6112C7.35317 24.0223 7.49979 24.5057 7.49979 25.0001C7.49979 25.6632 7.2364 26.299 6.76756 26.7679C6.29871 27.2367 5.66283 27.5001 4.99979 27.5001ZM14.9998 18.7501C14.1882 18.7485 13.3989 18.4837 12.7507 17.9953C12.1024 17.5069 11.6301 16.8214 11.4047 16.0417C11.1792 15.262 11.2129 14.4302 11.5005 13.6712C11.7881 12.9122 12.3142 12.2671 12.9998 11.8326L13.5085 11.5614C14.0197 11.339 14.5741 11.2334 15.1312 11.2523C15.6884 11.2711 16.2343 11.414 16.7293 11.6704C17.2243 11.9268 17.6559 12.2904 17.9927 12.7346C18.3295 13.1788 18.563 13.6926 18.6762 14.2384C18.7894 14.7843 18.7795 15.3485 18.6472 15.89C18.5149 16.4316 18.2636 16.9368 17.9114 17.369C17.5593 17.8011 17.1152 18.1493 16.6115 18.3883C16.1079 18.6272 15.5573 18.7508 14.9998 18.7501ZM24.9998 22.5001C24.5053 22.5001 24.022 22.3535 23.6109 22.0788C23.1997 21.8041 22.8793 21.4136 22.6901 20.9568C22.5009 20.5 22.4514 19.9973 22.5478 19.5124C22.6443 19.0274 22.8824 18.582 23.232 18.2323C23.5817 17.8827 24.0271 17.6446 24.5121 17.5481C24.997 17.4517 25.4997 17.5012 25.9565 17.6904C26.4133 17.8796 26.8038 18.2001 27.0785 18.6112C27.3532 19.0223 27.4998 19.5057 27.4998 20.0001C27.4998 20.6632 27.2364 21.299 26.7676 21.7679C26.2987 22.2367 25.6628 22.5001 24.9998 22.5001Z" fill="#E51E2F"></path> </g> <defs> <clipPath id="clip0_286_608"> <rect width="30" height="30" fill="white"></rect> </clipPath> </defs> </svg> 