<?xml version="1.0" encoding="UTF-8"?> <svg xmlns="http://www.w3.org/2000/svg" width="30" height="30" viewBox="0 0 30 30" fill="none"> <path d="M26.075 13.5625C26.1827 13.2182 26.2416 12.8606 26.25 12.5V7.5C26.25 3.9375 20.875 1.25 13.75 1.25C6.625 1.25 1.25 3.9375 1.25 7.5V12.5C1.31891 13.3328 1.60125 14.1337 2.0698 14.8256C2.53836 15.5175 3.1773 16.0769 3.925 16.45C3.81023 16.7882 3.75113 17.1428 3.75 17.5V22.5C3.75 26.0625 9.125 28.75 16.25 28.75C23.375 28.75 28.75 26.0625 28.75 22.5V17.5C28.6826 16.6684 28.4007 15.8685 27.9319 15.1784C27.463 14.4883 26.8233 13.9315 26.075 13.5625ZM13.75 18.75C18.5625 18.75 22.575 17.5 24.675 15.625C25.675 16.225 26.25 16.875 26.25 17.5C26.25 19.025 22.35 21.25 16.25 21.25C10.15 21.25 6.3625 19.0875 6.25 17.5625C8.66319 18.3864 11.2003 18.7881 13.75 18.75ZM13.75 3.75C19.85 3.75 23.75 5.975 23.75 7.5C23.75 9.025 19.85 11.25 13.75 11.25C7.65 11.25 3.75 9.025 3.75 7.5C3.75 5.975 7.65 3.75 13.75 3.75ZM3.75 11.325C6.79023 13.0545 10.2553 13.8947 13.75 13.75C17.2447 13.8947 20.7098 13.0545 23.75 11.325V12.5C23.75 14.025 19.85 16.25 13.75 16.25C7.65 16.25 3.75 14.025 3.75 12.5V11.325ZM16.25 26.25C10.15 26.25 6.25 24.025 6.25 22.5V21.325C9.29023 23.0545 12.7553 23.8947 16.25 23.75C19.7447 23.8947 23.2098 23.0545 26.25 21.325V22.5C26.25 24.025 22.35 26.25 16.25 26.25Z" fill="#E51E2F"></path> </svg> 