<?xml version="1.0" encoding="UTF-8"?> <svg xmlns="http://www.w3.org/2000/svg" width="30" height="30" viewBox="0 0 30 30" fill="none"> <g clip-path="url(#clip0_286_632)"> <path d="M27.1704 20.5001C26.7506 19.2625 25.954 18.1872 24.8924 17.4251C23.8308 16.6629 22.5573 16.2521 21.2504 16.2501H16.2504V14.8951C18.1046 14.5817 19.7735 13.5831 20.9262 12.0973C22.0789 10.6114 22.6314 8.74677 22.4741 6.8728C22.3168 4.99884 21.4613 3.25234 20.0771 1.9794C18.6929 0.706468 16.8809 0 15.0004 0C13.1198 0 11.3079 0.706468 9.92367 1.9794C8.53944 3.25234 7.68392 4.99884 7.52666 6.8728C7.36939 8.74677 7.92186 10.6114 9.07458 12.0973C10.2273 13.5831 11.8961 14.5817 13.7504 14.8951V16.2501H8.75039C7.4435 16.2521 6.16999 16.6629 5.10836 17.4251C4.04673 18.1872 3.25018 19.2625 2.83039 20.5001C1.758 21.0175 0.905437 21.9005 0.42607 22.9904C-0.0532971 24.0803 -0.127997 25.3055 0.215409 26.4455C0.558815 27.5856 1.29778 28.5657 2.29937 29.2095C3.30096 29.8533 4.49941 30.1185 5.67913 29.9575C6.85885 29.7965 7.94238 29.2198 8.73479 28.3311C9.52721 27.4424 9.97649 26.3001 10.0018 25.1097C10.0271 23.9194 9.62681 22.759 8.87289 21.8375C8.11897 20.9159 7.06094 20.2936 5.88914 20.0826C6.24055 19.6659 6.67859 19.3308 7.17274 19.1007C7.66689 18.8705 8.20528 18.7509 8.75039 18.7501H13.7504V20.1589C12.5721 20.4631 11.5451 21.1866 10.8621 22.1939C10.1791 23.2011 9.88689 24.4228 10.0402 25.6301C10.1936 26.8374 10.782 27.9473 11.6951 28.7518C12.6082 29.5562 13.7834 30.0001 15.0004 30.0001C16.2174 30.0001 17.3925 29.5562 18.3057 28.7518C19.2188 27.9473 19.8072 26.8374 19.9605 25.6301C20.1139 24.4228 19.8217 23.2011 19.1386 22.1939C18.4556 21.1866 17.4287 20.4631 16.2504 20.1589V18.7501H21.2504C21.7952 18.7504 22.3334 18.8695 22.8275 19.099C23.3217 19.3284 23.7599 19.6628 24.1116 20.0788C22.9398 20.2899 21.8818 20.9122 21.1279 21.8337C20.374 22.7553 19.9737 23.9156 19.999 25.106C20.0243 26.2964 20.4736 27.4387 21.266 28.3273C22.0584 29.216 23.1419 29.7927 24.3216 29.9538C25.5014 30.1148 26.6998 29.8495 27.7014 29.2057C28.703 28.5619 29.442 27.5818 29.7854 26.4418C30.1288 25.3017 30.0541 24.0765 29.5747 22.9866C29.0953 21.8968 28.2428 21.0137 27.1704 20.4963V20.5001ZM10.0004 7.5001C10.0004 6.51119 10.2936 5.54449 10.843 4.72225C11.3924 3.9 12.1733 3.25914 13.087 2.8807C14.0006 2.50226 15.0059 2.40325 15.9758 2.59617C16.9457 2.7891 17.8367 3.2653 18.5359 3.96457C19.2352 4.66383 19.7114 5.55474 19.9043 6.52465C20.0972 7.49455 19.9982 8.49989 19.6198 9.41352C19.2413 10.3271 18.6005 11.108 17.7782 11.6574C16.956 12.2069 15.9893 12.5001 15.0004 12.5001C13.6743 12.5001 12.4025 11.9733 11.4649 11.0356C10.5272 10.098 10.0004 8.82618 10.0004 7.5001ZM7.50039 25.0001C7.50039 25.4946 7.35376 25.9779 7.07906 26.389C6.80436 26.8001 6.41391 27.1206 5.9571 27.3098C5.50028 27.499 4.99761 27.5485 4.51266 27.4521C4.02771 27.3556 3.58225 27.1175 3.23262 26.7679C2.88299 26.4182 2.64489 25.9728 2.54842 25.4878C2.45196 25.0029 2.50147 24.5002 2.69069 24.0434C2.87991 23.5866 3.20034 23.1961 3.61146 22.9214C4.02258 22.6467 4.50593 22.5001 5.00039 22.5001C5.66343 22.5001 6.29931 22.7635 6.76815 23.2323C7.23699 23.7012 7.50039 24.3371 7.50039 25.0001ZM17.5004 25.0001C17.5004 25.4946 17.3538 25.9779 17.0791 26.389C16.8044 26.8001 16.4139 27.1206 15.9571 27.3098C15.5003 27.499 14.9976 27.5485 14.5127 27.4521C14.0277 27.3556 13.5823 27.1175 13.2326 26.7679C12.883 26.4182 12.6449 25.9728 12.5484 25.4878C12.452 25.0029 12.5015 24.5002 12.6907 24.0434C12.8799 23.5866 13.2003 23.1961 13.6115 22.9214C14.0226 22.6467 14.5059 22.5001 15.0004 22.5001C15.6634 22.5001 16.2993 22.7635 16.7682 23.2323C17.237 23.7012 17.5004 24.3371 17.5004 25.0001ZM25.0004 27.5001C24.5059 27.5001 24.0226 27.3535 23.6115 27.0788C23.2003 26.8041 22.8799 26.4136 22.6907 25.9568C22.5015 25.5 22.452 24.9973 22.5484 24.5124C22.6449 24.0274 22.883 23.582 23.2326 23.2323C23.5822 22.8827 24.0277 22.6446 24.5127 22.5481C24.9976 22.4517 25.5003 22.5012 25.9571 22.6904C26.4139 22.8796 26.8044 23.2001 27.0791 23.6112C27.3538 24.0223 27.5004 24.5056 27.5004 25.0001C27.5004 25.6631 27.237 26.299 26.7682 26.7679C26.2993 27.2367 25.6634 27.5001 25.0004 27.5001Z" fill="#E51E2F"></path> </g> <defs> <clipPath id="clip0_286_632"> <rect width="30" height="30" fill="white"></rect> </clipPath> </defs> </svg> 