<?xml version="1.0" encoding="UTF-8"?> <svg xmlns="http://www.w3.org/2000/svg" width="30" height="30" viewBox="0 0 30 30" fill="none"> <g clip-path="url(#clip0_286_612)"> <path d="M18.75 30H11.25V25.6087C9.94661 25.1476 8.73936 24.4501 7.68879 23.5512L3.88379 25.75L0.133789 19.25L3.93754 17.0562C3.68768 15.6968 3.68768 14.3032 3.93754 12.9437L0.133789 10.75L3.88379 4.25L7.68879 6.44875C8.73936 5.54991 9.94661 4.85242 11.25 4.39125V0H18.75V4.39125C20.0535 4.85242 21.2607 5.54991 22.3113 6.44875L26.1163 4.25L29.8663 10.75L26.0625 12.9437C26.3124 14.3032 26.3124 15.6968 26.0625 17.0562L29.8663 19.25L26.1163 25.75L22.3113 23.5525C21.2606 24.4509 20.0534 25.1479 18.75 25.6087V30ZM13.75 27.5H16.25V23.7162L17.1888 23.4737C18.7288 23.0748 20.1305 22.2626 21.2425 21.125L21.9213 20.4337L25.2 22.3275L26.45 20.1625L23.175 18.2712L23.4325 17.3387C23.8558 15.8049 23.8558 14.1851 23.4325 12.6512L23.175 11.7187L26.45 9.8275L25.2 7.6625L21.9213 9.56125L21.2425 8.875C20.1299 7.73918 18.7283 6.92877 17.1888 6.53125L16.25 6.28375V2.5H13.75V6.28375L12.8113 6.52625C11.2713 6.92519 9.86955 7.73735 8.75754 8.875L8.07879 9.56625L4.80004 7.6675L3.55004 9.8325L6.82504 11.7237L6.56754 12.6562C6.14424 14.1901 6.14424 15.8099 6.56754 17.3437L6.82504 18.2762L3.55004 20.1675L4.80004 22.3325L8.07879 20.4387L8.75754 21.13C9.87015 22.2658 11.2718 23.0762 12.8113 23.4737L13.75 23.7162V27.5ZM15 20C14.0111 20 13.0444 19.7067 12.2222 19.1573C11.3999 18.6079 10.7591 17.827 10.3806 16.9134C10.0022 15.9998 9.90319 14.9944 10.0961 14.0245C10.289 13.0546 10.7652 12.1637 11.4645 11.4645C12.1638 10.7652 13.0547 10.289 14.0246 10.0961C14.9945 9.90314 15.9998 10.0022 16.9135 10.3806C17.8271 10.759 18.608 11.3999 19.1574 12.2221C19.7068 13.0444 20 14.0111 20 15C20 16.3261 19.4733 17.5978 18.5356 18.5355C17.5979 19.4732 16.3261 20 15 20ZM15 12.5C14.5056 12.5 14.0222 12.6466 13.6111 12.9213C13.2 13.196 12.8796 13.5865 12.6903 14.0433C12.5011 14.5001 12.4516 15.0028 12.5481 15.4877C12.6445 15.9727 12.8826 16.4181 13.2323 16.7678C13.5819 17.1174 14.0274 17.3555 14.5123 17.452C14.9973 17.5484 15.4999 17.4989 15.9567 17.3097C16.4136 17.1205 16.804 16.8 17.0787 16.3889C17.3534 15.9778 17.5 15.4944 17.5 15C17.5 14.337 17.2366 13.7011 16.7678 13.2322C16.299 12.7634 15.6631 12.5 15 12.5Z" fill="#E73343"></path> </g> <defs> <clipPath id="clip0_286_612"> <rect width="30" height="30" fill="white"></rect> </clipPath> </defs> </svg> 