<?xml version="1.0" encoding="UTF-8"?> <svg xmlns="http://www.w3.org/2000/svg" width="30" height="31" viewBox="0 0 30 31" fill="none"> <g clip-path="url(#clip0_286_636)"> <path d="M23.75 30.7598H22.5C22.1685 30.7598 21.8505 30.6281 21.6161 30.3937C21.3817 30.1592 21.25 29.8413 21.25 29.5098C21.25 29.1782 21.3817 28.8603 21.6161 28.6259C21.8505 28.3915 22.1685 28.2598 22.5 28.2598H23.75C24.7446 28.2598 25.6984 27.8647 26.4017 27.1614C27.1049 26.4582 27.5 25.5043 27.5 24.5098V23.2598C27.5 22.9282 27.6317 22.6103 27.8661 22.3759C28.1005 22.1415 28.4185 22.0098 28.75 22.0098C29.0815 22.0098 29.3995 22.1415 29.6339 22.3759C29.8683 22.6103 30 22.9282 30 23.2598V24.5098C29.998 26.1668 29.3389 27.7553 28.1672 28.927C26.9956 30.0987 25.407 30.7578 23.75 30.7598ZM30 8.25977V7.00977C29.998 5.35277 29.3389 3.76421 28.1672 2.59254C26.9956 1.42087 25.407 0.76175 23.75 0.759766L22.5 0.759766C22.1685 0.759766 21.8505 0.891462 21.6161 1.12588C21.3817 1.3603 21.25 1.67825 21.25 2.00977C21.25 2.34129 21.3817 2.65923 21.6161 2.89365C21.8505 3.12807 22.1685 3.25977 22.5 3.25977H23.75C24.7446 3.25977 25.6984 3.65485 26.4017 4.35812C27.1049 5.06138 27.5 6.0152 27.5 7.00977V8.25977C27.5 8.59129 27.6317 8.90923 27.8661 9.14365C28.1005 9.37807 28.4185 9.50977 28.75 9.50977C29.0815 9.50977 29.3995 9.37807 29.6339 9.14365C29.8683 8.90923 30 8.59129 30 8.25977ZM8.75 29.5098C8.75 29.1782 8.6183 28.8603 8.38388 28.6259C8.14946 28.3915 7.83152 28.2598 7.5 28.2598H6.25C5.25544 28.2598 4.30161 27.8647 3.59835 27.1614C2.89509 26.4582 2.5 25.5043 2.5 24.5098V23.2598C2.5 22.9282 2.3683 22.6103 2.13388 22.3759C1.89946 22.1415 1.58152 22.0098 1.25 22.0098C0.918479 22.0098 0.600537 22.1415 0.366117 22.3759C0.131696 22.6103 0 22.9282 0 23.2598L0 24.5098C0.00198482 26.1668 0.661102 27.7553 1.83277 28.927C3.00445 30.0987 4.59301 30.7578 6.25 30.7598H7.5C7.83152 30.7598 8.14946 30.6281 8.38388 30.3937C8.6183 30.1592 8.75 29.8413 8.75 29.5098ZM2.5 8.25977V7.00977C2.5 6.0152 2.89509 5.06138 3.59835 4.35812C4.30161 3.65485 5.25544 3.25977 6.25 3.25977H7.5C7.83152 3.25977 8.14946 3.12807 8.38388 2.89365C8.6183 2.65923 8.75 2.34129 8.75 2.00977C8.75 1.67825 8.6183 1.3603 8.38388 1.12588C8.14946 0.891462 7.83152 0.759766 7.5 0.759766H6.25C4.59301 0.76175 3.00445 1.42087 1.83277 2.59254C0.661102 3.76421 0.00198482 5.35277 0 7.00977L0 8.25977C0 8.59129 0.131696 8.90923 0.366117 9.14365C0.600537 9.37807 0.918479 9.50977 1.25 9.50977C1.58152 9.50977 1.89946 9.37807 2.13388 9.14365C2.3683 8.90923 2.5 8.59129 2.5 8.25977ZM20 15.7598C20 14.7709 19.7068 13.8042 19.1573 12.9819C18.6079 12.1597 17.827 11.5188 16.9134 11.1404C15.9998 10.7619 14.9945 10.6629 14.0245 10.8558C13.0546 11.0488 12.1637 11.525 11.4645 12.2242C10.7652 12.9235 10.289 13.8144 10.0961 14.7843C9.90315 15.7542 10.0022 16.7596 10.3806 17.6732C10.759 18.5868 11.3999 19.3677 12.2221 19.9171C13.0444 20.4665 14.0111 20.7598 15 20.7598C16.3261 20.7598 17.5979 20.233 18.5355 19.2953C19.4732 18.3576 20 17.0858 20 15.7598ZM17.5 15.7598C17.5 16.2542 17.3534 16.7376 17.0787 17.1487C16.804 17.5598 16.4135 17.8802 15.9567 18.0695C15.4999 18.2587 14.9972 18.3082 14.5123 18.2117C14.0273 18.1153 13.5819 17.8772 13.2322 17.5275C12.8826 17.1779 12.6445 16.7324 12.548 16.2475C12.4516 15.7625 12.5011 15.2599 12.6903 14.8031C12.8795 14.3462 13.2 13.9558 13.6111 13.6811C14.0222 13.4064 14.5055 13.2598 15 13.2598C15.663 13.2598 16.2989 13.5232 16.7678 13.992C17.2366 14.4608 17.5 15.0967 17.5 15.7598Z" fill="#E51E2F"></path> </g> <defs> <clipPath id="clip0_286_636"> <rect width="30" height="30" fill="white" transform="translate(0 0.759766)"></rect> </clipPath> </defs> </svg> 