<svg width="16" height="16" viewBox="0 0 16 16" fill="none" xmlns="http://www.w3.org/2000/svg">
<rect x="0.5" y="0.5" width="15" height="15" rx="7.5" fill="#C2C2C3"/>
<path d="M6.544 9.44C6.544 9.176 6.584 8.944 6.664 8.744C6.752 8.536 6.86 8.352 6.988 8.192C7.116 8.032 7.252 7.888 7.396 7.76C7.548 7.624 7.688 7.496 7.816 7.376C7.944 7.248 8.048 7.12 8.128 6.992C8.216 6.864 8.26 6.724 8.26 6.572C8.26 6.332 8.16 6.144 7.96 6.008C7.768 5.872 7.516 5.804 7.204 5.804C6.884 5.804 6.592 5.88 6.328 6.032C6.072 6.184 5.864 6.396 5.704 6.668L3.916 5.708C4.228 5.172 4.68 4.744 5.272 4.424C5.864 4.096 6.6 3.932 7.48 3.932C8.096 3.932 8.64 4.02 9.112 4.196C9.592 4.364 9.968 4.616 10.24 4.952C10.512 5.288 10.648 5.7 10.648 6.188C10.648 6.5 10.6 6.772 10.504 7.004C10.408 7.236 10.284 7.44 10.132 7.616C9.988 7.792 9.832 7.956 9.664 8.108C9.496 8.252 9.336 8.392 9.184 8.528C9.04 8.664 8.92 8.804 8.824 8.948C8.728 9.092 8.68 9.256 8.68 9.44H6.544ZM7.612 12.608C7.22 12.608 6.896 12.484 6.64 12.236C6.384 11.988 6.256 11.692 6.256 11.348C6.256 10.996 6.384 10.704 6.64 10.472C6.896 10.232 7.22 10.112 7.612 10.112C8.02 10.112 8.348 10.232 8.596 10.472C8.852 10.704 8.98 10.996 8.98 11.348C8.98 11.692 8.852 11.988 8.596 12.236C8.348 12.484 8.02 12.608 7.612 12.608Z" fill="white"/>
</svg>
