<?xml version="1.0" encoding="UTF-8"?> <svg xmlns="http://www.w3.org/2000/svg" width="30" height="30" viewBox="0 0 30 30" fill="none"> <g clip-path="url(#clip0_286_627)"> <path d="M23.75 0H6.25002C2.79996 0.00416016 0.00416016 2.79996 0 6.25002V23.75C0.00416016 27.2 2.79996 29.9959 6.25002 30H20.4288C22.0874 30.0047 23.679 29.3458 24.8488 28.17L28.1688 24.8475C29.3447 23.6782 30.0041 22.0871 30 20.4288V6.25002C29.9959 2.79996 27.2 0.00416016 23.75 0ZM2.50002 23.75V6.25002C2.50002 4.17896 4.17896 2.50002 6.25002 2.50002H23.75C25.8211 2.50002 27.5 4.17896 27.5 6.25002V18.75H22.5C20.4289 18.75 18.75 20.4289 18.75 22.5V27.5H6.25002C4.17891 27.5 2.50002 25.8211 2.50002 23.75ZM23.0813 26.4025C22.5788 26.9038 21.9434 27.2508 21.25 27.4025V22.5C21.25 21.8096 21.8096 21.25 22.5 21.25H27.4062C27.2516 21.9419 26.905 22.5762 26.4062 23.08L23.0813 26.4025Z" fill="#E51E2F"></path> <path d="M5.86114 11.5967C5.46054 11.5967 5.22222 11.1496 5.44559 10.817L6.39912 9.3974C6.70888 8.93623 6.70984 8.33374 6.40155 7.87158L5.49591 6.51396C5.27497 6.18276 5.51239 5.73899 5.91052 5.73899C6.07943 5.73899 6.23685 5.82454 6.32873 5.96628L6.53247 6.28057C6.99462 6.99348 8.0387 6.9913 8.49785 6.27645L8.69513 5.96932C8.78734 5.82577 8.94623 5.73899 9.11684 5.73899C9.51722 5.73899 9.75598 6.18526 9.5338 6.51834L8.63031 7.87274C8.32237 8.33436 8.32276 8.936 8.63128 9.39722L9.58433 10.822C9.80564 11.1528 9.56851 11.5967 9.17048 11.5967C9.00188 11.5967 8.84474 11.5114 8.7529 11.37L8.53953 11.0415C8.05909 10.3018 6.97649 10.301 6.49506 11.0401L6.28058 11.3694C6.18819 11.5112 6.0304 11.5967 5.86114 11.5967Z" fill="#E51E2F"></path> <path d="M12.6218 11.5967C11.6347 11.5967 10.8344 10.7965 10.8344 9.80934V6.23016C10.8344 5.95889 11.0544 5.73899 11.3256 5.73899C11.5969 5.73899 11.8168 5.95889 11.8168 6.23016V9.38118C11.8168 10.097 12.3971 10.6774 13.113 10.6774H13.9495C14.2034 10.6774 14.4092 10.8832 14.4092 11.137C14.4092 11.3909 14.2034 11.5967 13.9495 11.5967H12.6218Z" fill="#E51E2F"></path> <path d="M17.2723 11.7188C16.8429 11.7188 16.4557 11.6442 16.1106 11.495C15.7682 11.3459 15.4856 11.133 15.2627 10.8564C15.1494 10.7126 15.0574 10.5551 14.9866 10.3841C14.8724 10.1084 15.0828 9.82742 15.3778 9.78267C15.6523 9.74103 15.9015 9.92486 16.0522 10.1581C16.1426 10.2979 16.2571 10.4167 16.3959 10.5147C16.6676 10.7045 16.9801 10.7994 17.3334 10.7994C17.5426 10.7994 17.7397 10.7669 17.9244 10.7018C18.1092 10.6367 18.2587 10.5418 18.3728 10.417C18.4897 10.2923 18.5481 10.1391 18.5481 9.95736C18.5481 9.87601 18.5345 9.80143 18.5073 9.73363C18.4801 9.66312 18.4394 9.60075 18.385 9.54651C18.3334 9.49227 18.2655 9.44346 18.1812 9.40007C18.0997 9.35396 18.0046 9.31464 17.8959 9.2821L16.3796 8.83463C16.2492 8.79667 16.1079 8.7465 15.9557 8.68412C15.8062 8.61904 15.6636 8.5309 15.5277 8.41971C15.3945 8.30581 15.2845 8.16208 15.1975 7.98852C15.1133 7.81224 15.0712 7.59529 15.0712 7.33766C15.0712 6.9607 15.1663 6.64476 15.3565 6.38984C15.5494 6.13221 15.8076 5.93967 16.131 5.81221C16.457 5.68475 16.8185 5.62237 17.2152 5.62508C17.6174 5.6278 17.9761 5.69695 18.2913 5.83255C18.6065 5.96543 18.8701 6.15933 19.0821 6.41425C19.1818 6.53425 19.2678 6.66597 19.3398 6.80941C19.4767 7.08171 19.2762 7.38175 18.9759 7.43381C18.6962 7.4823 18.4418 7.28611 18.2723 7.05843C18.2563 7.03699 18.2396 7.01616 18.222 6.99596C18.0997 6.84951 17.9489 6.73832 17.7696 6.66239C17.5929 6.58646 17.4041 6.54578 17.203 6.54036C17.0073 6.53764 16.8253 6.56747 16.6568 6.62985C16.491 6.68951 16.3565 6.77629 16.2532 6.89019C16.1527 7.00409 16.1024 7.13698 16.1024 7.28884C16.1024 7.43257 16.1459 7.55054 16.2329 7.64275C16.3198 7.73224 16.4272 7.80411 16.5549 7.85834C16.6853 7.90987 16.8171 7.95326 16.9503 7.98852L18.0019 8.2814C18.1459 8.31937 18.3076 8.3709 18.4869 8.43598C18.6663 8.50107 18.8388 8.59192 19.0046 8.70853C19.1704 8.82514 19.3062 8.97836 19.4122 9.1682C19.5209 9.35803 19.5753 9.59939 19.5753 9.89228C19.5753 10.196 19.5114 10.4631 19.3837 10.6936C19.2587 10.9214 19.0888 11.1113 18.8742 11.2631C18.6595 11.415 18.4136 11.5289 18.1364 11.6049C17.8619 11.6808 17.5739 11.7188 17.2723 11.7188Z" fill="#E51E2F"></path> <path d="M20.6609 11.5967C20.2603 11.5967 20.022 11.1496 20.2453 10.817L21.1989 9.3974C21.5086 8.93623 21.5096 8.33374 21.2013 7.87158L20.2957 6.51396C20.0747 6.18276 20.3121 5.73899 20.7103 5.73899C20.8792 5.73899 21.0366 5.82454 21.1285 5.96627L21.3322 6.28057C21.7944 6.99348 22.8384 6.9913 23.2976 6.27645L23.4949 5.96932C23.5871 5.82577 23.746 5.73899 23.9166 5.73899C24.317 5.73899 24.5557 6.18526 24.3335 6.51834L23.43 7.87274C23.1221 8.33436 23.1225 8.936 23.431 9.39722L24.3841 10.822C24.6054 11.1528 24.3683 11.5967 23.9702 11.5967C23.8016 11.5967 23.6445 11.5114 23.5526 11.37L23.3393 11.0415C22.8588 10.3018 21.7762 10.301 21.2948 11.0401L21.0803 11.3694C20.9879 11.5112 20.8301 11.5967 20.6609 11.5967Z" fill="#E51E2F"></path> </g> <defs> <clipPath id="clip0_286_627"> <rect width="30" height="30" fill="white"></rect> </clipPath> </defs> </svg> 